<?xml version="1.0" standalone="no"?>
<!DOCTYPE svg PUBLIC "-//W3C//DTD SVG 1.1//EN" "http://www.w3.org/Graphics/SVG/1.1/DTD/svg11.dtd" >
<svg xmlns="http://www.w3.org/2000/svg" xmlns:xlink="http://www.w3.org/1999/xlink" version="1.1">
<metadata>
Created by FontForge 20170731 at Mon Nov 30 21:48:16 2020
 By Aleksey,,,
Copyright (c) Font Awesome
</metadata>
<defs>
<font id="FontAwesome5Pro-Light" horiz-adv-x="2048" >
  <font-face 
    font-family="Font Awesome 5 Pro Light"
    font-weight="300"
    font-stretch="normal"
    units-per-em="2048"
    panose-1="2 0 3 3 0 0 0 0 0 0"
    ascent="1792"
    descent="-256"
    x-height="1252"
    cap-height="1684"
    bbox="-112 -285 15968 1800"
    underline-thickness="100"
    underline-position="-304"
    unicode-range="U+0020-F976"
  />
<missing-glyph horiz-adv-x="1024" 
d="M100 0v1192h824v-1192h-824zM200 100h624v992h-624v-992z" />
    <glyph glyph-name="glass-martini" unicode="GLASS&#x2d;MARTINI" 
d="M2008 1562l-920 -921v-769h213q44 0 75.5 -31.5t31.5 -75.5q0 -9 -6 -15t-15 -6h-726q-9 0 -15 6t-6 15q0 44 31.5 75.5t75.5 31.5h213v769l-920 921q-31 31 -37.5 71.5t7.5 75.5t48 59t77 24h1778q43 0 77 -24t48 -59t7.5 -75.5t-37.5 -71.5zM1024 759l650 649l244 244
q3 3 1 8q-2 4 -6 4h-1778q-4 0 -6 -4q-2 -5 1 -8z" />
    <glyph glyph-name="music" unicode="Music" 
d="M1926 1792q50 0 86 -37t36 -91v-1344q0 -133 -112.5 -226.5t-271.5 -93.5t-271.5 93.5t-112.5 226.5t112.5 226.5t271.5 93.5q145 0 256 -83v595l-1152 -384v-704q0 -133 -112.5 -226.5t-271.5 -93.5t-271.5 93.5t-112.5 226.5t112.5 226.5t271.5 93.5q145 0 256 -83v979
q0 42 24 75.5t62 46.5l1163 384q20 6 37 6zM384 -128q104 0 180 57t76 135t-76 135t-180 57t-180 -57t-76 -135t76 -135t180 -57zM1664 128q104 0 180 57t76 135t-76 135t-180 57t-180 -57t-76 -135t76 -135t180 -57zM1920 1287v375l-1154 -382h2v-377z" />
    <glyph glyph-name="search" unicode="SEARCH" 
d="M2034 -134q14 -14 14 -34t-14 -34l-40 -40q-14 -14 -34 -14t-34 14l-516 516q-14 14 -14 34v41q-113 -105 -258 -163t-306 -58q-169 0 -323.5 66t-265.5 177t-177 265.5t-66 323.5t66 323.5t177 265.5t265.5 177t323.5 66t323.5 -66t265.5 -177t177 -265.5t66 -323.5
q0 -161 -58 -306t-163 -258h41q20 0 34 -14zM832 256q143 0 273.5 55.5t225 150t150 225t55.5 273.5t-55.5 273.5t-150 225t-225 150t-273.5 55.5t-273.5 -55.5t-225 -150t-150 -225t-55.5 -273.5t55.5 -273.5t150 -225t225 -150t273.5 -55.5z" />
    <glyph glyph-name="heart" unicode="HEART" 
d="M1849 1541q123 -105 171.5 -256.5t13.5 -306t-146 -268.5l-774 -799q-38 -39 -90 -39q-54 0 -91 39l-774 799q-111 114 -145.5 268.5t14 306t171.5 256.5q91 77 199.5 106t208.5 11.5t187.5 -62t150.5 -109.5l79 -81l79 81q153 158 367 175t379 -121zM1797 799
q78 81 109 195t-3 238t-137 212q-62 53 -134 75.5t-134.5 17t-123.5 -27.5t-105 -51t-74 -60l-171 -177l-171 177q-31 32 -74.5 61t-104 51t-123.5 27.5t-134.5 -17.5t-134.5 -76q-103 -88 -137 -212t-3 -238.5t109 -194.5l775 -799z" />
    <glyph glyph-name="star" unicode="STAR" horiz-adv-x="2304" 
d="M2112 1106q51 -7 81.5 -45.5t28.5 -87.5t-39 -85l-423 -412l100 -582q9 -51 -19 -92.5t-72.5 -52.5t-93.5 10l-523 275l-523 -275q-49 -21 -93.5 -10t-72.5 52.5t-19 92.5l100 582l-423 412q-37 36 -39 85t28.5 87.5t81.5 45.5l584 85l261 530q23 46 69 63.5t92 0
t69 -63.5l261 -530zM1623 520l471 460l-651 94l-291 590l-291 -590l-651 -94l471 -460l-111 -648l582 306l582 -306z" />
    <glyph glyph-name="user" unicode="USER" horiz-adv-x="1792" 
d="M1254 640q146 0 270 -72t196 -196t72 -270v-166q0 -80 -56 -136t-136 -56h-1408q-80 0 -136 56t-56 136v166q0 146 72 270t196 196t270 72q46 0 97 -16t116 -32t145 -16t145 16t116 32t97 16zM1664 -64v166q0 111 -55 205.5t-149.5 149.5t-205.5 55q-29 0 -77.5 -16
t-120.5 -32t-160 -16t-160 16t-120.5 32t-77.5 16q-111 0 -205.5 -55t-149.5 -149.5t-55 -205.5v-166q0 -26 19 -45t45 -19h1408q26 0 45 19t19 45zM896 768q-212 0 -362 150t-150 362t150 362t362 150t362 -150t150 -362t-150 -362t-362 -150zM896 1664
q-159 0 -271.5 -112.5t-112.5 -271.5t112.5 -271.5t271.5 -112.5t271.5 112.5t112.5 271.5t-112.5 271.5t-271.5 112.5z" />
    <glyph glyph-name="film" unicode="FILM" 
d="M1952 1536q40 0 68 -28t28 -68v-1344q0 -40 -28 -68t-68 -28h-32v80q0 20 -14 34t-34 14h-160q-20 0 -34 -14t-14 -34v-80h-1280v80q0 20 -14 34t-34 14h-160q-20 0 -34 -14t-14 -34v-80h-32q-40 0 -68 28t-28 68v1344q0 40 28 68t68 28h32v-80q0 -20 14 -34t34 -14h160
q20 0 34 14t14 34v80h1280v-80q0 -20 14 -34t34 -14h160q20 0 34 14t14 34v80h32zM384 304v160q0 20 -14 34t-34 14h-160q-20 0 -34 -14t-14 -34v-160q0 -20 14 -34t34 -14h160q20 0 34 14t14 34zM384 688v160q0 20 -14 34t-34 14h-160q-20 0 -34 -14t-14 -34v-160
q0 -20 14 -34t34 -14h160q20 0 34 14t14 34zM384 1072v160q0 20 -14 34t-34 14h-160q-20 0 -34 -14t-14 -34v-160q0 -20 14 -34t34 -14h160q20 0 34 14t14 34zM1536 176v480q0 20 -14 34t-34 14h-928q-20 0 -34 -14t-14 -34v-480q0 -20 14 -34t34 -14h928q20 0 34 14t14 34z
M1536 880v480q0 20 -14 34t-34 14h-928q-20 0 -34 -14t-14 -34v-480q0 -20 14 -34t34 -14h928q20 0 34 14t14 34zM1920 304v160q0 20 -14 34t-34 14h-160q-20 0 -34 -14t-14 -34v-160q0 -20 14 -34t34 -14h160q20 0 34 14t14 34zM1920 688v160q0 20 -14 34t-34 14h-160
q-20 0 -34 -14t-14 -34v-160q0 -20 14 -34t34 -14h160q20 0 34 14t14 34zM1920 1072v160q0 20 -14 34t-34 14h-160q-20 0 -34 -14t-14 -34v-160q0 -20 14 -34t34 -14h160q20 0 34 14t14 34z" />
    <glyph glyph-name="th-large" unicode="TH&#x2d;LARGE" 
d="M0 1472q0 80 56 136t136 56h1664q80 0 136 -56t56 -136v-1408q0 -80 -56 -136t-136 -56h-1664q-80 0 -136 56t-56 136v1408zM960 1536h-768q-26 0 -45 -19t-19 -45v-640h832v704zM128 64q0 -26 19 -45t45 -19h768v704h-832v-640zM1088 0h768q26 0 45 19t19 45v640h-832
v-704zM1920 832v640q0 26 -19 45t-45 19h-768v-704h832z" />
    <glyph glyph-name="th" unicode="TH" 
d="M0 1472q0 80 56 136t136 56h1664q80 0 136 -56t56 -136v-1408q0 -80 -56 -136t-136 -56h-1664q-80 0 -136 56t-56 136v1408zM1280 1536h-512v-427h512v427zM1920 555v426h-512v-426h512zM1280 555v426h-512v-426h512zM128 981v-426h512v426h-512zM640 1536h-448
q-26 0 -45 -19t-19 -45v-363h512v427zM128 64q0 -26 19 -45t45 -19h448v427h-512v-363zM768 0h512v427h-512v-427zM1408 0h448q26 0 45 19t19 45v363h-512v-427zM1920 1109v363q0 26 -19 45t-45 19h-448v-427h512z" />
    <glyph glyph-name="th-list" unicode="Th&#x2d;list" 
d="M0 1472q0 80 56 136t136 56h1664q80 0 136 -56t56 -136v-1408q0 -80 -56 -136t-136 -56h-1664q-80 0 -136 56t-56 136v1408zM1920 1472q0 26 -19 45t-45 19h-1088v-427h1152v363zM1920 555v426h-1152v-426h1152zM128 981v-426h512v426h-512zM640 1536h-448q-26 0 -45 -19
t-19 -45v-363h512v427zM128 64q0 -26 19 -45t45 -19h448v427h-512v-363zM768 0h1088q26 0 45 19t19 45v363h-1152v-427z" />
    <glyph glyph-name="check" unicode="CHECK" horiz-adv-x="1792" 
d="M1654 1424q14 14 34 14t34 -14l45 -45q14 -14 14 -34t-14 -34l-1199 -1199q-14 -14 -34 -14t-34 14l-475 475q-14 14 -14 34t14 34l45 45q14 14 34 14t34 -14l396 -396z" />
    <glyph glyph-name="times" unicode="Times" horiz-adv-x="1280" 
d="M776 768l495 -495q9 -9 9 -22.5t-9 -22.5l-91 -91q-9 -9 -22.5 -9t-22.5 9l-85 85l-410 410l-495 -495q-9 -9 -22.5 -9t-22.5 9l-91 91q-9 9 -9 22.5t9 22.5l495 495l-495 495q-9 9 -9 22.5t9 22.5l91 91q9 9 22.5 9t22.5 -9l495 -495l495 495q9 9 22.5 9t22.5 -9l91 -91
q9 -9 9 -22.5t-9 -22.5l-85 -85z" />
    <glyph glyph-name="search-plus" unicode="Search&#x2d;plus" 
d="M1279 976v-32q0 -20 -14.5 -34t-33.5 -14h-336v-336q0 -20 -14.5 -34t-33.5 -14h-32q-19 0 -33.5 14t-14.5 34v336h-336q-19 0 -33.5 14t-14.5 34v32q0 20 14.5 34t33.5 14h336v336q0 20 14.5 34t33.5 14h32q19 0 33.5 -14t14.5 -34v-336h336q19 0 33.5 -14t14.5 -34z
M2033 -196l-45 -45q-14 -14 -34 -14t-34 14l-516 516q-14 14 -14 34v34q-113 -102 -256.5 -158.5t-301.5 -56.5q-168 0 -321 64.5t-264.5 174t-178 262t-68.5 320.5q-2 172 64 329.5t179 270.5t270.5 179t329.5 64q168 -2 320.5 -68.5t262 -178t174 -264.5t64.5 -321
q0 -158 -56.5 -301.5t-158.5 -256.5h34q20 0 34 -14l516 -516q14 -14 14 -34t-14 -34zM1536 960q0 143 -55.5 273.5t-150 225t-225 150t-273.5 55.5t-273.5 -55.5t-225 -150t-150 -225t-55.5 -273.5t55.5 -273.5t150 -225t225 -150t273.5 -55.5t273.5 55.5t225 150t150 225
t55.5 273.5z" />
    <glyph glyph-name="search-minus" unicode="SEARCH&#x2d;MINUS" 
d="M1231 897h-800q-19 0 -33.5 14.5t-14.5 33.5v32q0 19 14.5 33.5t33.5 14.5h800q19 0 33.5 -14.5t14.5 -33.5v-32q0 -19 -14.5 -33.5t-33.5 -14.5zM2033 -196l-45 -45q-14 -14 -34 -14t-34 14l-516 516q-14 14 -14 34v34q-113 -102 -256.5 -158.5t-301.5 -56.5
q-168 0 -321 64.5t-264.5 174t-178 262t-68.5 320.5q-2 172 64 329.5t179 270.5t270.5 179t329.5 64q168 -2 320.5 -68.5t262 -178t174 -264.5t64.5 -321q0 -158 -56.5 -301.5t-158.5 -256.5h34q20 0 34 -14l516 -516q14 -14 14 -34t-14 -34zM1536 960q0 143 -55.5 273.5
t-150 225t-225 150t-273.5 55.5t-273.5 -55.5t-225 -150t-150 -225t-55.5 -273.5t55.5 -273.5t150 -225t225 -150t273.5 -55.5t273.5 55.5t225 150t150 225t55.5 273.5z" />
    <glyph glyph-name="power-off" unicode="POWER&#x2d;OFF" 
d="M1554 1607q212 -134 337 -356.5t125 -482.5q0 -202 -78.5 -385.5t-211 -316t-315.5 -211.5t-385 -79q-201 0 -385 78.5t-317 211t-212.5 316t-79.5 384.5q0 261 125 484t337 357q17 11 37 6t31 -23l15 -28q9 -16 4.5 -35t-20.5 -29q-184 -118 -292.5 -311t-108.5 -419
q0 -177 68.5 -337t184.5 -275.5t276 -183.5t335 -68q177 0 337 68.5t275.5 184.5t183.5 276t68 335q0 227 -108.5 420t-292.5 310q-16 10 -21 29t4 35l16 28q10 18 30.5 23t37.5 -6zM1088 688q0 -20 -14 -34t-34 -14h-32q-20 0 -34 14t-14 34v1056q0 20 14 34t34 14h32
q20 0 34 -14t14 -34v-1056z" />
    <glyph glyph-name="signal" unicode="SIGNAL" horiz-adv-x="2560" 
d="M832 640q14 0 23 -9t9 -23v-832q0 -14 -9 -23t-23 -9h-128q-14 0 -23 9t-9 23v832q0 14 9 23t23 9h128zM320 256q14 0 23 -9t9 -23v-448q0 -14 -9 -23t-23 -9h-128q-14 0 -23 9t-9 23v448q0 14 9 23t23 9h128zM1344 1024q14 0 23 -9t9 -23v-1216q0 -14 -9 -23t-23 -9
h-128q-14 0 -23 9t-9 23v1216q0 14 9 23t23 9h128zM1856 1408q14 0 23 -9t9 -23v-1600q0 -14 -9 -23t-23 -9h-128q-14 0 -23 9t-9 23v1600q0 14 9 23t23 9h128zM2368 1792q14 0 23 -9t9 -23v-1984q0 -14 -9 -23t-23 -9h-128q-14 0 -23 9t-9 23v1984q0 14 9 23t23 9h128z" />
    <glyph glyph-name="cog" unicode="COG" 
d="M1931 595q29 -17 41.5 -48t2.5 -62q-67 -226 -230 -398q-23 -24 -56 -29t-62 11l-130 76q-77 -59 -170 -98v-151q0 -34 -20.5 -59.5t-52.5 -33.5q-230 -55 -460 0q-32 8 -52.5 33.5t-20.5 59.5v151q-93 39 -170 98l-130 -76q-29 -16 -62 -11t-56 29q-163 172 -230 398
q-10 31 2.5 62t41.5 48l131 75q-6 54 -6 98t6 98l-131 75q-29 17 -41.5 48t-2.5 62q67 226 230 398q23 24 56 29t62 -11l130 -76q77 59 170 98v151q0 34 20.5 59.5t52.5 33.5q230 55 460 0q32 -8 52.5 -33.5t20.5 -59.5v-151q93 -39 170 -98l130 76q29 16 62 11t56 -29
q163 -172 230 -398q10 -31 -2.5 -62t-41.5 -48l-131 -75q6 -54 6 -98t-6 -98zM1669 193q120 133 176 304l-186 107q19 107 19 164.5t-19 163.5l186 107q-56 171 -176 304l-185 -107q-81 70 -131.5 99t-153.5 65v214q-86 18 -175 18t-175 -18v-214q-102 -36 -152.5 -65
t-132.5 -99l-185 107q-120 -133 -176 -304l186 -107q-19 -106 -19 -164t19 -164l-186 -107q56 -171 176 -304l185 107q82 -70 132 -98.5t153 -65.5v-214q86 -18 175 -18t175 18v214q103 37 153.5 66t131.5 98zM1024 1152q159 0 271.5 -112.5t112.5 -271.5t-112.5 -271.5
t-271.5 -112.5t-271.5 112.5t-112.5 271.5t112.5 271.5t271.5 112.5zM1024 512q106 0 181 75t75 181t-75 181t-181 75t-181 -75t-75 -181t75 -181t181 -75z" />
    <glyph glyph-name="home" unicode="HOME" horiz-adv-x="2304" 
d="M2164 875q12 -9 12 -25q0 -11 -7 -20l-41 -49q-9 -12 -24 -12q-12 0 -21 7l-163 134v-973q0 -26 -19 -45t-45 -19l-512 -1q-26 0 -45 19t-19 45v512l-256 2v-512q0 -26 -19 -45t-45 -19h-512q-26 0 -45 19t-19 45v972l-163 -134q-9 -7 -20 -7q-16 0 -25 12l-41 49
q-7 9 -7 21q0 15 12 24l931 760q36 29 81 29t81 -29l559 -456v205q0 10 7 17t17 7h80q10 0 17 -7t7 -17v-309zM1792 1v1013l-640 522l-640 -522v-1013h384v513q0 26 19 45t45 19l384 -2q26 0 45 -19t19 -45v-512z" />
    <glyph glyph-name="clock" unicode="CLOCK" 
d="M1024 1760q202 0 385.5 -78.5t316.5 -211.5t211.5 -316.5t78.5 -385.5t-78.5 -385.5t-211.5 -316.5t-316.5 -211.5t-385.5 -78.5t-385.5 78.5t-316.5 211.5t-211.5 316.5t-78.5 385.5t78.5 385.5t211.5 316.5t316.5 211.5t385.5 78.5zM1888 768q0 177 -68.5 337
t-184.5 275.5t-276 183.5t-335 68q-177 0 -337 -68.5t-275.5 -184.5t-183.5 -276t-68 -335q0 -177 68.5 -337t184.5 -275.5t276 -183.5t335 -68q177 0 337 68.5t275.5 184.5t183.5 276t68 335zM1292 415l-324 236q-20 15 -20 39v638q0 20 14 34t34 14h56q20 0 34 -14t14 -34
v-585l282 -205q16 -12 19 -32t-9 -36l-32 -45q-12 -16 -31.5 -19t-36.5 9z" />
    <glyph glyph-name="road" unicode="ROAD" horiz-adv-x="2304" 
d="M1118 1024q-17 0 -29 16t-10 37l15 174q1 12 8.5 20.5t17.5 8.5h64q10 0 17.5 -8.5t8.5 -20.5l15 -174q2 -21 -10 -37t-29 -16h-68zM1094 576q-23 0 -38.5 21t-13.5 50l16 192q2 25 17 41t35 16h84q20 0 35 -16t17 -41l16 -192q2 -29 -13.5 -50t-38.5 -21h-116z
M1136 1408q-12 0 -19.5 10.5t-6.5 24.5l6 64q1 12 8.5 20.5t17.5 8.5h20q10 0 17.5 -8.5t8.5 -20.5l6 -64q1 -14 -6.5 -24.5t-19.5 -10.5h-32zM1232 448q20 0 35 -16t17 -41l28 -320q2 -29 -13.5 -50t-38.5 -21h-216q-23 0 -38.5 21t-13.5 50l28 320q2 25 17 41t35 16h160z
M629 1536q16 0 25.5 -13t5.5 -28l-422 -1449q-6 -20 -23.5 -33t-38.5 -13h-112q-34 0 -53.5 28.5t-5.5 60.5l595 1427q9 20 29 20zM2299 89q14 -32 -5.5 -60.5t-53.5 -28.5h-112q-20 0 -38 13.5t-23 32.5l-423 1449q-4 15 5.5 28t25.5 13q20 0 29 -20z" />
    <glyph glyph-name="download" unicode="DOWNLOAD" 
d="M1808 64q0 -33 -23.5 -56.5t-56.5 -23.5t-56.5 23.5t-23.5 56.5t23.5 56.5t56.5 23.5t56.5 -23.5t23.5 -56.5zM1472 144q33 0 56.5 -23.5t23.5 -56.5t-23.5 -56.5t-56.5 -23.5t-56.5 23.5t-23.5 56.5t23.5 56.5t56.5 23.5zM2048 336v-416q0 -73 -51.5 -124.5
t-124.5 -51.5h-1696q-73 0 -124.5 51.5t-51.5 124.5v416q0 73 51.5 124.5t124.5 51.5h398l-226 226q-37 37 -44.5 85.5t9.5 89.5t57 69.5t91 28.5h211v621q0 66 47 113t113 47h384q66 0 113 -47t47 -113v-621h211q51 0 91 -28.5t57 -69.5t9 -89.5t-44 -85.5l-226 -226h398
q73 0 124.5 -51.5t51.5 -124.5zM1001 265q9 -9 22.5 -9t22.5 9l563 563q15 15 7 35t-30 20h-338v749q0 14 -9 23t-23 9h-384q-14 0 -23 -9t-9 -23v-749h-339q-21 0 -29.5 -20t6.5 -35zM1920 336q0 20 -14 34t-34 14h-526l-209 -209q-47 -47 -113 -47t-113 47l-209 209h-526
q-20 0 -34 -14t-14 -34v-416q0 -20 14 -34t34 -14h1696q20 0 34 14t14 34v416z" />
    <glyph glyph-name="inbox" unicode="INBOX" horiz-adv-x="2304" 
d="M2267 882q15 -21 26 -54t11 -58v-578q0 -80 -56 -136t-136 -56h-1920q-80 0 -136 56t-56 136v578q0 25 11 58t26 54l417 575q24 33 69.5 56t86.5 23h1084q41 0 86.5 -23t69.5 -56zM558 1382l-353 -486h546l128 -256h546l128 256h546l-353 486q-18 26 -52 26h-1084
q-33 0 -52 -26zM2176 704q0 26 -19 45t-45 19h-480l-128 -256h-704l-128 256h-480q-26 0 -45 -19t-19 -45v-512q0 -26 19 -45t45 -19h1920q26 0 45 19t19 45v512z" />
    <glyph glyph-name="redo" unicode="Redo" 
d="M1968 1760q20 0 34 -14t14 -34v-640q0 -20 -14 -34t-34 -14h-640q-20 0 -34 14t-14 34v40q0 20 14 34t34 14h457q-108 210 -312 337t-449 127q-175 0 -333.5 -68t-273 -183t-182 -273t-67.5 -332q0 -175 68 -333.5t183 -273t273 -182t332 -67.5q162 0 309 57.5t263 161.5
q14 13 33.5 12.5t32.5 -13.5l29 -29q14 -14 13.5 -34.5t-15.5 -34.5q-135 -122 -305.5 -189t-359.5 -67q-202 0 -385.5 78.5t-316 211t-211.5 315.5t-79 385q0 201 78 384.5t210.5 317t316 212.5t384.5 80q270 1 498.5 -132t360.5 -358v442q0 20 14 34t34 14h40z" />
    <glyph glyph-name="sync" unicode="SYNC" 
d="M1968 1760q20 0 34 -14t14 -34v-640q0 -20 -14 -34t-34 -14h-640q-20 0 -34 14t-14 34v40q0 20 14 34t34 14h457q-108 210 -312 337t-449 127q-169 0 -323.5 -64t-268 -172.5t-184.5 -258.5t-79 -316q-1 -19 -15 -32t-33 -13h-40q-20 0 -34.5 15t-13.5 35
q10 194 92 368.5t213.5 300t310.5 199.5t375 74q269 0 497 -133.5t359 -357.5v443q0 20 14 34t34 14h40zM1967 768q20 0 34.5 -15t13.5 -35q-10 -194 -92 -368.5t-213.5 -300t-310.5 -199.5t-375 -74q-269 0 -497 133.5t-359 357.5v-443q0 -20 -14 -34t-34 -14h-40
q-20 0 -34 14t-14 34v640q0 20 14 34t34 14h640q20 0 34 -14t14 -34v-40q0 -20 -14 -34t-34 -14h-457q109 -210 313 -337t448 -127q169 0 323 63.5t268 172t185 259t79 316.5q1 19 15 32t33 13h40z" />
    <glyph glyph-name="list-alt" unicode="LIST&#x2d;ALT" 
d="M1856 1536h-1664q-26 0 -45 -19t-19 -45v-1408q0 -26 19 -45t45 -19h1664q26 0 45 19t19 45v1408q0 26 -19 45t-45 19zM1856 1664q80 0 136 -56t56 -136v-1408q0 -80 -56 -136t-136 -56h-1664q-80 0 -136 56t-56 136v1408q0 80 56 136t136 56h1664zM512 1280
q53 0 90.5 -37.5t37.5 -90.5t-37.5 -90.5t-90.5 -37.5t-90.5 37.5t-37.5 90.5t37.5 90.5t90.5 37.5zM512 896q53 0 90.5 -37.5t37.5 -90.5t-37.5 -90.5t-90.5 -37.5t-90.5 37.5t-37.5 90.5t37.5 90.5t90.5 37.5zM512 512q53 0 90.5 -37.5t37.5 -90.5t-37.5 -90.5
t-90.5 -37.5t-90.5 37.5t-37.5 90.5t37.5 90.5t90.5 37.5zM1664 1104q0 -10 -7 -17t-17 -7h-848q-10 0 -17 7t-7 17v96q0 10 7 17t17 7h848q10 0 17 -7t7 -17v-96zM1664 720q0 -10 -7 -17t-17 -7h-848q-10 0 -17 7t-7 17v96q0 10 7 17t17 7h848q10 0 17 -7t7 -17v-96z
M1664 336q0 -10 -7 -17t-17 -7h-848q-10 0 -17 7t-7 17v96q0 10 7 17t17 7h848q10 0 17 -7t7 -17v-96z" />
    <glyph glyph-name="lock" unicode="LOCK" horiz-adv-x="1792" 
d="M1600 896q80 0 136 -56t56 -136v-768q0 -80 -56 -136t-136 -56h-1408q-80 0 -136 56t-56 136v768q0 80 56 136t136 56h64v256q0 174 86 321.5t234 233t322 85.5t321 -87.5t232 -236t85 -322.5v-250h64zM384 1152v-256h1024v256q0 104 -40.5 198.5t-109.5 163.5
t-163.5 109.5t-198.5 40.5t-198.5 -40.5t-163.5 -109.5t-109.5 -163.5t-40.5 -198.5zM1600 -128q26 0 45 19t19 45v768q0 26 -19 45t-45 19h-1408q-26 0 -45 -19t-19 -45v-768q0 -26 19 -45t45 -19h1408z" />
    <glyph glyph-name="flag" unicode="FLAG" 
d="M1377 1493q215 0 535 148q48 22 92 -6t44 -81v-1047q0 -50 -42 -79q-254 -172 -520 -172q-94 0 -193.5 21.5t-170.5 48t-159.5 48t-163.5 21.5q-172 0 -299.5 -31.5t-243.5 -85.5v-486q0 -20 -14 -34t-34 -14h-32q-20 0 -34 14t-14 34v1627q-60 21 -96 74t-32 118
q4 73 57 125.5t127 55.5q89 4 149.5 -62.5t48.5 -155.5q146 58 308 58q94 0 193.5 -21.5t170.5 -48t159.5 -48t163.5 -21.5zM192 1680q-33 0 -56.5 -23.5t-23.5 -56.5t23.5 -56.5t56.5 -23.5t56.5 23.5t23.5 56.5t-23.5 56.5t-56.5 23.5zM1920 523v981q-118 -55 -267.5 -97
t-275.5 -42q-85 0 -179 21.5t-164.5 48t-164.5 48t-179 21.5q-122 0 -239 -41t-195 -98v-946q98 47 250.5 75.5t292.5 28.5q85 0 179 -21.5t164.5 -48t164.5 -48t179 -21.5q122 0 239 41t195 98z" />
    <glyph glyph-name="headphones" unicode="HEADPHONES" 
d="M1024 1664q209 0 398.5 -81t326.5 -218t218 -326.5t81 -398.5v-206q0 -16 -9.5 -32t-23.5 -24l-95 -53v-5q0 -185 -131.5 -316.5t-316.5 -131.5h-96q-40 0 -68 28t-28 68v704q0 40 28 68t68 28h96q147 0 264 -86t162 -222l22 12v168q0 182 -71 348t-191 286t-286 191
t-348 71t-348 -71t-286 -191t-191 -286t-71 -348v-168l22 -12q45 136 162 222t264 86h96q40 0 68 -28t28 -68v-704q0 -40 -28 -68t-68 -28h-96q-185 0 -316.5 131.5t-131.5 316.5v5l-95 53q-14 8 -23.5 24t-9.5 32v206q0 209 81 398.5t218 326.5t326.5 218t398.5 81z
M576 640q-132 0 -226 -94t-94 -226t94 -226t226 -94h64v640h-64zM1472 0q132 0 226 94t94 226t-94 226t-226 94h-64v-640h64z" />
    <glyph glyph-name="volume-off" unicode="VOLUME&#x2d;OFF" horiz-adv-x="1024" 
d="M927 1536q38 0 67.5 -27t29.5 -69v-1344q0 -42 -29.5 -69t-67.5 -27q-39 0 -67 28l-356 356h-408q-40 0 -68 28t-28 68v576q0 40 28 68t68 28h408l356 356q28 28 67 28zM896 173v1190l-339 -339h-429v-512h429z" />
    <glyph glyph-name="volume-down" unicode="VOLUME&#x2d;DOWN" horiz-adv-x="1536" 
d="M1372 1014q76 -37 120 -104t44 -146t-44 -146t-120 -104q-23 -11 -49 -2.5t-37 32.5t-2.5 49.5t32.5 36.5q42 20 67 56t25 78t-25 78t-67 56q-24 11 -32.5 36.5t2.5 49.5t37 32.5t49 -2.5zM927 1532q38 0 67.5 -27t29.5 -69v-1344q0 -42 -29.5 -69t-67.5 -27
q-39 0 -67 28l-356 356h-408q-40 0 -68 28t-28 68v576q0 40 28 68t68 28h408l356 356q28 28 67 28zM896 169v1190l-339 -339h-429v-512h429z" />
    <glyph glyph-name="volume-up" unicode="Volume&#x2d;up" horiz-adv-x="2304" 
d="M1372 1018q76 -37 120 -104t44 -146t-44 -146t-120 -104q-23 -11 -49 -2.5t-37 32.5t-2.5 49.5t32.5 36.5q42 20 67 56t25 78t-25 78t-67 56q-24 11 -32.5 36.5t2.5 49.5t37 32.5t49 -2.5zM927 1536q38 0 67.5 -27t29.5 -69v-1344q0 -42 -29.5 -69t-67.5 -27
q-39 0 -67 28l-356 356h-408q-40 0 -68 28t-28 68v576q0 40 28 68t68 28h408l356 356q28 28 67 28zM896 173v1190l-339 -339h-429v-512h429zM1686 1785q286 -150 452 -423.5t166 -593.5t-166 -593.5t-452 -423.5q-24 -13 -49.5 -4.5t-37.5 31.5q-13 23 -4.5 49t31.5 38
q254 134 402 376.5t148 526.5t-148 526.5t-402 376.5q-23 12 -31.5 38t4.5 49t38 31t49 -4zM1920 768q0 -199 -95.5 -368t-259.5 -263q-24 -13 -49.5 -6.5t-38.5 29.5q-14 23 -7 49t30 39q134 77 212.5 216.5t78.5 303.5t-78.5 304t-212.5 217q-23 13 -30 38.5t7 48.5
t39.5 30t48.5 -6q164 -94 259.5 -264t95.5 -368z" />
    <glyph glyph-name="qrcode" unicode="QRCODE" horiz-adv-x="1792" 
d="M0 896v768h768v-768h-768zM128 1536v-512h512v512h-512zM1024 1664h768v-768h-768v768zM1664 1024v512h-512v-512h512zM0 -128v768h768v-768h-768zM128 512v-512h512v512h-512zM256 1408h256v-256h-256v256zM1536 1152h-256v256h256v-256zM256 384h256v-256h-256v256z
M1664 640h128v-512h-512v128h-128v-384h-128v768h384v-128h256v128zM1664 0h128v-128h-128v128zM1408 0h128v-128h-128v128z" />
    <glyph glyph-name="barcode" unicode="Barcode" 
d="M0 0v1536h72v-1536h-72zM107 1v1535h37v-1535h-37zM216 1v1535h35v-1535h-35zM395 1v1535h36v-1535h-36zM539 1v1535h71v-1535h-71zM719 1v1535h35v-1535h-35zM791 1v1535h35v-1535h-35zM863 1v1535h35v-1535h-35zM1006 1v1535h72v-1535h-72zM1185 1v1535h72v-1535h-72z
M1329 1v1535h72v-1535h-72zM1473 1v1535h72v-1535h-72zM1581 1v1535h72v-1535h-72zM1761 1v1535h108v-1535h-108zM1904 1v1535h37v-1535h-37zM1976 0v1536h72v-1536h-72z" />
    <glyph glyph-name="tag" unicode="TAG" 
d="M1992 888q56 -56 56 -135.5t-56 -135.5l-817 -817q-56 -56 -135.5 -56t-135.5 56l-848 848q-23 23 -39.5 63t-16.5 73v816q0 80 56 136t136 56h816q33 0 73 -16.5t63 -39.5zM1901 707q19 19 19 45.5t-19 45.5l-847 847q-19 19 -46 19h-816q-26 0 -45 -19t-19 -45v-816v-1
q0 -26 19 -45l847 -847q19 -19 45.5 -19t45.5 19zM576 1296q-33 0 -56.5 -23.5t-23.5 -56.5t23.5 -56.5t56.5 -23.5t56.5 23.5t23.5 56.5t-23.5 56.5t-56.5 23.5zM576 1408q80 0 136 -56t56 -136t-56 -136t-136 -56t-136 56t-56 136t56 136t136 56z" />
    <glyph glyph-name="tags" unicode="TAGS" horiz-adv-x="2560" 
d="M2504 617l-817 -817q-56 -56 -135.5 -56t-135.5 56l-7 7l90 91l7 -7q19 -19 45.5 -19t45.5 19l816 816q19 19 19 45.5t-19 45.5l-847 847q-19 19 -45 19h-1h-78l-128 128h206q33 0 73 -16.5t63 -39.5l848 -848q56 -56 56 -135.5t-56 -135.5zM1008 1664h-816
q-26 0 -45 -19t-19 -45v-816q0 -27 19 -46l847 -847q19 -19 45.5 -19t45.5 19l816 816q19 19 19 45.5t-19 45.5l-847 847q-19 19 -45 19h-1zM1008 1792q33 0 73 -16.5t63 -39.5l848 -848q56 -56 56 -135.5t-56 -135.5l-817 -817q-56 -56 -135.5 -56t-135.5 56l-848 848
q-23 23 -39.5 63t-16.5 73v816q0 80 56 136t136 56h816zM576 1296q-33 0 -56.5 -23.5t-23.5 -56.5t23.5 -56.5t56.5 -23.5t56.5 23.5t23.5 56.5t-23.5 56.5t-56.5 23.5zM576 1408q80 0 136 -56t56 -136t-56 -136t-136 -56t-136 56t-56 136t56 136t136 56z" />
    <glyph glyph-name="book" unicode="BOOK" horiz-adv-x="1792" 
d="M1424 1152h-672q-20 0 -34 14t-14 34v32q0 20 14 34t34 14h672q20 0 34 -14t14 -34v-32q0 -20 -14 -34t-34 -14zM1472 944q0 -20 -14 -34t-34 -14h-672q-20 0 -34 14t-14 34v32q0 20 14 34t34 14h672q20 0 34 -14t14 -34v-32zM1731 -128h13q20 0 34 -14t14 -34v-32
q0 -20 -14 -34t-34 -14h-1424q-133 0 -226.5 93.5t-93.5 226.5v1408q0 133 93.5 226.5t226.5 93.5h1376q40 0 68 -28t28 -68v-1472q0 -30 -16.5 -54t-43.5 -35q-11 -50 -12 -125t11 -138zM512 256h1152v1408h-1152v-1408zM128 192q86 64 192 64h64v1408h-64q-80 0 -136 -56
t-56 -136v-1280zM1617 -128q-20 134 0 256h-1297q-53 0 -94 -14t-62.5 -36.5t-31.5 -50t0 -55t31.5 -50t62.5 -36.5t94 -14h1297z" />
    <glyph glyph-name="bookmark" unicode="BOOKMARK" horiz-adv-x="1536" 
d="M1344 1792q80 0 136 -56t56 -136v-1856l-768 448l-768 -448v1856q0 80 56 136t136 56h1152zM1408 -33v1633q0 26 -19 45t-45 19h-1152q-26 0 -45 -19t-19 -45v-1633l640 373z" />
    <glyph glyph-name="print" unicode="PRINT" 
d="M1728 1024q133 0 226.5 -93.5t93.5 -226.5v-384q0 -26 -19 -45t-45 -19h-320v-448q0 -26 -19 -45t-45 -19h-1152q-26 0 -45 19t-19 45v448h-320q-26 0 -45 19t-19 45v384q0 133 93.5 226.5t226.5 93.5h64v640q0 53 36 90.5t86 37.5h721q53 0 90 -37l310 -309
q37 -37 37 -91v-331h64zM1280 1611v-203h203zM512 1664v-640h1024v256h-256q-53 0 -90.5 37.5t-37.5 90.5v256h-640zM1536 -128v384h-1024v-384h1024zM1920 384v320q0 80 -56 136t-136 56h-1408q-80 0 -136 -56t-56 -136v-320h1792zM1600 736q40 0 68 -28t28 -68t-28 -68
t-68 -28t-68 28t-28 68t28 68t68 28z" />
    <glyph glyph-name="camera" unicode="CAMERA" 
d="M1297 1536h-524q-20 0 -36.5 -11.5t-23.5 -30.5l-80 -214h-441q-26 0 -45 -19t-19 -45v-1152q0 -26 19 -45t45 -19h1664q26 0 45 19t19 45v1152q0 26 -19 45t-45 19h-440l-89 235q-9 21 -30 21zM1297 1664q50 0 91.5 -28.5t58.5 -75.5l57 -152h352q80 0 136 -56t56 -136
v-1152q0 -80 -56 -136t-136 -56h-1664q-80 0 -136 56t-56 136v1152q0 80 56 136t136 56h352l50 132q21 56 70 90t109 34h524zM1024 160q-130 0 -240.5 64.5t-175 175t-64.5 240.5t64.5 240.5t175 175t240.5 64.5t240.5 -64.5t175 -175t64.5 -240.5t-64.5 -240.5t-175 -175
t-240.5 -64.5zM1024 992q-146 0 -249 -103t-103 -249t103 -249t249 -103t249 103t103 249t-103 249t-249 103z" />
    <glyph glyph-name="font" unicode="FONT" horiz-adv-x="1792" 
d="M1696 0q14 0 23 -9t9 -23v-64q0 -14 -9 -23t-23 -9h-448q-14 0 -23 9t-9 23v64q0 14 9 23t23 9h166l-177 512h-682l-177 -512h166q14 0 23 -9t9 -23v-64q0 -14 -9 -23t-23 -9h-448q-14 0 -23 9t-9 23v64q0 14 9 23t23 9h146l562 1621q6 18 23.5 30.5t36.5 12.5h64
q19 0 37 -12.5t24 -30.5l561 -1621h146zM599 640h594l-297 857z" />
    <glyph glyph-name="bold" unicode="BOLD" horiz-adv-x="1536" 
d="M1224 856q129 -55 220.5 -193.5t91.5 -278.5q0 -212 -150 -362t-362 -150h-864q-14 0 -23 9t-9 23v64q0 14 9 23t23 9h96v1536h-96q-14 0 -23 9t-9 23v64q0 14 9 23t23 9h800q185 0 316.5 -131.5t131.5 -316.5q0 -109 -49.5 -203t-134.5 -157zM384 1536v-640h576
q133 0 226.5 93.5t93.5 226.5t-93.5 226.5t-226.5 93.5h-576zM1024 0q159 0 271.5 112.5t112.5 271.5t-112.5 271.5t-271.5 112.5h-640v-768h640z" />
    <glyph glyph-name="italic" unicode="ITALIC" horiz-adv-x="1280" 
d="M1280 1632v-64q0 -14 -9 -23t-23 -9h-350l-384 -1536h350q14 0 23 -9t9 -23v-64q0 -14 -9 -23t-23 -9h-832q-14 0 -23 9t-9 23v64q0 14 9 23t23 9h350l384 1536h-350q-14 0 -23 9t-9 23v64q0 14 9 23t23 9h832q14 0 23 -9t9 -23z" />
    <glyph glyph-name="text-height" unicode="TEXT&#x2d;HEIGHT" horiz-adv-x="2304" 
d="M2240 320q46 0 60 -40.5t-15 -68.5l-320 -320q-19 -19 -45 -19t-45 19l-320 320q-30 30 -14 69.5t59 39.5h256v896h-256q-46 0 -60 40.5t15 68.5l320 320q19 19 45 19t45 -19l320 -320q30 -30 14 -69.5t-59 -39.5h-256v-896h256zM1755 1344h330l-165 166zM1920 27
l166 165h-331zM1216 1664q26 0 45 -19t19 -45v-288q0 -14 -9 -23t-23 -9h-64q-14 0 -23 9t-9 23v224h-448v-1536h288q14 0 23 -9t9 -23v-64q0 -14 -9 -23t-23 -9h-704q-14 0 -23 9t-9 23v64q0 14 9 23t23 9h288v1536h-448v-224q0 -14 -9 -23t-23 -9h-64q-14 0 -23 9t-9 23
v288q0 26 19 45t45 19h1152z" />
    <glyph glyph-name="text-width" unicode="Text&#x2d;width" horiz-adv-x="1792" 
d="M1449 621l320 -320q19 -19 19 -45t-19 -45l-320 -320q-19 -19 -44 -19h-1q-26 0 -45 19t-19 45v256h-896v-256q0 -29 -18.5 -46.5t-44.5 -17.5h-1q-26 0 -45 19l-320 320q-19 19 -19 45t19 45l320 320q19 19 44 19h1q26 0 45 -19t19 -45v-256h896v256q0 29 18.5 46.5
t44.5 17.5h1q26 0 45 -19zM316 320v101l-165 -165l165 -165v229zM1468 91l165 165l-165 165v-330zM1724 1664q26 0 45 -19t19 -45v-288q0 -14 -9 -23t-23 -9h-64q-14 0 -23 9t-9 23v224h-704v-768h160q14 0 23 -9t9 -23v-64q0 -14 -9 -23t-23 -9h-448q-14 0 -23 9t-9 23v64
q0 14 9 23t23 9h160v768h-704v-224q0 -14 -9 -23t-23 -9h-64q-14 0 -23 9t-9 23v288q0 26 19 45t45 19h1664z" />
    <glyph glyph-name="align-left" unicode="ALIGN&#x2d;LEFT" horiz-adv-x="1792" 
d="M1120 1600q14 0 23 -9t9 -23v-64q0 -14 -9 -23t-23 -9h-1088q-14 0 -23 9t-9 23v64q0 14 9 23t23 9h1088zM1760 64q14 0 23 -9t9 -23v-64q0 -14 -9 -23t-23 -9h-1728q-14 0 -23 9t-9 23v64q0 14 9 23t23 9h1728zM1120 576q14 0 23 -9t9 -23v-64q0 -14 -9 -23t-23 -9
h-1088q-14 0 -23 9t-9 23v64q0 14 9 23t23 9h1088zM1760 1088q14 0 23 -9t9 -23v-64q0 -14 -9 -23t-23 -9h-1728q-14 0 -23 9t-9 23v64q0 14 9 23t23 9h1728z" />
    <glyph glyph-name="align-center" unicode="ALIGN&#x2d;CENTER" horiz-adv-x="1792" 
d="M1376 1600q14 0 23 -9t9 -23v-64q0 -14 -9 -23t-23 -9h-960q-14 0 -23 9t-9 23v64q0 14 9 23t23 9h960zM1760 64q14 0 23 -9t9 -23v-64q0 -14 -9 -23t-23 -9h-1728q-14 0 -23 9t-9 23v64q0 14 9 23t23 9h1728zM1376 576q14 0 23 -9t9 -23v-64q0 -14 -9 -23t-23 -9h-960
q-14 0 -23 9t-9 23v64q0 14 9 23t23 9h960zM1760 1088q14 0 23 -9t9 -23v-64q0 -14 -9 -23t-23 -9h-1728q-14 0 -23 9t-9 23v64q0 14 9 23t23 9h1728z" />
    <glyph glyph-name="align-right" unicode="ALIGN&#x2d;RIGHT" horiz-adv-x="1792" 
d="M1760 1600q14 0 23 -9t9 -23v-64q0 -14 -9 -23t-23 -9h-1088q-14 0 -23 9t-9 23v64q0 14 9 23t23 9h1088zM1760 64q14 0 23 -9t9 -23v-64q0 -14 -9 -23t-23 -9h-1728q-14 0 -23 9t-9 23v64q0 14 9 23t23 9h1728zM1760 576q14 0 23 -9t9 -23v-64q0 -14 -9 -23t-23 -9
h-1088q-14 0 -23 9t-9 23v64q0 14 9 23t23 9h1088zM1760 1088q14 0 23 -9t9 -23v-64q0 -14 -9 -23t-23 -9h-1728q-14 0 -23 9t-9 23v64q0 14 9 23t23 9h1728z" />
    <glyph glyph-name="align-justify" unicode="ALIGN&#x2d;JUSTIFY" horiz-adv-x="1792" 
d="M1756 1600q14 0 23 -9t9 -23v-64q0 -14 -9 -23t-23 -9h-1728q-14 0 -23 9t-9 23v64q0 14 9 23t23 9h1728zM1756 64q14 0 23 -9t9 -23v-64q0 -14 -9 -23t-23 -9h-1728q-14 0 -23 9t-9 23v64q0 14 9 23t23 9h1728zM1756 576q14 0 23 -9t9 -23v-64q0 -14 -9 -23t-23 -9
h-1728q-14 0 -23 9t-9 23v64q0 14 9 23t23 9h1728zM1756 1088q14 0 23 -9t9 -23v-64q0 -14 -9 -23t-23 -9h-1728q-14 0 -23 9t-9 23v64q0 14 9 23t23 9h1728z" />
    <glyph glyph-name="list" unicode="LIST" 
d="M352 1568q26 0 45 -19t19 -45v-192q0 -26 -19 -45t-45 -19h-192q-26 0 -45 19t-19 45v192q0 26 19 45t45 19h192zM352 928q26 0 45 -19t19 -45v-192q0 -26 -19 -45t-45 -19h-192q-26 0 -45 19t-19 45v192q0 26 19 45t45 19h192zM352 288q26 0 45 -19t19 -45v-192
q0 -26 -19 -45t-45 -19h-192q-26 0 -45 19t-19 45v192q0 26 19 45t45 19h192zM2016 192q14 0 23 -9t9 -23v-64q0 -14 -9 -23t-23 -9h-1344q-14 0 -23 9t-9 23v64q0 14 9 23t23 9h1344zM2016 1472q14 0 23 -9t9 -23v-64q0 -14 -9 -23t-23 -9h-1344q-14 0 -23 9t-9 23v64
q0 14 9 23t23 9h1344zM2016 832q14 0 23 -9t9 -23v-64q0 -14 -9 -23t-23 -9h-1344q-14 0 -23 9t-9 23v64q0 14 9 23t23 9h1344z" />
    <glyph glyph-name="outdent" unicode="OUTDENT" horiz-adv-x="1792" 
d="M403 339l-384 384q-19 19 -19 45t19 45l384 384q19 19 44 19h1q26 0 45 -19t19 -45v-768q0 -26 -19 -45t-45 -19h-1q-25 0 -44 19zM384 997l-229 -229l229 -229v458zM1760 1600q14 0 23 -9t9 -23v-64q0 -14 -9 -23t-23 -9h-1728q-14 0 -23 9t-9 23v64q0 14 9 23t23 9
h1728zM1760 64q14 0 23 -9t9 -23v-64q0 -14 -9 -23t-23 -9h-1728q-14 0 -23 9t-9 23v64q0 14 9 23t23 9h1728zM1760 576q14 0 23 -9t9 -23v-64q0 -14 -9 -23t-23 -9h-960q-14 0 -23 9t-9 23v64q0 14 9 23t23 9h960zM1760 1088q14 0 23 -9t9 -23v-64q0 -14 -9 -23t-23 -9
h-960q-14 0 -23 9t-9 23v64q0 14 9 23t23 9h960z" />
    <glyph glyph-name="indent" unicode="INDENT" horiz-adv-x="1792" 
d="M109 1197l384 -384q19 -19 19 -45t-19 -45l-384 -384q-19 -19 -44 -19h-1q-26 0 -45 19t-19 45v768q0 26 19 45t45 19h1q25 0 44 -19zM128 539l229 229l-229 229v-458zM1760 1600q14 0 23 -9t9 -23v-64q0 -14 -9 -23t-23 -9h-1728q-14 0 -23 9t-9 23v64q0 14 9 23t23 9
h1728zM1760 64q14 0 23 -9t9 -23v-64q0 -14 -9 -23t-23 -9h-1728q-14 0 -23 9t-9 23v64q0 14 9 23t23 9h1728zM1760 576q14 0 23 -9t9 -23v-64q0 -14 -9 -23t-23 -9h-960q-14 0 -23 9t-9 23v64q0 14 9 23t23 9h960zM1760 1088q14 0 23 -9t9 -23v-64q0 -14 -9 -23t-23 -9
h-960q-14 0 -23 9t-9 23v64q0 14 9 23t23 9h960z" />
    <glyph glyph-name="video" unicode="VIDEO" horiz-adv-x="2304" 
d="M2176 1408q51 0 89.5 -36t38.5 -90v-1028q0 -54 -39 -90t-90 -36q-40 0 -73 23l-438 279v-239q0 -79 -60.5 -135t-146.5 -56h-1250q-86 0 -146.5 56t-60.5 135v1154q0 79 60.5 135t146.5 56h1250q86 0 146.5 -56t60.5 -135v-239l439 279q33 23 73 23zM1536 191v1154
q0 26 -23.5 44.5t-55.5 18.5h-1250q-32 0 -55.5 -18.5t-23.5 -44.5v-1154q0 -26 23.5 -44.5t55.5 -18.5h1250q32 0 55.5 18.5t23.5 44.5zM2176 254v1026l-512 -326v-372l507 -323z" />
    <glyph glyph-name="image" unicode="IMAGE" 
d="M1856 1536q80 0 136 -56t56 -136v-1152q0 -80 -56 -136t-136 -56h-1664q-80 0 -136 56t-56 136v1152q0 80 56 136t136 56h1664zM1920 192v1152q0 26 -19 45t-45 19h-1664q-26 0 -45 -19t-19 -45v-1152q0 -26 19 -45t45 -19h1664q26 0 45 19t19 45zM448 864
q-93 0 -158.5 65.5t-65.5 158.5t65.5 158.5t158.5 65.5t158.5 -65.5t65.5 -158.5t-65.5 -158.5t-158.5 -65.5zM448 1184q-40 0 -68 -28t-28 -68t28 -68t68 -28t68 28t28 68t-28 68t-68 28zM1276 1092q28 28 68 28t68 -28l352 -352q28 -28 28 -68v-368q0 -20 -14 -34t-34 -14
h-1440q-20 0 -34 14t-14 34v112q0 40 28 68l352 352q28 28 68 28t68 -28l124 -124zM1664 384v275l-320 320l-448 -448l-192 192l-320 -320v-19h1280z" />
    <glyph glyph-name="pencil" unicode="PENCIL" 
d="M1973 1567q75 -75 75 -181t-75 -181l-1410 -1410l-456 -50q-46 -5 -78.5 27.5t-27.5 78.5l50 456l1410 1410q75 75 181 75t181 -75zM1592 1005l-331 331l-896 -896h139v-192h192v-139zM505 -82l79 79v139h-192v192h-139l-79 -79l-27 -236l122 -122zM1883 1296
q37 38 37 91t-37 90l-150 150q-37 37 -90 37t-91 -37l-200 -200l331 -331z" />
    <glyph glyph-name="map-marker" unicode="MAP&#x2d;MARKER" horiz-adv-x="1536" 
d="M768 1792q209 0 385.5 -103t279.5 -279.5t103 -385.5q0 -53 -3.5 -95t-17.5 -90.5t-28 -85t-48 -97.5t-64.5 -108.5t-91.5 -137t-113.5 -164t-146.5 -208.5t-176 -253q-29 -41 -79 -41t-79 41q-82 119 -176 253t-146.5 208.5t-113.5 164t-91.5 137t-64.5 108.5t-48 97.5
t-28 85t-17.5 90.5t-3.5 95q0 209 103 385.5t279.5 279.5t385.5 103zM768 -104q78 113 168 241.5t138.5 197.5t106 153t84.5 126t58.5 97.5t43 85.5t24 72t15 76t2.5 79q0 128 -48 245t-139 208t-208 139t-245 48t-245 -48t-208 -139t-139 -208t-48 -245q0 -45 2.5 -79
t15 -76t24 -72t43 -85.5t58.5 -97.5t84.5 -126t106 -153t138.5 -197.5t168 -241.5z" />
    <glyph glyph-name="adjust" unicode="ADJUST" 
d="M1024 1632q-175 0 -335 -68t-276 -183.5t-184.5 -275.5t-68.5 -337q0 -175 68 -335t183.5 -276t275.5 -184.5t337 -68.5q175 0 335 68t276 183.5t184.5 275.5t68.5 337q0 175 -68 335t-183.5 276t-275.5 184.5t-337 68.5zM1024 1760q202 0 385.5 -78.5t316.5 -211.5
t211.5 -316.5t78.5 -385.5t-78.5 -385.5t-211.5 -316.5t-316.5 -211.5t-385.5 -78.5t-385.5 78.5t-316.5 211.5t-211.5 316.5t-78.5 385.5t78.5 385.5t211.5 316.5t316.5 211.5t385.5 78.5zM896 1264q-165 -42 -274.5 -179.5t-109.5 -316.5t109.5 -316.5t274.5 -179.5v992z
M1024 1408v-1280q-130 0 -248.5 51t-204 136.5t-136.5 204t-51 248.5t51 248.5t136.5 204t204 136.5t248.5 51z" />
    <glyph glyph-name="tint" unicode="TINT" horiz-adv-x="1408" 
d="M821 1704q38 -127 91.5 -244t107.5 -203.5t111 -168.5t105.5 -154t87.5 -145t61.5 -157.5t22.5 -175.5q0 -145 -55.5 -277t-150 -227t-225 -151.5t-273.5 -56.5t-273.5 56.5t-225 151.5t-150 227t-55.5 277q0 91 22.5 175t61.5 157.5t88 146t106 154.5t110.5 168.5
t107 203t91.5 243.5q13 43 45.5 65.5t71.5 22.5q40 0 72.5 -23t44.5 -65zM704 -128q156 0 289 78.5t210 213t77 292.5q0 57 -12 112t-27 96t-49.5 100t-57.5 93t-73 106q-60 85 -95 138.5t-89 145.5t-96.5 191.5t-76.5 209.5q-34 -110 -76.5 -209t-96.5 -191t-89 -145.5
t-95 -138.5q-49 -70 -73 -106t-57.5 -94t-49 -100t-27.5 -97t-12 -111q0 -158 77 -292.5t210 -213t289 -78.5zM704 128q26 0 45 -19t19 -45t-19 -45t-45 -19q-185 0 -316.5 131.5t-131.5 316.5q0 26 19 45t45 19t45 -19t19 -45q0 -132 94 -226t226 -94z" />
    <glyph glyph-name="edit" unicode="Edit" horiz-adv-x="2304" 
d="M1671 530l80 80q11 11 26 5t15 -22v-657q0 -80 -56 -136t-136 -56h-1408q-80 0 -136 56t-56 136v1408q0 80 56 136t136 56h1169q16 0 22 -15t-5 -26l-80 -80q-7 -7 -17 -7h-1089q-26 0 -45 -19t-19 -45v-1408q0 -26 19 -45t45 -19h1408q26 0 45 19t19 45v577q0 11 7 17z
M2255 1295l-1250 -1250l-400 -45q-41 -4 -69 24t-24 69l45 400l1250 1250q49 49 118 49t119 -49l211 -211q49 -50 49 -119t-49 -118zM1880 1101l-266 267l-935 -934l-33 -300l300 33zM2164 1442l-210 210q-11 11 -27.5 11.5t-28.5 -11.5l-194 -193l267 -267l193 194
q12 11 12 27.5t-12 28.5z" />
    <glyph glyph-name="arrows" unicode="ARROWS" 
d="M1351 53l-293 -295q-14 -14 -34 -14t-34 14l-293 295q-14 14 -14 34t14 34l28 28q14 14 34 14t34 -14l163 -165h4v720h-720v-4l165 -163q14 -14 14 -34t-14 -34l-28 -28q-14 -14 -34 -14t-34 14l-295 293q-14 14 -14 34t14 34l295 293q14 14 34 14t34 -14l28 -28
q14 -14 14 -34t-14 -34l-165 -163v-4h720v720h-4l-163 -165q-14 -14 -34 -14t-34 14l-28 28q-14 14 -14 34t14 34l293 295q14 14 34 14t34 -14l293 -295q14 -14 14 -34t-14 -34l-28 -28q-14 -14 -34 -14t-34 14l-163 165h-4v-720h720v4l-165 163q-14 14 -14 34t14 34l28 28
q14 14 34 14t34 -14l295 -293q14 -14 14 -34t-14 -34l-295 -293q-14 -14 -34 -14t-34 14l-28 28q-14 14 -14 34t14 34l165 163v4h-720v-720h4l163 165q14 14 34 14t34 -14l28 -28q14 -14 14 -34t-14 -34z" />
    <glyph glyph-name="step-backward" unicode="STEP&#x2d;BACKWARD" horiz-adv-x="1792" 
d="M304 -124q-20 0 -34 14t-14 34v1696q0 20 14 34t34 14h32q20 0 34 -14t14 -34v-766q6 8 14 14l928 770q30 25 67.5 29t68.5 -10.5t52.5 -45.5t21.5 -71v-1536q0 -40 -21.5 -71t-52.5 -45.5t-68.5 -10.5t-67.5 29l-928 766q-10 8 -14 13v-761q0 -20 -14 -34t-34 -14h-32z
M466 770l941 -765l1 -1v1536l-1 -1z" />
    <glyph glyph-name="fast-backward" unicode="FAST&#x2d;BACKWARD" 
d="M48 4q-20 0 -34 14t-14 34v1440q0 20 14 34t34 14h32q20 0 34 -14t14 -34v-636l12 12l802 642q30 25 67.5 29t68.5 -10.5t52.5 -45.5t21.5 -71v-476l686 574q30 25 67.5 29t68.5 -10.5t52.5 -45.5t21.5 -71v-1280q0 -40 -21.5 -71t-52.5 -45.5t-68.5 -10.5t-67.5 29
l-686 569v-471q0 -40 -21.5 -71t-52.5 -45.5t-68.5 -10.5t-67.5 29l-802 637l-12 12v-631q0 -20 -14 -34t-34 -14h-32zM1170 770v-1h1l749 -637v1280l-748 -642h-1h-1zM244 771v-3l779 -635l1 -1v1280l-1 -1z" />
    <glyph glyph-name="backward" unicode="BACKWARD" 
d="M1070 668q-46 38 -46 98t46 98l768 642q30 25 67.5 29t68.5 -10.5t52.5 -45.5t21.5 -71v-1280q0 -40 -21.5 -71t-52.5 -45.5t-68.5 -10.5t-67.5 29zM1152 766l768 -638v1280zM46 668q-46 38 -46 98t46 98l768 642q30 25 67.5 29t68.5 -10.5t52.5 -45.5t21.5 -71v-1280
q0 -40 -21.5 -71t-52.5 -45.5t-68.5 -10.5t-67.5 29zM128 766l768 -638v1280z" />
    <glyph glyph-name="play" unicode="Play" horiz-adv-x="1792" 
d="M1698 933q61 -36 84 -100.5t0 -129t-84 -100.5l-1408 -832q-48 -30 -99 -27t-93.5 25t-70 67t-27.5 100v1664q0 60 29.5 105.5t73 66t94.5 20t93 -25.5zM1633 713q31 19 31 55t-32 55l-1408 833q-17 7 -38.5 8t-39.5 -16.5t-18 -47.5v-1664q0 -37 33 -55t64 0z" />
    <glyph glyph-name="pause" unicode="PAUSE" horiz-adv-x="1792" 
d="M192 -124q-80 0 -136 56t-56 136v1408q0 80 56 136t136 56h384q80 0 136 -56t56 -136v-1408q0 -80 -56 -136t-136 -56h-384zM128 1476v-1408q0 -26 19 -45t45 -19h384q26 0 45 19t19 45v1408q0 26 -19 45t-45 19h-384q-26 0 -45 -19t-19 -45zM1216 -124q-80 0 -136 56
t-56 136v1408q0 80 56 136t136 56h384q80 0 136 -56t56 -136v-1408q0 -80 -56 -136t-136 -56h-384zM1152 1476v-1408q0 -26 19 -45t45 -19h384q26 0 45 19t19 45v1408q0 26 -19 45t-45 19h-384q-26 0 -45 -19t-19 -45z" />
    <glyph glyph-name="stop" unicode="STOP" horiz-adv-x="1792" 
d="M1600 1664q80 0 136 -56t56 -136v-1408q0 -80 -56 -136t-136 -56h-1408q-80 0 -136 56t-56 136v1408q0 80 56 136t136 56h1408zM1664 64v1408q0 26 -19 45t-45 19h-1408q-26 0 -45 -19t-19 -45v-1408q0 -26 19 -45t45 -19h1408q26 0 45 19t19 45z" />
    <glyph glyph-name="forward" unicode="FORWARD" 
d="M978 868q46 -38 46 -97.5t-46 -98.5l-768 -642q-30 -25 -67.5 -29t-68.5 10.5t-52.5 45.5t-21.5 71v1280q0 40 21.5 71t52.5 45t68.5 10.5t67.5 -28.5zM896 770l-768 638v-1280zM2002 868q46 -38 46 -97.5t-46 -98.5l-768 -642q-30 -25 -67.5 -29t-68.5 10.5t-52.5 45.5
t-21.5 71v1280q0 40 21.5 71t52.5 45.5t68.5 10.5t67.5 -29zM1920 770l-768 638v-1280z" />
    <glyph glyph-name="fast-forward" unicode="FAST&#x2d;FORWARD" 
d="M2000 1540q20 0 34 -14t14 -34v-1440q0 -20 -14 -34t-34 -14h-32q-20 0 -34 14t-14 34v636l-12 -12l-802 -642q-30 -25 -67.5 -29t-68.5 10.5t-52.5 45.5t-21.5 71v475l-686 -573q-30 -25 -67.5 -29t-68.5 10.5t-52.5 45.5t-21.5 71v1280q0 40 21.5 71t52.5 45t68.5 10.5
t67.5 -28.5l686 -569v471q0 40 21.5 71t52.5 45t68.5 10.5t67.5 -28.5l802 -637l12 -12v631q0 20 14 34t34 14h32zM878 774v1h-1l-749 637v-1280l748 642h1h1zM1804 772v4l-779 635l-1 1v-1280h1z" />
    <glyph glyph-name="step-forward" unicode="STEP&#x2d;FORWARD" horiz-adv-x="1792" 
d="M1488 1668q20 0 34 -14t14 -34v-1696q0 -20 -14 -34t-34 -14h-32q-20 0 -34 14t-14 34v766q-6 -8 -14 -14l-928 -770q-30 -25 -67.5 -29t-68.5 10.5t-52.5 45.5t-21.5 71v1536q0 40 21.5 71t52.5 45.5t68.5 10.5t67.5 -29l928 -766q10 -8 14 -13v761q0 20 14 34t34 14h32
zM1326 774l-941 765l-1 1v-1536l1 1z" />
    <glyph glyph-name="eject" unicode="EJECT" horiz-adv-x="1792" 
d="M1741 834q33 -36 45 -80.5t2 -86t-33.5 -77t-65 -57t-89.5 -21.5h-1408q-48 0 -89.5 21.5t-65 57t-33.5 77t2 86t45 80.5l703 768q57 62 142 62t142 -62zM1600 640q41 0 58 38t-11 69l-704 768q-19 21 -47 21t-47 -21l-704 -768q-28 -31 -11 -69t58 -38h1408zM1792 192
v-128q0 -80 -56 -136t-136 -56h-1408q-80 0 -136 56t-56 136v128q0 80 56 136t136 56h1408q80 0 136 -56t56 -136zM1600 256h-1408q-26 0 -45 -19t-19 -45v-128q0 -26 19 -45t45 -19h1408q26 0 45 19t19 45v128q0 26 -19 45t-45 19z" />
    <glyph glyph-name="chevron-left" unicode="CHEVRON&#x2d;LEFT" horiz-adv-x="1024" 
d="M954 -110q-14 -14 -34 -14t-34 14l-844 844q-14 14 -14 34t14 34l844 844q14 14 34 14t34 -14l28 -28q14 -14 14 -34t-14 -34l-782 -782l782 -782q14 -14 14 -34t-14 -34z" />
    <glyph glyph-name="chevron-right" unicode="CHEVRON&#x2d;RIGHT" horiz-adv-x="1024" 
d="M70 1646q14 14 34 14t34 -14l844 -844q14 -14 14 -34t-14 -34l-844 -844q-14 -14 -34 -14t-34 14l-28 28q-14 14 -14 34t14 34l782 782l-782 782q-14 14 -14 34t14 34z" />
    <glyph glyph-name="plus-circle" unicode="PLUS&#x2d;CIRCLE" 
d="M1536 792v-48q0 -20 -14 -34t-34 -14h-392v-392q0 -20 -14 -34t-34 -14h-48q-20 0 -34 14t-14 34v392h-392q-20 0 -34 14t-14 34v48q0 20 14 34t34 14h392v392q0 20 14 34t34 14h48q20 0 34 -14t14 -34v-392h392q20 0 34 -14t14 -34zM2016 768q0 -202 -78.5 -385.5
t-211.5 -316.5t-316.5 -211.5t-385.5 -78.5t-385.5 78.5t-316.5 211.5t-211.5 316.5t-78.5 385.5t78.5 385.5t211.5 316.5t316.5 211.5t385.5 78.5t385.5 -78.5t316.5 -211.5t211.5 -316.5t78.5 -385.5zM1888 768q0 177 -68.5 337t-184.5 275.5t-276 183.5t-335 68
q-177 0 -337 -68.5t-275.5 -184.5t-183.5 -276t-68 -335q0 -177 68.5 -337t184.5 -275.5t276 -183.5t335 -68q177 0 337 68.5t275.5 184.5t183.5 276t68 335z" />
    <glyph glyph-name="minus-circle" unicode="MINUS&#x2d;CIRCLE" 
d="M560 696q-20 0 -34 14t-14 34v48q0 20 14 34t34 14h928q20 0 34 -14t14 -34v-48q0 -20 -14 -34t-34 -14h-928zM2016 768q0 -202 -78.5 -385.5t-211.5 -316.5t-316.5 -211.5t-385.5 -78.5t-385.5 78.5t-316.5 211.5t-211.5 316.5t-78.5 385.5t78.5 385.5t211.5 316.5
t316.5 211.5t385.5 78.5t385.5 -78.5t316.5 -211.5t211.5 -316.5t78.5 -385.5zM1888 768q0 177 -68.5 337t-184.5 275.5t-276 183.5t-335 68q-177 0 -337 -68.5t-275.5 -184.5t-183.5 -276t-68 -335q0 -177 68.5 -337t184.5 -275.5t276 -183.5t335 -68q177 0 337 68.5
t275.5 184.5t183.5 276t68 335z" />
    <glyph glyph-name="times-circle" unicode="TIMES&#x2d;CIRCLE" 
d="M1024 1760q202 0 385.5 -78.5t316.5 -211.5t211.5 -316.5t78.5 -385.5t-78.5 -385.5t-211.5 -316.5t-316.5 -211.5t-385.5 -78.5t-385.5 78.5t-316.5 211.5t-211.5 316.5t-78.5 385.5t78.5 385.5t211.5 316.5t316.5 211.5t385.5 78.5zM1024 -96q177 0 337 68.5
t275.5 184.5t183.5 276t68 335q0 177 -68.5 337t-184.5 275.5t-276 183.5t-335 68q-177 0 -337 -68.5t-275.5 -184.5t-183.5 -276t-68 -335q0 -177 68.5 -337t184.5 -275.5t276 -183.5t335 -68zM1403 1045l-277 -277l277 -277q14 -14 14 -34t-14 -34l-34 -34
q-14 -14 -34 -14t-34 14l-277 277l-277 -277q-14 -14 -34 -14t-34 14l-34 34q-14 14 -14 34t14 34l277 277l-277 277q-14 14 -14 34t14 34l34 34q14 14 34 14t34 -14l277 -277l277 277q14 14 34 14t34 -14l34 -34q13 -14 13 -34t-13 -34z" />
    <glyph glyph-name="check-circle" unicode="CHECK&#x2d;CIRCLE" 
d="M1024 1760q202 0 385.5 -78.5t316.5 -211.5t211.5 -316.5t78.5 -385.5t-78.5 -385.5t-211.5 -316.5t-316.5 -211.5t-385.5 -78.5t-385.5 78.5t-316.5 211.5t-211.5 316.5t-78.5 385.5t78.5 385.5t211.5 316.5t316.5 211.5t385.5 78.5zM1024 -96q177 0 337 68.5
t275.5 184.5t183.5 276t68 335q0 177 -68.5 337t-184.5 275.5t-276 183.5t-335 68q-177 0 -337 -68.5t-275.5 -184.5t-183.5 -276t-68 -335q0 -177 68.5 -337t184.5 -275.5t276 -183.5t335 -68zM1591 1004l-722 -716q-14 -14 -34 -14t-34 14l-344 346q-14 14 -14 34t14 34
l35 34q14 14 33.5 14t33.5 -14l276 -278l654 648q14 14 34 14t34 -14l34 -34q14 -14 14 -34t-14 -34z" />
    <glyph glyph-name="question-circle" unicode="QUESTION&#x2d;CIRCLE" 
d="M1024 432q46 0 79 -33t33 -79t-33 -79t-79 -33t-79 33t-33 79t33 79t79 33zM1055 528h-64q-20 0 -34 14t-14 34v2q0 78 32 134.5t77.5 88.5t90.5 59t77 63t32 84q0 66 -58.5 113.5t-170.5 47.5q-84 0 -136.5 -27.5t-100.5 -87.5q-12 -15 -30.5 -17.5t-34.5 8.5l-53 36
q-17 12 -20 32t10 37q69 89 153.5 134t211.5 45q163 0 276 -87.5t113 -233.5q0 -63 -23 -113t-57 -79.5t-74.5 -58t-74.5 -50t-57 -55t-23 -73.5v-2q0 -20 -14 -34t-34 -14zM1024 1632q-176 0 -336 -68.5t-275.5 -184t-184 -275.5t-68.5 -336t68.5 -336t184 -275.5
t275.5 -184t336 -68.5t336 68.5t275.5 184t184 275.5t68.5 336q0 177 -69 337t-185 275.5t-275.5 183.5t-334.5 68zM1024 1760q202 0 385.5 -78.5t316.5 -211.5t211.5 -316.5t78.5 -385.5t-78.5 -385.5t-211.5 -316.5t-316.5 -211.5t-385.5 -78.5t-385.5 78.5t-316.5 211.5
t-211.5 316.5t-78.5 385.5t78.5 385.5t211.5 316.5t316.5 211.5t385.5 78.5z" />
    <glyph glyph-name="info-circle" unicode="Info&#x2d;Circle" 
d="M1024 1632q-176 0 -336 -68.5t-275.5 -184t-184 -275.5t-68.5 -336t68.5 -336t184 -275.5t275.5 -184t336 -68.5t336 68.5t275.5 184t184 275.5t68.5 336q0 177 -69 337t-185 275.5t-275.5 183.5t-334.5 68zM1024 1760q202 0 385.5 -78.5t316.5 -211.5t211.5 -316.5
t78.5 -385.5t-78.5 -385.5t-211.5 -316.5t-316.5 -211.5t-385.5 -78.5t-385.5 78.5t-316.5 211.5t-211.5 316.5t-78.5 385.5t78.5 385.5t211.5 316.5t316.5 211.5t385.5 78.5zM880 384h48v480h-48q-20 0 -34 14t-14 34v32q0 20 14 34t34 14h192q20 0 34 -14t14 -34v-560h48
q20 0 34 -14t14 -34v-32q0 -20 -14 -34t-34 -14h-288q-20 0 -34 14t-14 34v32q0 20 14 34t34 14zM1024 1344q53 0 90.5 -37.5t37.5 -90.5t-37.5 -90.5t-90.5 -37.5t-90.5 37.5t-37.5 90.5t37.5 90.5t90.5 37.5z" />
    <glyph glyph-name="crosshairs" unicode="CROSSHAIRS" 
d="M2024 832q10 0 17 -7t7 -17v-80q0 -10 -7 -17t-17 -7h-138q-11 -157 -78 -299.5t-172.5 -248t-248 -172.5t-299.5 -78v-138q0 -10 -7 -17t-17 -7h-80q-10 0 -17 7t-7 17v138q-157 11 -299.5 78t-248 172.5t-172.5 248t-78 299.5h-138q-10 0 -17 7t-7 17v80q0 10 7 17
t17 7h138q11 157 78 299.5t172.5 248t248 172.5t299.5 78v138q0 10 7 17t17 7h80q10 0 17 -7t7 -17v-138q157 -11 299.5 -78t248 -172.5t172.5 -248t78 -299.5h138zM1088 35q176 15 323.5 106.5t239 239.5t106.5 323h-261q-10 0 -17 7t-7 17v80q0 10 7 17t17 7h261
q-15 176 -106.5 323.5t-239.5 239t-323 106.5v-261q0 -10 -7 -17t-17 -7h-80q-10 0 -17 7t-7 17v261q-176 -15 -323.5 -106.5t-239 -239.5t-106.5 -323h261q10 0 17 -7t7 -17v-80q0 -10 -7 -17t-17 -7h-261q15 -176 106.5 -323.5t239.5 -239t323 -106.5v261q0 10 7 17t17 7
h80q10 0 17 -7t7 -17v-261zM1120 768q0 -40 -28 -68t-68 -28t-68 28t-28 68t28 68t68 28t68 -28t28 -68z" />
    <glyph glyph-name="ban" unicode="Ban" 
d="M1024 1760q202 0 385.5 -78.5t316.5 -211.5t211.5 -316.5t78.5 -385.5t-78.5 -385.5t-211.5 -316.5t-316.5 -211.5t-385.5 -78.5t-385.5 78.5t-316.5 211.5t-211.5 316.5t-78.5 385.5t78.5 385.5t211.5 316.5t316.5 211.5t385.5 78.5zM413 157q119 -119 272 -183.5
t309 -70t312.5 48t281.5 161.5l-1219 1219q-108 -125 -161.5 -281.5t-48 -312.5t70 -309t183.5 -272zM1679 204q108 125 161.5 281.5t48 312.5t-70 309t-183.5 272t-272 183.5t-309 70t-312.5 -48t-281.5 -161.5z" />
    <glyph glyph-name="arrow-left" unicode="ARROW&#x2d;LEFT" horiz-adv-x="1792" 
d="M926 -110q-14 -14 -34 -14t-34 14l-844 844q-14 14 -14 34t14 34l844 844q14 14 34 14t34 -14l28 -28q14 -14 14 -34t-14 -34l-714 -714h1504q20 0 34 -14t14 -34v-40q0 -20 -14 -34t-34 -14h-1504l714 -714q14 -14 14 -34t-14 -34z" />
    <glyph glyph-name="arrow-right" unicode="ARROW&#x2d;RIGHT" horiz-adv-x="1792" 
d="M866 1646q14 14 34 14t34 -14l844 -844q14 -14 14 -34t-14 -34l-844 -844q-14 -14 -34 -14t-34 14l-28 28q-14 14 -14 34t14 34l714 714h-1504q-20 0 -34 14t-14 34v40q0 20 14 34t34 14h1504l-714 714q-14 14 -14 34t14 34z" />
    <glyph glyph-name="arrow-up" unicode="ARROW&#x2d;UP" horiz-adv-x="1792" 
d="M18 738q-14 14 -14 34t14 34l844 844q14 14 34 14t34 -14l844 -844q14 -14 14 -34t-14 -34l-28 -28q-14 -14 -34 -14t-34 14l-714 714v-1504q0 -20 -14 -34t-34 -14h-40q-20 0 -34 14t-14 34v1504l-714 -714q-14 -14 -34 -14t-34 14z" />
    <glyph glyph-name="arrow-down" unicode="ARROW&#x2d;DOWN" horiz-adv-x="1792" 
d="M1774 798q14 -14 14 -34t-14 -34l-844 -844q-14 -14 -34 -14t-34 14l-844 844q-14 14 -14 34t14 34l28 28q14 14 34 14t34 -14l714 -714v1504q0 20 14 34t34 14h40q20 0 34 -14t14 -34v-1504l714 714q14 14 34 14t34 -14z" />
    <glyph glyph-name="share" unicode="SHARE" horiz-adv-x="2304" 
d="M2260 1007q44 -46 44 -110.5t-44 -111.5l-704 -736q-36 -37 -85 -46t-90.5 7.5t-71 57t-29.5 92.5v351q-145 -2 -243.5 -7.5t-195.5 -21t-154 -43t-103.5 -71.5t-60 -108t-7 -151t38.5 -202q12 -42 -3.5 -81t-47 -59t-71 -23t-76.5 25q-46 34 -89 73.5t-93.5 105
t-87.5 137.5t-62 172.5t-25 209.5q0 112 22.5 207.5t62.5 170t100.5 135.5t130 105t158.5 77.5t179.5 54.5t198.5 35t209.5 20t218.5 7v353q0 52 29.5 92.5t71 57t90.5 7.5t85 -46zM2167 874q9 9 9 22t-9 22l-704 736q-15 16 -35 8t-20 -30v-480q-156 0 -270 -4t-256.5 -20
t-242.5 -44t-203 -79t-166 -122t-102.5 -176.5t-39.5 -239.5q0 -107 26.5 -202.5t72.5 -168.5t96 -126.5t109 -96.5q-34 120 -42 218t2.5 172.5t50 132t85 97t124.5 67t151.5 43.5t182.5 24t200 10.5t222 2.5v-480q0 -22 20 -30t35 8z" />
    <glyph glyph-name="expand" unicode="EXPAND" horiz-adv-x="1792" 
d="M0 1072v496q0 40 28 68t68 28h496q20 0 34 -14t14 -34v-32q0 -20 -14 -34t-34 -14h-464v-464q0 -20 -14 -34t-34 -14h-32q-20 0 -34 14t-14 34zM1200 1664h496q40 0 68 -28t28 -68v-496q0 -20 -14 -34t-34 -14h-32q-20 0 -34 14t-14 34v464h-464q-20 0 -34 14t-14 34v32
q0 20 14 34t34 14zM1792 464v-496q0 -40 -28 -68t-68 -28h-496q-20 0 -34 14t-14 34v32q0 20 14 34t34 14h464v464q0 20 14 34t34 14h32q20 0 34 -14t14 -34zM592 -128h-496q-40 0 -68 28t-28 68v496q0 20 14 34t34 14h32q20 0 34 -14t14 -34v-464h464q20 0 34 -14t14 -34
v-32q0 -20 -14 -34t-34 -14z" />
    <glyph glyph-name="compress" unicode="COMPRESS" horiz-adv-x="1792" 
d="M1744 1024h-496q-40 0 -68 28t-28 68v496q0 20 14 34t34 14h32q20 0 34 -14t14 -34v-464h464q20 0 34 -14t14 -34v-32q0 -20 -14 -34t-34 -14zM640 1120q0 -40 -28 -68t-68 -28h-496q-20 0 -34 14t-14 34v32q0 20 14 34t34 14h464v464q0 20 14 34t34 14h32q20 0 34 -14
t14 -34v-496zM640 -80q0 -20 -14 -34t-34 -14h-32q-20 0 -34 14t-14 34v464h-464q-20 0 -34 14t-14 34v32q0 20 14 34t34 14h496q40 0 68 -28t28 -68v-496zM1280 -80q0 -20 -14 -34t-34 -14h-32q-20 0 -34 14t-14 34v496q0 40 28 68t68 28h496q20 0 34 -14t14 -34v-32
q0 -20 -14 -34t-34 -14h-464v-464z" />
    <glyph glyph-name="plus" unicode="Plus" horiz-adv-x="1536" 
d="M1504 864q14 0 23 -9t9 -23v-128q0 -14 -9 -23t-23 -9h-640v-640q0 -14 -9 -23t-23 -9h-128q-14 0 -23 9t-9 23v640h-640q-14 0 -23 9t-9 23v128q0 14 9 23t23 9h640v640q0 14 9 23t23 9h128q14 0 23 -9t9 -23v-640h640z" />
    <glyph glyph-name="minus" unicode="Minus" horiz-adv-x="1536" 
d="M1504 864q14 0 23 -9t9 -23v-128q0 -14 -9 -23t-23 -9h-1472q-14 0 -23 9t-9 23v128q0 14 9 23t23 9h1472z" />
    <glyph glyph-name="asterisk" unicode="ASTERISK" 
d="M1901 335q17 -10 22.5 -29t-4.5 -36l-16 -28q-10 -17 -29.5 -22t-36.5 5l-749 432v-865q0 -20 -14 -34t-34 -14h-32q-20 0 -34 14t-14 34v865l-749 -432q-17 -10 -36.5 -5t-29.5 22l-16 28q-10 17 -4.5 36t22.5 29l749 433l-749 433q-17 10 -22.5 29t4.5 36l16 28
q10 17 29.5 22t36.5 -5l749 -432v865q0 20 14 34t34 14h32q20 0 34 -14t14 -34v-865l749 432q17 10 36.5 5t29.5 -22l16 -28q10 -17 4.5 -36t-22.5 -29l-749 -433z" />
    <glyph glyph-name="exclamation-circle" unicode="EXCLAMATION&#x2d;CIRCLE" 
d="M1024 1632q-176 0 -336 -68.5t-275.5 -184t-184 -275.5t-68.5 -336t68.5 -336t184 -275.5t275.5 -184t336 -68.5t336 68.5t275.5 184t184 275.5t68.5 336q0 177 -69 337t-185 275.5t-275.5 183.5t-334.5 68zM1024 1760q202 0 385.5 -78.5t316.5 -211.5t211.5 -316.5
t78.5 -385.5t-78.5 -385.5t-211.5 -316.5t-316.5 -211.5t-385.5 -78.5t-385.5 78.5t-316.5 211.5t-211.5 316.5t-78.5 385.5t78.5 385.5t211.5 316.5t316.5 211.5t385.5 78.5zM978 1280h92q20 0 34.5 -15t13.5 -35l-28 -672q-1 -19 -14.5 -32.5t-33.5 -13.5h-36
q-20 0 -33.5 13.5t-14.5 32.5l-28 672q-1 20 13.5 35t34.5 15zM1024 432q46 0 79 -33t33 -79t-33 -79t-79 -33t-79 33t-33 79t33 79t79 33z" />
    <glyph glyph-name="gift" unicode="GIFT" 
d="M1856 1216q80 0 136 -56t56 -136v-384q0 -26 -19 -45t-45 -19h-64v-576q0 -80 -56 -136t-136 -56h-1408q-80 0 -136 56t-56 136v576h-64q-26 0 -45 19t-19 45v384q0 80 56 136t136 56h157q-61 87 -61 192q0 132 87.5 226t210.5 94t214.5 -82.5t223.5 -300.5
q132 218 223.5 300.5t214.5 82.5t210.5 -94t87.5 -226q0 -105 -61 -192h157zM1105 1230l-9 -14h366q70 0 120 56t50 136t-50 136t-120 56q-39 0 -68 -11.5t-70 -48.5t-93.5 -112t-125.5 -198zM586 1600q-70 0 -120 -56t-50 -136t50 -136t120 -56h366l-9 14q-73 123 -125 198
t-93 112.5t-70.5 48.5t-68.5 11zM768 -64v640h-512v-576q0 -26 19 -45t45 -19h448zM768 704v384h-576q-26 0 -45 -19t-19 -45v-320h640zM1152 -64v1152h-256v-1152h256zM1792 0v576h-512v-640h448q26 0 45 19t19 45zM1920 704v320q0 26 -19 45t-45 19h-576v-384h640z" />
    <glyph glyph-name="leaf" unicode="Leaf" horiz-adv-x="2304" 
d="M2185 1753q119 -266 119 -578q0 -256 -79.5 -487t-219 -404t-340 -282t-431.5 -126q-36 -4 -82 -4q-216 0 -397 111t-280 295q-71 -64 -134.5 -140.5t-98.5 -129t-67.5 -114.5t-37.5 -74.5l-13 -32.5q-9 -26 -32.5 -36.5t-48.5 -2.5q-25 9 -36.5 32.5t-2.5 48.5
q93 231 279 437q66 72 139 135q-38 114 -38 239q0 209 103 385.5t279.5 279.5t385.5 103h320q189 0 347.5 93.5t252.5 256.5q19 34 56 34q39 0 57 -39zM1220 4q205 15 383 110.5t304 250t197.5 364.5t71.5 446q0 214 -65 414q-117 -147 -283.5 -228t-355.5 -81h-320
q-130 0 -248.5 -51t-204 -136.5t-136.5 -204t-51 -248.5q0 -66 21 -154q398 282 939 282q26 0 45 -19t19 -45t-19 -45t-45 -19q-520 0 -894 -278q79 -163 233 -262.5t341 -99.5q20 0 68 4z" />
    <glyph glyph-name="fire" unicode="FIRE" horiz-adv-x="1536" 
d="M864 1696q0 -83 37 -159t96.5 -138.5t131 -126.5t143 -139t131 -160t96.5 -204t37 -257q0 -156 -61 -298t-164 -245t-245 -164t-298 -61t-298 61t-245 164t-164 245t-61 298q0 188 87 355t242 275q48 33 99.5 6t51.5 -85v-423q0 -66 47 -113t113 -47t113 47t47 113
q0 38 -26.5 91.5t-62.5 112t-75.5 129t-64 155t-29 177t31 207.5t113.5 236q25 38 68 43.5t76 -22t33 -73.5zM768 -128q130 0 248.5 51t204 136.5t136.5 204t51 248.5q0 118 -32 218.5t-84.5 174t-117 139.5t-132.5 129t-127 127.5t-105.5 150t-63.5 181.5
q-54 -98 -73.5 -191.5t-7 -170t40.5 -147.5t66.5 -135t73 -120.5t58.5 -116.5t24 -111q0 -119 -84.5 -203.5t-203.5 -84.5t-203.5 84.5t-84.5 203.5v384q-104 -89 -164 -229t-60 -283q0 -130 51 -248.5t136.5 -204t204 -136.5t248.5 -51z" />
    <glyph glyph-name="eye" unicode="EYE" horiz-adv-x="2304" 
d="M1152 640q-106 0 -181 75t-75 181q0 2 0.5 5.5t0.5 5.5q31 -11 65 -11q79 0 134.5 55.5t55.5 134.5q0 34 -11 65q2 0 5.5 0.5t5.5 0.5q106 0 181 -75t75 -181t-75 -181t-181 -75zM2290 826q14 -26 14 -58t-14 -58q-165 -322 -470 -516t-668 -194t-668 194t-470 516
q-14 26 -14 58t14 58q165 322 470 516t668 194t668 -194t470 -516zM1152 1408q-104 0 -198.5 -40.5t-163.5 -109.5t-109.5 -163.5t-40.5 -198.5q0 -212 150 -362t362 -150t362 150t150 362t-150 362t-362 150zM1152 128q322 0 597.5 172t426.5 468q-73 142 -224.5 293.5
t-294.5 223.5q135 -176 135 -389q0 -130 -51 -248.5t-136.5 -204t-204 -136.5t-248.5 -51t-248.5 51t-204 136.5t-136.5 204t-51 248.5q0 213 135 389q-143 -72 -294.5 -223.5t-224.5 -293.5q151 -296 426.5 -468t597.5 -172z" />
    <glyph glyph-name="eye-slash" unicode="EYE&#x2d;SLASH" horiz-adv-x="2560" 
d="M2548 -149q12 -9 12 -25q0 -11 -7 -20l-40 -50q-9 -12 -25 -12q-11 0 -20 7l-2456 1934q-12 9 -12 25q0 11 7 20l40 50q9 12 25 12q11 0 20 -7zM1280 1408q-191 0 -337 -130l-183 144q103 47 255 80.5t264 33.5h1q363 0 668 -194t470 -516q14 -26 14 -58t-14 -58
q-105 -205 -284 -370l-101 79q69 61 148.5 163.5t122.5 185.5q-73 142 -224.5 293.5t-294.5 223.5q135 -176 135 -389q0 -165 -88 -318l-102 80q62 117 62 238q0 104 -40.5 198.5t-109.5 163.5t-163.5 109.5t-198.5 40.5zM1523 821l-255 201q12 29 12 66q0 32 -11 63
q2 0 5.5 0.5t5.5 0.5h3q104 0 178.5 -74.5t74.5 -178.5q0 -39 -13 -78zM653 1017l118 -93q0 -2 -1.5 -12t-1.5 -16q0 -104 40.5 -198.5t109.5 -163.5t163.5 -109.5t198.5 -40.5q66 0 147 24l118 -93q-53 -24 -131.5 -41.5t-135.5 -17.5q-173 0 -320 85.5t-232.5 232.5
t-85.5 320v2q0 60 13 121zM1280 128q201 0 403 78l117 -92q-103 -47 -255 -80.5t-264 -33.5h-1q-363 0 -668 194t-470 516q-14 26 -14 58t14 58q105 205 284 370l103 -81q-173 -152 -273 -347q151 -296 426.5 -468t597.5 -172z" />
    <glyph glyph-name="exclamation-triangle" unicode="EXCLAMATION&#x2d;TRIANGLE" horiz-adv-x="2304" 
d="M1081 1152h142q10 0 17 -7t7 -18l-30 -784q0 -10 -7 -16.5t-17 -6.5h-82q-10 0 -17 6.5t-7 16.5l-30 784q0 11 7 18t17 7zM1152 240q46 0 79 -33t33 -79t-33 -79t-79 -33t-79 33t-33 79t33 79t79 33zM2278 32q29 -48 26 -99t-26 -93t-67.5 -69t-98.5 -27h-1920
q-54 0 -99 27t-67.5 69t-25.5 93t26 99l960 1664q36 62 101 85t130 0t101 -85zM2112 -128q37 0 55.5 32t-0.5 64l-960 1664q-18 32 -55.5 32t-55.5 -32l-960 -1664q-18 -32 0.5 -64t55.5 -32h1920z" />
    <glyph glyph-name="plane" unicode="PLANE" horiz-adv-x="2304" 
d="M1920 1024q73 0 161.5 -33.5t155.5 -95t67 -127.5t-67 -127.5t-155.5 -95t-161.5 -33.5h-457l-421 -736q-18 -32 -55 -32h-354q-32 0 -51 25.5t-10 56.5l196 686h-256l-173 -230q-19 -26 -51 -26h-224q-31 0 -50.5 25t-11.5 55l126 432l-126 432q-8 30 11.5 55t50.5 25
h224q32 0 51 -26l173 -230h256l-196 686q-9 31 10 56.5t51 25.5h354q16 0 31.5 -9t23.5 -23l421 -736h457zM1920 640q74 0 162.5 47.5t93.5 80.5q-5 33 -93.5 80.5t-162.5 47.5h-531l-439 768h-232l220 -768h-490l-192 256h-107l112 -384l-112 -384h107l192 256h490
l-220 -768h232l439 768h531z" />
    <glyph glyph-name="calendar-alt" unicode="CALENDAR&#x2d;ALT" horiz-adv-x="1792" 
d="M1600 1536q80 0 136 -56t56 -136v-1408q0 -80 -56 -136t-136 -56h-1408q-80 0 -136 56t-56 136v1408q0 80 56 136t136 56h192v208q0 20 14 34t34 14h32q20 0 34 -14t14 -34v-208h768v208q0 20 14 34t34 14h32q20 0 34 -14t14 -34v-208h192zM192 1408q-26 0 -45 -19
t-19 -45v-192h1536v192q0 26 -19 45t-45 19h-1408zM1600 -128q26 0 45 19t19 45v1088h-1536v-1088q0 -26 19 -45t45 -19h1408zM592 512h-160q-20 0 -34 14t-14 34v160q0 20 14 34t34 14h160q20 0 34 -14t14 -34v-160q0 -20 -14 -34t-34 -14zM976 512h-160q-20 0 -34 14
t-14 34v160q0 20 14 34t34 14h160q20 0 34 -14t14 -34v-160q0 -20 -14 -34t-34 -14zM1360 512h-160q-20 0 -34 14t-14 34v160q0 20 14 34t34 14h160q20 0 34 -14t14 -34v-160q0 -20 -14 -34t-34 -14zM976 128h-160q-20 0 -34 14t-14 34v160q0 20 14 34t34 14h160
q20 0 34 -14t14 -34v-160q0 -20 -14 -34t-34 -14zM592 128h-160q-20 0 -34 14t-14 34v160q0 20 14 34t34 14h160q20 0 34 -14t14 -34v-160q0 -20 -14 -34t-34 -14zM1360 128h-160q-20 0 -34 14t-14 34v160q0 20 14 34t34 14h160q20 0 34 -14t14 -34v-160q0 -20 -14 -34
t-34 -14z" />
    <glyph glyph-name="random" unicode="RANDOM" 
d="M0 1280v32q0 20 14 34t34 14h423q21 0 35 -16l359 -388l-87 -94l-342 370h-388q-20 0 -34 14t-14 34zM2010 166l-256 -256q-29 -29 -67.5 -35.5t-71.5 7t-56 45.5t-23 73v176h-103q-21 0 -35 16l-359 388l87 94l342 -370h68v208q0 41 23 73t56 45.5t71.5 7t67.5 -35.5
l256 -256q38 -38 38 -90t-38 -90zM1931 267l-256 256q-7 7 -17 3.5t-10 -14.5v-512q0 -11 10 -14.5t17 3.5l256 256q11 11 0 22zM2010 1190l-256 -256q-29 -29 -67.5 -35.5t-71.5 7t-56 45.5t-23 73v208h-68l-962 -1040q-14 -16 -35 -16h-423q-20 0 -34 14t-14 34v32
q0 20 14 34t34 14h388l962 1040q14 16 35 16h103v176q0 41 23 73t56 45.5t71.5 7t67.5 -35.5l256 -256q38 -38 38 -90t-38 -90zM1931 1291l-256 256q-7 7 -17 3.5t-10 -14.5v-512q0 -11 10 -14.5t17 3.5l256 256q11 11 0 22z" />
    <glyph glyph-name="comment" unicode="COMMENT" 
d="M1024 1536q-182 0 -348 -56t-286 -150t-191 -224.5t-71 -273.5q0 -231 177 -417l55 -59l-29 -74q-53 -142 -163 -279q214 21 410 159l52 36l61 -19q162 -51 333 -51q182 0 348 56t286 150t191 224.5t71 273.5t-71 273.5t-191 224.5t-286 150t-348 56zM1024 1664
q209 0 398.5 -66t326.5 -177t218 -265.5t81 -323.5t-81 -323.5t-218 -265.5t-326.5 -177t-398.5 -66q-188 0 -372 57q-262 -185 -556 -185q-29 0 -53 16t-35 42t-6 54.5t24 49.5q11 11 36.5 41.5t74 106t75.5 145.5q-212 225 -212 505q0 169 81 323.5t218 265.5t326.5 177
t398.5 66z" />
    <glyph glyph-name="magnet" unicode="MAGNET" 
d="M1488 1664h416q60 0 102 -42t42 -102v-757q0 -147 -42 -282t-115.5 -242t-172 -195t-212 -146.5t-236 -90t-243.5 -31.5q-145 0 -291.5 44t-278.5 130.5t-234 203.5t-162.5 275.5t-60.5 333.5q4 81 4 261h-4v128h4q0 170 -2 366q-1 60 41.5 103t102.5 43h414
q60 0 102 -42t42 -102v-688q0 -181 95 -282.5t225 -101.5t225 101.5t95 282.5v688q0 60 42 102t102 42zM146 1520q2 -196 2 -368h412v368h-414zM1904 760q-4 85 -4 264h-412v-192q0 -237 -139 -387q-65 -70 -151 -106q-80 -35 -174 -35t-174 35q-86 36 -151 106
q-139 148 -139 387v192h-412q0 -158 -5 -265q2 -184 79 -342q72 -149 205 -265q129 -112 287 -172t313 -60q154 0 311 60q161 62 285 171q131 114 203 265q78 162 78 344zM1488 1152h412q0 172 2 368h-414v-368z" />
    <glyph glyph-name="chevron-up" unicode="CHEVRON&#x2d;UP" horiz-adv-x="1792" 
d="M18 326q-14 14 -14 34t14 34l844 844q14 14 34 14t34 -14l844 -844q14 -14 14 -34t-14 -34l-28 -28q-14 -14 -34 -14t-34 14l-782 782l-782 -782q-14 -14 -34 -14t-34 14z" />
    <glyph glyph-name="chevron-down" unicode="CHEVRON&#x2d;DOWN" horiz-adv-x="1792" 
d="M1774 1142q14 -14 14 -34t-14 -34l-844 -845q-14 -14 -34 -14t-34 14l-844 845q-14 14 -14 34t14 34l28 28q14 14 34 14t34 -14l782 -782l782 782q14 14 34 14t34 -14z" />
    <glyph glyph-name="retweet" unicode="RETWEET" horiz-adv-x="2560" 
d="M2539 337l-393 -394q-14 -14 -34 -14t-34 14l-393 394q-14 14 -14 34t14 34l22 22q14 14 34 14t34 -14l273 -272v1125h-1008q-20 0 -34 14l-32 32q-23 22 -10.5 52t44.5 30h1072q40 0 68 -28t28 -68v-1157l273 272q14 14 34 14t34 -14l22 -22q14 -14 14 -34t-14 -34z
M1554 242l32 -32q23 -22 10.5 -52t-44.5 -30h-1072q-40 0 -68 28t-28 68v1157l-273 -272q-14 -14 -34 -14t-34 14l-22 22q-14 14 -14 34t14 34l393 394q14 14 34 14t34 -14l393 -394q14 -14 14 -34t-14 -34l-22 -22q-14 -14 -34 -14t-34 14l-273 272v-1125h1008q20 0 34 -14
z" />
    <glyph glyph-name="shopping-cart" unicode="SHOPPING&#x2d;CART" horiz-adv-x="2304" 
d="M2208 1536q46 0 74.5 -35.5t19.5 -80.5l-173 -832q-7 -33 -33.5 -54.5t-60.5 -21.5h-1326l48 -256h1184q34 0 59.5 -21t33.5 -52q78 -76 78 -183q0 -106 -75 -181t-181 -75t-181 75t-75 181q0 29 10 66t24 62h-580q14 -25 24 -62t10 -66q0 -106 -75 -181t-181 -75
t-181 75t-75 181q0 98 67 172l-280 1492h-315q-20 0 -34 14t-14 34v32q0 20 14 34t34 14h341q34 0 61 -22t34 -56l33 -178h1691zM960 0q0 53 -37.5 90.5t-90.5 37.5t-90.5 -37.5t-37.5 -90.5t37.5 -90.5t90.5 -37.5t90.5 37.5t37.5 90.5zM1856 -128q53 0 90.5 37.5
t37.5 90.5t-37.5 90.5t-90.5 37.5t-90.5 -37.5t-37.5 -90.5t37.5 -90.5t90.5 -37.5zM2009 640l160 768h-1628l144 -768h1324z" />
    <glyph glyph-name="folder" unicode="FOLDER" 
d="M779 1408h-587q-26 0 -45 -19t-19 -45v-1152q0 -26 19 -45t45 -19h1664q26 0 45 19t19 45v896q0 26 -19 45t-45 19h-768q-54 0 -91 37zM192 1536h587q53 0 90 -37l219 -219h768q80 0 136 -56t56 -136v-896q0 -80 -56 -136t-136 -56h-1664q-80 0 -136 56t-56 136v1152
q0 80 56 136t136 56z" />
    <glyph glyph-name="folder-open" unicode="FOLDER&#x2d;OPEN" horiz-adv-x="2304" 
d="M2112 896q54 0 99 -27.5t67.5 -70t25.5 -94t-28 -99.5l-269 -450q-43 -72 -117 -113.5t-158 -41.5h-1540q-80 0 -136 56t-56 136v1152q0 80 56 136t136 56h640l256 -256h640q80 0 136 -56t56 -136v-192h192zM192 1408q-26 0 -45 -19t-19 -45v-1074l282 471
q43 72 117 113.5t158 41.5h1107v192q0 26 -19 45t-45 19h-693l-256 256h-587zM2167 671q19 32 1 64.5t-56 32.5h-1440q-45 0 -93.5 -27.5t-71.5 -65.5l-328 -547h1553q45 0 93.5 27.5t71.5 65.5z" />
    <glyph glyph-name="arrows-v" unicode="ARROWS&#x2d;V" horiz-adv-x="768" 
d="M726 192l28 -28q14 -14 14 -34t-14 -34l-336 -338q-14 -14 -34 -14t-34 14l-336 338q-14 14 -14 34t14 34l28 28q14 14 34 14t34 -14l206 -208v1568l-206 -208q-14 -14 -34 -14t-34 14l-28 28q-14 14 -14 34t14 34l336 338q14 14 34 14t34 -14l336 -338q14 -14 14 -34
t-14 -34l-28 -28q-14 -14 -34 -14t-34 14l-206 208v-1568l206 208q14 14 34 14t34 -14z" />
    <glyph glyph-name="arrows-h" unicode="ARROWS&#x2d;H" 
d="M1600 1110l28 28q14 14 34 14t34 -14l338 -336q14 -14 14 -34t-14 -34l-338 -336q-14 -14 -34 -14t-34 14l-28 28q-14 14 -14 34t14 34l208 206h-1568l208 -206q14 -14 14 -34t-14 -34l-28 -28q-14 -14 -34 -14t-34 14l-338 336q-14 14 -14 34t14 34l338 336q14 14 34 14
t34 -14l28 -28q14 -14 14 -34t-14 -34l-208 -206h1568l-208 206q-14 14 -14 34t14 34z" />
    <glyph glyph-name="chart-bar" unicode="CHART&#x2d;BAR" 
d="M1696 384q-14 0 -23 9t-9 23v960q0 14 9 23t23 9h64q14 0 23 -9t9 -23v-960q0 -14 -9 -23t-23 -9h-64zM1312 384q-14 0 -23 9t-9 23v576q0 14 9 23t23 9h64q14 0 23 -9t9 -23v-576q0 -14 -9 -23t-23 -9h-64zM544 384q-14 0 -23 9t-9 23v320q0 14 9 23t23 9h64q14 0 23 -9
t9 -23v-320q0 -14 -9 -23t-23 -9h-64zM928 384q-14 0 -23 9t-9 23v832q0 14 9 23t23 9h64q14 0 23 -9t9 -23v-832q0 -14 -9 -23t-23 -9h-64zM2016 128q14 0 23 -9t9 -23v-64q0 -14 -9 -23t-23 -9h-1952q-26 0 -45 19t-19 45v1440q0 14 9 23t23 9h64q14 0 23 -9t9 -23v-1376
h1888z" />
    <glyph glyph-name="camera-retro" unicode="CAMERA&#x2d;RETRO" 
d="M128 1560v80q0 10 7 17t17 7h464q10 0 17 -7t7 -17v-80q0 -10 -7 -17t-17 -7h-464q-10 0 -17 7t-7 17zM1504 640q0 -130 -64.5 -240.5t-175 -175t-240.5 -64.5t-240.5 64.5t-175 175t-64.5 240.5t64.5 240.5t175 175t240.5 64.5t240.5 -64.5t175 -175t64.5 -240.5z
M1376 640q0 146 -103 249t-249 103t-249 -103t-103 -249t103 -249t249 -103t249 103t103 249zM896 640q0 -26 -19 -45t-45 -19t-45 19t-19 45q0 106 75 181t181 75q26 0 45 -19t19 -45t-19 -45t-45 -19q-52 0 -90 -38t-38 -90zM2048 1472v-1408q0 -80 -56 -136t-136 -56
h-1664q-80 0 -136 56t-56 136v1152q0 80 56 136t136 56h544l134 179q27 36 68 56.5t86 20.5h832q80 0 136 -56t56 -136zM896 1408h960q33 0 64 -11v75q0 26 -19 45t-45 19h-832q-32 0 -51 -26zM1920 1216q0 26 -19 45t-45 19h-1664q-26 0 -45 -19t-19 -45v-1152
q0 -26 19 -45t45 -19h1664q26 0 45 19t19 45v1152z" />
    <glyph glyph-name="key" unicode="Key" 
d="M1344 1664q-117 0 -223.5 -45.5t-184 -123t-123 -184t-45.5 -223.5q0 -115 41 -215l-681 -681v-320h384v256h256v256h192l169 169q100 -41 215 -41q117 0 223.5 45.5t184 123t123 184t45.5 223.5t-45.5 223.5t-123 184t-184 123t-223.5 45.5zM1344 1792
q143 0 273.5 -55.5t225 -150t150 -225t55.5 -273.5t-55.5 -273.5t-150 -225t-225 -150t-273.5 -55.5q-91 0 -180 23l-123 -123q-28 -28 -68 -28h-77v-160q0 -40 -28 -68t-68 -28h-160v-160q0 -40 -28 -68t-68 -28h-448q-40 0 -68 28t-28 68v365q0 40 28 68l635 635
q-23 89 -23 180q0 143 55.5 273.5t150 225t225 150t273.5 55.5zM1536 1360q-33 0 -56.5 -23.5t-23.5 -56.5t23.5 -56.5t56.5 -23.5t56.5 23.5t23.5 56.5t-23.5 56.5t-56.5 23.5zM1536 1472q80 0 136 -56t56 -136t-56 -136t-136 -56t-136 56t-56 136t56 136t136 56z" />
    <glyph glyph-name="cogs" unicode="COGS" horiz-adv-x="2560" 
d="M2154 1006l-10 16q-24 -2 -48 0l-10 -16q-17 -28 -47.5 -39t-62.5 -1q-81 25 -138 72q-27 22 -32.5 57t11.5 65l10 17q-20 31 -25 42h-36q-34 0 -60.5 22t-33.5 57q-14 79 0 154q6 34 32.5 56t61.5 22h36q5 11 25 42l-11 18q-17 30 -11 64t32 57q58 50 134 76
q32 11 64.5 -0.5t49.5 -41.5l11 -18q24 1 48 0l11 18q17 30 49 41.5t65 0.5q72 -24 134 -77q26 -23 32 -56.5t-11 -63.5l-11 -18q20 -31 25 -42h20q34 0 60.5 -22t33.5 -57q14 -79 0 -154q-6 -34 -32.5 -56t-61.5 -22h-20q-5 -11 -25 -42l10 -17q18 -31 11.5 -65t-33.5 -57
q-57 -47 -136 -72q-32 -10 -63 1t-48 39zM2203 1144l43 -73q40 16 74 43l-42 74l26 30q30 36 44 76l13 37h84q6 43 0 86h-84l-13 37q-15 42 -44 77l-26 30l42 73q-36 28 -75 44l-42 -74l-39 8q-44 9 -88 0l-39 -8l-43 74q-39 -16 -74 -44l42 -73l-25 -30q-30 -36 -44 -76
l-13 -37h-85q-6 -43 0 -86h85l13 -38q14 -40 44 -76l25 -30l-42 -74q33 -26 75 -43l42 73l39 -7q44 -9 88 0zM581 -26v127q-77 33 -145 84l-110 -63q-29 -17 -63 -12t-56 30q-75 81 -121.5 160.5t-81.5 191.5q-10 32 2.5 63.5t41.5 48.5l109 64q-11 84 0 168l-109 64
q-29 17 -41.5 48.5t-2.5 63.5q35 113 81 191.5t122 160.5q22 25 56 30t63 -12l109 -63q67 51 146 84v127q0 34 21 59.5t54 33.5q108 24 196 24.5t211 -24.5q33 -8 54 -33.5t21 -59.5v-127q79 -33 146 -84l110 63q29 17 63 12t56 -30q145 -158 208 -354q10 -31 -1 -62.5
t-40 -48.5l-100 -63q10 -84 0 -168l113 -70q26 -17 38 -44.5t5 -57.5q-35 -155 -224 -357q-22 -25 -55.5 -30t-62.5 12l-110 64q-70 -53 -146 -85v-126q0 -34 -21 -60.5t-54 -33.5q-112 -25 -204 -25t-203 25q-32 8 -53.5 34t-21.5 60zM709 -1q151 -30 301 0v191l43 15
q103 37 184 106l34 30l166 -96q130 148 168 261l-165 96l8 44q20 106 0 212l-8 45l165 95q-38 113 -168 261l-166 -95l-34 29q-79 69 -184 106l-43 15v191q-150 30 -301 0v-191l-43 -15q-101 -36 -183 -106l-35 -30l-165 96q-42 -48 -86.5 -124.5t-64.5 -136.5l166 -96
l-9 -44q-20 -106 0 -212l9 -45l-166 -95q48 -144 151 -261l165 95l35 -29q80 -70 183 -106l43 -15v-191zM863 420q-137 0 -234.5 97.5t-97.5 234.5t97.5 234.5t234.5 97.5t234 -97.5t97 -234.5t-97 -234.5t-234 -97.5zM863 956q-84 0 -144 -60t-60 -144t60 -144t144 -60
t143.5 60t59.5 144t-59.5 144t-143.5 60zM2154 -211l-10 15q-24 -2 -48 0l-10 -16q-17 -28 -47.5 -39t-62.5 -1q-81 25 -138 72q-27 22 -32.5 57t11.5 65l10 17q-18 28 -25 43h-36q-35 0 -61 22t-33 56q-14 79 0 154q6 34 32.5 56t61.5 22h36q5 11 25 42l-11 18
q-17 30 -11 64.5t32 57.5q58 50 134 76q32 11 64.5 -1t49.5 -42l11 -17q24 2 48 0l11 17q17 30 49 41.5t65 0.5q74 -25 134 -76q26 -23 32 -57t-11 -64l-11 -18q20 -31 25 -42h20q35 0 61 -22t33 -56q14 -79 0 -154q-6 -34 -32.5 -56t-61.5 -22h-20q-7 -15 -25 -43l10 -17
q18 -31 11.5 -65t-33.5 -57q-57 -47 -136 -72q-31 -10 -62.5 1.5t-48.5 39.5zM2203 -73l43 -73q40 16 74 43l-42 73l26 30q29 35 44 77l13 37h84q6 43 0 86h-84l-13 37q-15 42 -44 77l-26 30l42 73q-34 27 -74 43l-43 -73l-39 7q-44 9 -88 0l-39 -7l-42 73q-42 -17 -75 -43
l42 -73l-25 -30q-29 -35 -44 -77l-13 -37h-85q-6 -43 0 -86h85l13 -37q15 -42 44 -77l25 -30l-42 -73q33 -26 75 -43l42 73l39 -7q44 -9 88 0zM2240 160q0 -53 -37.5 -90.5t-90.5 -37.5t-90.5 37.5t-37.5 90.5t37.5 90.5t90.5 37.5t90.5 -37.5t37.5 -90.5zM2240 1377
q0 -53 -37.5 -90.5t-90.5 -37.5t-90.5 37.5t-37.5 90.5t37.5 90.5t90.5 37.5t90.5 -37.5t37.5 -90.5z" />
    <glyph glyph-name="comments" unicode="COMMENTS" horiz-adv-x="2304" 
d="M2280 28q40 -43 17 -100q-11 -26 -34 -41t-51 -15q-261 0 -500 155q-114 -27 -240 -27q-255 0 -463 108.5t-304 283.5q-50 5 -112 19q-239 -155 -501 -155q-28 0 -50.5 15t-33.5 41q-24 55 17 100q8 8 27 30t58 78t66 111q-176 174 -176 393q0 130 66 248.5t177 204.5
t265.5 136.5t323.5 50.5q255 0 463 -108.5t304 -283.5q198 -23 359 -112t253.5 -226t92.5 -294q0 -220 -176 -393q27 -55 66.5 -111t58.5 -78t27 -30zM622 536q104 -24 210 -24q191 0 353 68.5t256.5 186.5t94.5 257t-94.5 257t-256.5 186.5t-353 68.5t-353 -68.5
t-256.5 -186.5t-94.5 -257q0 -166 138 -302l66 -65l-42 -83q-46 -94 -118 -186q183 21 351 130l46 30zM1781 134q166 -108 350 -129q-71 92 -118 185l-41 83l66 65q138 136 138 302q0 176 -148 313.5t-377 181.5q13 -59 13 -111q0 -127 -63 -243.5t-170.5 -201.5t-256 -137
t-312.5 -57q93 -117 255.5 -187t354.5 -70q106 0 210 24l53 12z" />
    <glyph glyph-name="star-half" unicode="STAR&#x2d;HALF" horiz-adv-x="2304" 
d="M1152 178v-144l-523 -275q-49 -21 -93.5 -10t-72.5 53t-19 92l100 582l-423 412q-37 36 -39 85t28.5 87.5t81.5 45.5l584 85l261 530q17 35 48 53t67 18v-128l-291 -590l-651 -94l471 -460l-111 -648z" />
    <glyph glyph-name="sign-out" unicode="SIGN&#x2d;OUT" 
d="M192 1536h528q20 0 34 -14t14 -34v-32q0 -20 -14 -34t-34 -14h-528q-26 0 -45 -19t-19 -45v-1152q0 -26 19 -45t45 -19h528q20 0 34 -14t14 -34v-32q0 -20 -14 -34t-34 -14h-528q-80 0 -136 56t-56 136v1152q0 80 56 136t136 56zM1308 1458q14 14 34 14t34 -14l658 -656
q14 -14 14 -34t-14 -34l-658 -656q-14 -14 -34 -14t-34 14l-28 28q-14 14 -14 34t14 34l528 526h-1120q-20 0 -34 14t-14 34v40q0 20 14 34t34 14h1120l-528 526q-14 14 -14 34t14 34z" />
    <glyph glyph-name="thumbtack" unicode="THUMBTACK" horiz-adv-x="1536" 
d="M1203 976q151 -86 242 -223.5t91 -301.5q0 -26 -19 -45t-45 -19h-640v-483q0 -6 -1 -8l-32 -128q-6 -24 -31 -24t-31 24l-32 128q0 1 -0.5 3.5t-0.5 4.5v483h-640q-26 0 -45 19t-19 45q0 164 91 301.5t242 223.5l40 304h-149q-40 0 -68 28t-28 68v320q0 40 28 68t68 28
h1088q40 0 68 -28t28 -68v-320q0 -40 -28 -68t-68 -28h-149zM133 515h1270q-20 124 -106 222.5t-212 155.5l-61 515h256v256h-1024v-256h256l-61 -515q-126 -57 -212 -155.5t-106 -222.5z" />
    <glyph glyph-name="external-link" unicode="EXTERNAL&#x2d;LINK" 
d="M1760 768q14 0 23 -9t9 -23v-800q0 -80 -56 -136t-136 -56h-1408q-80 0 -136 56t-56 136v1408q0 80 56 136t136 56h800q14 0 23 -9t9 -23v-64q0 -14 -9 -23t-23 -9h-800q-26 0 -45 -19t-19 -45v-1408q0 -26 19 -45t45 -19h1408q26 0 45 19t19 45v800q0 14 9 23t23 9h64z
M2000 1792q20 0 34 -14t14 -34l-1 -544q0 -20 -14.5 -34t-33.5 -14h-40q-19 0 -33.5 14t-14.5 34l1 360l-3 3l-1292 -1293q-14 -14 -34 -14t-34 14l-23 23q-14 14 -14 34t14 34l1293 1292l-3 3l-360 -1q-20 0 -34 14.5t-14 33.5v40q0 19 14 33.5t34 14.5z" />
    <glyph glyph-name="sign-in" unicode="SIGN&#x2d;IN" 
d="M736 1458l658 -656q14 -14 14 -34t-14 -34l-658 -656q-14 -14 -34 -14t-34 14l-28 28q-14 14 -14 34t14 34l528 526h-1120q-20 0 -34 14t-14 34v40q0 20 14 34t34 14h1120l-528 526q-14 14 -14 34t14 34l28 28q14 14 34 14t34 -14zM2048 192q0 -80 -56 -136t-136 -56
h-528q-20 0 -34 14t-14 34v32q0 20 14 34t34 14h528q26 0 45 19t19 45v1152q0 26 -19 45t-45 19h-528q-20 0 -34 14t-14 34v32q0 20 14 34t34 14h528q80 0 136 -56t56 -136v-1152z" />
    <glyph glyph-name="trophy" unicode="Trophy" horiz-adv-x="2304" 
d="M1792 1536h464q20 0 34 -14t14 -34v-246q0 -92 -49 -189.5t-132.5 -179.5t-205 -143t-256.5 -81q-57 -116 -134.5 -201.5t-154.5 -128.5t-156 -57v-390h344q44 0 74 -30t30 -74q0 -10 -7 -17t-17 -7h-976q-10 0 -17 7t-7 17q0 44 30 74t74 30h344v390q-79 14 -156 57
t-154.5 128.5t-134.5 201.5q-135 20 -256 81t-205 143t-133 179.5t-49 189.5v246q0 20 14 34t34 14h464v208q0 20 14 34t34 14h1184q20 0 34 -14t14 -34v-208zM128 1242q0 -82 56 -172t163 -167.5t239 -111.5q-74 227 -74 521v96h-384v-166zM1152 384q141 0 259 124.5
t185.5 337.5t67.5 466v352h-1024v-352q0 -253 67.5 -466t185.5 -337.5t259 -124.5zM2176 1242v166h-384v-96q0 -294 -74 -521q132 34 239 111.5t163 167.5t56 172z" />
    <glyph glyph-name="upload" unicode="UPLOAD" 
d="M1808 64q0 -33 -23.5 -56.5t-56.5 -23.5t-56.5 23.5t-23.5 56.5t23.5 56.5t56.5 23.5t56.5 -23.5t23.5 -56.5zM1472 144q33 0 56.5 -23.5t23.5 -56.5t-23.5 -56.5t-56.5 -23.5t-56.5 23.5t-23.5 56.5t23.5 56.5t56.5 23.5zM2048 336v-416q0 -73 -51.5 -124.5
t-124.5 -51.5h-1696q-73 0 -124.5 51.5t-51.5 124.5v416q0 73 51.5 124.5t124.5 51.5h496v397h-211q-51 0 -91 28.5t-57 69.5t-9 89.5t44 85.5l563 563q47 47 113 47t113 -47l563 -563q37 -37 44.5 -85.5t-9.5 -89.5t-57 -69.5t-91 -28.5h-211v-397h496q73 0 124.5 -51.5
t51.5 -124.5zM800 1037v-749q0 -14 9 -23t23 -9h384q14 0 23 9t9 23v749h339q21 0 29.5 20t-6.5 35l-563 563q-9 9 -22.5 9t-22.5 -9l-563 -563q-15 -15 -7 -35t30 -20h338zM1920 336q0 20 -14 34t-34 14h-496v-96q0 -66 -47 -113t-113 -47h-384q-66 0 -113 47t-47 113v96
h-496q-20 0 -34 -14t-14 -34v-416q0 -20 14 -34t34 -14h1696q20 0 34 14t14 34v416z" />
    <glyph glyph-name="lemon" unicode="LEMON" 
d="M1956 1700q68 -68 86 -153.5t-19 -146.5q-27 -46 -32.5 -115t1 -146t14 -167t-1.5 -191.5t-38 -206.5t-102.5 -225t-187.5 -234t-234 -187.5t-224.5 -102t-206 -37.5t-191.5 -2t-167 14t-146 1.5t-115 -32.5q-61 -37 -146.5 -19t-153.5 86t-86 153.5t19 146.5
q27 46 32.5 115t-1.5 146t-14 167t2 191.5t37.5 206.5t102 225t187.5 234t234 187.5t225 102t206.5 37.5t191.5 2t167 -14t146 -1.5t115 32.5q44 25 96 25q112 0 204 -92zM1913 1464q17 30 1.5 72t-49.5 73.5t-74 49t-71 -1.5q-61 -35 -137.5 -46t-154.5 -5.5t-165.5 14
t-182 3.5t-192 -29t-208.5 -90.5t-218 -173.5t-173.5 -218t-90.5 -208.5t-29 -192t3.5 -182t14 -165.5t-5.5 -154.5t-46 -137.5q-23 -39 9 -95.5t88.5 -88.5t95.5 -9q61 35 137.5 46t154.5 5.5t165.5 -14t182 -3.5t192 29t208.5 90.5t218 173.5t173.5 218t90.5 208.5t29 192
t-3.5 182t-14 165.5t5.5 154.5t46 137.5zM1038 1346q-197 -43 -373 -219t-219 -373q-5 -22 -22.5 -36t-39.5 -14q-4 0 -14 2q-26 6 -40 28t-8 48q53 235 253 435t435 253q26 6 48 -8t28 -40t-8 -48t-40 -28z" />
    <glyph glyph-name="phone" unicode="Phone" 
d="M1951 1696q43 -10 70 -44t27 -78q0 -249 -66 -486.5t-184 -438.5t-287 -369.5t-369.5 -286.5t-438 -183.5t-485.5 -65.5q-44 0 -78 27t-44 70l-93 403q-10 44 10.5 84.5t62.5 58.5l433 186q38 16 79 6t67 -42l177 -215q208 102 372 266t266 372l-216 176q-32 26 -42 67
t7 79l186 434q18 42 58.5 62.5t84.5 10.5zM220 -128q231 0 451 61.5t406.5 171t343.5 266t266.5 343t171 406.5t61.5 451l-399 92l-184 -429l291 -238q-146 -310 -334 -499t-498 -334l-238 291l-430 -184z" />
    <glyph glyph-name="phone-square" unicode="PHONE&#x2d;SQUARE" horiz-adv-x="1792" 
d="M1600 1664q80 0 136 -56t56 -136v-1408q0 -80 -56 -136t-136 -56h-1408q-80 0 -136 56t-56 136v1408q0 80 56 136t136 56h1408zM1664 64v1408q0 26 -19 45t-45 19h-1408q-26 0 -45 -19t-19 -45v-1408q0 -26 19 -45t45 -19h1408q26 0 45 19t19 45zM1445 1351
q40 -9 65.5 -41.5t25.5 -73.5q0 -181 -56 -350t-158.5 -305.5t-238.5 -238.5t-305 -158t-350 -56q-41 0 -73.5 25.5t-41.5 65.5l-54 234q-10 42 9.5 80t59.5 55l252 108q36 16 74 6.5t63 -39.5l79 -97q80 44 169 133t133 169l-97 79q-30 25 -39.5 63t6.5 74l108 252
q13 29 44.5 50.5t63.5 21.5q16 0 27 -3zM436 256q197 1 376.5 78.5t309.5 207.5t207.5 309.5t78.5 376.5l-218 50l-102 -237l169 -138q-89 -189 -199 -298.5t-297 -197.5l-138 169l-237 -102z" />
    <glyph glyph-name="unlock" unicode="UNLOCK" horiz-adv-x="1536" 
d="M1344 768q80 0 136 -56t56 -136v-640q0 -80 -56 -136t-136 -56h-1152q-80 0 -136 56t-56 136v640q0 80 56 136t136 56h64v384q0 135 31 249.5t92.5 203t161.5 138t229 49.5t228.5 -51t160 -140t91 -204t30.5 -251v-74q0 -20 -14 -34t-34 -14h-32q-20 0 -34 14t-14 34v80
q0 110 -21 199.5t-65 161.5t-119.5 111.5t-178.5 39.5t-178.5 -39.5t-119.5 -111.5t-65 -161.5t-21 -199.5v-384h960zM1408 -64v640q0 26 -19 45t-45 19h-1152q-26 0 -45 -19t-19 -45v-640q0 -26 19 -45t45 -19h1152q26 0 45 19t19 45z" />
    <glyph glyph-name="credit-card" unicode="CREDIT&#x2d;CARD" horiz-adv-x="2304" 
d="M2112 1664q80 0 136 -56t56 -136v-1408q0 -80 -56 -136t-136 -56h-1920q-80 0 -136 56t-56 136v1408q0 80 56 136t136 56h1920zM192 1536q-26 0 -45 -19t-19 -45v-192h2048v192q0 26 -19 45t-45 19h-1920zM2112 0q26 0 45 19t19 45v832h-2048v-832q0 -26 19 -45t45 -19
h1920zM768 336v-32q0 -20 -14 -34t-34 -14h-288q-20 0 -34 14t-14 34v32q0 20 14 34t34 14h288q20 0 34 -14t14 -34zM1536 336v-32q0 -20 -14 -34t-34 -14h-544q-20 0 -34 14t-14 34v32q0 20 14 34t34 14h544q20 0 34 -14t14 -34z" />
    <glyph glyph-name="rss" unicode="RSS" horiz-adv-x="1792" 
d="M320 384q-80 0 -136 -56t-56 -136t56 -136t136 -56t136 56t56 136t-56 136t-136 56zM320 512q133 0 226.5 -93.5t93.5 -226.5t-93.5 -226.5t-226.5 -93.5t-226.5 93.5t-93.5 226.5t93.5 226.5t226.5 93.5zM1792 -78q1 -20 -13.5 -35t-34.5 -15h-32q-19 0 -33 13.5
t-15 33.5q-6 217 -67 424t-166 382.5t-253.5 323.5t-324 253.5t-382 166.5t-424.5 67q-20 1 -33.5 15t-13.5 33v32q0 20 15 34.5t35 13.5q234 -6 456.5 -72t411.5 -179.5t349 -273t273.5 -348.5t179.5 -412t72 -457zM1215 -78q1 -20 -13.5 -35t-34.5 -15h-32
q-20 0 -33.5 13.5t-14.5 32.5q-9 208 -94 396.5t-223 327t-327 223.5t-397 94q-19 1 -32.5 14.5t-13.5 33.5v32q0 20 15 34.5t35 13.5q233 -9 444.5 -104t366.5 -250t250 -366t104 -445z" />
    <glyph glyph-name="hdd" unicode="HDD" horiz-adv-x="2304" 
d="M2267 882q15 -21 26 -54t11 -58v-578q0 -80 -56 -136t-136 -56h-1920q-80 0 -136 56t-56 136v578q0 25 11 58t26 54l417 575q24 33 69.5 56t86.5 23h1084q41 0 86.5 -23t69.5 -56zM558 1382l-353 -486h1894l-353 486q-18 26 -52 26h-1084q-33 0 -52 -26zM2176 704
q0 26 -19 45t-45 19h-1920q-26 0 -45 -19t-19 -45v-512q0 -26 19 -45t45 -19h1920q26 0 45 19t19 45v512zM1952 448q0 -40 -28 -68t-68 -28t-68 28t-28 68t28 68t68 28t68 -28t28 -68zM1696 448q0 -40 -28 -68t-68 -28t-68 28t-28 68t28 68t68 28t68 -28t28 -68z" />
    <glyph glyph-name="bullhorn" unicode="BULLHORN" horiz-adv-x="2304" 
d="M2176 1052q58 -34 93 -92t35 -128t-35 -128t-93 -92v-612q0 -23 -10 -50t-41 -52.5t-77 -25.5q-45 0 -80 28l-340 272q-128 103 -284 157.5t-320 54.5h-112q-18 -67 -18 -128q0 -173 105 -310q23 -30 24.5 -66.5t-13.5 -66t-46 -49.5t-69 -20h-425q-37 0 -67.5 18
t-46.5 50q-102 210 -102 444l2 128q-106 0 -181 75t-75 181v384q0 106 75 181t181 75h768q164 0 320 54.5t284 157.5l340 272q34 28 80 28t77 -26t41 -53t10 -49v-612zM895 -128q-129 167 -129 384q0 56 15 128h-397v-2l-2 -128q0 -198 89 -382h424zM256 512h768v640h-768
q-53 0 -90.5 -37.5t-37.5 -90.5v-384q0 -53 37.5 -90.5t90.5 -37.5zM2048 4v1660v-1h-1l-339 -271q-242 -194 -556 -231v-658q314 -37 556 -231l339 -271q0 1 1 3z" />
    <glyph glyph-name="certificate" unicode="Certificate" 
d="M1983 703q58 -56 64.5 -133.5t-37.5 -141.5t-122 -83l-91 -23l26 -91q16 -58 0 -114.5t-55 -92.5t-93 -54t-114 0l-91 25l-23 -91q-15 -59 -57.5 -99.5t-94 -54t-108.5 0.5t-98 58l-65 67l-65 -67q-41 -43 -98 -57.5t-109 -1t-94 54t-57 99.5l-23 91l-91 -25
q-46 -13 -92 -5.5t-81 32t-61.5 60.5t-32.5 80.5t5 93.5l26 91l-91 23q-78 19 -122 83t-37.5 141.5t64.5 133.5l67 65l-67 66q-58 56 -64.5 133.5t37.5 141t122 82.5l91 23l-26 91q-16 58 0 115t55 93t93.5 54t113.5 0l91 -26l23 91q19 78 83.5 122t142 37.5t132.5 -64.5
l65 -67l65 67q55 58 133 64.5t142 -38t83 -121.5l23 -91l91 26q46 13 92 5t81 -32t61.5 -61t32.5 -81.5t-5 -92.5l-26 -91l91 -23q78 -19 122 -82.5t37.5 -141t-64.5 -133.5l-67 -66zM1857 470q47 11 60 59t-23 82l-161 157l161 158q36 34 23 82t-60 59l-219 56l61 217
q13 47 -22 82t-81 22l-217 -62l-56 219q-7 30 -32.5 47.5t-56.5 15.5t-53 -25l-157 -162l-157 162q-33 35 -82 22t-60 -60l-56 -219l-217 62q-46 13 -81 -22t-22 -82l61 -217l-219 -56q-47 -11 -60 -59t23 -82l161 -158l-161 -157q-36 -34 -23 -82t60 -59l219 -56l-61 -217
q-13 -47 22 -82t81 -22l217 62l56 -220q12 -48 60.5 -60.5t81.5 23.5l157 161l157 -161q21 -23 52 -26t57 14.5t33 48.5l56 220l217 -62q46 -13 81 22t22 82l-61 217z" />
    <glyph glyph-name="hand-point-right" unicode="HAND&#x2d;POINT&#x2d;RIGHT" 
d="M1766 1203q114 0 198 -83.5t84 -197.5q0 -115 -83.5 -198.5t-198.5 -83.5h-227v-4q-3 -86 -48 -159q14 -69 -4.5 -139.5t-61.5 -122.5q5 -154 -88 -248.5t-267 -94.5h-93q-74 0 -150 22t-128.5 50t-115 57t-106.5 39q-37 -40 -93 -40h-256q-53 0 -90.5 37.5t-37.5 90.5
v896q0 53 37.5 90.5t90.5 37.5h256q34 0 63.5 -17t46.5 -45q49 27 126.5 116.5t116.5 152.5q12 20 31.5 65.5t38.5 82t47.5 75t71.5 60.5t98 22q124 0 209 -80.5t85 -201.5q0 -92 -39 -179h487zM128 1024v-896h256v896h-256zM1766 768q62 0 108 46t46 108q0 61 -47 107
t-107 46h-691q0 25 18 59t39.5 65t39.5 81t18 102q0 67 -47 110.5t-119 43.5q-43 0 -71 -35t-58 -107t-49 -103q-56 -91 -155 -197.5t-179 -135.5v-795q51 -12 114.5 -41t112 -55t113.5 -46.5t125 -20.5h93q131 0 186.5 69t34.5 199q51 28 71 98t-14 136q41 38 55.5 89.5
t4.5 97.5t-39 79h397zM336 256q0 -33 -23.5 -56.5t-56.5 -23.5t-56.5 23.5t-23.5 56.5t23.5 56.5t56.5 23.5t56.5 -23.5t23.5 -56.5z" />
    <glyph glyph-name="hand-point-left" unicode="HAND&#x2d;POINT&#x2d;LEFT" 
d="M0 922q0 114 84 197.5t198 83.5h487q-39 87 -39 179q0 121 85 201.5t209 80.5q55 0 98 -22t71.5 -60.5t47.5 -75t38.5 -82t31.5 -65.5q39 -63 116.5 -152.5t126.5 -116.5q17 28 46.5 45t63.5 17h256q53 0 90.5 -37.5t37.5 -90.5v-896q0 -53 -37.5 -90.5t-90.5 -37.5h-256
q-56 0 -93 40q-44 -10 -106.5 -39t-115 -57t-128.5 -50t-150 -22h-93q-174 0 -267 94.5t-88 248.5q-43 52 -61.5 122.5t-4.5 139.5q-45 73 -48 159v4h-227q-115 0 -198.5 83.5t-83.5 198.5zM1920 128v896h-256v-896h256zM128 922q0 -62 46 -108t108 -46h397
q-29 -33 -38.5 -79t5 -97.5t54.5 -89.5q-34 -66 -14 -136t71 -98q-21 -130 34.5 -199t186.5 -69h93q60 0 125 20.5t113.5 46.5t112 55t114.5 41v795q-80 29 -179 135.5t-155 197.5q-19 31 -49 103t-58 107t-71 35q-72 0 -119 -43.5t-47 -110.5q0 -52 18 -102t39.5 -81
t39.5 -65t18 -59h-691q-60 0 -107 -46t-47 -107zM1792 336q33 0 56.5 -23.5t23.5 -56.5t-23.5 -56.5t-56.5 -23.5t-56.5 23.5t-23.5 56.5t23.5 56.5t56.5 23.5z" />
    <glyph glyph-name="hand-point-up" unicode="HAND&#x2d;POINT&#x2d;UP" horiz-adv-x="1792" 
d="M461 1510q0 114 83.5 198t197.5 84q115 0 198.5 -83.5t83.5 -198.5v-227h4q86 -3 159 -48q69 14 139.5 -4.5t122.5 -61.5q154 5 248.5 -88t94.5 -267v-93q0 -74 -22 -150t-50 -128.5t-57 -115t-39 -106.5q40 -37 40 -93v-256q0 -53 -37.5 -90.5t-90.5 -37.5h-896
q-53 0 -90.5 37.5t-37.5 90.5v256q0 34 17 63.5t45 46.5q-27 49 -116.5 126.5t-152.5 116.5q-20 12 -65.5 31.5t-82 38.5t-75 47.5t-60.5 71.5t-22 98q0 124 80.5 209t201.5 85q92 0 179 -39v487zM640 -128h896v256h-896v-256zM896 1510q0 62 -46 108t-108 46
q-61 0 -107 -47t-46 -107v-691q-25 0 -59 18t-65 39.5t-81 39.5t-102 18q-67 0 -110.5 -47t-43.5 -119q0 -43 35 -71t107 -58t103 -49q91 -56 197.5 -155t135.5 -179h795q12 51 41 114.5t55 112t46.5 113.5t20.5 125v93q0 131 -69 186.5t-199 34.5q-28 51 -98 71t-136 -14
q-38 41 -89.5 55.5t-97.5 4.5t-79 -39v397zM1408 80q33 0 56.5 -23.5t23.5 -56.5t-23.5 -56.5t-56.5 -23.5t-56.5 23.5t-23.5 56.5t23.5 56.5t56.5 23.5z" />
    <glyph glyph-name="hand-point-down" unicode="HAND&#x2d;POINT&#x2d;DOWN" horiz-adv-x="1792" 
d="M742 -256q-114 0 -197.5 84t-83.5 198v487q-87 -39 -179 -39q-121 0 -201.5 85t-80.5 209q0 55 22 98t60.5 71.5t75 47.5t82 38.5t65.5 31.5q63 39 152.5 116.5t116.5 126.5q-28 17 -45 46.5t-17 63.5v256q0 53 37.5 90.5t90.5 37.5h896q53 0 90.5 -37.5t37.5 -90.5v-256
q0 -56 -40 -93q10 -44 39 -106.5t57 -115t50 -128.5t22 -150v-93q0 -174 -94.5 -267t-248.5 -88q-52 -43 -122.5 -61.5t-139.5 -4.5q-73 -45 -159 -48h-4v-227q0 -115 -83.5 -198.5t-198.5 -83.5zM1536 1664h-896v-256h896v256zM742 -128q62 0 108 46t46 108v397
q33 -29 79 -38.5t97.5 5t89.5 54.5q66 -34 136 -14t98 71q130 -21 199 34.5t69 186.5v93q0 60 -20.5 125t-46.5 113.5t-55 112t-41 114.5h-795q-29 -80 -135.5 -179t-197.5 -155q-31 -19 -103 -49t-107 -58t-35 -71q0 -72 43.5 -119t110.5 -47q52 0 102 18t81 39.5t65 39.5
t59 18v-691q0 -60 46 -107t107 -47zM1328 1536q0 33 23.5 56.5t56.5 23.5t56.5 -23.5t23.5 -56.5t-23.5 -56.5t-56.5 -23.5t-56.5 23.5t-23.5 56.5z" />
    <glyph glyph-name="arrow-circle-left" unicode="ARROW&#x2d;CIRCLE&#x2d;LEFT" 
d="M2016 768q0 -202 -78.5 -385.5t-211.5 -316.5t-316.5 -211.5t-385.5 -78.5t-385.5 78.5t-316.5 211.5t-211.5 316.5t-78.5 385.5t78.5 385.5t211.5 316.5t316.5 211.5t385.5 78.5t385.5 -78.5t316.5 -211.5t211.5 -316.5t78.5 -385.5zM1024 -96q177 0 337 68.5
t275.5 184.5t183.5 276t68 335q0 177 -68.5 337t-184.5 275.5t-276 183.5t-335 68q-177 0 -337 -68.5t-275.5 -184.5t-183.5 -276t-68 -335q0 -177 68.5 -337t184.5 -275.5t276 -183.5t335 -68zM974 274l-460 460q-14 14 -14 34t14 34l460 460q14 14 34 14t34 -14l28 -28
q14 -14 14 -34.5t-15 -33.5l-342 -330h761q20 0 34 -14t14 -34v-40q0 -20 -14 -34t-34 -14h-761l342 -330q14 -14 14.5 -34t-13.5 -34l-28 -28q-14 -14 -34 -14t-34 14z" />
    <glyph glyph-name="arrow-circle-right" unicode="ARROW&#x2d;CIRCLE&#x2d;RIGHT" 
d="M32 768q0 202 78.5 385.5t211.5 316.5t316.5 211.5t385.5 78.5t385.5 -78.5t316.5 -211.5t211.5 -316.5t78.5 -385.5t-78.5 -385.5t-211.5 -316.5t-316.5 -211.5t-385.5 -78.5t-385.5 78.5t-316.5 211.5t-211.5 316.5t-78.5 385.5zM1024 1632q-177 0 -337 -68.5
t-275.5 -184.5t-183.5 -276t-68 -335q0 -177 68.5 -337t184.5 -275.5t276 -183.5t335 -68q177 0 337 68.5t275.5 184.5t183.5 276t68 335q0 177 -68.5 337t-184.5 275.5t-276 183.5t-335 68zM1074 1262l460 -460q14 -14 14 -34t-14 -34l-460 -460q-14 -14 -34 -14t-34 14
l-28 28q-14 14 -14 34.5t15 33.5l343 330h-762q-20 0 -34 14t-14 34v40q0 20 14 34t34 14h761l-342 330q-14 14 -14.5 34t13.5 34l28 28q14 14 34 14t34 -14z" />
    <glyph glyph-name="arrow-circle-up" unicode="ARROW&#x2d;CIRCLE&#x2d;UP" 
d="M1024 -224q-202 0 -385.5 78.5t-316.5 211.5t-211.5 316.5t-78.5 385.5t78.5 385.5t211.5 316.5t316.5 211.5t385.5 78.5t385.5 -78.5t316.5 -211.5t211.5 -316.5t78.5 -385.5t-78.5 -385.5t-211.5 -316.5t-316.5 -211.5t-385.5 -78.5zM160 768q0 -177 68.5 -337
t184.5 -275.5t276 -183.5t335 -68q177 0 337 68.5t275.5 184.5t183.5 276t68 335q0 177 -68.5 337t-184.5 275.5t-276 183.5t-335 68q-177 0 -337 -68.5t-275.5 -184.5t-183.5 -276t-68 -335zM530 818l460 460q14 14 34 14t34 -14l460 -460q14 -14 14 -34t-14 -34l-28 -28
q-14 -14 -34.5 -14t-33.5 15l-330 342v-761q0 -20 -14 -34t-34 -14h-40q-20 0 -34 14t-14 34v761l-330 -342q-14 -14 -34 -14.5t-34 13.5l-28 28q-14 14 -14 34t14 34z" />
    <glyph glyph-name="arrow-circle-down" unicode="ARROW&#x2d;CIRCLE&#x2d;DOWN" 
d="M1024 1760q202 0 385.5 -78.5t316.5 -211.5t211.5 -316.5t78.5 -385.5t-78.5 -385.5t-211.5 -316.5t-316.5 -211.5t-385.5 -78.5t-385.5 78.5t-316.5 211.5t-211.5 316.5t-78.5 385.5t78.5 385.5t211.5 316.5t316.5 211.5t385.5 78.5zM1888 768q0 177 -68.5 337
t-184.5 275.5t-276 183.5t-335 68q-177 0 -337 -68.5t-275.5 -184.5t-183.5 -276t-68 -335q0 -177 68.5 -337t184.5 -275.5t276 -183.5t335 -68q177 0 337 68.5t275.5 184.5t183.5 276t68 335zM1518 786q14 -14 14 -34t-14 -34l-460 -460q-14 -14 -34 -14t-34 14l-460 460
q-14 14 -14 34t14 34l28 28q14 14 34 13.5t34 -14.5l330 -342v761q0 20 14 34t34 14h40q20 0 34 -14t14 -34v-761l330 342q13 15 33.5 15t34.5 -14z" />
    <glyph glyph-name="globe" unicode="GLOBE" horiz-adv-x="1984" 
d="M992 1760q202 0 385.5 -78.5t316.5 -211.5t211.5 -316.5t78.5 -385.5t-78.5 -385.5t-211.5 -316.5t-316.5 -211.5t-385.5 -78.5t-385.5 78.5t-316.5 211.5t-211.5 316.5t-78.5 385.5t78.5 385.5t211.5 316.5t316.5 211.5t385.5 78.5zM1765 1152q-77 154 -207.5 267.5
t-295.5 168.5q119 -169 173 -436h330zM1344 768q0 134 -17 256h-670q-17 -122 -17 -256t17 -256h670q17 122 17 256zM992 1632q-85 0 -174.5 -130.5t-137.5 -349.5h624q-48 219 -137.5 349.5t-174.5 130.5zM722 1588q-165 -55 -295.5 -168.5t-207.5 -267.5h330
q54 269 173 436zM128 768q0 -130 39 -256h362q-17 127 -17 256q0 117 17 256h-362q-39 -126 -39 -256zM219 384q77 -154 207.5 -267.5t295.5 -168.5q-119 169 -173 436h-330zM992 -96q85 0 174.5 130.5t137.5 349.5h-624q48 -219 137.5 -349.5t174.5 -130.5zM1262 -52
q165 55 295.5 168.5t207.5 267.5h-330q-54 -269 -173 -436zM1455 512h362q39 126 39 256t-39 256h-362q17 -127 17 -256q0 -117 -17 -256z" />
    <glyph glyph-name="wrench" unicode="WRENCH" 
d="M2030 1334q39 -156 -3.5 -308t-155.5 -265q-114 -114 -269 -155.5t-311 -0.5l-772 -772q-89 -89 -215 -89t-215 89t-89 215t89 215l773 773q-41 157 0.5 311.5t154.5 267.5t265 155t307 4q29 -7 50.5 -28t28.5 -49q16 -62 -28 -106l-255 -256l29 -176l177 -30l256 256
q43 43 106 27q29 -8 49.5 -29t27.5 -49zM1780 851q83 83 118 193t15 225l-278 -277l-332 55l-55 332l277 278q-39 7 -83 7q-195 0 -335 -140q-95 -95 -125 -225t13 -261l12 -38l-828 -828q-51 -52 -51 -124t51 -124q49 -50 124 -50t125 50l828 827l37 -13q130 -43 261 -12.5
t226 125.5zM320 128q26 0 45 -19t19 -45t-19 -45t-45 -19t-45 19t-19 45t19 45t45 19z" />
    <glyph glyph-name="tasks" unicode="TASKS" 
d="M581 964l46 -45q9 -9 9 -23t-9 -23l-352 -352q-9 -9 -23 -9t-23 9l-224 224q-9 9 -9 23t9 23l46 45q9 9 22 9q14 0 23 -9l156 -156l284 284q9 9 23 9q13 0 22 -9zM252 256q53 0 90.5 -37.5t37.5 -90.5t-37.5 -90.5t-90.5 -37.5t-91.5 37.5t-38.5 90.5t38.5 90.5
t91.5 37.5zM581 1604l46 -45q9 -9 9 -23t-9 -23l-352 -352q-9 -9 -23 -9t-23 9l-224 224q-9 9 -9 23t9 23l46 45q9 9 22 9q14 0 23 -9l156 -156l284 284q9 9 23 9q13 0 22 -9zM2012 192q14 0 23 -9t9 -23v-64q0 -14 -9 -23t-23 -9h-1216q-14 0 -23 9t-9 23v64q0 14 9 23
t23 9h1216zM2012 1472q14 0 23 -9t9 -23v-64q0 -14 -9 -23t-23 -9h-1216q-14 0 -23 9t-9 23v64q0 14 9 23t23 9h1216zM2012 832q14 0 23 -9t9 -23v-64q0 -14 -9 -23t-23 -9h-1216q-14 0 -23 9t-9 23v64q0 14 9 23t23 9h1216z" />
    <glyph glyph-name="filter" unicode="FILTER" 
d="M1920 1792q41 0 73 -23t45.5 -56t7 -72t-35.5 -68l-730 -730v-971q0 -40 -22 -71.5t-53.5 -45.5t-69 -9.5t-67.5 30.5l-256 224q-18 16 -31 44t-13 52v747l-730 730q-29 29 -35.5 68t7 72t45.5 56t73 23h1792zM1152 896l768 768h-1792l768 -768v-800l256 -224v1024z" />
    <glyph glyph-name="briefcase" unicode="BRIEFCASE" 
d="M1856 1280q80 0 136 -56t56 -136v-1024q0 -80 -56 -136t-136 -56h-1664q-80 0 -136 56t-56 136v1024q0 80 56 136t136 56h448v288q0 40 28 68t68 28h576q40 0 68 -28t28 -68v-288h448zM768 1536v-256h512v256h-512zM1920 64v576h-640v-160q0 -40 -28 -68t-68 -28h-320
q-40 0 -68 28t-28 68v160h-640v-576q0 -26 19 -45t45 -19h1664q26 0 45 19t19 45zM896 512h256v128h-256v-128zM1920 768v320q0 26 -19 45t-45 19h-1664q-26 0 -45 -19t-19 -45v-320h1792z" />
    <glyph glyph-name="arrows-alt" unicode="ARROWS&#x2d;ALT" 
d="M2009 861q39 -39 39 -93t-38 -93l-266 -266q-30 -30 -70 -36.5t-74 7.5t-58 47t-24 75v202h-430v-430h202q42 0 75 -24t47 -58t7.5 -74t-36.5 -70l-266 -266q-38 -39 -92.5 -39t-93.5 39l-266 266q-30 30 -36.5 70t7.5 74t47 58t75 24h202v430h-430v-202q0 -42 -23.5 -75
t-57.5 -47t-74 -7.5t-70 36.5l-266 266q-39 38 -39 92.5t39 93.5l265 266q30 30 70 36.5t74 -7.5t58 -47t24 -75v-202h430v430h-202q-42 0 -75 23.5t-47 57.5t-7.5 74t36.5 70l266 266q38 39 92.5 39t93.5 -39l266 -265q30 -30 36.5 -70t-7.5 -74t-47 -58t-75 -24h-202v-430
h430v202q0 42 23.5 75t57.5 47t74 7.5t70 -36.5zM414 502v532q0 11 -10 15t-18 -3l-266 -266q-4 -4 -4 -12t4 -12l266 -266q8 -8 18 -3.5t10 15.5zM1290 158h-532q-11 0 -15 -10t3 -18l266 -266q4 -4 12 -4t12 4l266 266q8 8 3.5 18t-15.5 10zM758 1378h532q11 0 15 10
t-3 18l-266 266q-4 4 -12 4t-12 -4l-266 -266q-8 -8 -3.5 -18t15.5 -10zM1928 756q13 12 0 23l-266 266q-8 8 -18 4t-10 -15v-532q0 -11 10 -15t18 3z" />
    <glyph glyph-name="users" unicode="USERS" horiz-adv-x="2560" 
d="M2176 896q-133 0 -226.5 93.5t-93.5 226.5t93.5 226.5t226.5 93.5t226.5 -93.5t93.5 -226.5t-93.5 -226.5t-226.5 -93.5zM2176 1408q-80 0 -136 -56t-56 -136t56 -136t136 -56t136 56t56 136t-56 136t-136 56zM1280 768q-186 0 -317 131t-131 317t131 317t317 131
t317 -131t131 -317t-131 -317t-317 -131zM1280 1536q-132 0 -226 -94t-94 -226t94 -226t226 -94t226 94t94 226t-94 226t-226 94zM2256 768q126 0 215 -94t89 -226q0 -26 -19 -45t-45 -19t-45 19t-19 45q0 79 -51.5 135.5t-124.5 56.5h-160q-30 0 -63 -13q-44 50 -101 89
q76 52 164 52h160zM384 896q-133 0 -226.5 93.5t-93.5 226.5t93.5 226.5t226.5 93.5t226.5 -93.5t93.5 -226.5t-93.5 -226.5t-226.5 -93.5zM384 1408q-80 0 -136 -56t-56 -136t56 -136t136 -56t136 56t56 136t-56 136t-136 56zM1600 688q111 0 210 -49t160 -139
q78 -115 78 -257v-179q0 -80 -56 -136t-136 -56h-1152q-80 0 -136 56t-56 136v179q0 142 78 257q61 90 160 139t210 49q64 0 152 -24t168 -24t168 24t152 24zM1920 64v179q0 101 -57 186q-41 61 -111 96t-152 35q-47 0 -136.5 -24t-183.5 -24t-184 24t-137 24
q-82 0 -152 -35t-111 -96q-56 -83 -56 -186v-179q0 -26 19 -45t45 -19h1152q26 0 45 19t19 45zM628 716q-59 -42 -101 -89q-33 13 -63 13h-160q-73 0 -124.5 -56.5t-51.5 -135.5q0 -26 -19 -45t-45 -19t-45 19t-19 45q0 132 89 226t215 94h160q86 0 164 -52z" />
    <glyph glyph-name="link" unicode="Link" 
d="M1205 213l-317 -317q-100 -100 -234 -135.5t-268 0t-234 135.5t-135.5 234t0 268t135.5 234l317 317q2 2 7 6.5t7 6.5q23 21 51 9.5t30 -42.5q1 -19 5 -57q3 -24 -14 -41l-301 -301q-110 -110 -110 -266t110 -266t266 -110t266 110l317 317l1 1q109 110 108.5 266
t-109.5 265q-47 47 -111 76q-30 13 -28 47q2 32 11 61q6 20 25.5 28.5t38.5 0.5q94 -39 166 -111q100 -100 135.5 -234t0 -268t-135.5 -234zM843 587q-100 100 -135.5 234t0 268t135.5 234l317 317q100 100 234 135.5t268 0t234 -135.5t135.5 -234t0 -268t-135.5 -234
l-317 -317q-2 -2 -7 -6.5t-7 -6.5q-23 -21 -51 -9.5t-30 42.5q-2 34 -5 57q-3 24 14 41l301 301q110 110 110 266t-110 266t-266 110t-266 -110l-317 -317l-1 -1q-109 -110 -108.5 -266t109.5 -265q47 -47 111 -76q30 -13 28 -47q-2 -32 -11 -61q-6 -20 -25.5 -28.5
t-38.5 -0.5q-94 39 -166 111z" />
    <glyph glyph-name="cloud" unicode="CLOUD" horiz-adv-x="2560" 
d="M2287 837q127 -67 200 -189t73 -264q0 -212 -150 -362t-362 -150h-1472q-117 0 -223.5 45.5t-184 123t-123 184t-45.5 223.5q0 184 106.5 333.5t278.5 209.5q6 138 64 263t151.5 214.5t221 142.5t266.5 53q176 0 328 -80.5t248 -218.5q89 43 192 43q186 0 317 -131
t131 -317q0 -61 -17 -123zM2048 0q159 0 271.5 112.5t112.5 271.5q0 143 -92.5 250t-231.5 129q68 87 68 197q0 133 -93.5 226.5t-226.5 93.5q-140 0 -234 -102q-65 160 -210.5 259t-323.5 99q-117 0 -223.5 -45.5t-184 -123t-123 -184t-45.5 -223.5q0 -39 4 -68
q-165 -22 -276.5 -148.5t-111.5 -295.5q0 -186 131 -317t317 -131h1472z" />
    <glyph glyph-name="flask" unicode="FLASK" horiz-adv-x="1792" 
d="M1740 149q37 -48 48 -105.5t-3.5 -109t-47 -95t-84.5 -69.5t-113 -26h-1288q-61 0 -113 26t-84 69.5t-47 95t-4 109t48 105.5l588 769v746h-104q-10 0 -17 7t-7 17v80q0 10 7 17t17 7h720q10 0 17 -7t7 -17v-80q0 -10 -7 -17t-17 -7h-104v-746zM1540 -128q37 0 67 19.5
t44 49t12 65t-25 65.5l-601 786q-13 18 -13 39v768h-256v-768q0 -21 -13 -39l-601 -786q-47 -61 -13 -130t111 -69h1288z" />
    <glyph glyph-name="cut" unicode="Cut" horiz-adv-x="1792" 
d="M998 768l789 -789q5 -5 5 -11t-5 -11q-37 -37 -90 -37t-91 37l-710 709l-194 -194q66 -97 66 -216q0 -159 -112.5 -271.5t-271.5 -112.5t-271.5 112.5t-112.5 271.5t112.5 271.5t271.5 112.5q119 0 216 -66l194 194l-194 194q-97 -66 -216 -66q-159 0 -271.5 112.5
t-112.5 271.5t112.5 271.5t271.5 112.5t271.5 -112.5t112.5 -271.5q0 -119 -66 -216l194 -194l710 709q38 37 91 37t90 -37q5 -5 5 -11t-5 -11zM384 1024q106 0 181 75t75 181t-75 181t-181 75t-181 -75t-75 -181t75 -181t181 -75zM384 0q106 0 181 75t75 181t-75 181
t-181 75t-181 -75t-75 -181t75 -181t181 -75z" />
    <glyph glyph-name="copy" unicode="Copy" horiz-adv-x="1792" 
d="M1736 1528q23 -23 39.5 -63t16.5 -73v-1072q0 -80 -56 -136t-136 -56h-320v-192q0 -80 -56 -136t-136 -56h-896q-80 0 -136 56t-56 136v1280q0 80 56 136t136 56h320v192q0 80 56 136t136 56h688q33 0 73 -16.5t63 -39.5zM1408 1662v-254h254q-4 17 -17 30l-207 207
q-13 13 -30 17zM1152 -64v192h-448q-80 0 -136 56t-56 136v960h-320q-26 0 -45 -19t-19 -45v-1280q0 -26 19 -45t45 -19h896q26 0 45 19t19 45zM1664 320v960h-288q-40 0 -68 28t-28 68v288h-576q-26 0 -45 -19t-19 -45v-1280q0 -26 19 -45t45 -19h896q26 0 45 19t19 45z
" />
    <glyph glyph-name="paperclip" unicode="PAPERCLIP" 
d="M596 -256q-101 0 -196 38.5t-169 112.5q-99 99 -134 232t0 266.5t134 232.5l1048 1048q118 118 285.5 118t285.5 -118t118 -285.5t-118 -285.5l-891 -890q-85 -85 -205 -85t-205 85t-85 205t85 205l681 682q14 14 34 14t34 -14l23 -23q14 -14 14 -34t-14 -34l-682 -681
q-47 -47 -47 -115t47 -115t115 -47t115 47l890 891q80 80 80 194.5t-80 194.5t-194.5 80t-194.5 -80l-1048 -1048q-114 -114 -114 -274.5t114 -274.5t274.5 -114t274.5 114l871 871q14 14 34 14t34 -14l23 -23q14 -14 14 -34t-14 -34l-871 -871q-74 -74 -169.5 -112.5
t-196.5 -38.5z" />
    <glyph glyph-name="save" unicode="SAVE" horiz-adv-x="1792" 
d="M1736 1272q23 -23 39.5 -63t16.5 -73v-1072q0 -80 -56 -136t-136 -56h-1408q-80 0 -136 56t-56 136v1408q0 80 56 136t136 56h1072q33 0 73 -16.5t63 -39.5zM1152 1536h-768v-384h768v384zM1664 64v1072v1q0 26 -19 45l-335 335q-13 13 -30 17v-414q0 -40 -28 -68
t-68 -28h-832q-40 0 -68 28t-28 68v416h-64q-26 0 -45 -19t-19 -45v-1408q0 -26 19 -45t45 -19h1408q26 0 45 19t19 45zM896 864q146 0 249 -103t103 -249t-103 -249t-249 -103t-249 103t-103 249t103 249t249 103zM896 288q93 0 158.5 65.5t65.5 158.5t-65.5 158.5
t-158.5 65.5t-158.5 -65.5t-65.5 -158.5t65.5 -158.5t158.5 -65.5z" />
    <glyph glyph-name="square" unicode="SQUARE" horiz-adv-x="1792" 
d="M1600 1664q80 0 136 -56t56 -136v-1408q0 -80 -56 -136t-136 -56h-1408q-80 0 -136 56t-56 136v1408q0 80 56 136t136 56h1408zM1664 64v1408q0 26 -19 45t-45 19h-1408q-26 0 -45 -19t-19 -45v-1408q0 -26 19 -45t45 -19h1408q26 0 45 19t19 45z" />
    <glyph glyph-name="bars" unicode="BARS" horiz-adv-x="1792" 
d="M1768 1336h-1744q-10 0 -17 7t-7 17v96q0 10 7 17t17 7h1744q10 0 17 -7t7 -17v-96q0 -10 -7 -17t-17 -7zM1768 696h-1744q-10 0 -17 7t-7 17v96q0 10 7 17t17 7h1744q10 0 17 -7t7 -17v-96q0 -10 -7 -17t-17 -7zM1768 56h-1744q-10 0 -17 7t-7 17v96q0 10 7 17t17 7
h1744q10 0 17 -7t7 -17v-96q0 -10 -7 -17t-17 -7z" />
    <glyph glyph-name="list-ul" unicode="LIST&#x2d;UL" 
d="M130 896q53 0 90.5 -37.5t37.5 -90.5t-37.5 -90.5t-90.5 -37.5t-91.5 37.5t-38.5 90.5t38.5 90.5t91.5 37.5zM130 1536q53 0 90.5 -37.5t37.5 -90.5t-37.5 -90.5t-90.5 -37.5t-91.5 37.5t-38.5 90.5t38.5 90.5t91.5 37.5zM130 256q53 0 90.5 -37.5t37.5 -90.5
t-37.5 -90.5t-90.5 -37.5t-91.5 37.5t-38.5 90.5t38.5 90.5t91.5 37.5zM2016 1472q14 0 23 -9t9 -23v-64q0 -14 -9 -23t-23 -9h-1472q-14 0 -23 9t-9 23v64q0 14 9 23t23 9h1472zM2016 832q14 0 23 -9t9 -23v-64q0 -14 -9 -23t-23 -9h-1472q-14 0 -23 9t-9 23v64q0 14 9 23
t23 9h1472zM2016 192q14 0 23 -9t9 -23v-64q0 -14 -9 -23t-23 -9h-1472q-14 0 -23 9t-9 23v64q0 14 9 23t23 9h1472z" />
    <glyph glyph-name="list-ol" unicode="LIST&#x2d;OL" 
d="M247 188q56 -14 85.5 -53.5t29.5 -86.5q0 -71 -49 -123.5t-145 -52.5q-86 0 -148 38q-34 25 -10 64l22 37q21 37 62 12q27 -12 62 -12q58 0 58 33q0 36 -64 36h-19q-32 0 -49 32l-4 7q-15 28 11 60l22 28q18 23 44 49h-91q-14 0 -23 9t-9 23v64q0 14 9 23t23 9h228
q45 0 45 -45v-14v-3q0 -29 -20 -53zM48 512q-22 0 -35 12t-13 34v16q0 53 21 96t51 69t60 45.5t51 36t21 29.5q0 35 -37 35q-21 0 -38 -15q-36 -34 -65 -10l-34 28q-37 29 -11 61q58 75 162 75q43 0 81.5 -14.5t67.5 -52t29 -91.5q0 -52 -28.5 -93t-63.5 -61.5t-66.5 -40
t-35.5 -31.5h155q14 0 23 -9t9 -23v-64q0 -14 -9 -23t-23 -9h-272zM64 1152q-14 0 -23 9t-9 23v64q0 14 9 23t23 9h64v256h-32q-14 0 -23 9t-9 23q0 8 3 14l32 64q9 18 29 18h96q14 0 23 -9t9 -23v-352h64q14 0 23 -9t9 -23v-64q0 -14 -9 -23t-23 -9h-256zM2016 1472
q14 0 23 -9t9 -23v-64q0 -14 -9 -23t-23 -9h-1344q-14 0 -23 9t-9 23v64q0 14 9 23t23 9h1344zM2016 192q14 0 23 -9t9 -23v-64q0 -14 -9 -23t-23 -9h-1344q-14 0 -23 9t-9 23v64q0 14 9 23t23 9h1344zM2016 832q14 0 23 -9t9 -23v-64q0 -14 -9 -23t-23 -9h-1344
q-14 0 -23 9t-9 23v64q0 14 9 23t23 9h1344z" />
    <glyph glyph-name="strikethrough" unicode="STRIKETHROUGH" 
d="M1445 512h162q23 -41 40 -103t17 -108q0 -26 -4 -56q-14 -108 -82.5 -196.5t-169.5 -132.5q-42 -18 -102.5 -31t-105.5 -13h-264h-2q-134 0 -257.5 91t-163.5 219q-1 2 -1 8q0 11 7.5 20.5t17.5 11.5l63 14q1 0 3.5 0.5t3.5 0.5q10 0 19 -6.5t12 -16.5
q30 -89 116.5 -151.5t180.5 -62.5h1h264q80 0 157 33q66 29 112 83.5t60 122.5q7 30 7 62q0 52 -26.5 114t-64.5 97zM677 896q-70 50 -120 147.5t-50 183.5v1q0 124 62 226t170 155q46 23 114 39t119 16h191q140 0 286 -88t212 -212q3 -6 3 -14q0 -21 -19 -30l-59 -26
q-9 -3 -12 -3q-20 0 -29 17q-51 94 -163 161t-219 67h-191q-39 0 -90.5 -12t-85.5 -29q-65 -32 -112 -106.5t-49 -147.5q-2 -87 40.5 -158.5t117.5 -108.5l157 -78h-273zM2016 768q14 0 23 -9t9 -23v-64q0 -14 -9 -23t-23 -9h-1984q-14 0 -23 9t-9 23v64q0 14 9 23t23 9
h1984z" />
    <glyph glyph-name="underline" unicode="Underline" horiz-adv-x="1792" 
d="M1760 1792q14 0 23 -9t9 -23v-64q0 -14 -9 -23t-23 -9h-224v-896q0 -130 -51 -248.5t-136.5 -204t-204 -136.5t-248.5 -51t-248.5 51t-204 136.5t-136.5 204t-51 248.5v896h-224q-14 0 -23 9t-9 23v64q0 14 9 23t23 9h576q14 0 23 -9t9 -23v-64q0 -14 -9 -23t-23 -9h-224
v-896q0 -212 150 -362t362 -150t362 150t150 362v896h-224q-14 0 -23 9t-9 23v64q0 14 9 23t23 9h576zM1760 -128q14 0 23 -9t9 -23v-64q0 -14 -9 -23t-23 -9h-1728q-14 0 -23 9t-9 23v64q0 14 9 23t23 9h1728z" />
    <glyph glyph-name="table" unicode="Table" 
d="M1856 1664q80 0 136 -56t56 -136v-1408q0 -80 -56 -136t-136 -56h-1664q-80 0 -136 56t-56 136v1408q0 80 56 136t136 56h1664zM640 0v384h-512v-320q0 -26 19 -45t45 -19h448zM640 512v384h-512v-384h512zM640 1024v384h-512v-384h512zM1280 0v384h-512v-384h512z
M1280 512v384h-512v-384h512zM1280 1024v384h-512v-384h512zM1920 384h-512v-384h448q26 0 45 19t19 45v320zM1920 512v384h-512v-384h512zM1920 1024v384h-512v-384h512z" />
    <glyph glyph-name="magic" unicode="MAGIC" 
d="M896 1408l-64 128l-128 64l128 64l64 128l64 -128l128 -64l-128 -64zM320 1152l-107 213l-213 107l213 107l107 213l107 -213l213 -107l-213 -107zM320 1536q-26 0 -45 -19t-19 -45t19 -45t45 -19t45 19t19 45t-19 45t-45 19zM1728 640l107 -213l213 -107l-213 -107
l-107 -213l-107 213l-213 107l213 107zM1728 256q26 0 45 19t19 45t-19 45t-45 19t-45 -19t-19 -45t19 -45t45 -19zM2011 1480q37 -38 37 -91t-37 -90l-1518 -1518q-37 -37 -91 -37q-53 0 -90 37l-275 275q-37 38 -37 91t37 90l1518 1518q37 37 91 37q53 0 90 -37zM402 -128
l1034 1034l-274 274l-1034 -1034zM1526 996l394 394l-274 274l-394 -394z" />
    <glyph glyph-name="truck" unicode="TRUCK" horiz-adv-x="2560" 
d="M2528 256q14 0 23 -9t9 -23v-64q0 -14 -9 -23t-23 -9h-230q6 -32 6 -64q0 -133 -93.5 -226.5t-226.5 -93.5t-226.5 93.5t-93.5 226.5q0 32 6 64h-780q6 -31 6 -64q0 -133 -93.5 -226.5t-226.5 -93.5t-226.5 93.5t-93.5 226.5q0 32 6 64h-64q-82 0 -140 54.5t-58 131.5
v1164q0 77 58 131.5t140 54.5h1268q82 0 140 -54.5t58 -131.5v-198h176q108 0 181 -75l336 -336q75 -75 75 -181v-432h96zM1840 1152h-176v-384h610q-1 1 -3.5 5t-4.5 6l-335 335q-38 38 -91 38zM576 -128q80 0 136 56t56 136t-56 136t-136 56t-136 -56t-56 -136t56 -136
t136 -56zM830 256h706v1222q0 24 -20.5 41t-49.5 17h-1268q-29 0 -49.5 -17t-20.5 -41v-1164q0 -24 20.5 -41t49.5 -17h124q45 59 111.5 93.5t142.5 34.5t142.5 -34.5t111.5 -93.5zM1984 -128q80 0 136 56t56 136t-56 136t-136 56t-136 -56t-56 -136t56 -136t136 -56z
M1984 384q76 0 142.5 -34.5t111.5 -93.5h66v384h-640v-384h66q45 59 111.5 93.5t142.5 34.5z" />
    <glyph glyph-name="money-bill" unicode="MONEY&#x2d;BILL" horiz-adv-x="2560" 
d="M1280 1216q159 0 271.5 -131t112.5 -317t-112.5 -317t-271.5 -131t-271.5 131.5t-112.5 316.5q0 186 112.5 317t271.5 131zM1280 448q106 0 181 94t75 226t-75 226t-181 94t-181 -94t-75 -226t75 -226t181 -94zM2432 1536q53 0 90.5 -37.5t37.5 -90.5v-1280
q0 -53 -37.5 -90.5t-90.5 -37.5h-2304q-53 0 -90.5 37.5t-37.5 90.5v1280q0 53 37.5 90.5t90.5 37.5h2304zM128 1408v-256q106 0 181 75t75 181h-256zM128 128h256q0 106 -75 181t-181 75v-256zM2432 128v256q-106 0 -181 -75t-75 -181h256zM2432 512v512
q-159 0 -271.5 112.5t-112.5 271.5h-1536q0 -159 -112.5 -271.5t-271.5 -112.5v-512q159 0 271.5 -112.5t112.5 -271.5h1536q0 159 112.5 271.5t271.5 112.5zM2432 1152v256h-256q0 -106 75 -181t181 -75z" />
    <glyph glyph-name="caret-down" unicode="CARET&#x2d;DOWN" horiz-adv-x="1280" 
d="M1152 1152q41 0 73 -23t45.5 -56t7 -72t-35.5 -68l-511 -512q-37 -37 -91 -37t-91 37l-511 512q-29 29 -35.5 68t7 72t45.5 56t73 23h1024zM640 512l512 512h-1024z" />
    <glyph glyph-name="caret-up" unicode="CARET&#x2d;UP" horiz-adv-x="1280" 
d="M128 384q-41 0 -73 23t-45.5 56t-7 72t35.5 68l511 512q37 37 91 37t91 -37l511 -512q29 -29 35.5 -68t-7 -72t-45.5 -56t-73 -23h-1024zM640 1024l-512 -512h1024z" />
    <glyph glyph-name="caret-left" unicode="Caret&#x2d;Left" horiz-adv-x="768" 
d="M768 256q0 -41 -23 -73t-56 -45.5t-72 -7t-68 35.5l-512 511q-37 37 -37 91t37 91l512 511q29 29 68 35.5t72 -7t56 -45.5t23 -73v-1024zM128 768l512 -512v1024z" />
    <glyph glyph-name="caret-right" unicode="CARET&#x2d;RIGHT" horiz-adv-x="768" 
d="M0 1280q0 41 23 73t56 45.5t72 7t68 -35.5l512 -511q37 -37 37 -91t-37 -91l-512 -511q-29 -29 -68 -35.5t-72 7t-56 45.5t-23 73v1024zM640 768l-512 512v-1024z" />
    <glyph glyph-name="columns" unicode="COLUMNS" 
d="M1856 1664q80 0 136 -56t56 -136v-1408q0 -80 -56 -136t-136 -56h-1664q-80 0 -136 56t-56 136v1408q0 80 56 136t136 56h1664zM960 0v1408h-832v-1344q0 -26 19 -45t45 -19h768zM1920 64v1344h-832v-1408h768q26 0 45 19t19 45z" />
    <glyph glyph-name="sort" unicode="SORT" horiz-adv-x="1280" 
d="M1152 640q41 0 73 -23t45.5 -56t7.5 -71.5t-35 -67.5l-512 -512q-37 -38 -90 -38t-91 38l-512 512q-29 29 -35.5 67.5t7 71.5t45.5 56t73 23h1024zM640 0l512 512h-1024zM128 896q-41 0 -73 23t-45.5 56t-7.5 71.5t35 67.5l512 512q37 38 90 38t91 -38l512 -512
q29 -29 35.5 -67.5t-7 -71.5t-45.5 -56t-73 -23h-1024zM640 1536l-512 -512h1024z" />
    <glyph glyph-name="sort-down" unicode="SORT&#x2d;DOWN" horiz-adv-x="1280" 
d="M1152 640q41 0 73 -23t45.5 -56t7 -72t-35.5 -68l-511 -512q-37 -37 -91 -37t-91 37l-511 512q-29 29 -35.5 68t7 72t45.5 56t73 23h1024zM640 0l512 512h-1024z" />
    <glyph glyph-name="sort-up" unicode="SORT&#x2d;UP" horiz-adv-x="1280" 
d="M128 896q-41 0 -73 23t-45.5 56t-7 72t35.5 68l511 512q37 37 91 37t91 -37l511 -512q29 -29 35.5 -68t-7 -72t-45.5 -56t-73 -23h-1024zM640 1536l-512 -512h1024z" />
    <glyph glyph-name="envelope" unicode="ENVELOPE" 
d="M1856 1536q80 0 136 -56t56 -136v-1152q0 -80 -56 -136t-136 -56h-1664q-80 0 -136 56t-56 136v1152q0 80 56 136t136 56h1664zM192 1408q-26 0 -45 -19t-19 -45v-166q165 -139 602 -485q9 -7 46 -38.5t61.5 -50.5t60.5 -43.5t68 -37t58 -11.5q32 -1 78.5 22.5t74.5 44
t82.5 66t58.5 48.5q437 346 602 485v166q0 26 -19 45t-45 19h-1664zM1856 128q26 0 45 19t19 45v820q-153 -126 -523 -419q-9 -7 -54.5 -45.5t-73.5 -59t-73 -49t-88 -42t-84 -13.5t-84 13t-89 43t-72.5 49t-73.5 59t-54 45q-370 293 -523 419v-820q0 -26 19 -45t45 -19
h1664z" />
    <glyph glyph-name="undo" unicode="Undo" 
d="M80 1760h40q20 0 34 -14t14 -34v-442q132 225 360.5 358t498.5 132q201 -1 384.5 -80t316 -212.5t210.5 -317t78 -384.5q0 -202 -79 -385t-211.5 -315.5t-316 -211t-385.5 -78.5q-189 0 -359.5 67t-305.5 189q-15 14 -15.5 34.5t13.5 34.5l29 29q13 13 32.5 13.5
t33.5 -12.5q116 -104 263 -161.5t309 -57.5q174 0 332 67.5t273 182t183 273t68 333.5q0 174 -67.5 332t-182 273t-273 183t-333.5 68q-245 0 -449 -127t-312 -337h457q20 0 34 -14t14 -34v-40q0 -20 -14 -34t-34 -14h-640q-20 0 -34 14t-14 34v640q0 20 14 34t34 14z" />
    <glyph glyph-name="gavel" unicode="GAVEL" 
d="M2004 1046q44 -44 44 -107.5t-44 -107.5l-455 -454q-44 -44 -107 -44t-107 44l-82 83q-38 38 -43.5 91t21.5 96l-119 118l-235 -235l32 -32q51 -51 51 -123t-51 -123l-457 -457q-51 -51 -123 -51t-123 51l-155 155q-51 51 -51 123t51 123l457 457q51 51 123 51t123 -51
l32 -32l236 235l-119 119q-43 -27 -96 -21.5t-91 43.5l-83 82q-44 44 -44 107t44 107l454 455q44 44 107.5 44t107.5 -44l82 -83q38 -38 44 -91.5t-22 -95.5l328 -328q42 28 95.5 22t91.5 -44zM819 343q13 13 13 32t-13 32l-156 156q-13 13 -32 13t-32 -13l-458 -458
q-13 -13 -13 -32t13 -32l156 -156q13 -13 32 -13t32 13zM1913 922q7 7 7 17q0 9 -7 16l-82 83q-7 7 -17 7t-17 -7l-66 -66l-503 503l66 66q7 7 7 17t-7 17l-83 82q-7 7 -16 7q-10 0 -17 -7l-454 -454q-7 -7 -7 -17q0 -9 7 -16l82 -83q7 -7 17 -7t17 7l66 66l503 -503
l-66 -66q-7 -7 -7 -17t7 -17l83 -82q7 -7 16 -7q10 0 17 7z" />
    <glyph glyph-name="tachometer" unicode="TACHOMETER" horiz-adv-x="2304" 
d="M1152 1664q234 0 447.5 -91.5t367.5 -245.5t245.5 -367.5t91.5 -447.5q0 -311 -156 -579q-16 -28 -46 -44.5t-64 -16.5h-1772q-34 0 -64 16.5t-46 44.5q-156 268 -156 579q0 234 91.5 447.5t245.5 367.5t367.5 245.5t447.5 91.5zM2038 0q138 235 138 512q0 208 -81 397.5
t-218.5 327t-327 218.5t-397.5 81t-397.5 -81t-327 -218.5t-218.5 -327t-81 -397.5q0 -277 139 -515zM1461 1276q25 -9 36.5 -32.5t3.5 -48.5l-207 -598q53 -35 83.5 -91t30.5 -122q0 -106 -75 -181t-181 -75t-181 75t-75 181t75 181t181 75q6 0 20 -2l208 599q9 25 32.5 36
t48.5 3zM1152 256q53 0 90.5 37.5t37.5 90.5t-37.5 90.5t-90.5 37.5t-90.5 -37.5t-37.5 -90.5t37.5 -90.5t90.5 -37.5z" />
    <glyph glyph-name="bolt" unicode="BOLT" horiz-adv-x="1280" 
d="M1184 1152q55 0 83 -48t0 -96l-704 -1216q-29 -48 -83 -48q-46 0 -75 36.5t-19 81.5l185 778h-475q-44 0 -72.5 33t-22.5 76l128 960q4 36 31.5 59.5t63.5 23.5h576q47 0 76 -37.5t17 -83.5l-171 -519h462zM561 44l567 980h-582l55 168l155 472h-504l-120 -896h600
l-37 -157z" />
    <glyph glyph-name="sitemap" unicode="SITEMAP" horiz-adv-x="2560" 
d="M2432 384q53 0 90.5 -37.5t37.5 -90.5v-384q0 -53 -37.5 -90.5t-90.5 -37.5h-384q-53 0 -90.5 37.5t-37.5 90.5v384q0 53 37.5 90.5t90.5 37.5h128v384h-832v-384h128q53 0 90.5 -37.5t37.5 -90.5v-384q0 -53 -37.5 -90.5t-90.5 -37.5h-384q-53 0 -90.5 37.5t-37.5 90.5
v384q0 53 37.5 90.5t90.5 37.5h128v384h-832v-384h128q53 0 90.5 -37.5t37.5 -90.5v-384q0 -53 -37.5 -90.5t-90.5 -37.5h-384q-53 0 -90.5 37.5t-37.5 90.5v384q0 53 37.5 90.5t90.5 37.5h128v390q0 50 36 86t86 36h838v256h-192q-53 0 -90.5 37.5t-37.5 90.5v384
q0 53 37.5 90.5t90.5 37.5h512q53 0 90.5 -37.5t37.5 -90.5v-384q0 -53 -37.5 -90.5t-90.5 -37.5h-192v-256h838q50 0 86 -36t36 -86v-390h128zM512 256h-384v-384h384v384zM1472 256h-384v-384h384v384zM1024 1280h512v384h-512v-384zM2432 -128v384h-384v-384h384z" />
    <glyph glyph-name="umbrella" unicode="Umbrella" horiz-adv-x="2304" 
d="M2301 777q9 -35 -5.5 -66.5t-41 -48.5t-62.5 -14.5t-66 29.5q-95 89 -184.5 100.5t-166 -42.5t-151.5 -169q-34 -53 -91.5 -52t-90.5 52q-23 36 -30.5 47.5t-33 44.5t-44.5 49t-51 35.5t-66 28.5v-771q0 -106 -75 -181t-181 -75q-81 0 -148 47t-94 123q-9 25 2.5 49
t36.5 33t49 -2.5t33 -36.5q14 -38 47 -61.5t73 -23.5q53 0 90.5 37.5t37.5 90.5v772q-68 -18 -118 -68.5t-106 -137.5q-33 -51 -90.5 -52t-92.5 52q-74 115 -149.5 169.5t-165 43t-186.5 -101.5q-30 -27 -66.5 -29.5t-63.5 14.5t-41.5 48.5t-5.5 66.5q35 146 110 273
t178.5 223.5t231 167.5t271 110.5t294.5 46.5v130q0 26 19 45t45 19t45 -19t19 -45v-130q190 -9 367 -70t321.5 -164.5t249 -255t147.5 -331.5zM1533 662q63 92 135.5 151.5t151.5 83.5t165 4.5t172 -84.5q-50 153 -153 278t-237.5 207t-292 126t-322.5 44t-322 -44
t-290.5 -125.5t-236.5 -206t-154 -277.5q98 77 210 88.5t222.5 -51t191.5 -194.5q78 118 166.5 182t212.5 64q112 0 210 -63.5t171 -182.5z" />
    <glyph glyph-name="paste" unicode="Paste" horiz-adv-x="1792" 
d="M1736 1016q23 -23 39.5 -63t16.5 -73v-944q0 -80 -56 -136t-136 -56h-896q-80 0 -136 56t-56 136v192h-320q-80 0 -136 56t-56 136v1152q0 80 56 136t136 56h267q20 56 70 92t111 36t111 -36t70 -92h267q80 0 136 -56t56 -136v-192h112q33 0 73 -16.5t63 -39.5zM1645 926
l-207 207q-13 13 -30 17v-254h254q-4 17 -17 30zM640 1672q-30 0 -51 -21t-21 -51t21 -51t51 -21t51 21t21 51t-21 51t-51 21zM192 256h320v832q0 80 56 136t136 56h448v192q0 26 -19 45t-45 19h-267q-20 -56 -70 -92t-111 -36t-111 36t-70 92h-267q-26 0 -45 -19t-19 -45
v-1152q0 -26 19 -45t45 -19zM1600 -128q26 0 45 19t19 45v832h-288q-40 0 -68 28t-28 68v288h-576q-26 0 -45 -19t-19 -45v-1152q0 -26 19 -45t45 -19h896z" />
    <glyph glyph-name="lightbulb" unicode="Lightbulb" horiz-adv-x="1408" 
d="M704 1792q143 0 273.5 -55.5t225 -150t150 -225t55.5 -273.5q0 -263 -174 -463q-72 -82 -137.5 -200t-72.5 -169v-301q0 -19 -11 -35l-98 -147q-19 -29 -53 -29h-316q-34 0 -53 29l-98 147q-11 16 -11 35v301q-7 50 -72 168.5t-138 200.5q-83 94 -128.5 213t-45.5 249
q0 110 33 215.5t96.5 193.5t148.5 154.5t195 104t231 37.5zM896 -25v25h-384v-25l69 -103h246zM896 128v128h-384v-128h384zM1138 709q142 162 142 379q0 117 -45.5 223.5t-123 184t-184 123t-223.5 45.5q-122 0 -230.5 -47t-183.5 -125.5t-118.5 -184t-43.5 -219.5
q0 -216 143 -379q48 -55 105.5 -144t96.5 -181h462q39 91 96.5 180t106.5 145zM704 1536q26 0 45 -19t19 -45t-19 -45t-45 -19q-132 0 -226 -94t-94 -226q0 -26 -19 -45t-45 -19t-45 19t-19 45q0 185 131.5 316.5t316.5 131.5z" />
    <glyph glyph-name="exchange" unicode="EXCHANGE" 
d="M2034 1054l-370 -368q-14 -14 -34 -14t-34 14l-28 28q-14 14 -14 34t14 34l244 242h-1764q-20 0 -34 14t-14 34v32q0 20 14 34t34 14h1764l-244 242q-14 14 -14 34t14 34l28 28q14 14 34 14t34 -14l370 -368q14 -14 14 -34t-14 -34zM14 414q-14 14 -14 34t14 34l370 368
q14 14 34 14t34 -14l28 -28q14 -14 14 -34t-14 -34l-244 -242h1764q20 0 34 -14t14 -34v-32q0 -20 -14 -34t-34 -14h-1764l244 -242q14 -14 14 -34t-14 -34l-28 -28q-14 -14 -34 -14t-34 14z" />
    <glyph glyph-name="cloud-download" unicode="CLOUD&#x2d;DOWNLOAD" horiz-adv-x="2560" 
d="M2287 837q127 -67 200 -189t73 -264q0 -212 -150 -362t-362 -150h-1472q-117 0 -223.5 45.5t-184 123t-123 184t-45.5 223.5q0 184 106.5 333.5t278.5 209.5q6 138 64 263t151.5 214.5t221 142.5t266.5 53q176 0 328 -80.5t248 -218.5q89 43 192 43q186 0 317 -131
t131 -317q0 -61 -17 -123zM2048 0q159 0 271.5 112.5t112.5 271.5q0 143 -92.5 250t-231.5 129q68 87 68 197q0 133 -93.5 226.5t-226.5 93.5q-140 0 -234 -102q-65 160 -210.5 259t-323.5 99q-117 0 -223.5 -45.5t-184 -123t-123 -184t-45.5 -223.5q0 -39 4 -68
q-165 -22 -276.5 -148.5t-111.5 -295.5q0 -186 131 -317t317 -131h1472zM1621 774l22 -23q14 -14 14 -34t-14 -34l-393 -393q-14 -14 -34 -14t-34 14l-394 393q-14 14 -14 34t14 34l23 23q14 14 34 14t34 -14l273 -273v603q0 20 14 34t34 14h32q20 0 34 -14t14 -34v-603
l273 273q14 14 34 14t34 -14z" />
    <glyph glyph-name="cloud-upload" unicode="CLOUD&#x2d;UPLOAD" horiz-adv-x="2560" 
d="M1250 1118l394 -393q14 -14 14 -34t-14 -34l-23 -23q-14 -14 -34 -14t-34 14l-273 273v-603q0 -20 -14 -34t-34 -14h-32q-20 0 -34 14t-14 34v603l-272 -273q-14 -14 -34 -14t-34 14l-23 23q-14 14 -14 34t14 34l393 393q14 14 34 14t34 -14zM2287 837q127 -67 200 -189
t73 -264q0 -212 -150 -362t-362 -150h-1472q-117 0 -223.5 45.5t-184 123t-123 184t-45.5 223.5q0 184 106.5 333.5t278.5 209.5q6 138 64 263t151.5 214.5t221 142.5t266.5 53q176 0 328 -80.5t248 -218.5q89 43 192 43q186 0 317 -131t131 -317q0 -61 -17 -123zM2048 0
q159 0 271.5 112.5t112.5 271.5q0 143 -92.5 250t-231.5 129q68 87 68 197q0 133 -93.5 226.5t-226.5 93.5q-140 0 -234 -102q-65 160 -210.5 259t-323.5 99q-117 0 -223.5 -45.5t-184 -123t-123 -184t-45.5 -223.5q0 -39 4 -68q-165 -22 -276.5 -148.5t-111.5 -295.5
q0 -186 131 -317t317 -131h1472z" />
    <glyph glyph-name="user-md" unicode="User&#x2d;md" horiz-adv-x="1792" 
d="M896 768q-212 0 -362 150t-150 362t150 362t362 150t362 -150t150 -362t-150 -362t-362 -150zM896 1664q-159 0 -271.5 -112.5t-112.5 -271.5t112.5 -271.5t271.5 -112.5t271.5 112.5t112.5 271.5t-112.5 271.5t-271.5 112.5zM1271 640q107 -3 203 -46.5t166 -115.5
t110.5 -170t40.5 -206v-326q0 -14 -9.5 -23t-22.5 -9h-64q-13 0 -22.5 9t-9.5 23v326q0 162 -111.5 279t-272.5 128v-295q84 -21 138 -89.5t54 -156.5v-128q0 -26 -19 -45l-41 -41q-9 -9 -22.5 -9t-22.5 9l-45 45q-9 9 -9 22.5t9 22.5l23 23v94q0 49 -30 87.5t-77 45.5
q-60 10 -104.5 -28.5t-44.5 -97.5v-101l22 -23q9 -9 9 -22.5t-9 -22.5l-45 -45q-9 -9 -22.5 -9t-22.5 9l-41 41q-19 19 -19 45v117q0 90 54 163t138 95v275q-129 -42 -256 -42t-256 42v-307q70 -21 115 -80.5t45 -134.5q0 -93 -65.5 -158.5t-158.5 -65.5t-158.5 65.5
t-65.5 158.5q0 75 45 134.5t115 80.5v327q-161 -11 -272.5 -128.5t-111.5 -279.5v-326q0 -14 -9 -23t-23 -9h-64q-14 0 -23 9t-9 23v326q0 144 69.5 266t189.5 195t263 77q55 2 107.5 -14t118 -33t148.5 -17q84 0 149.5 17t118 33t107.5 14zM672 -32q0 40 -28 68t-68 28
t-68 -28t-28 -68t28 -68t68 -28t68 28t28 68z" />
    <glyph glyph-name="stethoscope" unicode="STETHOSCOPE" 
d="M1720 1406q135 3 231.5 -91t96.5 -229q0 -115 -72.5 -203t-183.5 -111v-422q0 -123 -51 -235t-136.5 -193.5t-204 -129.5t-248.5 -48t-248.5 48t-204 129.5t-136.5 193.5t-51 235v36q-217 24 -364.5 187.5t-147.5 384.5v731q0 17 10 29.5t26 16.5l222 55q20 5 37 -5
t21 -29l8 -31q5 -20 -5.5 -37.5t-29.5 -21.5l-161 -40v-668q0 -186 132.5 -317.5t318.5 -130.5q185 1 315 134t130 319v663l-161 40q-19 5 -29.5 21.5t-5.5 36.5l8 32q5 19 21.5 29t36.5 5l222 -55q16 -4 26 -16.5t10 -29.5v-731q0 -221 -147.5 -384.5t-364.5 -187.5v-36
q0 -130 68.5 -240t186.5 -174t257 -64t257 64t186.5 174t68.5 240v423q-110 22 -182.5 108.5t-73.5 200.5q-2 131 90 226t222 98zM1728 894q80 0 136 56t56 136t-56 136t-136 56t-136 -56t-56 -136t56 -136t136 -56zM1822 1086q0 -39 -27.5 -66.5t-66.5 -27.5t-66.5 27.5
t-27.5 66.5t27.5 66.5t66.5 27.5t66.5 -27.5t27.5 -66.5z" />
    <glyph glyph-name="suitcase" unicode="SUITCASE" 
d="M1856 1280q80 0 136 -56t56 -136v-1024q0 -80 -56 -136t-136 -56h-1664q-80 0 -136 56t-56 136v1024q0 80 56 136t136 56h448v192q0 80 56 136t136 56h384q80 0 136 -56t56 -136v-192h448zM768 1472v-192h512v192q0 26 -19 45t-45 19h-384q-26 0 -45 -19t-19 -45zM384 0
v1152h-192q-26 0 -45 -19t-19 -45v-1024q0 -26 19 -45t45 -19h192zM1536 0v1152h-1024v-1152h1024zM1920 64v1024q0 26 -19 45t-45 19h-192v-1152h192q26 0 45 19t19 45z" />
    <glyph glyph-name="bell" unicode="BELL" horiz-adv-x="1792" 
d="M896 -128q53 0 90.5 37.5t37.5 90.5h128q0 -106 -75 -181t-181 -75t-181 75t-75 181h128q0 -53 37.5 -90.5t90.5 -37.5zM1734 453q42 -40 54.5 -96t-9.5 -109q-22 -55 -71 -87.5t-108 -32.5h-1408q-59 0 -108 32.5t-71 87.5q-22 53 -9.5 109t54.5 96q49 47 79.5 86.5
t60.5 107t44 166t14 235.5q0 117 45 224.5t121.5 188t183.5 133.5t226 64v70q0 26 19 45t45 19t45 -19t19 -45v-70q119 -11 226 -64t183.5 -133.5t121.5 -188t45 -224.5q0 -137 14 -235.5t44 -166t60.5 -107t79.5 -86.5zM1600 256q43 0 59 38t-14 66q-59 56 -97.5 109
t-72.5 132t-50.5 189.5t-16.5 257.5q0 202 -150 345t-362 143t-362 -143t-150 -345q0 -148 -16.5 -259t-51 -190t-73 -131t-96.5 -108q-30 -28 -14 -66t59 -38h1408z" />
    <glyph glyph-name="coffee" unicode="COFFEE" horiz-adv-x="2304" 
d="M2072 0h-1968q-60 0 -91 54q-23 39 -9 63q7 11 20 11h2128q25 0 24 -32q-1 -41 -38 -72q-29 -24 -66 -24zM2304 1156q1 -160 -111.5 -274t-272.5 -114h-128v-128q0 -159 -112.5 -271.5t-271.5 -112.5h-768q-159 0 -271.5 112.5t-112.5 271.5v848q0 20 14 34t34 14h1611
q159 0 273.5 -111t115.5 -269zM1664 1408h-1280v-768q0 -106 75 -181t181 -75h768q106 0 181 75t75 181v768zM2176 1152q0 106 -75 181t-181 75h-128v-512h128q106 0 181 75t75 181z" />
    <glyph glyph-name="hospital" unicode="HOSPITAL" horiz-adv-x="1792" 
d="M720 384h-160q-20 0 -34 14t-14 34v160q0 20 14 34t34 14h160q20 0 34 -14t14 -34v-160q0 -20 -14 -34t-34 -14zM1072 384q-20 0 -34 14t-14 34v160q0 20 14 34t34 14h160q20 0 34 -14t14 -34v-160q0 -20 -14 -34t-34 -14h-160zM560 768q-20 0 -34 14t-14 34v160
q0 20 14 34t34 14h160q20 0 34 -14t14 -34v-160q0 -20 -14 -34t-34 -14h-160zM1072 768q-20 0 -34 14t-14 34v160q0 20 14 34t34 14h160q20 0 34 -14t14 -34v-160q0 -20 -14 -34t-34 -14h-160zM1792 -256h-1792v80q0 20 14 34t34 14h80v1580q0 35 28 59.5t68 24.5h352v160
q0 40 28 68t68 28h448q40 0 68 -28t28 -68v-160h352q40 0 68 -24.5t28 -59.5v-1580h80q20 0 34 -14t14 -34v-80zM256 -128h512v336q0 20 14 34t34 14h160q20 0 34 -14t14 -34v-336h512v1536h-320v-160q0 -40 -28 -68t-68 -28h-448q-40 0 -68 28t-28 68v160h-320v-1536z
M1064 1536h-104v104q0 10 -7 17t-17 7h-80q-10 0 -17 -7t-7 -17v-104h-104q-10 0 -17 -7t-7 -17v-80q0 -10 7 -17t17 -7h104v-104q0 -10 7 -17t17 -7h80q10 0 17 7t7 17v104h104q10 0 17 7t7 17v80q0 10 -7 17t-17 7z" />
    <glyph glyph-name="ambulance" unicode="AMBULANCE" horiz-adv-x="2560" 
d="M1184 1024q14 0 23 -9t9 -23v-192q0 -14 -9 -23t-23 -9h-224v-224q0 -14 -9 -23t-23 -9h-192q-14 0 -23 9t-9 23v224h-224q-14 0 -23 9t-9 23v192q0 14 9 23t23 9h224v224q0 14 9 23t23 9h192q14 0 23 -9t9 -23v-224h224zM2528 256q14 0 23 -9t9 -23v-64q0 -14 -9 -23
t-23 -9h-230q6 -32 6 -64q0 -133 -93.5 -226.5t-226.5 -93.5t-226.5 93.5t-93.5 226.5q0 32 6 64h-780q6 -31 6 -64q0 -133 -93.5 -226.5t-226.5 -93.5t-226.5 93.5t-93.5 226.5q0 32 6 64h-64q-82 0 -140 54.5t-58 131.5v1164q0 77 58 131.5t140 54.5h1268q82 0 140 -54.5
t58 -131.5v-198h176q108 0 181 -75l336 -336q75 -75 75 -181v-432h96zM576 -128q80 0 136 56t56 136t-56 136t-136 56t-136 -56t-56 -136t56 -136t136 -56zM1536 256v1222q0 24 -20.5 41t-49.5 17h-1268q-29 0 -49.5 -17t-20.5 -41v-1164q0 -24 20.5 -41t49.5 -17h124
q45 59 111.5 93.5t142.5 34.5t142.5 -34.5t111.5 -93.5h706zM1664 1152v-384h610q-1 1 -3.5 5t-4.5 6l-335 335q-38 38 -91 38h-176zM1984 -128q80 0 136 56t56 136t-56 136t-136 56t-136 -56t-56 -136t56 -136t136 -56zM2304 256v384h-640v-384h66q45 59 111.5 93.5
t142.5 34.5t142.5 -34.5t111.5 -93.5h66z" />
    <glyph glyph-name="medkit" unicode="MEDKIT" 
d="M1856 1408q80 0 136 -56t56 -136v-1152q0 -80 -56 -136t-136 -56h-1664q-80 0 -136 56t-56 136v1152q0 80 56 136t136 56h448v160q0 40 28 68t68 28h576q40 0 68 -28t28 -68v-160h448zM768 1536v-128h512v128h-512zM1536 1280h-1024v-1280h1024v1280zM128 64
q0 -26 19 -45t45 -19h192v1280h-192q-26 0 -45 -19t-19 -45v-1152zM1920 64v1152q0 26 -19 45t-45 19h-192v-1280h192q26 0 45 19t19 45zM1408 704v-128q0 -20 -14 -34t-34 -14h-224v-224q0 -20 -14 -34t-34 -14h-128q-20 0 -34 14t-14 34v224h-224q-20 0 -34 14t-14 34v128
q0 20 14 34t34 14h224v224q0 20 14 34t34 14h128q20 0 34 -14t14 -34v-224h224q20 0 34 -14t14 -34z" />
    <glyph glyph-name="fighter-jet" unicode="FIGHTER&#x2d;JET" horiz-adv-x="2560" 
d="M2107 1008q228 -51 287 -70q124 -41 154 -108q12 -27 12 -62q0 -91 -92 -140q-68 -36 -270 -80q-16 -4 -50 -11l-41 -9l-412 -45l-166 -67h-60l-336 -418q64 -5 105.5 -22t41.5 -40q0 -27 -55.5 -45.5t-133.5 -18.5h-515v128h64v480h-7l-256 -288h-231l-114 112v271
l-32 4v378l32 4v271l114 112h231l256 -288h7v480h-64v128h515q78 0 133.5 -18.5t55.5 -45.5q0 -23 -41.5 -40t-105.5 -22l336 -418h60l166 -67zM2086 654q100 22 168.5 39.5t103 28t52 20.5t20 14t2.5 12t-2.5 12t-20 14t-52 20.5t-103 28t-168.5 39.5l-422 46l-160 64h-96
l-438 544h-202v-608h-192l-256 288h-122l-38 -38v-218h32v-64h166v-24l-230 -28v-152l230 -28v-24h-166v-64h-32v-218l38 -38h122l256 288h192v-608h202l438 544h96l160 64z" />
    <glyph glyph-name="beer" unicode="BEER" horiz-adv-x="1792" 
d="M1536 1408q106 0 181 -75t75 -181v-649q0 -73 -38 -134.5t-104 -94.5l-242 -122v-88q0 -80 -56 -136t-136 -56h-1024q-80 0 -136 56t-56 136v1408q0 80 56 136t136 56h1024q80 0 136 -56t56 -136v-64h128zM1280 64v1408q0 26 -19 45t-45 19h-1024q-26 0 -45 -19t-19 -45
v-1408q0 -26 19 -45t45 -19h1024q26 0 45 19t19 45zM1664 503v649q0 53 -37.5 90.5t-90.5 37.5h-128v-984l185 92q33 16 52 47t19 68zM768 1216v-896q0 -26 -19 -45t-45 -19t-45 19t-19 45v896q0 26 19 45t45 19t45 -19t19 -45zM512 1216v-896q0 -26 -19 -45t-45 -19t-45 19
t-19 45v896q0 26 19 45t45 19t45 -19t19 -45zM1024 1216v-896q0 -26 -19 -45t-45 -19t-45 19t-19 45v896q0 26 19 45t45 19t45 -19t19 -45z" />
    <glyph glyph-name="h-square" unicode="H&#x2d;Square" horiz-adv-x="1792" 
d="M1600 1664q80 0 136 -56t56 -136v-1408q0 -80 -56 -136t-136 -56h-1408q-80 0 -136 56t-56 136v1408q0 80 56 136t136 56h1408zM1664 64v1408q0 26 -19 45t-45 19h-1408q-26 0 -45 -19t-19 -45v-1408q0 -26 19 -45t45 -19h1408q26 0 45 19t19 45zM1344 1232v-928
q0 -20 -14 -34t-34 -14h-32q-20 0 -34 14t-14 34v400h-640v-400q0 -20 -14 -34t-34 -14h-32q-20 0 -34 14t-14 34v928q0 20 14 34t34 14h32q20 0 34 -14t14 -34v-400h640v400q0 20 14 34t34 14h32q20 0 34 -14t14 -34z" />
    <glyph glyph-name="plus-square" unicode="PLUS&#x2d;SQUARE" horiz-adv-x="1792" 
d="M1600 1536h-1408q-26 0 -45 -19t-19 -45v-1408q0 -26 19 -45t45 -19h1408q26 0 45 19t19 45v1408q0 26 -19 45t-45 19zM1600 1664q80 0 136 -56t56 -136v-1408q0 -80 -56 -136t-136 -56h-1408q-80 0 -136 56t-56 136v1408q0 80 56 136t136 56h1408zM1360 840q20 0 34 -14
t14 -34v-48q0 -20 -14 -34t-34 -14h-392v-392q0 -20 -14 -34t-34 -14h-48q-20 0 -34 14t-14 34v392h-392q-20 0 -34 14t-14 34v48q0 20 14 34t34 14h392v392q0 20 14 34t34 14h48q20 0 34 -14t14 -34v-392h392z" />
    <glyph glyph-name="angle-double-left" unicode="ANGLE&#x2d;DOUBLE&#x2d;LEFT" horiz-adv-x="1280" 
d="M612 802l472 464q14 14 34 14t34 -14l28 -28q14 -14 14 -34t-14 -34l-409 -402l409 -402q14 -14 14 -34t-14 -34l-29 -28q-14 -14 -34 -14t-34 14l-471 464q-14 14 -14 34t14 34zM100 734q-14 14 -14 34t14 34l471 464q14 14 34 14t34 -14l29 -28q14 -14 14 -34t-14 -34
l-409 -402l409 -402q14 -14 14 -34t-14 -34l-28 -28q-14 -14 -34 -14t-34 14z" />
    <glyph glyph-name="angle-double-right" unicode="ANGLE&#x2d;DOUBLE&#x2d;RIGHT" horiz-adv-x="1280" 
d="M668 734l-472 -464q-14 -14 -34 -14t-34 14l-28 28q-14 14 -14 34t14 34l409 402l-409 402q-14 14 -14 34t14 34l29 28q14 14 34 14t34 -14l471 -464q14 -14 14 -34t-14 -34zM1180 802q14 -14 14 -34t-14 -34l-471 -464q-14 -14 -34 -14t-34 14l-29 28q-14 14 -14 34
t14 34l409 402l-409 402q-14 14 -14 34t14 34l28 28q14 14 34 14t34 -14z" />
    <glyph glyph-name="angle-double-up" unicode="ANGLE&#x2d;DOUBLE&#x2d;UP" horiz-adv-x="1024" 
d="M546 796l464 -472q14 -14 14 -34t-14 -34l-28 -28q-14 -14 -34 -14t-34 14l-402 409l-402 -409q-14 -14 -34 -14t-34 14l-28 29q-14 14 -14 34t14 34l464 471q14 14 34 14t34 -14zM478 1308q14 14 34 14t34 -14l464 -471q14 -14 14 -34t-14 -34l-28 -29q-14 -14 -34 -14
t-34 14l-402 409l-402 -409q-14 -14 -34 -14t-34 14l-28 28q-14 14 -14 34t14 34z" />
    <glyph glyph-name="angle-double-down" unicode="ANGLE&#x2d;DOUBLE&#x2d;DOWN" horiz-adv-x="1024" 
d="M478 740l-464 472q-14 14 -14 34t14 34l28 28q14 14 34 14t34 -14l402 -409l402 409q14 14 34 14t34 -14l28 -29q14 -14 14 -34t-14 -34l-464 -471q-14 -14 -34 -14t-34 14zM546 228q-14 -14 -34 -14t-34 14l-464 471q-14 14 -14 34t14 34l28 29q14 14 34 14t34 -14
l402 -409l402 409q14 14 34 14t34 -14l28 -28q14 -14 14 -34t-14 -34z" />
    <glyph glyph-name="angle-left" unicode="ANGLE&#x2d;LEFT" horiz-adv-x="768" 
d="M100 802l472 464q14 14 34 14t34 -14l28 -28q14 -14 14 -34t-14 -34l-409 -402l409 -402q14 -14 14 -34t-14 -34l-29 -28q-14 -14 -34 -14t-34 14l-471 464q-14 14 -14 34t14 34z" />
    <glyph glyph-name="angle-right" unicode="ANGLE&#x2d;RIGHT" horiz-adv-x="768" 
d="M668 734l-472 -464q-14 -14 -34 -14t-34 14l-28 28q-14 14 -14 34t14 34l409 402l-409 402q-14 14 -14 34t14 34l29 28q14 14 34 14t34 -14l471 -464q14 -14 14 -34t-14 -34z" />
    <glyph glyph-name="angle-up" unicode="ANGLE&#x2d;UP" horiz-adv-x="1024" 
d="M546 1052l464 -472q14 -14 14 -34t-14 -34l-28 -28q-14 -14 -34 -14t-34 14l-402 409l-402 -409q-14 -14 -34 -14t-34 14l-28 29q-14 14 -14 34t14 34l464 471q14 14 34 14t34 -14z" />
    <glyph glyph-name="angle-down" unicode="ANGLE&#x2d;DOWN" horiz-adv-x="1024" 
d="M478 484l-464 472q-14 14 -14 34t14 34l28 28q14 14 34 14t34 -14l402 -409l402 409q14 14 34 14t34 -14l28 -29q14 -14 14 -34t-14 -34l-464 -471q-14 -14 -34 -14t-34 14z" />
    <glyph glyph-name="desktop" unicode="DESKTOP" horiz-adv-x="2304" 
d="M2112 1792q80 0 136 -56t56 -136v-1152q0 -80 -56 -136t-136 -56h-768l96 -384h288q26 0 45 -19t19 -45t-19 -45t-45 -19h-1152q-26 0 -45 19t-19 45t19 45t45 19h288l96 384h-768q-80 0 -136 56t-56 136v1152q0 80 56 136t136 56h1920zM996 -128h312l-64 256h-184z
M2176 448v1152q0 26 -19 45t-45 19h-1920q-26 0 -45 -19t-19 -45v-1152q0 -26 19 -45t45 -19h1920q26 0 45 19t19 45z" />
    <glyph glyph-name="laptop" unicode="Laptop" horiz-adv-x="2560" 
d="M2496 320q26 0 45 -19t19 -45v-192q0 -132 -94 -226t-226 -94h-1920q-132 0 -226 94t-94 226v192q0 26 19 45t45 19h192v1088q0 106 75 181t181 75h1536q106 0 181 -75t75 -181v-1088h192zM384 1408v-1088h611q25 0 32 -28q10 -43 45 -71.5t80 -28.5h256q45 0 80 28.5
t45 71.5q7 28 32 28h611v1088q0 53 -37.5 90.5t-90.5 37.5h-1536q-53 0 -90.5 -37.5t-37.5 -90.5zM2432 64v128h-779q-20 -56 -69.5 -92t-111.5 -36h-384q-61 0 -111 36t-70 92h-779v-128q0 -80 56 -136t136 -56h1920q80 0 136 56t56 136z" />
    <glyph glyph-name="tablet" unicode="Tablet" horiz-adv-x="1792" 
d="M1024 128q0 -53 -37.5 -90.5t-90.5 -37.5t-90.5 37.5t-37.5 90.5q0 61 36 94.5t92 33.5q53 0 90.5 -37.5t37.5 -90.5zM1792 1600v-1664q0 -80 -56 -136t-136 -56h-1408q-80 0 -136 56t-56 136v1664q0 80 56 136t136 56h1408q80 0 136 -56t56 -136zM1664 1600q0 26 -19 45
t-45 19h-1408q-26 0 -45 -19t-19 -45v-1664q0 -26 19 -45t45 -19h1408q26 0 45 19t19 45v1664z" />
    <glyph glyph-name="mobile" unicode="MOBILE" horiz-adv-x="1280" 
d="M768 128q0 -53 -37.5 -90.5t-90.5 -37.5t-90.5 37.5t-37.5 90.5t37.5 90.5t90.5 37.5t90.5 -37.5t37.5 -90.5zM1280 1600v-1664q0 -80 -56 -136t-136 -56h-896q-80 0 -136 56t-56 136v1664q0 80 56 136t136 56h896q80 0 136 -56t56 -136zM1152 1600q0 26 -19 45t-45 19
h-896q-26 0 -45 -19t-19 -45v-1664q0 -26 19 -45t45 -19h896q26 0 45 19t19 45v1664z" />
    <glyph glyph-name="quote-left" unicode="QUOTE&#x2d;LEFT" 
d="M1792 896q106 0 181 -75t75 -181v-512q0 -106 -75 -181t-181 -75h-448q-106 0 -181 75t-75 181v864q0 136 53.5 260.5t143.5 214.5t214.5 143.5t260.5 53.5h64q66 0 113 -47t47 -113v-128q0 -66 -47 -113t-113 -47h-64q-93 0 -158.5 -65.5t-65.5 -158.5v-96h256z
M1920 128v512q0 53 -37.5 90.5t-90.5 37.5h-384v224q0 146 103 249t249 103h64q14 0 23 9t9 23v128q0 14 -9 23t-23 9h-64q-148 0 -273 -73t-198 -198t-73 -273v-864q0 -53 37.5 -90.5t90.5 -37.5h448q53 0 90.5 37.5t37.5 90.5zM704 896q106 0 181 -75t75 -181v-512
q0 -106 -75 -181t-181 -75h-448q-106 0 -181 75t-75 181v864q0 136 53.5 260.5t143.5 214.5t214.5 143.5t260.5 53.5h64q66 0 113 -47t47 -113v-128q0 -66 -47 -113t-113 -47h-64q-93 0 -158.5 -65.5t-65.5 -158.5v-96h256zM832 128v512q0 53 -37.5 90.5t-90.5 37.5h-384
v224q0 146 103 249t249 103h64q14 0 23 9t9 23v128q0 14 -9 23t-23 9h-64q-148 0 -273 -73t-198 -198t-73 -273v-864q0 -53 37.5 -90.5t90.5 -37.5h448q53 0 90.5 37.5t37.5 90.5z" />
    <glyph glyph-name="quote-right" unicode="QUOTE&#x2d;RIGHT" 
d="M704 1664q106 0 181 -75t75 -181v-864q0 -136 -53.5 -260.5t-143.5 -214.5t-214.5 -143.5t-260.5 -53.5h-64q-66 0 -113 47t-47 113v128q0 66 47 113t113 47h64q93 0 158.5 65.5t65.5 158.5v96h-256q-106 0 -181 75t-75 181v512q0 106 75 181t181 75h448zM832 544v864
q0 53 -37.5 90.5t-90.5 37.5h-448q-53 0 -90.5 -37.5t-37.5 -90.5v-512q0 -53 37.5 -90.5t90.5 -37.5h384v-224q0 -146 -103 -249t-249 -103h-64q-14 0 -23 -9t-9 -23v-128q0 -14 9 -23t23 -9h64q148 0 273 73t198 198t73 273zM1792 1664q106 0 181 -75t75 -181v-864
q0 -136 -53.5 -260.5t-143.5 -214.5t-214.5 -143.5t-260.5 -53.5h-64q-66 0 -113 47t-47 113v128q0 66 47 113t113 47h64q93 0 158.5 65.5t65.5 158.5v96h-256q-106 0 -181 75t-75 181v512q0 106 75 181t181 75h448zM1920 544v864q0 53 -37.5 90.5t-90.5 37.5h-448
q-53 0 -90.5 -37.5t-37.5 -90.5v-512q0 -53 37.5 -90.5t90.5 -37.5h384v-224q0 -146 -103 -249t-249 -103h-64q-14 0 -23 -9t-9 -23v-128q0 -14 9 -23t23 -9h64q148 0 273 73t198 198t73 273z" />
    <glyph glyph-name="spinner" unicode="SPINNER" 
d="M1152 1664q0 -53 -37.5 -90.5t-90.5 -37.5t-90.5 37.5t-37.5 90.5t37.5 90.5t90.5 37.5t90.5 -37.5t37.5 -90.5zM1024 0q53 0 90.5 -37.5t37.5 -90.5t-37.5 -90.5t-90.5 -37.5t-90.5 37.5t-37.5 90.5t37.5 90.5t90.5 37.5zM2048 768q0 -53 -37.5 -90.5t-90.5 -37.5
t-90.5 37.5t-37.5 90.5t37.5 90.5t90.5 37.5t90.5 -37.5t37.5 -90.5zM256 768q0 -53 -37.5 -90.5t-90.5 -37.5t-90.5 37.5t-37.5 90.5t37.5 90.5t90.5 37.5t90.5 -37.5t37.5 -90.5zM390 262q53 0 90.5 -37.5t37.5 -90.5t-37.5 -90.5t-90.5 -37.5t-90.5 37.5t-37.5 90.5
t37.5 90.5t90.5 37.5zM1658 262q53 0 90.5 -37.5t37.5 -90.5t-37.5 -90.5t-90.5 -37.5t-90.5 37.5t-37.5 90.5t37.5 90.5t90.5 37.5zM390 1530q53 0 90.5 -37.5t37.5 -90.5t-37.5 -90.5t-90.5 -37.5t-90.5 37.5t-37.5 90.5t37.5 90.5t90.5 37.5z" />
    <glyph glyph-name="circle" unicode="Circle" 
d="M1024 1760q202 0 385.5 -78.5t316.5 -211.5t211.5 -316.5t78.5 -385.5t-78.5 -385.5t-211.5 -316.5t-316.5 -211.5t-385.5 -78.5t-385.5 78.5t-316.5 211.5t-211.5 316.5t-78.5 385.5t78.5 385.5t211.5 316.5t316.5 211.5t385.5 78.5zM1888 768q0 177 -68.5 337
t-184.5 275.5t-276 183.5t-335 68q-177 0 -337 -68.5t-275.5 -184.5t-183.5 -276t-68 -335q0 -177 68.5 -337t184.5 -275.5t276 -183.5t335 -68q177 0 337 68.5t275.5 184.5t183.5 276t68 335z" />
    <glyph glyph-name="smile" unicode="SMILE" horiz-adv-x="1984" 
d="M992 1760q202 0 385.5 -78.5t316.5 -211.5t211.5 -316.5t78.5 -385.5t-78.5 -385.5t-211.5 -316.5t-316.5 -211.5t-385.5 -78.5t-385.5 78.5t-316.5 211.5t-211.5 316.5t-78.5 385.5t78.5 385.5t211.5 316.5t316.5 211.5t385.5 78.5zM992 -96q175 0 335 68.5t276 184.5
t184.5 276t68.5 335t-68.5 335t-184.5 276t-276 184.5t-335 68.5t-335 -68.5t-276 -184.5t-184.5 -276t-68.5 -335t68.5 -335t184.5 -276t276 -184.5t335 -68.5zM1353 489q17 20 43.5 22.5t46.5 -14.5t22.5 -43.5t-14.5 -46.5q-85 -103 -205 -159t-254 -56q-133 0 -253 56.5
t-206 158.5q-17 20 -14.5 46.5t22.5 43.5t46.5 14.5t43.5 -22.5q68 -80 162 -124.5t199 -44.5t199 44.5t162 124.5zM672 832q-53 0 -90.5 37.5t-37.5 90.5t37.5 90.5t90.5 37.5t90.5 -37.5t37.5 -90.5t-37.5 -90.5t-90.5 -37.5zM1312 832q-53 0 -90.5 37.5t-37.5 90.5
t37.5 90.5t90.5 37.5t90.5 -37.5t37.5 -90.5t-37.5 -90.5t-90.5 -37.5z" />
    <glyph glyph-name="frown" unicode="FROWN" horiz-adv-x="1984" 
d="M992 1760q202 0 385.5 -78.5t316.5 -211.5t211.5 -316.5t78.5 -385.5t-78.5 -385.5t-211.5 -316.5t-316.5 -211.5t-385.5 -78.5t-385.5 78.5t-316.5 211.5t-211.5 316.5t-78.5 385.5t78.5 385.5t211.5 316.5t316.5 211.5t385.5 78.5zM992 -96q175 0 335 68.5t276 184.5
t184.5 276t68.5 335t-68.5 335t-184.5 276t-276 184.5t-335 68.5t-335 -68.5t-276 -184.5t-184.5 -276t-68.5 -335t68.5 -335t184.5 -276t276 -184.5t335 -68.5zM992 512q133 0 252.5 -56t205.5 -159q17 -20 14.5 -46.5t-22.5 -43.5q-21 -18 -47.5 -15t-42.5 23
q-68 81 -161.5 125t-198.5 44t-199 -44.5t-162 -124.5q-17 -20 -43.5 -22.5t-46.5 14.5t-22.5 43.5t14.5 46.5q85 103 205 159t254 56zM672 832q-53 0 -90.5 37.5t-37.5 90.5t37.5 90.5t90.5 37.5t90.5 -37.5t37.5 -90.5t-37.5 -90.5t-90.5 -37.5zM1312 832
q-53 0 -90.5 37.5t-37.5 90.5t37.5 90.5t90.5 37.5t90.5 -37.5t37.5 -90.5t-37.5 -90.5t-90.5 -37.5z" />
    <glyph glyph-name="meh" unicode="MEH" horiz-adv-x="1984" 
d="M992 1760q202 0 385.5 -78.5t316.5 -211.5t211.5 -316.5t78.5 -385.5t-78.5 -385.5t-211.5 -316.5t-316.5 -211.5t-385.5 -78.5t-385.5 78.5t-316.5 211.5t-211.5 316.5t-78.5 385.5t78.5 385.5t211.5 316.5t316.5 211.5t385.5 78.5zM992 -96q175 0 335 68.5t276 184.5
t184.5 276t68.5 335t-68.5 335t-184.5 276t-276 184.5t-335 68.5t-335 -68.5t-276 -184.5t-184.5 -276t-68.5 -335t68.5 -335t184.5 -276t276 -184.5t335 -68.5zM672 832q-53 0 -90.5 37.5t-37.5 90.5t37.5 90.5t90.5 37.5t90.5 -37.5t37.5 -90.5t-37.5 -90.5t-90.5 -37.5z
M1312 1088q53 0 90.5 -37.5t37.5 -90.5t-37.5 -90.5t-90.5 -37.5t-90.5 37.5t-37.5 90.5t37.5 90.5t90.5 37.5zM1376 448q26 0 45 -19t19 -45t-19 -45t-45 -19h-768q-26 0 -45 19t-19 45t19 45t45 19h768z" />
    <glyph glyph-name="gamepad" unicode="Gamepad" horiz-adv-x="2560" 
d="M1920 1408q130 0 248.5 -51t204 -136.5t136.5 -204t51 -248.5t-51 -248.5t-136.5 -204t-204 -136.5t-248.5 -51q-111 0 -245 56.5t-212 135.5h-366q-78 -79 -212 -135.5t-245 -56.5q-130 0 -248.5 51t-204 136.5t-136.5 204t-51 248.5t51 248.5t136.5 204t204 136.5
t248.5 51h1280zM1920 256q104 0 198.5 40.5t163.5 109.5t109.5 163.5t40.5 198.5t-40.5 198.5t-109.5 163.5t-163.5 109.5t-198.5 40.5h-1280q-104 0 -198.5 -40.5t-163.5 -109.5t-109.5 -163.5t-40.5 -198.5t40.5 -198.5t109.5 -163.5t163.5 -109.5t198.5 -40.5h2
q88 0 195 45t169 109l37 38h474l38 -38q62 -64 168.5 -109t194.5 -45h2zM889 847q16 0 27.5 -11.5t11.5 -28.5v-78q0 -17 -11.5 -28.5t-27.5 -11.5h-170v-170q0 -16 -11.5 -27.5t-28.5 -11.5h-78q-17 0 -28.5 11.5t-11.5 27.5v170h-170q-16 0 -27.5 11.5t-11.5 28.5v78
q0 17 11.5 28.5t27.5 11.5h170v170q0 16 11.5 27.5t28.5 11.5h78q17 0 28.5 -11.5t11.5 -27.5v-170h170zM1792 768q53 0 90.5 -37.5t37.5 -90.5t-37.5 -90.5t-90.5 -37.5t-90.5 37.5t-37.5 90.5t37.5 90.5t90.5 37.5zM2048 1024q53 0 90.5 -37.5t37.5 -90.5t-37.5 -90.5
t-90.5 -37.5t-90.5 37.5t-37.5 90.5t37.5 90.5t90.5 37.5z" />
    <glyph glyph-name="keyboard" unicode="KEYBOARD" horiz-adv-x="2304" 
d="M2112 1536q80 0 136 -56t56 -136v-1152q0 -80 -56 -136t-136 -56h-1920q-80 0 -136 56t-56 136v1152q0 80 56 136t136 56h1920zM2176 192v1152q0 26 -19 45t-45 19h-1920q-26 0 -45 -19t-19 -45v-1152q0 -26 19 -45t45 -19h1920q26 0 45 19t19 45zM672 720q0 -20 -14 -34
t-34 -14h-96q-20 0 -34 14t-14 34v96q0 20 14 34t34 14h96q20 0 34 -14t14 -34v-96zM1056 720q0 -20 -14 -34t-34 -14h-96q-20 0 -34 14t-14 34v96q0 20 14 34t34 14h96q20 0 34 -14t14 -34v-96zM1440 720q0 -20 -14 -34t-34 -14h-96q-20 0 -34 14t-14 34v96q0 20 14 34
t34 14h96q20 0 34 -14t14 -34v-96zM1824 720q0 -20 -14 -34t-34 -14h-96q-20 0 -34 14t-14 34v96q0 20 14 34t34 14h96q20 0 34 -14t14 -34v-96zM480 400q0 -20 -14 -34t-34 -14h-96q-20 0 -34 14t-14 34v96q0 20 14 34t34 14h96q20 0 34 -14t14 -34v-96zM2016 400
q0 -20 -14 -34t-34 -14h-96q-20 0 -34 14t-14 34v96q0 20 14 34t34 14h96q20 0 34 -14t14 -34v-96zM480 1040q0 -20 -14 -34t-34 -14h-96q-20 0 -34 14t-14 34v96q0 20 14 34t34 14h96q20 0 34 -14t14 -34v-96zM864 1040q0 -20 -14 -34t-34 -14h-96q-20 0 -34 14t-14 34v96
q0 20 14 34t34 14h96q20 0 34 -14t14 -34v-96zM1248 1040q0 -20 -14 -34t-34 -14h-96q-20 0 -34 14t-14 34v96q0 20 14 34t34 14h96q20 0 34 -14t14 -34v-96zM1632 1040q0 -20 -14 -34t-34 -14h-96q-20 0 -34 14t-14 34v96q0 20 14 34t34 14h96q20 0 34 -14t14 -34v-96z
M2016 1040q0 -20 -14 -34t-34 -14h-96q-20 0 -34 14t-14 34v96q0 20 14 34t34 14h96q20 0 34 -14t14 -34v-96zM1632 432q0 -20 -14 -34t-34 -14h-864q-20 0 -34 14t-14 34v32q0 20 14 34t34 14h864q20 0 34 -14t14 -34v-32z" />
    <glyph glyph-name="flag-checkered" unicode="FLAG&#x2d;CHECKERED" 
d="M1856 1407v-285q-183 -73 -307 -94v290q151 27 307 89zM1856 557q-140 -88 -307 -106v288q86 12 170 40.5t137 61.5v-284zM320 1047v284q140 88 307 106v-290q-88 -12 -172.5 -40t-134.5 -60zM320 513v284q152 51 307 67v-287q-176 -20 -307 -64zM1242 765v273
q160 -34 307 -10v-289q-143 -19 -307 26v-275q-22 7 -72 22.5t-79.5 24.5t-73.5 20t-83 18v279q64 -13 177 -48.5t131 -40.5zM1912 1641q48 22 92 -6t44 -81v-1046q0 -51 -42 -80q-254 -172 -520 -172q-94 0 -193.5 21.5t-170.5 48t-159.5 48t-163.5 21.5
q-172 0 -299.5 -31.5t-243.5 -85.5v-486q0 -20 -14 -34t-34 -14h-32q-20 0 -34 14t-14 34v1627q-60 21 -96 74t-32 118q4 73 57 125.5t127 55.5q89 3 149.5 -63t48.5 -155q150 58 308 58q94 0 193.5 -21.5t170.5 -48t160 -48t164 -21.5q214 0 534 148zM192 1520
q33 0 56.5 23.5t23.5 56.5t-23.5 56.5t-56.5 23.5t-56.5 -23.5t-23.5 -56.5t23.5 -56.5t56.5 -23.5zM1920 523v981q-116 -55 -266 -97t-277 -42q-85 0 -179 21.5t-164.5 48t-164.5 48t-179 21.5q-122 0 -239 -41t-195 -98v-946q99 47 251 75.5t292 28.5q85 0 179 -21.5
t164.5 -48t164.5 -48t179 -21.5q122 0 239 41t195 98zM1242 1313v-275q-62 14 -167.5 47t-140.5 42v272q24 -7 91 -28.5t117 -35t100 -22.5zM627 1147q147 22 307 -20v-273q-134 28 -307 10v283z" />
    <glyph glyph-name="terminal" unicode="Terminal" horiz-adv-x="2560" 
d="M138 1646l844 -844q14 -14 14 -34t-14 -34l-844 -844q-14 -14 -34 -14t-34 14l-28 28q-14 14 -14 34t14 34l782 782l-782 782q-14 14 -14 34t14 34l28 28q14 14 34 14t34 -14zM2560 -80q0 -20 -14 -34t-34 -14h-1312q-20 0 -34 14t-14 34v40q0 20 14 34t34 14h1312
q20 0 34 -14t14 -34v-40z" />
    <glyph glyph-name="code" unicode="Code" horiz-adv-x="2304" 
d="M914 -255l-100 28q-10 3 -14.5 11.5t-1.5 18.5l562 1971q3 10 11.5 15t18.5 2l100 -29q23 -7 16 -29l-562 -1971q-3 -10 -12 -15t-18 -2zM612 246q-5 -6 -14 -6.5t-15 4.5l-576 509q-7 6 -7 15t7 15l576 509q6 6 15 5t14 -7l74 -84q14 -14 -2 -28l-484 -410l484 -410
q16 -14 2 -28zM1721 244q-6 -6 -15 -5t-14 7l-74 84q-14 14 2 28l484 410l-484 410q-16 14 -2 28l74 84q15 15 29 2l576 -509q7 -6 7 -15t-7 -15z" />
    <glyph glyph-name="reply-all" unicode="Reply&#x2d;all" horiz-adv-x="2304" 
d="M421 805q-37 37 -37 91t37 91l640 639q29 29 68 35.5t72 -7t56 -45.5t23 -73v-291q84 -3 157.5 -8.5t158 -18.5t156 -31.5t145.5 -48.5t132.5 -68.5t111 -92.5t87.5 -119.5t55.5 -151t20.5 -185.5q0 -189 -90 -348t-250 -276q-37 -28 -76.5 -25t-71.5 23t-47.5 59
t-3.5 81q28 101 36.5 173t-5.5 128.5t-49 92.5t-101 60.5t-153 36t-213 15.5v-285q0 -41 -23 -73t-56 -45.5t-72 -7t-68 35.5zM512 896l640 -640v416q104 -1 185 -5.5t161.5 -14.5t140 -27t114 -44t88.5 -63.5t58 -86.5t29.5 -112.5t-4 -142.5t-36.5 -176q53 39 99 85
t91 110.5t71.5 148.5t26.5 177q0 110 -30.5 198.5t-80.5 149.5t-129 106.5t-161.5 72.5t-192.5 43t-208 22t-222 7v416zM37 987l640 639q42 39 93 38t88 -37l-730 -731l730 -731q-37 -36 -88 -37t-93 38l-640 639q-37 37 -37 91t37 91z" />
    <glyph glyph-name="location-arrow" unicode="LOCATION&#x2d;ARROW" 
d="M1848 1792q47 0 91 -24t70.5 -62.5t36 -86.5t-11.5 -97l-768 -1663q-27 -57 -74 -86t-102 -29q-78 0 -136.5 53t-58.5 139v703h-703q-74 0 -124.5 45.5t-64 106t14.5 124t97 95.5l1663 768q32 14 70 14zM1918 1576q10 23 -10 52q-23 36 -60 36q-12 0 -21 -4l-1658 -766
q-50 -23 -39 -76q2 -10 7 -20t19.5 -20.5t35.5 -10.5h831v-831q0 -33 22 -48.5t45 -15.5q40 0 60 41z" />
    <glyph glyph-name="crop" unicode="CROP" 
d="M1952 512q40 0 68 -28t28 -68v-192q0 -40 -28 -68t-68 -28h-288v-288q0 -40 -28 -68t-68 -28h-192q-40 0 -68 28t-28 68v288h-768q-53 0 -90.5 37.5t-37.5 90.5v768h-288q-40 0 -68 28t-28 68v192q0 40 28 68t68 28h288v288q0 40 28 68t68 28h192q40 0 68 -28t28 -68
v-288h805l375 375q9 9 22.5 9t22.5 -9l46 -46q9 -9 9 -22.5t-9 -22.5l-375 -374v-806h288zM384 1152v128h-256v-128h256zM768 1280v-128h549l128 128h-677zM1190 1024h-422v-422zM1280 256v128h-640v1280h-128v-1408h768zM858 512h422v421zM1408 -128h128v1317l-128 -128
v-1189zM1920 256v128h-256v-128h256z" />
    <glyph glyph-name="code-branch" unicode="CODE&#x2d;BRANCH" horiz-adv-x="1536" 
d="M1536 1216q0 -113 -71 -200.5t-179 -111.5q-4 -150 -79 -242q-30 -38 -72.5 -65.5t-80 -43t-98.5 -27t-96 -15.5t-104 -11q-205 -19 -276 -55q-52 -27 -76 -72q103 -28 169.5 -113.5t66.5 -195.5q0 -133 -93.5 -226.5t-226.5 -93.5t-226.5 93.5t-93.5 226.5
q0 115 72.5 203t183.5 111v780q-111 23 -183.5 111t-72.5 203q0 133 93.5 226.5t226.5 93.5t226.5 -93.5t93.5 -226.5q0 -115 -72.5 -203t-183.5 -111v-622q21 14 39 23q43 21 102.5 35.5t102 19.5t116.5 12q73 7 113 12t95.5 17.5t92.5 33.5t62 52q47 57 51 160
q-113 21 -187.5 109.5t-74.5 205.5q0 133 93.5 226.5t226.5 93.5t226.5 -93.5t93.5 -226.5zM128 1472q0 -80 56 -136t136 -56t136 56t56 136t-56 136t-136 56t-136 -56t-56 -136zM512 64q0 79 -55.5 135t-134.5 57h-3q-79 0 -135 -56t-56 -136t56 -136t136 -56t136 56
t56 136zM1263 1030q63 16 104 67.5t41 118.5q0 80 -56 136t-136 56t-136 -56t-56 -136t56 -136t136 -56z" />
    <glyph glyph-name="unlink" unicode="UNLINK" 
d="M832 1243q-14 14 -14 34t14 34l328 329q100 100 234 135.5t268 0t234 -135.5t135.5 -234t0 -268t-135.5 -234l-329 -328q-14 -14 -34 -14t-34 14l-34 33q-14 14 -14 34t14 34l329 329q110 110 110 266t-110 266t-266 110t-266 -110l-329 -329q-14 -14 -34 -14t-34 14z
M786 -2l329 329q14 14 34 14t34 -14l34 -34q14 -14 14 -34t-14 -34l-329 -329q-100 -100 -234 -135.5t-268 0t-234 135.5q-152 152 -152 367.5t152 367.5l329 329q14 14 34 14t34 -14l34 -34q14 -14 14 -34t-14 -34l-329 -328q-110 -110 -110 -266t110 -266t266 -110
t266 110zM48 1778q14 14 34 14t34 -14l1918 -1918q14 -14 14 -34t-14 -34l-34 -34q-14 -14 -34 -14t-34 14l-1918 1918q-14 14 -14 34t14 34z" />
    <glyph glyph-name="question" unicode="Question" horiz-adv-x="1536" 
d="M801 1792q131 0 259.5 -49.5t229 -133t162.5 -204t62 -252.5q0 -90 -24.5 -168t-60 -128.5t-86.5 -96.5t-92 -71t-88.5 -53t-65.5 -41v-19q0 -47 -21.5 -88t-58.5 -68q63 -53 99 -129.5t36 -162.5q0 -159 -112.5 -271.5t-271.5 -112.5t-271.5 112.5t-112.5 271.5
q0 86 36 162.5t99 129.5q-37 27 -58.5 68t-21.5 88v55q0 73 19 133.5t49.5 100t70 72.5t80.5 52.5t80.5 37.5t70 30.5t49.5 28.5t19 34q0 31 -33.5 52t-68.5 21q-53 0 -86 -23t-98 -105q-49 -62 -127 -71.5t-140 37.5l-168 128q-61 47 -73.5 122t30.5 138q126 188 294 280.5
t394 92.5zM768 -128q106 0 181 75t75 181t-75 181t-181 75t-181 -75t-75 -181t75 -181t181 -75zM969 618q0 29 23 54t60 47.5t81 47t88.5 59t81.5 77t60 107t23 143.5q0 140 -87.5 259.5t-221.5 185.5t-276 66q-197 0 -336 -79.5t-246 -237.5q-14 -21 -10 -46t24 -40
l169 -128q21 -16 46 -12.5t42 23.5q51 65 84.5 98t84.5 56t116 23q53 0 104.5 -22.5t88.5 -70t37 -108.5q0 -52 -24 -90t-63 -60.5t-85.5 -41.5t-93 -41.5t-85.5 -52t-63 -81.5t-24 -122v-55q0 -26 19 -45t45 -19h274q26 0 45 19t19 45v42z" />
    <glyph glyph-name="info" unicode="INFO" horiz-adv-x="1024" 
d="M832 317q69 -11 114.5 -64.5t45.5 -124.5v-192q0 -80 -56 -136t-136 -56h-576q-80 0 -136 56t-56 136v192q0 71 45.5 124.5t114.5 64.5v262q-69 11 -114.5 64.5t-45.5 124.5v192q0 80 56 136t136 56h2q-98 109 -98 256q0 159 112.5 271.5t271.5 112.5t271.5 -112.5
t112.5 -271.5q0 -88 -37 -165.5t-102 -130.5q75 -57 75 -152v-643zM512 1664q-106 0 -181 -75t-75 -181t75 -181t181 -75t181 75t75 181t-75 181t-181 75zM864 -64v192q0 26 -19 45t-45 19h-96v768q0 26 -19 45t-45 19h-416q-26 0 -45 -19t-19 -45v-192q0 -26 19 -45t45 -19
h96v-512h-96q-26 0 -45 -19t-19 -45v-192q0 -26 19 -45t45 -19h576q26 0 45 19t19 45z" />
    <glyph glyph-name="exclamation" unicode="Exclamation" horiz-adv-x="768" 
d="M557 1664h-346q-21 0 -35 -15t-13 -36l58 -1056q1 -19 15 -32t33 -13h230q19 0 33 13t15 32l58 1056q1 21 -13 36t-35 15zM384 384q-106 0 -181 -75t-75 -181t75 -181t181 -75t181 75t75 181t-75 181t-181 75zM557 1792q76 0 128 -55t48 -131l-59 -1056q-5 -71 -55 -118
q69 -53 109 -133t40 -171q0 -159 -112.5 -271.5t-271.5 -112.5t-271.5 112.5t-112.5 271.5q0 91 40 171t109 133q-50 47 -55 118l-59 1056q-4 76 48 131t128 55h346z" />
    <glyph glyph-name="superscript" unicode="SUPERSCRIPT" 
d="M1376 1536q14 0 23 -9t9 -23v-64q0 -14 -9 -23t-23 -9h-189l-407 -640l407 -640h189q14 0 23 -9t9 -23v-64q0 -14 -9 -23t-23 -9h-224q-14 0 -30 9t-24 21l-394 619l-394 -619q-8 -12 -24 -21t-30 -9h-224q-14 0 -23 9t-9 23v64q0 14 9 23t23 9h189l407 640l-407 640
h-189q-14 0 -23 9t-9 23v64q0 14 9 23t23 9h224q14 0 30 -9t24 -21l394 -619l394 619q8 12 24 21t30 9h224zM2016 1024q14 0 23 -9t9 -23v-64q0 -14 -9 -23t-23 -9h-448q-14 0 -23 9t-9 23v64q0 14 9 23t23 9h160v512h-64q-26 0 -45 19t-19 45q0 17 7 29l64 128
q8 14 24.5 24.5t32.5 10.5h64q26 0 45 -19t19 -45v-704h160z" />
    <glyph glyph-name="subscript" unicode="SUBSCRIPT" 
d="M1376 1536q14 0 23 -9t9 -23v-64q0 -14 -9 -23t-23 -9h-189l-407 -640l407 -640h189q14 0 23 -9t9 -23v-64q0 -14 -9 -23t-23 -9h-224q-14 0 -30 9t-24 21l-394 619l-394 -619q-8 -12 -24 -21t-30 -9h-224q-14 0 -23 9t-9 23v64q0 14 9 23t23 9h189l407 640l-407 640
h-189q-14 0 -23 9t-9 23v64q0 14 9 23t23 9h224q14 0 30 -9t24 -21l394 -619l394 619q8 12 24 21t30 9h224zM2016 -128q14 0 23 -9t9 -23v-64q0 -14 -9 -23t-23 -9h-448q-14 0 -23 9t-9 23v64q0 14 9 23t23 9h160v512h-64q-26 0 -45 19t-19 45q0 17 7 29l64 128
q8 14 24.5 24.5t32.5 10.5h64q26 0 45 -19t19 -45v-704h160z" />
    <glyph glyph-name="eraser" unicode="ERASER" 
d="M1992 696l-696 -696h704q20 0 34 -14t14 -34v-32q0 -20 -14 -34t-34 -14h-1424q-33 0 -73 16.5t-63 39.5l-384 384q-23 23 -39.5 63t-16.5 73t16.5 73t39.5 63l1024 1024q23 23 63 39.5t73 16.5t73 -16.5t63 -39.5l640 -640q23 -23 39.5 -63t16.5 -73t-16.5 -73
t-39.5 -63zM1171 1517l-467 -466l731 -731l466 467q19 19 19 45t-19 45l-640 640q-19 19 -45 19t-45 -19zM576 0h512q26 0 45 19l211 210l-731 731l-466 -467q-19 -19 -19 -45t19 -45l384 -384q19 -19 45 -19z" />
    <glyph glyph-name="puzzle-piece" unicode="PUZZLE&#x2d;PIECE" horiz-adv-x="2304" 
d="M2026 768q126 0 202 -93.5t76 -226.5q0 -131 -75 -229.5t-196 -98.5q-41 0 -84 14.5t-76 35.5t-66 41.5t-58 34.5t-48 13t-39 -22q-70 -93 31 -448q-96 0 -229 -13t-216 -21.5t-168.5 4t-134.5 55.5q-58 52 -58 136q0 45 14 82t34.5 63t40.5 49.5t34 52t14 59.5
q0 20 -9.5 40.5t-30 41t-61 33.5t-95.5 13q-83 0 -135.5 -30t-52.5 -98q0 -44 20 -85.5t44 -68.5t44 -65t20 -77q0 -61 -29 -104.5t-80 -67t-108.5 -34t-125.5 -10.5q-180 0 -425 59v1381q72 -17 143.5 -30.5t172 -26.5t181.5 -4.5t121 39.5q20 16 22.5 35.5t-9.5 39.5
t-30 49t-36.5 59.5t-31.5 76.5t-13 95q0 124 100.5 199.5t238.5 75.5q128 0 215 -74t87 -195q0 -40 -14 -81.5t-33 -72.5t-40 -63t-35 -53t-16.5 -43t13.5 -33q109 -91 655 9q-95 -427 -14 -528q14 -18 32.5 -18t38 13t48.5 32t60 37.5t76.5 32t93.5 13.5zM2033 248
q52 0 97.5 52.5t45.5 147.5q0 80 -39.5 136t-110.5 56q-45 0 -89 -20t-73 -44t-69 -44t-79 -20q-53 0 -92.5 22.5t-61.5 63.5t-34.5 90t-13.5 110t2.5 116t12.5 114q-56 -8 -108 -12.5t-117.5 -7t-120.5 1t-110 16t-92.5 33.5t-61 57t-23.5 84q0 53 21.5 100.5t47 76.5
t47 68t21.5 78q0 49 -27.5 82t-65 46t-81.5 13q-82 0 -146.5 -39t-64.5 -108q0 -45 19 -88.5t41 -72.5t41 -68.5t19 -77.5q0 -62 -29 -106.5t-81 -67t-114 -34t-138 -9t-142 10t-136 20.5v-1119q65 -13 139.5 -21.5t165 -11.5t149 19t58.5 69q0 15 -37 64q-68 91 -85 181
t14 157t108.5 108.5t187.5 41.5q143 0 233.5 -71.5t90.5 -184.5q0 -41 -14.5 -82t-35 -70.5t-41.5 -60.5t-34.5 -51t-15 -44t18.5 -38q20 -18 63 -25.5t104 -4.5t112 7.5t121.5 13.5t98.5 12q-13 68 -18.5 130.5t1 126t27 110t63 75.5t104.5 29q44 0 83.5 -14t67.5 -34
t54.5 -40t57.5 -34t64 -14z" />
    <glyph glyph-name="microphone" unicode="MICROPHONE" horiz-adv-x="1280" 
d="M640 384q-159 0 -271.5 112.5t-112.5 271.5v640q0 159 112.5 271.5t271.5 112.5t271.5 -112.5t112.5 -271.5v-640q0 -159 -112.5 -271.5t-271.5 -112.5zM384 1408v-640q0 -106 75 -181t181 -75t181 75t75 181v640q0 106 -75 181t-181 75t-181 -75t-75 -181zM1248 1024
q14 0 23 -9t9 -23v-224q0 -122 -45 -234t-121.5 -196.5t-183.5 -139t-226 -66.5v-260h288q14 0 23 -9t9 -23v-64q0 -14 -9 -23t-23 -9h-704q-14 0 -23 9t-9 23v64q0 14 9 23t23 9h288v261q-245 25 -410.5 215.5t-165.5 442.5v201q0 14 9 23t23 9h64q14 0 23 -9t9 -23v-206
q0 -135 62 -253t172 -192.5t243 -83.5q109 -7 210.5 30.5t175 107t117.5 167.5t44 206v224q0 14 9 23t23 9h64z" />
    <glyph glyph-name="microphone-slash" unicode="MICROPHONE&#x2d;SLASH" horiz-adv-x="2560" 
d="M1024 1408v-194l-128 101v93q0 159 112.5 271.5t271.5 112.5t271.5 -112.5t112.5 -271.5v-640q0 -9 -5 -54l-123 97v597q0 106 -75 181t-181 75t-181 -75t-75 -181zM1920 768q0 -117 -42 -226l-108 85q22 76 22 141v224q0 14 9 23t23 9h64q14 0 23 -9t9 -23v-224z
M1632 -128q14 0 23 -9t9 -23v-64q0 -14 -9 -23t-23 -9h-704q-14 0 -23 9t-9 23v64q0 14 9 23t23 9h288v262q-245 25 -410.5 215t-165.5 442v201q0 14 14 25l114 -90v-141q0 -135 62 -253t172 -192.5t243 -83.5q153 -10 288 67l105 -83q-138 -93 -294 -109v-260h288z
M1280 384q-159 0 -271.5 112.5t-112.5 271.5v58l133 -104q17 -90 87.5 -150t163.5 -60q3 0 7 1t6 1l129 -102q-68 -28 -142 -28zM2548 -149q10 -8 11.5 -21.5t-6.5 -23.5l-40 -50q-8 -10 -21.5 -11.5t-23.5 6.5l-2456 1934q-10 8 -11.5 21.5t6.5 23.5l40 50q8 10 21.5 11.5
t23.5 -6.5z" />
    <glyph glyph-name="shield" unicode="SHIELD" 
d="M1866 1457q54 -23 86 -71t32 -106q0 -184 -31.5 -355t-84 -308.5t-125 -261t-152.5 -217t-167.5 -170t-168 -127t-157.5 -82.5q-74 -31 -148 0q-131 55 -256.5 149.5t-240 235t-201 308.5t-137.5 383t-51 445q0 58 32 106t86 71l768 320q38 15 74 15t74 -15zM1049 -123
q119 47 234 137t219 222t182.5 290t125 353.5t46.5 400.5q0 42 -40 59l-768 320q-23 10 -49 0l-768 -320q-39 -16 -39 -59q0 -205 46.5 -400.5t125.5 -353.5t182.5 -290t219 -222t234.5 -137q24 -9 49 0z" />
    <glyph glyph-name="calendar" unicode="CALENDAR" horiz-adv-x="1792" 
d="M1600 1536q80 0 136 -56t56 -136v-1408q0 -80 -56 -136t-136 -56h-1408q-80 0 -136 56t-56 136v1408q0 80 56 136t136 56h192v208q0 20 14 34t34 14h32q20 0 34 -14t14 -34v-208h768v208q0 20 14 34t34 14h32q20 0 34 -14t14 -34v-208h192zM192 1408q-26 0 -45 -19
t-19 -45v-192h1536v192q0 26 -19 45t-45 19h-1408zM1600 -128q26 0 45 19t19 45v1088h-1536v-1088q0 -26 19 -45t45 -19h1408z" />
    <glyph glyph-name="fire-extinguisher" unicode="FIRE&#x2d;EXTINGUISHER" horiz-adv-x="1792" 
d="M1719 1663q29 4 51 -15t22 -48v-384q0 -29 -22 -48t-51 -15l-640 96q-11 2 -20 6t-15 9.5t-10 13.5t-6 14t-3 15.5t-1 14v13v9.5h-192v-133q137 -23 228.5 -130t91.5 -249v-992q0 -40 -28 -68t-68 -28h-576q-40 0 -68 28t-28 68v987q0 143 91.5 252t228.5 132v133
q-21 0 -63 1q-162 2 -237 -15q-163 -38 -250 -199q-17 -31 -31 -67q-10 -25 -34 -35t-49 0t-35 34t0 49q115 287 376 346q-33 56 -29 115t30.5 107.5t78.5 80t115 31.5q60 0 111 -29.5t78 -75.5t34 -103t-21 -112h246v10v13t1 14t3 15.5t6 14t10 13.5t15 9t20 6zM1024 832
q0 106 -75 181t-181 75h-2q-105 -1 -179.5 -77.5t-74.5 -183.5v-955h512v960zM576 1664q-40 0 -68 -28t-28 -68t28 -68t68 -28t68 28t28 68t-28 68t-68 28zM1664 1290v236l-512 -77v-82z" />
    <glyph glyph-name="rocket" unicode="ROCKET" 
d="M2020 1715q28 -131 28 -335q0 -150 -38 -279.5t-110.5 -232.5t-160.5 -183.5t-204 -155.5v-406q0 -49 -31 -99t-75 -72l-395 -198q-22 -10 -42 -10q-40 0 -68 28t-28 68v371l-86 -43q-21 -10 -43.5 -12t-38.5 2.5t-31 12.5t-22 13t-11 9l-215 215q-5 4 -12.5 15.5
t-16.5 31t-9 46.5t13 53l43 86h-371q-40 0 -68 28t-28 68q0 21 10 43l198 395q22 44 72 75t99 31h406q59 92 120.5 166t140.5 140t165.5 110.5t195 70t230.5 25.5q203 0 334 -28q17 -4 31 -18t18 -31zM148 768h382q126 256 190 384h-341q-16 0 -32.5 -10.5t-24.5 -24.5z
M1407 123v341q-191 -96 -383 -190v-382l348 174q15 7 25 23.5t10 33.5zM1466 636q235 151 344.5 330.5t109.5 413.5q0 168 -17 267q-99 17 -266 17q-236 0 -415 -109.5t-330 -344.5q-45 -90 -184.5 -372.5t-168.5 -339.5l215 -215q504 249 712 353zM1472 1440
q93 0 158.5 -65.5t65.5 -158.5t-65.5 -158.5t-158.5 -65.5t-158.5 65.5t-65.5 158.5t65.5 158.5t158.5 65.5zM1472 1120q40 0 68 28t28 68t-28 68t-68 28t-68 -28t-28 -68t28 -68t68 -28z" />
    <glyph glyph-name="chevron-circle-left" unicode="CHEVRON&#x2d;CIRCLE&#x2d;LEFT" 
d="M2016 768q0 -202 -78.5 -385.5t-211.5 -316.5t-316.5 -211.5t-385.5 -78.5t-385.5 78.5t-316.5 211.5t-211.5 316.5t-78.5 385.5t78.5 385.5t211.5 316.5t316.5 211.5t385.5 78.5t385.5 -78.5t316.5 -211.5t211.5 -316.5t78.5 -385.5zM1024 -96q177 0 337 68.5
t275.5 184.5t183.5 276t68 335q0 177 -68.5 337t-184.5 275.5t-276 183.5t-335 68q-177 0 -337 -68.5t-275.5 -184.5t-183.5 -276t-68 -335q0 -177 68.5 -337t184.5 -275.5t276 -183.5t335 -68zM678 802l460 460q14 14 34 14t34 -14l28 -28q14 -14 14 -34t-14 -34l-398 -398
l398 -398q14 -14 14 -34t-14 -34l-28 -28q-14 -14 -34 -14t-34 14l-461 460q-14 14 -13.5 34t14.5 34z" />
    <glyph glyph-name="chevron-circle-right" unicode="CHEVRON&#x2d;CIRCLE&#x2d;RIGHT" 
d="M32 768q0 202 78.5 385.5t211.5 316.5t316.5 211.5t385.5 78.5t385.5 -78.5t316.5 -211.5t211.5 -316.5t78.5 -385.5t-78.5 -385.5t-211.5 -316.5t-316.5 -211.5t-385.5 -78.5t-385.5 78.5t-316.5 211.5t-211.5 316.5t-78.5 385.5zM1024 1632q-177 0 -337 -68.5
t-275.5 -184.5t-183.5 -276t-68 -335q0 -177 68.5 -337t184.5 -275.5t276 -183.5t335 -68q177 0 337 68.5t275.5 184.5t183.5 276t68 335q0 177 -68.5 337t-184.5 275.5t-276 183.5t-335 68zM1370 734l-460 -460q-14 -14 -34 -14t-34 14l-28 28q-14 14 -14 34t14 34l398 398
l-398 398q-14 14 -14 34t14 34l28 28q14 14 34 14t34 -14l461 -460q14 -14 13.5 -34t-14.5 -34z" />
    <glyph glyph-name="chevron-circle-up" unicode="CHEVRON&#x2d;CIRCLE&#x2d;UP" 
d="M1024 -224q-202 0 -385.5 78.5t-316.5 211.5t-211.5 316.5t-78.5 385.5t78.5 385.5t211.5 316.5t316.5 211.5t385.5 78.5t385.5 -78.5t316.5 -211.5t211.5 -316.5t78.5 -385.5t-78.5 -385.5t-211.5 -316.5t-316.5 -211.5t-385.5 -78.5zM160 768q0 -177 68.5 -337
t184.5 -275.5t276 -183.5t335 -68q177 0 337 68.5t275.5 184.5t183.5 276t68 335q0 177 -68.5 337t-184.5 275.5t-276 183.5t-335 68q-177 0 -337 -68.5t-275.5 -184.5t-183.5 -276t-68 -335zM1058 1114l460 -460q14 -14 14 -34t-14 -34l-28 -28q-14 -14 -34 -14t-34 14
l-398 398l-398 -398q-14 -14 -34 -14t-34 14l-28 28q-14 14 -14 34t14 34l460 461q14 14 34 13.5t34 -14.5z" />
    <glyph glyph-name="chevron-circle-down" unicode="CHEVRON&#x2d;CIRCLE&#x2d;DOWN" 
d="M1024 1760q202 0 385.5 -78.5t316.5 -211.5t211.5 -316.5t78.5 -385.5t-78.5 -385.5t-211.5 -316.5t-316.5 -211.5t-385.5 -78.5t-385.5 78.5t-316.5 211.5t-211.5 316.5t-78.5 385.5t78.5 385.5t211.5 316.5t316.5 211.5t385.5 78.5zM1888 768q0 177 -68.5 337
t-184.5 275.5t-276 183.5t-335 68q-177 0 -337 -68.5t-275.5 -184.5t-183.5 -276t-68 -335q0 -177 68.5 -337t184.5 -275.5t276 -183.5t335 -68q177 0 337 68.5t275.5 184.5t183.5 276t68 335zM1058 422q-14 -14 -34 -14.5t-34 13.5l-460 461q-14 14 -14 34t14 34l28 28
q14 14 34 14t34 -14l398 -398l398 398q14 14 34 14t34 -14l28 -28q14 -14 14 -34t-14 -34z" />
    <glyph glyph-name="anchor" unicode="ANCHOR" horiz-adv-x="2304" 
d="M2018 734l268 -268q23 -22 10.5 -52t-44.5 -30h-208q-36 -181 -163 -327.5t-318.5 -229.5t-410.5 -83q-211 0 -400.5 78.5t-322 226t-169.5 335.5h-208q-32 0 -44.5 30t10.5 52l268 268q14 14 34 14t34 -14l268 -268q23 -22 10.5 -52t-44.5 -30h-196q51 -207 244.5 -350
t451.5 -160v1150h-208q-20 0 -34 14t-14 34v32q0 20 14 34t34 14h208v136q-83 21 -137.5 90.5t-54.5 157.5q0 109 79 185t189 71q98 -5 169 -75.5t75 -168.5q4 -92 -50.5 -165t-141.5 -95v-136h208q20 0 34 -14t14 -34v-32q0 -20 -14 -34t-34 -14h-208v-1150
q258 17 451.5 160t244.5 350h-196q-32 0 -44.5 30t10.5 52l268 268q14 14 34 14t34 -14zM1024 1536q0 -53 37.5 -90.5t90.5 -37.5t90.5 37.5t37.5 90.5t-37.5 90.5t-90.5 37.5t-90.5 -37.5t-37.5 -90.5zM245 512h150l-75 75zM1909 512h150l-75 75z" />
    <glyph glyph-name="unlock-alt" unicode="UNLOCK&#x2d;ALT" horiz-adv-x="1536" 
d="M1344 768q80 0 136 -56t56 -136v-640q0 -80 -56 -136t-136 -56h-1152q-80 0 -136 56t-56 136v640q0 80 56 136t136 56h64v384q0 135 31 249.5t92.5 203t161.5 138t229 49.5t228.5 -51t160 -140t91 -204t30.5 -251v-74q0 -20 -14 -34t-34 -14h-32q-20 0 -34 14t-14 34v80
q0 110 -21 199.5t-65 161.5t-119.5 111.5t-178.5 39.5t-178.5 -39.5t-119.5 -111.5t-65 -161.5t-21 -199.5v-384h960zM1408 -64v640q0 26 -19 45t-45 19h-1152q-26 0 -45 -19t-19 -45v-640q0 -26 19 -45t45 -19h1152q26 0 45 19t19 45zM768 64q-26 0 -45 19t-19 45v256
q0 26 19 45t45 19t45 -19t19 -45v-256q0 -26 -19 -45t-45 -19z" />
    <glyph glyph-name="bullseye" unicode="BULLSEYE" horiz-adv-x="1984" 
d="M992 1424q134 0 255.5 -52t209 -139.5t139.5 -209t52 -255.5t-52 -255.5t-139.5 -209t-209 -139.5t-255.5 -52t-255.5 52t-209 139.5t-139.5 209t-52 255.5t52 255.5t139.5 209t209 139.5t255.5 52zM992 240q143 0 264.5 71t192.5 192.5t71 264.5t-71 264.5t-192.5 192.5
t-264.5 71t-264.5 -71t-192.5 -192.5t-71 -264.5t71 -264.5t192.5 -192.5t264.5 -71zM992 1088q132 0 226 -94t94 -226t-94 -226t-226 -94t-226 94t-94 226t94 226t226 94zM992 576q80 0 136 56t56 136t-56 136t-136 56t-136 -56t-56 -136t56 -136t136 -56zM992 1760
q202 0 385.5 -78.5t316.5 -211.5t211.5 -316.5t78.5 -385.5t-78.5 -385.5t-211.5 -316.5t-316.5 -211.5t-385.5 -78.5t-385.5 78.5t-316.5 211.5t-211.5 316.5t-78.5 385.5t78.5 385.5t211.5 316.5t316.5 211.5t385.5 78.5zM992 -96q175 0 335 68.5t276 184.5t184.5 276
t68.5 335t-68.5 335t-184.5 276t-276 184.5t-335 68.5t-335 -68.5t-276 -184.5t-184.5 -276t-68.5 -335t68.5 -335t184.5 -276t276 -184.5t335 -68.5z" />
    <glyph glyph-name="ellipsis-h" unicode="Ellipsis&#x2d;H" horiz-adv-x="1280" 
d="M768 768q0 -53 -37.5 -90.5t-90.5 -37.5t-90.5 37.5t-37.5 90.5t37.5 90.5t90.5 37.5t90.5 -37.5t37.5 -90.5zM1120 896q53 0 90.5 -37.5t37.5 -90.5t-37.5 -90.5t-90.5 -37.5t-90.5 37.5t-37.5 90.5t37.5 90.5t90.5 37.5zM160 896q53 0 90.5 -37.5t37.5 -90.5
t-37.5 -90.5t-90.5 -37.5t-90.5 37.5t-37.5 90.5t37.5 90.5t90.5 37.5z" />
    <glyph glyph-name="ellipsis-v" unicode="ELLIPSIS&#x2d;V" horiz-adv-x="256" 
d="M128 896q53 0 90.5 -37.5t37.5 -90.5t-37.5 -90.5t-90.5 -37.5t-90.5 37.5t-37.5 90.5t37.5 90.5t90.5 37.5zM0 1248q0 53 37.5 90.5t90.5 37.5t90.5 -37.5t37.5 -90.5t-37.5 -90.5t-90.5 -37.5t-90.5 37.5t-37.5 90.5zM0 288q0 53 37.5 90.5t90.5 37.5t90.5 -37.5
t37.5 -90.5t-37.5 -90.5t-90.5 -37.5t-90.5 37.5t-37.5 90.5z" />
    <glyph glyph-name="rss-square" unicode="RSS&#x2d;SQUARE" horiz-adv-x="1792" 
d="M1600 1664q80 0 136 -56t56 -136v-1408q0 -80 -56 -136t-136 -56h-1408q-80 0 -136 56t-56 136v1408q0 80 56 136t136 56h1408zM1664 64v1408q0 26 -19 45t-45 19h-1408q-26 0 -45 -19t-19 -45v-1408q0 -26 19 -45t45 -19h1408q26 0 45 19t19 45zM576 512q-26 0 -45 -19
t-19 -45t19 -45t45 -19t45 19t19 45t-19 45t-45 19zM576 640q80 0 136 -56t56 -136t-56 -136t-136 -56t-136 56t-56 136t56 136t136 56zM1360 256h-32q-19 0 -33 13t-15 32q-8 169 -78 322.5t-183 266.5t-266.5 183.5t-323.5 78.5q-19 1 -32 15t-13 33v32q0 20 15 34.5
t35 13.5q194 -9 370 -89t305.5 -209t209.5 -305.5t89 -370.5q1 -20 -13.5 -35t-34.5 -15zM1072 256h-32q-19 0 -32.5 13t-15.5 32q-16 225 -177.5 385.5t-386.5 177.5q-19 1 -31.5 15t-12.5 33v32q0 21 15.5 35.5t36.5 12.5q274 -19 469.5 -214.5t214.5 -469.5
q2 -21 -12.5 -36.5t-35.5 -15.5z" />
    <glyph glyph-name="play-circle" unicode="PLAY&#x2d;CIRCLE" 
d="M1024 -224q-202 0 -385.5 78.5t-316.5 211.5t-211.5 316.5t-78.5 385.5t78.5 385.5t211.5 316.5t316.5 211.5t385.5 78.5t385.5 -78.5t316.5 -211.5t211.5 -316.5t78.5 -385.5t-78.5 -385.5t-211.5 -316.5t-316.5 -211.5t-385.5 -78.5zM160 768q0 -177 68.5 -337
t184.5 -275.5t276 -183.5t335 -68q177 0 337 68.5t275.5 184.5t183.5 276t68 335q0 177 -68.5 337t-184.5 275.5t-276 183.5t-335 68q-177 0 -337 -68.5t-275.5 -184.5t-183.5 -276t-68 -335zM1487 840q49 -28 49 -84.5t-49 -83.5l-704 -404q-48 -26 -95.5 1.5t-47.5 82.5
v832q0 55 47.5 82.5t95.5 1.5zM768 449q0 -14 12 -21t24 0l538 309q12 7 12 20.5t-12 20.5l-538 327q-12 7 -24 0t-12 -21v-635z" />
    <glyph glyph-name="ticket" unicode="TICKET" horiz-adv-x="2304" 
d="M2176 896q-53 0 -90.5 -37.5t-37.5 -90.5t37.5 -90.5t90.5 -37.5h128v-448q0 -80 -56 -136t-136 -56h-1920q-80 0 -136 56t-56 136v448h128q53 0 90.5 37.5t37.5 90.5t-37.5 90.5t-90.5 37.5h-128v448q0 80 56 136t136 56h1920q80 0 136 -56t56 -136v-448h-128zM2176 512
q-106 0 -181 75t-75 181t75 181t181 75v320q0 26 -19 45t-45 19h-1920q-26 0 -45 -19t-19 -45v-320q106 0 181 -75t75 -181t-75 -181t-181 -75v-320q0 -26 19 -45t45 -19h1920q26 0 45 19t19 45v320z" />
    <glyph glyph-name="minus-square" unicode="MINUS&#x2d;SQUARE" horiz-adv-x="1792" 
d="M1600 1536h-1408q-26 0 -45 -19t-19 -45v-1408q0 -26 19 -45t45 -19h1408q26 0 45 19t19 45v1408q0 26 -19 45t-45 19zM1600 1664q80 0 136 -56t56 -136v-1408q0 -80 -56 -136t-136 -56h-1408q-80 0 -136 56t-56 136v1408q0 80 56 136t136 56h1408zM1360 696h-928
q-20 0 -34 14t-14 34v48q0 20 14 34t34 14h928q20 0 34 -14t14 -34v-48q0 -20 -14 -34t-34 -14z" />
    <glyph glyph-name="level-up" unicode="LEVEL&#x2d;UP" horiz-adv-x="1024" 
d="M1010 1378q14 -14 14 -34t-14 -34l-34 -34q-14 -14 -34 -14t-34 14l-260 260v-1696q0 -40 -28 -68t-68 -28h-504q-32 0 -44.5 30t10.5 52l48 48q14 14 34 14h408v1648l-260 -260q-14 -14 -34 -14t-34 14l-34 34q-14 14 -14 34t14 34l400 400q14 14 34 14t34 -14z" />
    <glyph glyph-name="level-down" unicode="LEVEL&#x2d;DOWN" horiz-adv-x="1024" 
d="M1010 158l-400 -400q-14 -14 -34 -14t-34 14l-400 400q-14 14 -14 34t14 34l34 34q14 14 34 14t34 -14l260 -260v1648h-408q-20 0 -34 14l-48 48q-23 22 -10.5 52t44.5 30h504q40 0 68 -28t28 -68v-1696l260 260q14 14 34 14t34 -14l34 -34q14 -14 14 -34t-14 -34z" />
    <glyph glyph-name="check-square" unicode="CHECK&#x2d;SQUARE" horiz-adv-x="1792" 
d="M1600 1664q80 0 136 -56t56 -136v-1408q0 -80 -56 -136t-136 -56h-1408q-80 0 -136 56t-56 136v1408q0 80 56 136t136 56h1408zM1600 1536h-1408q-26 0 -45 -19t-19 -45v-1408q0 -26 19 -45t45 -19h1408q26 0 45 19t19 45v1408q0 26 -19 45t-45 19zM1463 1143
q14 -14 14 -34t-14 -34l-722 -716q-14 -14 -34 -14t-34 14l-344 346q-14 14 -14 34t14 34l35 34q14 14 33.5 14t33.5 -14l276 -278l654 648q14 14 34 14t34 -14z" />
    <glyph glyph-name="pen-square" unicode="Pen&#x2d;square" horiz-adv-x="1792" 
d="M1600 1664q80 0 136 -56t56 -136v-1408q0 -80 -56 -136t-136 -56h-1408q-80 0 -136 56t-56 136v1408q0 80 56 136t136 56h1408zM1664 64v1408q0 26 -19 45t-45 19h-1408q-26 0 -45 -19t-19 -45v-1408q0 -26 19 -45t45 -19h1408q26 0 45 19t19 45zM1396 1361l93 -93
q47 -47 47 -113.5t-47 -113.5l-881 -881l-285 -32q-29 -3 -49.5 17.5t-17.5 48.5l32 286l881 881q47 47 114 47t113 -47zM549 282l651 652l-139 138l-651 -650l-17 -157zM1399 1132q9 9 9 22.5t-9 22.5l-94 93q-9 9 -22.5 9t-22.5 -9l-108 -108l139 -138z" />
    <glyph glyph-name="external-link-square" unicode="EXTERNAL&#x2d;LINK&#x2d;SQUARE" horiz-adv-x="1792" 
d="M1600 1664q80 0 136 -56t56 -136v-1408q0 -80 -56 -136t-136 -56h-1408q-80 0 -136 56t-56 136v1408q0 80 56 136t136 56h1408zM1664 64v1408q0 26 -19 45t-45 19h-1408q-26 0 -45 -19t-19 -45v-1408q0 -26 19 -45t45 -19h1408q26 0 45 19t19 45zM398 293q-14 14 -14 34
t14 34l781 780l-3 3l-360 -1q-20 0 -34 14t-14 34v40q0 20 14 34t34 14l544 1q20 0 34 -14t14 -34l-1 -544q0 -20 -14 -34t-34 -14h-40q-20 0 -34 14t-14 34l1 360l-3 3l-780 -781q-14 -14 -34 -14t-34 14z" />
    <glyph glyph-name="share-square" unicode="SHARE&#x2d;SQUARE" horiz-adv-x="2304" 
d="M2267 1115q37 -37 37 -91t-37 -91l-640 -640q-29 -29 -68 -35.5t-72 7t-56 45.5t-23 74v286q-114 -3 -196 -11t-152 -23.5t-113 -41.5t-73 -63.5t-37.5 -90.5t0 -120.5t32.5 -156.5q12 -42 -3.5 -81t-47.5 -59t-71.5 -23t-76.5 25q-41 30 -79 65.5t-83.5 93.5
t-78.5 122.5t-55 154t-22 186.5q0 120 29 219t80.5 172t128 129.5t164 93.5t197.5 61.5t219.5 36t237.5 15.5v290q0 42 23 73.5t56 45t72 7t68 -35.5zM1536 384l640 640l-640 640v-416q-97 -1 -176 -4t-170 -11.5t-163.5 -22.5t-148 -37.5t-133 -55t-109 -77t-84.5 -101.5
t-52.5 -130t-19.5 -162q0 -93 23 -176.5t63 -147t84 -110.5t95 -85q-36 129 -38.5 229.5t20 171t80.5 120t124.5 78.5t171 45.5t201 21.5t232.5 6v-416zM1684 175q6 4 27 23q23 22 52 9t29 -45v-226q0 -80 -56 -136t-136 -56h-1408q-80 0 -136 56t-56 136v1408q0 80 56 136
t136 56h689q20 0 33.5 -14t13.5 -34q0 -16 -10.5 -29t-26.5 -17q-64 -15 -109 -31q-8 -3 -15 -3h-575q-26 0 -45 -19t-19 -45v-1408q0 -26 19 -45t45 -19h1408q26 0 45 19t19 45v200q0 25 20 39z" />
    <glyph glyph-name="compass" unicode="COMPASS" horiz-adv-x="1984" 
d="M1060 700q-28 -28 -68 -28t-68 28t-28 68t28 68t68 28t68 -28t28 -68t-28 -68zM1406 1292q49 0 85.5 -45.5t19.5 -91.5l-223 -620q-17 -46 -63 -63l-620 -223q-15 -5 -27 -5q-49 0 -85.5 45.5t-19.5 91.5l223 620q17 46 63 63l620 223q15 5 27 5zM1171 589l202 560
l-560 -202l-202 -560zM992 1760q202 0 385.5 -78.5t316.5 -211.5t211.5 -316.5t78.5 -385.5t-78.5 -385.5t-211.5 -316.5t-316.5 -211.5t-385.5 -78.5t-385.5 78.5t-316.5 211.5t-211.5 316.5t-78.5 385.5t78.5 385.5t211.5 316.5t316.5 211.5t385.5 78.5zM992 -96
q175 0 335 68.5t276 184.5t184.5 276t68.5 335t-68.5 335t-184.5 276t-276 184.5t-335 68.5t-335 -68.5t-276 -184.5t-184.5 -276t-68.5 -335t68.5 -335t184.5 -276t276 -184.5t335 -68.5z" />
    <glyph glyph-name="caret-square-down" unicode="CARET&#x2d;SQUARE&#x2d;DOWN" horiz-adv-x="1792" 
d="M1600 1664q80 0 136 -56t56 -136v-1408q0 -80 -56 -136t-136 -56h-1408q-80 0 -136 56t-56 136v1408q0 80 56 136t136 56h1408zM1664 64v1408q0 26 -19 45t-45 19h-1408q-26 0 -45 -19t-19 -45v-1408q0 -26 19 -45t45 -19h1408q26 0 45 19t19 45zM1280 896h-768l384 -384
zM512 1024h768q41 0 73 -23t45.5 -56t7.5 -71.5t-35 -67.5l-384 -384q-37 -38 -90 -38t-91 38l-384 384q-29 29 -35.5 67.5t7 71.5t45.5 56t73 23z" />
    <glyph glyph-name="caret-square-up" unicode="CARET&#x2d;SQUARE&#x2d;UP" horiz-adv-x="1792" 
d="M192 -128q-80 0 -136 56t-56 136v1408q0 80 56 136t136 56h1408q80 0 136 -56t56 -136v-1408q0 -80 -56 -136t-136 -56h-1408zM128 1472v-1408q0 -26 19 -45t45 -19h1408q26 0 45 19t19 45v1408q0 26 -19 45t-45 19h-1408q-26 0 -45 -19t-19 -45zM512 640h768l-384 384z
M1280 512h-768q-41 0 -73 23t-45.5 56t-7.5 71.5t35 67.5l384 384q37 38 90 38t91 -38l384 -384q29 -29 35.5 -67.5t-7 -71.5t-45.5 -56t-73 -23z" />
    <glyph glyph-name="caret-square-right" unicode="CARET&#x2d;SQUARE&#x2d;RIGHT" horiz-adv-x="1792" 
d="M0 1472q0 80 56 136t136 56h1408q80 0 136 -56t56 -136v-1408q0 -80 -56 -136t-136 -56h-1408q-80 0 -136 56t-56 136v1408zM1600 1536h-1408q-26 0 -45 -19t-19 -45v-1408q0 -26 19 -45t45 -19h1408q26 0 45 19t19 45v1408q0 26 -19 45t-45 19zM768 1152v-768l384 384z
M640 384v768q0 41 23 73t56 45.5t71.5 7.5t67.5 -35l384 -384q38 -37 38 -90t-38 -91l-384 -384q-29 -29 -67.5 -35.5t-71.5 7t-56 45.5t-23 73z" />
    <glyph glyph-name="euro-sign" unicode="EURO&#x2d;SIGN" horiz-adv-x="1280" 
d="M1214 15l15 -61q5 -20 -6 -37t-30 -21q-100 -24 -212 -24q-315 0 -539 174.5t-289 465.5h-105q-20 0 -34 14t-14 34v32q0 20 14 34t34 14h85q-4 39 -4 123t7 133h-88q-20 0 -34 14t-14 34v32q0 20 14 34t34 14h110q48 184 164 328.5t288 228t371 83.5q89 0 183 -18
q20 -4 31 -21.5t6 -37.5l-16 -62q-4 -19 -20.5 -29t-35.5 -6q-72 16 -150 16q-233 0 -403.5 -133t-235.5 -349h694q23 0 37 -17.5t10 -39.5l-6 -32q-3 -16 -17 -27.5t-30 -11.5h-715q-14 -113 -2 -256h654q23 0 37 -17.5t10 -39.5l-6 -32q-3 -16 -17 -27.5t-30 -11.5h-621
q57 -223 229 -352.5t414 -129.5q91 0 175 21q20 5 37 -6t21 -30z" />
    <glyph glyph-name="pound-sign" unicode="Pound&#x2d;Sign" horiz-adv-x="1280" 
d="M1232 320q20 0 34 -14t14 -34v-352q0 -20 -14 -34t-34 -14h-1184q-20 0 -34 14t-14 34v52q0 20 14 34t34 14h167v620h-135q-20 0 -34 14t-14 34v32q0 20 14 34t34 14h135v432q0 199 146.5 331.5t372.5 132.5q187 0 349 -109q17 -12 20 -32.5t-10 -37.5l-43 -52
q-11 -14 -29.5 -17t-33.5 7q-125 81 -253 81q-159 0 -251.5 -91t-92.5 -223v-422h426q20 0 34 -14t14 -34v-32q0 -20 -14 -34t-34 -14h-426v-618h730v250q0 20 14 34t34 14h64z" />
    <glyph glyph-name="dollar-sign" unicode="DOLLAR&#x2d;SIGN" horiz-adv-x="1024" 
d="M768 755q113 -36 184.5 -139t71.5 -231q0 -159 -104.5 -272t-251.5 -113h-92v-224q0 -14 -9 -23t-23 -9h-64q-14 0 -23 9t-9 23v224h-75q-91 0 -178 36t-155 102q-10 9 -9.5 23t10.5 23l47 43q10 9 22.5 8.5t21.5 -9.5q103 -98 241 -98h295q94 0 161 75t67 182
q0 86 -46.5 155.5t-120.5 92.5l-473 148q-113 35 -184.5 138.5t-71.5 231.5q0 159 104.5 272t251.5 113h92v224q0 14 9 23t23 9h64q14 0 23 -9t9 -23v-224h76q91 0 178 -36t155 -102q10 -10 9.5 -23.5t-11.5 -22.5l-47 -43q-10 -9 -22.5 -8.5t-21.5 9.5q-103 98 -241 98
h-295q-94 0 -161 -75t-67 -182q0 -86 46.5 -155.5t120.5 -92.5z" />
    <glyph glyph-name="rupee-sign" unicode="RUPEE&#x2d;SIGN" horiz-adv-x="1280" 
d="M1280 1552q0 -20 -14 -34t-34 -14h-469q90 -93 120 -224h349q20 0 34 -14t14 -34v-64q0 -20 -14 -34t-34 -14h-337q-13 -219 -165.5 -349.5t-386.5 -130.5h-94l621 -688q21 -23 8.5 -51.5t-43.5 -28.5h-86q-22 0 -36 16l-701 770q-12 13 -12 33v63q0 20 14 34t34 14h288
q171 0 276.5 84.5t117.5 233.5h-682q-20 0 -34 14t-14 34v64q0 20 14 34t34 14h664q-36 107 -134 165.5t-240 58.5h-290q-20 0 -34 14t-14 34v64q0 20 14 34t34 14h1184q20 0 34 -14t14 -34v-64z" />
    <glyph glyph-name="yen-sign" unicode="YEN&#x2d;SIGN" horiz-adv-x="1280" 
d="M1232 1664q28 0 41.5 -24t-0.5 -48l-401 -696h232q20 0 34 -14t14 -34v-32q0 -20 -14 -34t-34 -14h-303l-71 -129v-127h374q20 0 34 -14t14 -34v-32q0 -20 -14 -34t-34 -14h-374v-464q0 -20 -14 -34t-34 -14h-82q-20 0 -34 14t-14 34v464h-376q-20 0 -34 14t-14 34v32
q0 20 14 34t34 14h376v127l-74 129h-302q-20 0 -34 14t-14 34v32q0 20 14 34t34 14h228l-398 696q-14 24 0 48t42 24h90q27 0 42 -24l347 -613q24 -45 51.5 -102t42.5 -91l15 -34h5q56 125 110 227l349 613q15 24 42 24h90z" />
    <glyph glyph-name="ruble-sign" unicode="Ruble&#x2d;Sign" horiz-adv-x="1536" 
d="M983 641h-423v-233h672q20 0 34 -14t14 -34v-56q0 -20 -14 -34t-34 -14h-672v-336q0 -20 -14 -34t-34 -14h-80q-20 0 -34 14t-14 34v336h-336q-20 0 -34 14t-14 34v56q0 20 14 34t34 14h336v232h-336q-20 0 -34 14t-14 34v64q0 20 14 34t34 14h336v816q0 20 14 34t34 14
h551q244 0 398.5 -138.5t154.5 -369.5q0 -233 -154.5 -374t-398.5 -141zM560 1506v-705h416q181 0 288 95t107 261q0 164 -106.5 256.5t-286.5 92.5h-418z" />
    <glyph glyph-name="won-sign" unicode="WON&#x2d;SIGN" horiz-adv-x="2304" 
d="M2256 1152h-253l-54 -224h307q20 0 34 -14t14 -34v-64q0 -20 -14 -34t-34 -14h-345l-205 -859q-4 -15 -17 -26t-29 -11h-114q-16 0 -29 11t-17 26l-209 859h-285l-208 -859q-4 -16 -17 -26.5t-30 -10.5h-113q-16 0 -29.5 10.5t-17.5 26.5l-199 859h-344q-20 0 -34 14
t-14 34v64q0 20 14 34t34 14h307l-52 224h-255q-20 0 -34 14t-14 34v64q0 20 14 34t34 14h218l-68 290q-5 22 9.5 40t37.5 18h65q16 0 29.5 -10.5t17.5 -26.5l70 -311h562l76 312q4 15 17 25.5t29 10.5h75q16 0 29.5 -10.5t17.5 -25.5l75 -312h571l72 311q4 16 17.5 26.5
t29.5 10.5h65q23 0 37.5 -18t9.5 -41l-69 -289h215q20 0 34 -14t14 -34v-64q0 -20 -14 -34t-34 -14zM1146 1398q-2 -12 -7.5 -43t-7.5 -43h35l-15 86h-5zM462 1152l50 -224h384l54 224h-488zM736 271l121 497h-309l111 -497q9 -41 18 -88.5t13 -74.5l5 -27h5q1 0 5 27
t12.5 75t18.5 88zM1045 928h208l-50 203q-1 3 -2.5 10t-2.5 11h-99q-1 -4 -2.5 -11t-2.5 -10zM1638 271l115 497h-313l121 -497q10 -40 18.5 -88t12.5 -75t5 -27h5q15 98 36 190zM1790 928l52 224h-495l55 -224h388z" />
    <glyph glyph-name="file" unicode="FILE" horiz-adv-x="1536" 
d="M1480 1400q56 -56 56 -136v-1328q0 -80 -56 -136t-136 -56h-1152q-80 0 -136 56t-56 136v1664q0 80 56 136t136 56h816q80 0 136 -56zM1389 1310l-335 335q-12 12 -30 17v-382h382q-5 18 -17 30zM1344 -128q26 0 45 19t19 45v1216h-416q-40 0 -68 28t-28 68v416h-704
q-26 0 -45 -19t-19 -45v-1664q0 -26 19 -45t45 -19h1152z" />
    <glyph glyph-name="file-alt" unicode="FILE&#x2d;ALT" horiz-adv-x="1536" 
d="M1480 1400q56 -56 56 -136v-1328q0 -80 -56 -136t-136 -56h-1152q-80 0 -136 56t-56 136v1664q0 80 56 136t136 56h816q80 0 136 -56zM1389 1310l-335 335q-12 12 -30 17v-382h382q-5 18 -17 30zM1344 -128q26 0 45 19t19 45v1216h-416q-40 0 -68 28t-28 68v416h-704
q-26 0 -45 -19t-19 -45v-1664q0 -26 19 -45t45 -19h1152zM1152 848v-32q0 -20 -14 -34t-34 -14h-672q-20 0 -34 14t-14 34v32q0 20 14 34t34 14h672q20 0 34 -14t14 -34zM1152 592v-32q0 -20 -14 -34t-34 -14h-672q-20 0 -34 14t-14 34v32q0 20 14 34t34 14h672q20 0 34 -14
t14 -34zM1152 336v-32q0 -20 -14 -34t-34 -14h-672q-20 0 -34 14t-14 34v32q0 20 14 34t34 14h672q20 0 34 -14t14 -34z" />
    <glyph glyph-name="sort-alpha-down" unicode="SORT&#x2d;ALPHA&#x2d;DOWN" horiz-adv-x="1792" 
d="M1728 640q14 0 23 -9t9 -23v-44q0 -19 -12 -37l-371 -527h351q14 0 23 -9t9 -23v-64q0 -14 -9 -23t-23 -9h-512q-14 0 -23 9t-9 23v44q0 19 12 37l371 527h-351q-14 0 -23 9t-9 23v64q0 14 9 23t23 9h512zM1789 960q3 -6 3 -16q0 -20 -14 -34t-34 -14h-45
q-14 0 -27.5 9.5t-17.5 22.5l-61 177h-244l-60 -177q-4 -13 -17.5 -22.5t-27.5 -9.5h-44q-20 0 -34 14t-14 34q0 10 3 16l239 672q5 13 18 22.5t27 9.5h66q14 0 27 -9.5t18 -22.5zM1390 1230h163q-78 227 -81 240zM796 306l22 -23q14 -14 14 -34t-14 -34l-336 -329
q-14 -14 -34 -14t-34 14l-336 329q-14 14 -14 34t14 34l23 23q14 14 33 14q20 0 34 -14l216 -210v1536q0 14 9 23t23 9h64q14 0 23 -9t9 -23v-1537l216 211q14 14 34 14t34 -14z" />
    <glyph glyph-name="sort-alpha-up" unicode="SORT&#x2d;ALPHA&#x2d;UP" horiz-adv-x="1792" 
d="M482 1650l336 -329q14 -14 14 -34t-14 -34l-23 -23q-14 -14 -33 -14q-20 0 -34 14l-216 210v-1536q0 -14 -9 -23t-23 -9h-64q-14 0 -23 9t-9 23v1537l-216 -211q-14 -14 -34 -14t-34 14l-22 23q-14 14 -14 33q0 21 14 35l336 329q14 14 34 14t34 -14zM1789 960
q3 -6 3 -16q0 -20 -14 -34t-34 -14h-45q-14 0 -27.5 9.5t-17.5 22.5l-61 177h-244l-60 -177q-4 -13 -17.5 -22.5t-27.5 -9.5h-44q-20 0 -34 14t-14 34q0 10 3 16l239 672q5 13 18 22.5t27 9.5h66q14 0 27 -9.5t18 -22.5zM1390 1230h163q-78 227 -81 240zM1728 640
q14 0 23 -9t9 -23v-44q0 -19 -12 -37l-371 -527h351q14 0 23 -9t9 -23v-64q0 -14 -9 -23t-23 -9h-512q-14 0 -23 9t-9 23v44q0 19 12 37l371 527h-351q-14 0 -23 9t-9 23v64q0 14 9 23t23 9h512z" />
    <glyph glyph-name="sort-amount-down" unicode="SORT&#x2d;AMOUNT&#x2d;DOWN" 
d="M1504 640q14 0 23 -9t9 -23v-64q0 -14 -9 -23t-23 -9h-448q-14 0 -23 9t-9 23v64q0 14 9 23t23 9h448zM1248 256q14 0 23 -9t9 -23v-64q0 -14 -9 -23t-23 -9h-192q-14 0 -23 9t-9 23v64q0 14 9 23t23 9h192zM2016 1408q14 0 23 -9t9 -23v-64q0 -14 -9 -23t-23 -9h-960
q-14 0 -23 9t-9 23v64q0 14 9 23t23 9h960zM1760 1024q14 0 23 -9t9 -23v-64q0 -14 -9 -23t-23 -9h-704q-14 0 -23 9t-9 23v64q0 14 9 23t23 9h704zM796 306l22 -23q14 -14 14 -34t-14 -34l-336 -329q-14 -14 -34 -14t-34 14l-336 329q-14 14 -14 34t14 34l23 23
q14 14 33 14q20 0 34 -14l216 -210v1536q0 14 9 23t23 9h64q14 0 23 -9t9 -23v-1537l216 211q14 14 34 14t34 -14z" />
    <glyph glyph-name="sort-amount-up" unicode="SORT&#x2d;AMOUNT&#x2d;UP" 
d="M1248 256q14 0 23 -9t9 -23v-64q0 -14 -9 -23t-23 -9h-192q-14 0 -23 9t-9 23v64q0 14 9 23t23 9h192zM1504 640q14 0 23 -9t9 -23v-64q0 -14 -9 -23t-23 -9h-448q-14 0 -23 9t-9 23v64q0 14 9 23t23 9h448zM2016 1408q14 0 23 -9t9 -23v-64q0 -14 -9 -23t-23 -9h-960
q-14 0 -23 9t-9 23v64q0 14 9 23t23 9h960zM1760 1024q14 0 23 -9t9 -23v-64q0 -14 -9 -23t-23 -9h-704q-14 0 -23 9t-9 23v64q0 14 9 23t23 9h704zM482 1650l336 -329q14 -14 14 -34t-14 -34l-23 -23q-14 -14 -33 -14q-20 0 -34 14l-216 210v-1536q0 -14 -9 -23t-23 -9h-64
q-14 0 -23 9t-9 23v1537l-216 -211q-14 -14 -34 -14t-34 14l-22 23q-14 14 -14 33q0 21 14 35l336 329q14 14 34 14t34 -14z" />
    <glyph glyph-name="sort-numeric-down" unicode="SORT&#x2d;NUMERIC&#x2d;DOWN" horiz-adv-x="1792" 
d="M1378 762q30 7 61 7q119 0 204 -84.5t85 -203.5v-160q0 -172 -121.5 -303t-292.5 -144h-2q-14 0 -23 9t-9 23v64q0 12 9 21.5t21 10.5q99 10 175 74t102 158q-29 -17 -72.5 -29.5t-77.5 -12.5q-119 0 -203.5 84.5t-84.5 203.5q0 97 67.5 180t161.5 102zM1440 321
q66 0 113 47t47 113t-47 113t-113 47t-113 -47t-47 -113t47 -113t113 -47zM1696 1024q14 0 23 -9t9 -23v-64q0 -14 -9 -23t-23 -9h-448q-14 0 -23 9t-9 23v64q0 14 9 23t23 9h160v384h-64q-26 0 -45 19t-19 45q0 16 10 34l80 128q7 13 23 21.5t31 8.5h48q26 0 45 -19t19 -45
v-576h160zM796 306l22 -23q14 -14 14 -34t-14 -34l-336 -329q-14 -14 -34 -14t-34 14l-336 329q-14 14 -14 34t14 34l23 23q14 14 33 14q20 0 34 -14l216 -210v1536q0 14 9 23t23 9h64q14 0 23 -9t9 -23v-1537l216 211q14 14 34 14t34 -14z" />
    <glyph glyph-name="sort-numeric-up" unicode="SORT&#x2d;NUMERIC&#x2d;UP" horiz-adv-x="1792" 
d="M1696 1024q14 0 23 -9t9 -23v-64q0 -14 -9 -23t-23 -9h-448q-14 0 -23 9t-9 23v64q0 14 9 23t23 9h160v384h-64q-26 0 -45 19t-19 45q0 16 10 34l80 128q7 13 23 21.5t31 8.5h48q26 0 45 -19t19 -45v-576h160zM1378 762q30 7 61 7q119 0 204 -84.5t85 -203.5v-160
q0 -172 -121.5 -303t-292.5 -144h-2q-14 0 -23 9t-9 23v64q0 12 9 21.5t21 10.5q99 10 175 74t102 158q-29 -17 -72.5 -29.5t-77.5 -12.5q-119 0 -203.5 84.5t-84.5 203.5q0 97 67.5 180t161.5 102zM1440 321q66 0 113 47t47 113t-47 113t-113 47t-113 -47t-47 -113t47 -113
t113 -47zM482 1650l336 -329q14 -14 14 -34t-14 -34l-23 -23q-14 -14 -33 -14q-20 0 -34 14l-216 210v-1536q0 -14 -9 -23t-23 -9h-64q-14 0 -23 9t-9 23v1537l-216 -211q-14 -14 -34 -14t-34 14l-22 23q-14 14 -14 33q0 21 14 35l336 329q14 14 34 14t34 -14z" />
    <glyph glyph-name="thumbs-up" unicode="THUMBS&#x2d;UP" 
d="M1987 649q18 -65 7.5 -142.5t-46.5 -134.5q13 -71 -7 -143t-66 -126q6 -164 -89.5 -261.5t-271.5 -97.5h-164q-104 0 -221.5 25.5t-200.5 56t-165 56t-123 25.5v-35q0 -53 -37.5 -90.5t-90.5 -37.5h-384q-53 0 -90.5 37.5t-37.5 90.5v1024q0 53 37.5 90.5t90.5 37.5h384
q67 0 105 -55q20 3 33 9q38 20 97 90t125 156.5t102 122.5q19 19 32.5 51t18.5 54t15 71q53 269 188 269q173 0 252 -95t79 -277q0 -57 -16 -116.5t-27.5 -84t-39.5 -79.5h281q120 0 205.5 -87.5t85.5 -202.5q0 -123 -61 -201zM128 -128h384v1024h-384v-1024zM1824 687
q47 12 71.5 56t24.5 107q0 62 -48 112t-115 50h-448q0 54 19 108.5t42 93t42 94.5t19 112q0 31 -0.5 46.5t-4 45.5t-11 47.5t-22 40t-36 34.5t-54.5 21t-75 9q-27 -27 -43 -81t-23 -107t-31.5 -115.5t-65.5 -103.5q-34 -34 -80.5 -93.5t-85.5 -109.5t-82.5 -98.5t-88.5 -77
t-88 -28.5v-815q56 0 142.5 -25.5t166.5 -56t191 -56t210 -25.5h163q125 1 188.5 68.5t40.5 215.5q33 18 56.5 59.5t26.5 91.5t-23 97q41 21 58 81t6 119.5t-42 82.5zM416 64q0 -40 -28 -68t-68 -28t-68 28t-28 68t28 68t68 28t68 -28t28 -68z" />
    <glyph glyph-name="thumbs-down" unicode="THUMBS&#x2d;DOWN" 
d="M1987 887q61 -78 61 -201q0 -115 -85.5 -202.5t-205.5 -87.5h-281q28 -55 39.5 -79.5t27.5 -84t16 -116.5q0 -182 -79 -277t-252 -95q-135 0 -188 269q-10 49 -15 71t-18.5 54t-32.5 51q-36 36 -102 122.5t-125 156.5t-97 90q-2 0 -5 2t-5 2v-50q0 -53 -37.5 -90.5
t-90.5 -37.5h-384q-53 0 -90.5 37.5t-37.5 90.5v1024q0 53 37.5 90.5t90.5 37.5h384q48 0 85 -32h43q46 0 129 25t164.5 55t197 55t219.5 25h164q176 0 271.5 -97.5t89.5 -261.5q46 -54 66 -126t7 -143q36 -57 46.5 -134.5t-7.5 -142.5zM512 512v1024h-384v-1024h384z
M1757 524q67 0 115 50t48 112q0 63 -24.5 107t-71.5 56q31 23 42 82.5t-6 119.5t-58 81q26 47 23 97t-26.5 91.5t-56.5 59.5q23 148 -40.5 215.5t-188.5 68.5h-163q-97 0 -208.5 -25.5t-193 -56t-164 -56t-127.5 -25.5h-17v-815h17q42 0 100 -49t106 -110t108.5 -138
t93.5 -110q41 -41 65.5 -103.5t31.5 -115.5t23 -107t43 -81q42 0 75 9t54.5 21t36 34.5t22 40t11 47.5t4 45.5t0.5 46.5q0 56 -19 112t-42 94.5t-42 93t-19 108.5h448zM416 704q0 -40 -28 -68t-68 -28t-68 28t-28 68t28 68t68 28t68 -28t28 -68z" />
    <glyph glyph-name="long-arrow-down" unicode="LONG&#x2d;ARROW&#x2d;DOWN" horiz-adv-x="1024" 
d="M1010 420q14 -14 14 -34t-14 -34l-464 -466q-14 -14 -34 -14t-34 14l-464 466q-14 14 -14 34t14 34l28 28q14 14 34 14t34 -14l334 -336v1504q0 20 14 34t34 14h40q20 0 34 -14t14 -34v-1504l334 336q14 14 34 14t34 -14z" />
    <glyph glyph-name="long-arrow-up" unicode="LONG&#x2d;ARROW&#x2d;UP" horiz-adv-x="1024" 
d="M14 1116q-14 14 -14 34t14 34l464 466q14 14 34 14t34 -14l464 -466q14 -14 14 -34t-14 -34l-28 -28q-14 -14 -34 -14t-34 14l-334 336v-1504q0 -20 -14 -34t-34 -14h-40q-20 0 -34 14t-14 34v1504l-334 -336q-14 -14 -34 -14t-34 14z" />
    <glyph glyph-name="long-arrow-left" unicode="LONG&#x2d;ARROW&#x2d;LEFT" horiz-adv-x="1792" 
d="M548 270q-14 -14 -34 -14t-34 14l-466 464q-14 14 -14 34t14 34l466 464q14 14 34 14t34 -14l28 -28q14 -14 14 -34t-14 -34l-336 -334h1504q20 0 34 -14t14 -34v-40q0 -20 -14 -34t-34 -14h-1504l336 -334q14 -14 14 -34t-14 -34z" />
    <glyph glyph-name="long-arrow-right" unicode="LONG&#x2d;ARROW&#x2d;RIGHT" horiz-adv-x="1792" 
d="M1244 1266q14 14 34 14t34 -14l466 -464q14 -14 14 -34t-14 -34l-466 -464q-14 -14 -34 -14t-34 14l-28 28q-14 14 -14 34t14 34l336 334h-1504q-20 0 -34 14t-14 34v40q0 20 14 34t34 14h1504l-336 334q-14 14 -14 34t14 34z" />
    <glyph glyph-name="female" unicode="Female" horiz-adv-x="1024" 
d="M1019 428q22 -90 -36 -163t-151 -73h-52v-236q0 -88 -62 -150t-150 -62h-112q-88 0 -150 62t-62 150v236h-52q-93 0 -151 73t-36 163l160 658q6 27 25.5 58t41.5 48q11 9 18 13q-90 100 -90 235q0 146 103 249t249 103t249 -103t103 -249q0 -135 -90 -235q7 -4 18 -13
q22 -17 41.5 -48t25.5 -58zM512 1664q-93 0 -158.5 -65.5t-65.5 -158.5t65.5 -158.5t158.5 -65.5t158.5 65.5t65.5 158.5t-65.5 158.5t-158.5 65.5zM832 320q31 0 50 24t12 54l-160 658q-4 21 -22.5 35.5t-39.5 14.5h-49q-54 -18 -111 -18t-111 18h-49q-21 0 -39.5 -14.5
t-22.5 -35.5l-160 -658q-7 -30 12 -54t50 -24h180v-364q0 -34 25 -59t59 -25h112q34 0 59 25t25 59v364h180z" />
    <glyph glyph-name="male" unicode="Male" horiz-adv-x="1024" 
d="M795 1231q87 -31 142 -107.5t55 -171.5v-420q0 -74 -45 -131.5t-115 -74.5v-370q0 -88 -62 -150t-150 -62h-216q-88 0 -150 62t-62 150v370q-70 17 -115 74.5t-45 131.5v420q0 95 55 171.5t142 107.5q-69 95 -69 209q0 146 103 249t249 103t249 -103t103 -249
q0 -114 -69 -209zM512 1664q-93 0 -158.5 -65.5t-65.5 -158.5t65.5 -158.5t158.5 -65.5t158.5 65.5t65.5 158.5t-65.5 158.5t-158.5 65.5zM864 532v420q0 70 -49 119t-119 49h-37q-72 -33 -148.5 -32.5t-145.5 32.5h-37q-70 0 -119 -49t-49 -119v-420q0 -34 25 -59t59 -25
h76v-492q0 -34 25 -59t59 -25h216q34 0 59 25t25 59v492h76q34 0 59 25t25 59z" />
    <glyph glyph-name="sun" unicode="SUN" 
d="M1024 1217q185 0 316.5 -131.5t131.5 -316.5t-131.5 -317t-316.5 -132t-316.5 132t-131.5 317t131.5 316.5t316.5 131.5zM1024 448q132 0 226 94t94 227t-94 226.5t-226 93.5t-226 -93.5t-94 -226.5t94 -227t226 -94zM2048 769q0 -34 -28 -53l-332 -222l78 -392
q6 -34 -18 -58q-25 -25 -58 -17l-391 77l-222 -332q-19 -28 -53 -28t-53 28l-222 332l-391 -77q-34 -7 -58 17t-18 58l78 392l-332 222q-28 19 -28 53t28 53l332 222l-78 392q-6 34 18 58t58 17l391 -78l222 332q18 27 53 27t53 -27l222 -332l391 78q34 6 58 -18t18 -57
l-78 -392l332 -222q28 -19 28 -53zM1581 576l288 192l-288 193q-36 23 -27 66l67 339l-339 -67q-43 -8 -66 27l-192 288l-192 -288q-23 -35 -66 -27l-339 67l67 -339q9 -43 -27 -66l-288 -193l288 -192q36 -23 27 -66l-67 -339l339 67q4 1 12 1q35 0 54 -28l192 -288
l192 288q23 37 66 27l339 -67l-67 340q-8 42 27 65z" />
    <glyph glyph-name="moon" unicode="MOON" 
d="M1796 330q42 8 78.5 -10t55.5 -50t17.5 -72.5t-28.5 -74.5q-145 -178 -353 -278.5t-442 -100.5q-208 0 -398 81t-327 218.5t-218 327t-81 397.5t81 398t218.5 327t327 218t397.5 81q91 0 187 -17q56 -11 85 -57t17 -99t-62 -81q-153 -87 -241.5 -239t-88.5 -329
q0 -150 65 -282.5t171 -220t248.5 -126.5t290.5 -11zM1124 -128q207 0 388.5 88.5t307.5 243.5q-104 -17 -203 -12t-191 38t-172.5 82.5t-147 121t-114 154t-73.5 181t-26 201.5q0 215 107.5 396t287.5 283q-79 15 -164 15q-182 0 -348 -71t-286 -191t-191 -286t-71 -348
t71 -348t191 -286t286 -191t348 -71z" />
    <glyph glyph-name="archive" unicode="ARCHIVE" 
d="M1856 1664q80 0 136 -56t56 -136v-256q0 -26 -19 -45t-45 -19h-64v-1088q0 -80 -56 -136t-136 -56h-1408q-80 0 -136 56t-56 136v1088h-64q-26 0 -45 19t-19 45v256q0 80 56 136t136 56h1664zM1792 64v1088h-1536v-1088q0 -26 19 -45t45 -19h1408q26 0 45 19t19 45z
M1920 1280v192q0 26 -19 45t-45 19h-1664q-26 0 -45 -19t-19 -45v-192h1792zM816 768q-20 0 -34 14t-14 34v32q0 20 14 34t34 14h416q20 0 34 -14t14 -34v-32q0 -20 -14 -34t-34 -14h-416z" />
    <glyph glyph-name="bug" unicode="BUG" horiz-adv-x="2304" 
d="M2176 704q26 0 45 -19t19 -45t-19 -45t-45 -19h-256v-96q0 -217 -122 -396l231 -231q19 -19 19 -45t-19 -45t-45 -19t-45 19l-223 222q-98 -99 -227 -154t-273 -55h-128q-144 0 -273 55t-227 154l-223 -222q-19 -19 -45 -19t-45 19t-19 45t19 45l231 231
q-122 179 -122 396v96h-256q-26 0 -45 19t-19 45t19 45t45 19h256v485l-173 174q-19 19 -19 45t19 45t45 19t45 -19l174 -173h169q0 212 150 362t362 150t362 -150t150 -362h161l142 141q19 19 45 19t45 -19t19 -45t-19 -45l-141 -142v-485h256zM1156 1664
q-159 0 -271.5 -112.5t-112.5 -271.5h768q0 159 -112.5 271.5t-271.5 112.5zM1216 -96q117 0 223.5 45.5t184 123t123 184t45.5 223.5v672h-1280v-672q0 -117 45.5 -223.5t123 -184t184 -123t223.5 -45.5v944q0 20 14 34t34 14h32q20 0 34 -14t14 -34v-944z" />
    <glyph glyph-name="caret-square-left" unicode="CARET&#x2d;SQUARE&#x2d;LEFT" horiz-adv-x="1792" 
d="M1792 64q0 -80 -56 -136t-136 -56h-1408q-80 0 -136 56t-56 136v1408q0 80 56 136t136 56h1408q80 0 136 -56t56 -136v-1408zM192 0h1408q26 0 45 19t19 45v1408q0 26 -19 45t-45 19h-1408q-26 0 -45 -19t-19 -45v-1408q0 -26 19 -45t45 -19zM1024 384v768l-384 -384z
M1152 1152v-768q0 -41 -23 -73t-56 -45.5t-71.5 -7.5t-67.5 35l-384 384q-38 37 -38 90t38 91l384 384q29 29 67.5 35.5t71.5 -7t56 -45.5t23 -73z" />
    <glyph glyph-name="dot-circle" unicode="Dot&#x2d;Circle" 
d="M1024 1760q202 0 385.5 -78.5t316.5 -211.5t211.5 -316.5t78.5 -385.5t-78.5 -385.5t-211.5 -316.5t-316.5 -211.5t-385.5 -78.5t-385.5 78.5t-316.5 211.5t-211.5 316.5t-78.5 385.5t78.5 385.5t211.5 316.5t316.5 211.5t385.5 78.5zM1024 -96q177 0 337 68.5
t275.5 184.5t183.5 276t68 335q0 177 -68.5 337t-184.5 275.5t-276 183.5t-335 68q-177 0 -337 -68.5t-275.5 -184.5t-183.5 -276t-68 -335q0 -177 68.5 -337t184.5 -275.5t276 -183.5t335 -68zM1024 1088q133 0 226.5 -93.5t93.5 -226.5t-93.5 -226.5t-226.5 -93.5
t-226.5 93.5t-93.5 226.5t93.5 226.5t226.5 93.5zM1024 576q80 0 136 56t56 136t-56 136t-136 56t-136 -56t-56 -136t56 -136t136 -56z" />
    <glyph glyph-name="wheelchair" unicode="WHEELCHAIR" horiz-adv-x="1792" 
d="M1776 207l12 -30q8 -18 0.5 -37t-25.5 -26l-170 -77q-23 -11 -48 -1t-36 36l-239 568h-566q-23 0 -41.5 16t-21.5 39q-128 895 -129 905q0 82 58.5 138.5t140.5 53.5q75 -3 128.5 -56.5t56.5 -128.5q3 -82 -53.5 -140.5t-138.5 -58.5q-18 0 -36 3l37 -259h527
q20 0 34 -14t14 -34v-32q0 -20 -14 -34t-34 -14h-509l37 -256h552q17 0 34.5 -11.5t24.5 -27.5l231 -549l110 52q18 8 37.5 0.5t26.5 -25.5zM1266 320l73 -175q-87 -181 -257.5 -291t-377.5 -110q-191 0 -353 94.5t-256.5 256.5t-94.5 353q0 222 126 401.5t327 256.5
l18 -131q-154 -69 -248.5 -211t-94.5 -316q0 -117 45.5 -223.5t123 -184t184 -123t223.5 -45.5q203 0 360 127t202 321z" />
    <glyph glyph-name="lira-sign" unicode="LIRA&#x2d;SIGN" horiz-adv-x="1536" 
d="M1488 769q20 0 34.5 -14.5t13.5 -34.5q-10 -266 -125.5 -458.5t-314 -291t-459.5 -98.5h-333q-20 0 -34 14t-14 34v871l-198 -44q-22 -5 -40 9.5t-18 37.5v33q0 16 11 29.5t27 17.5l218 48v189l-198 -44q-22 -5 -40 9.5t-18 37.5v33q0 16 11 29.5t27 17.5l218 48v374
q0 20 14 34t34 14h80q20 0 34 -14t14 -34v-334l662 147q22 5 40 -9.5t18 -37.5v-33q0 -16 -11 -29.5t-27 -17.5l-682 -152v-188l662 147q22 5 40 -9.5t18 -37.5v-33q0 -16 -11 -29.5t-27 -17.5l-682 -152v-800h187q328 0 534.5 182t221.5 512q1 19 14.5 32t33.5 13h65z" />
    <glyph glyph-name="space-shuttle" unicode="SPACE&#x2d;SHUTTLE" horiz-adv-x="2560" 
d="M1792 1120q208 0 385 -47t280 -128.5t103 -176.5t-103 -176.5t-280 -128.5t-385 -47q-154 0 -282 -18.5t-217.5 -50t-164 -72.5t-130 -86t-106 -90t-101.5 -86t-107 -72.5t-132 -50t-168 -18.5h-64q-79 0 -135.5 75t-56.5 181v256q-128 0 -128 96v576q0 96 128 96v256
q0 106 56.5 181t135.5 75h64q92 0 168 -18.5t132 -50t107 -72.5t101.5 -86t106 -90t130 -86t164 -72.5t217.5 -50t282 -18.5zM1184 1120q-84 21 -162.5 65.5t-138.5 94.5t-117 99.5t-122.5 89t-131.5 54.5v-371q81 0 154 -32h518zM508 512q106 0 182.5 74t77.5 179
q1 107 -74 183t-182 76h-256v-192h192q53 0 90.5 -19t37.5 -45t-37.5 -45t-90.5 -19h-192v-192h252zM256 1408v-256h128v384h-64q-20 0 -42 -37t-22 -91zM256 128q0 -54 22 -91t42 -37h64v384h-128v-256zM512 13q66 15 131.5 54.5t122.5 89t117 99.5t138.5 94.5t162.5 65.5
h-521q-72 -31 -151 -32v-371zM1792 544q113 0 177 3t162.5 25.5t172.5 67.5v256q-74 45 -172.5 67.5t-162.5 25.5t-177 3h-968q71 -99 71.5 -222.5t-72.5 -225.5h969zM1952 608q-14 0 -23 9t-9 23v256q0 14 9 23t23 9q36 0 61 -33t31 -80t0 -94t-31 -80t-61 -33z" />
    <glyph glyph-name="envelope-square" unicode="ENVELOPE&#x2d;SQUARE" horiz-adv-x="1792" 
d="M1600 1664q80 0 136 -56t56 -136v-1408q0 -80 -56 -136t-136 -56h-1408q-80 0 -136 56t-56 136v1408q0 80 56 136t136 56h1408zM1664 64v1408q0 26 -19 45t-45 19h-1408q-26 0 -45 -19t-19 -45v-1408q0 -26 19 -45t45 -19h1408q26 0 45 19t19 45zM1408 1280
q53 0 90.5 -37.5t37.5 -90.5v-768q0 -53 -37.5 -90.5t-90.5 -37.5h-1024q-53 0 -90.5 37.5t-37.5 90.5v768q0 53 37.5 90.5t90.5 37.5h1024zM1408 1152h-1024v-135q96 -79 328 -264q4 -3 36.5 -30t50.5 -40.5t47 -28t49 -14.5h1h1q20 0 49 14.5t47 28t50.5 40.5t36.5 30
q232 185 328 264v135zM384 384h1024v468q-44 -36 -249 -199q-6 -5 -37 -31t-50 -39.5t-50 -33t-62.5 -28.5t-62.5 -9h-1h-1q-31 0 -62 9t-63.5 29.5t-50 32.5t-50.5 39.5t-36 30.5q-205 163 -249 199v-468z" />
    <glyph glyph-name="university" unicode="UNIVERSITY" 
d="M1984 0q26 0 45 -19t19 -45v-32q0 -14 -9 -23t-23 -9h-1984q-14 0 -23 9t-9 23v32q0 26 19 45t45 19h64v160q0 40 28 68t68 28h160v704h128v-704h256v704h128v-704h256v704h128v-704h256v704h128v-704h160q40 0 68 -28t28 -68v-160h64zM256 128v-128h1536v128h-1536z
M2017 1248q31 -11 31 -45v-35q0 -20 -14 -34t-34 -14h-80v-48q0 -20 -14 -34t-34 -14h-1696q-20 0 -34 14t-14 34v48h-80q-20 0 -34 14t-14 34v35q0 14 9 27.5t22 17.5l932 406q32 10 61 10t61 -10zM1792 1152v54l-752 328q-8 2 -16 2t-16 -2l-752 -328v-54h1536z" />
    <glyph glyph-name="graduation-cap" unicode="GRADUATION&#x2d;CAP" horiz-adv-x="2560" 
d="M2449 1176q51 -16 81 -57.5t30 -94.5t-30 -94.5t-81 -57.5l-459 -148l58 -468q0 -69 -103 -128t-280 -93.5t-385 -34.5t-385 34.5t-280 93.5t-103 128l58 468l-213 69q-20 -28 -27 -52q54 -39 54 -101q0 -37 -20 -68t-53 -47l72 -447q5 -30 -9.5 -54t-36.5 -24h-163
q-22 0 -36 24t-9 54l72 447q-33 16 -53 47t-20 68t20 67.5t53 46.5q9 41 29 80l-119 38q-51 16 -81 57.5t-30 94.5t30 94.5t81 57.5l1060 343q109 35 218 0zM1918 265l-52 418l-477 -154q-105 -34 -218 0l-477 154l-52 -418q43 -45 215 -91t423 -46t423 46t215 91zM2409 994
q24 8 23.5 30t-23.5 30l-1060 343q-69 23 -138 0l-1060 -343q-23 -8 -23 -30t23 -30l170 -55q60 46 132 59l815 153q26 5 48.5 -10t26.5 -41q5 -26 -10 -48.5t-41 -26.5l-784 -147l703 -227q69 -23 138 0z" />
    <glyph glyph-name="language" unicode="LANGUAGE" horiz-adv-x="2560" 
d="M2464 1408q40 0 68 -28t28 -68v-1088q0 -40 -28 -68t-68 -28h-2368q-40 0 -68 28t-28 68v1088q0 40 28 68t68 28h2368zM1216 256v1024h-1088v-1024h1088zM2432 256v1024h-1088v-1024h1088zM364 384q-25 0 -39 20.5t-6 43.5l237 672q4 13 17.5 22.5t27.5 9.5h78
q14 0 27.5 -9.5t17.5 -22.5l237 -672q8 -23 -6 -43.5t-39 -20.5h-42q-14 0 -27 9.5t-18 23.5l-54 164h-270l-54 -164q-5 -14 -18 -23.5t-27 -9.5h-42zM607 900l-68 -206h201l-68 206l-30 119h-3q-17 -76 -32 -119zM1536 944v32q0 20 14 34t34 14h272v80q0 20 14 34t34 14h32
q20 0 34 -14t14 -34v-80h272q20 0 34 -14t14 -34v-32q0 -20 -14 -34t-34 -14h-63q-45 -150 -179 -299q70 -63 123 -97q16 -11 21 -29t-5 -35l-16 -28q-10 -18 -30.5 -22.5t-37.5 6.5q-71 45 -146 114q-73 -65 -152 -115q-17 -11 -37 -6t-31 23l-16 28q-10 17 -5 35.5
t22 29.5q69 43 129 96q-57 64 -103 133q-11 17 -7 37.5t22 30.5l28 16q16 10 35 6t29 -20q42 -61 87 -112q95 107 134 208h-474q-20 0 -34 14t-14 34z" />
    <glyph glyph-name="fax" unicode="FAX" 
d="M1568 576q-14 0 -23 9t-9 23v64q0 14 9 23t23 9h64q14 0 23 -9t9 -23v-64q0 -14 -9 -23t-23 -9h-64zM1568 64q-14 0 -23 9t-9 23v64q0 14 9 23t23 9h64q14 0 23 -9t9 -23v-64q0 -14 -9 -23t-23 -9h-64zM320 1280q80 0 136 -56t56 -136v-1152q0 -80 -56 -136t-136 -56
h-128q-80 0 -136 56t-56 136v1152q0 80 56 136t136 56h128zM384 -64v1152q0 26 -19 45t-45 19h-128q-26 0 -45 -19t-19 -45v-1152q0 -26 19 -45t45 -19h128q26 0 45 19t19 45zM1568 320q-14 0 -23 9t-9 23v64q0 14 9 23t23 9h64q14 0 23 -9t9 -23v-64q0 -14 -9 -23t-23 -9
h-64zM1056 64q-14 0 -23 9t-9 23v64q0 14 9 23t23 9h64q14 0 23 -9t9 -23v-64q0 -14 -9 -23t-23 -9h-64zM1056 320q-14 0 -23 9t-9 23v64q0 14 9 23t23 9h64q14 0 23 -9t9 -23v-64q0 -14 -9 -23t-23 -9h-64zM1920 1140q53 -19 90.5 -71.5t37.5 -108.5v-1024q0 -80 -56 -136
t-136 -56h-1024q-80 0 -136 56t-56 136v1664q0 80 56 136t136 56h651q22 0 48.5 -11t42.5 -27l308 -308q16 -16 27 -42.5t11 -48.5v-215zM1536 1611v-203h203zM768 1600v-576h1024v256h-256q-53 0 -90.5 37.5t-37.5 90.5v256h-576q-26 0 -45 -19t-19 -45zM1920 -64v960
h-1152v-960q0 -26 19 -45t45 -19h1024q26 0 45 19t19 45zM1312 64q-14 0 -23 9t-9 23v64q0 14 9 23t23 9h64q14 0 23 -9t9 -23v-64q0 -14 -9 -23t-23 -9h-64zM1312 320q-14 0 -23 9t-9 23v64q0 14 9 23t23 9h64q14 0 23 -9t9 -23v-64q0 -14 -9 -23t-23 -9h-64zM1312 576
q-14 0 -23 9t-9 23v64q0 14 9 23t23 9h64q14 0 23 -9t9 -23v-64q0 -14 -9 -23t-23 -9h-64zM1056 576q-14 0 -23 9t-9 23v64q0 14 9 23t23 9h64q14 0 23 -9t9 -23v-64q0 -14 -9 -23t-23 -9h-64z" />
    <glyph glyph-name="building" unicode="BUILDING" horiz-adv-x="1792" 
d="M768 1364v-160q0 -20 -14 -34t-34 -14h-160q-20 0 -34 14t-14 34v160q0 20 14 34t34 14h160q20 0 34 -14t14 -34zM1232 1412q20 0 34 -14t14 -34v-160q0 -20 -14 -34t-34 -14h-160q-20 0 -34 14t-14 34v160q0 20 14 34t34 14h160zM720 1028q20 0 34 -14t14 -34v-160
q0 -20 -14 -34t-34 -14h-160q-20 0 -34 14t-14 34v160q0 20 14 34t34 14h160zM1232 1028q20 0 34 -14t14 -34v-160q0 -20 -14 -34t-34 -14h-160q-20 0 -34 14t-14 34v160q0 20 14 34t34 14h160zM720 644q20 0 34 -14t14 -34v-160q0 -20 -14 -34t-34 -14h-160q-20 0 -34 14
t-14 34v160q0 20 14 34t34 14h160zM1232 644q20 0 34 -14t14 -34v-160q0 -20 -14 -34t-34 -14h-160q-20 0 -34 14t-14 34v160q0 20 14 34t34 14h160zM1792 -176v-80h-1792v80q0 20 14 34t34 14h80v1824q0 40 28 68t68 28h1344q40 0 68 -28t28 -68v-1824h80q20 0 34 -14
t14 -34zM1536 -128v1792h-1280v-1792h512v340q0 20 14 34t34 14h160q20 0 34 -14t14 -34v-340h512z" />
    <glyph glyph-name="child" unicode="CHILD" horiz-adv-x="1792" 
d="M1653 1429q75 -75 75 -181t-75 -181l-309 -309v-790q0 -93 -65.5 -158.5t-158.5 -65.5h-64q-95 0 -160 67q-65 -67 -160 -67h-64q-93 0 -158.5 65.5t-65.5 158.5v790l-309 309q-75 75 -75 181t75 181q74 74 177 75t196 -86q4 155 116 264.5t268 109.5t268 -109.5
t116 -264.5q93 87 195.5 86.5t177.5 -75.5zM896 1664q-106 0 -181 -75t-75 -181t75 -181t181 -75t181 75t75 181t-75 181t-181 75zM1563 1157q37 37 37 91t-37 91t-91 37t-91 -37l-314 -315h-342l-314 315q-37 37 -91 37t-91 -37t-37 -91t37 -91l347 -346v-843q0 -40 28 -68
t68 -28h64q40 0 68 28t28 68v448h128v-448q0 -40 28 -68t68 -28h64q40 0 68 28t28 68v843z" />
    <glyph glyph-name="paw" unicode="PAW" 
d="M1024 896q77 0 167 -38t173.5 -100.5t162.5 -146t137 -171t93 -178.5t35 -167q0 -105 -76 -164t-211 -59q-82 0 -169 25t-167 50t-145 25q-64 0 -144 -25t-167.5 -50t-169.5 -25q-135 0 -211 59t-76 164q0 76 35 167t93 178.5t137 171t162.5 146t173.5 100.5t167 38z
M1505 0q38 0 67 5t45 14.5t26.5 19t14.5 22t5 19t1 15.5q0 91 -67 211t-163 220.5t-210 171t-200 70.5t-200 -70.5t-210 -171t-163 -220.5t-67 -211q0 -11 1 -19t9.5 -24t23.5 -26t47.5 -18t77.5 -8q83 0 227 48q156 52 254 52t256 -52q53 -17 76.5 -24t67 -15.5t81.5 -8.5z
M1899 1147q87 -21 127 -109t9 -192q-27 -91 -96 -148.5t-147 -57.5q-20 0 -43 5q-87 21 -127 109t-9 192q27 91 96 148.5t147 57.5q20 0 43 -5zM1912 882q19 65 -6 111q-13 23 -36 29q-8 2 -14 2q-34 0 -69.5 -31.5t-50.5 -82.5q-19 -66 7 -111q13 -23 35 -29q8 -2 14 -2
q34 0 69.5 31.5t50.5 82.5zM1274 1030q-93 25 -133 133.5t-5 239.5q31 114 107 187.5t160 73.5q19 0 43 -6q93 -25 133 -133.5t5 -239.5q-31 -114 -107 -187.5t-160 -73.5q-22 0 -43 6zM1259 1369q-14 -65 -9.5 -109t21.5 -74q16 -28 36 -33q3 -1 10 -1q35 0 79 45.5
t65 121.5q14 65 9.5 109t-21.5 74q-17 28 -36 33q-3 1 -10 1q-35 0 -79 -45.5t-65 -121.5zM731 1024q-84 0 -160 73.5t-107 187.5q-35 131 5 239.5t133 133.5q21 6 43 6q84 0 160 -73.5t107 -187.5q35 -131 -5 -239.5t-133 -133.5q-21 -6 -43 -6zM599 1502
q-17 -30 -21.5 -74t9.5 -109q21 -76 65 -121.5t79 -45.5q7 0 10 1q19 5 36 33q17 30 21.5 74t-9.5 109q-21 76 -65 121.5t-79 45.5q-7 0 -10 -1q-20 -5 -36 -33zM299 645q-23 -5 -43 -5q-78 0 -147 57.5t-96 148.5q-31 104 9 192t127 109q23 5 43 5q78 0 147 -57.5
t96 -148.5q31 -104 -9 -192t-127 -109zM136 882q15 -51 50.5 -82.5t69.5 -31.5q6 0 14 2q22 6 35 29q26 45 7 111q-15 51 -50.5 82.5t-69.5 31.5q-6 0 -14 -2q-22 -6 -35 -29q-26 -45 -7 -111z" />
    <glyph glyph-name="cube" unicode="CUBE" 
d="M956 1767q69 25 135 -1l832 -312q56 -21 90.5 -70t34.5 -109v-901q0 -54 -28.5 -100.5t-77.5 -70.5l-832 -416q-86 -43 -172 0l-832 416q-49 24 -77.5 70t-28.5 101v901q0 60 34 109.5t90 70.5zM1024 1655l-896 -336v-1l896 -388l896 388v1zM128 1178v-843l832 -416v899z
M1088 -81l832 416v843l-832 -360v-899z" />
    <glyph glyph-name="cubes" unicode="CUBES" 
d="M1954 765q42 -16 68 -53t26 -82v-405q0 -41 -21.5 -76t-58.5 -53l-384 -192q-64 -32 -128 0l-432 216l-432 -216q-64 -32 -128 0l-384 192q-37 18 -58.5 53t-21.5 76v405q0 45 26 82t68 53l402 151v444q0 45 25.5 82t67.5 53l384 144q51 19 101 0l384 -144q42 -16 68 -53
t26 -82v-444zM66 177l429 -215v464l-429 186v-435zM990 177v435l-429 -186v-464zM990 684l-36 14l-430 158l-458 -172l462 -200zM991 762v394l-429 186v-427l218 -81zM562 1414l462 -200l462 200v1l-462 173zM1057 1156v-394l211 72l218 81v427zM1487 -38v464l-429 186v-435
zM1982 177v435l-429 -186v-464zM1982 684l-458 172l-430 -158l-36 -13v-1l462 -200z" />
    <glyph glyph-name="recycle" unicode="RECYCLE" 
d="M807 1544l-174 -278q-11 -17 -30 -21t-36 6l-27 17q-17 11 -21 30t6 36l173 278q55 87 144 134t182 47t182 -47t144 -134l185 -296l48 208q5 20 21.5 30t35.5 6l31 -7q19 -4 30 -21t6 -37l-86 -374q-4 -19 -21 -30t-37 -6l-375 86q-19 4 -30 21t-6 37l8 31q5 20 21.5 30
t35.5 6l209 -48l-185 296q-49 78 -133 106.5t-168 0t-133 -106.5zM1989 588q47 -75 57 -159t-16 -159t-75.5 -136.5t-126 -97.5t-164.5 -36h-421l151 -151q14 -14 14 -34t-14 -34l-23 -23q-14 -14 -34 -14t-34 14l-272 272q-14 14 -14 34t14 34l272 272q14 14 34 14t34 -14
l23 -23q14 -14 14 -34t-14 -34l-151 -151h421q73 0 133 37.5t91 94.5t31.5 127.5t-38.5 132.5l-212 339q-10 17 -6 36t21 30l27 17q17 10 36 6t30 -21zM167 520q-39 -62 -38.5 -132.5t31.5 -127.5t91 -94.5t133 -37.5h400q20 0 34 -14t14 -34v-32q0 -20 -14 -34t-34 -14
h-400q-73 0 -139 26t-114.5 69.5t-81.5 103t-44 123.5t2 134t52 132l223 357l-209 -48q-19 -4 -35.5 6t-21.5 30l-8 31q-4 19 6 35.5t30 21.5l375 87q20 5 37 -6t21 -30l86 -375q4 -19 -6 -35.5t-30 -21.5l-31 -8q-19 -4 -35.5 6t-21.5 30l-49 209z" />
    <glyph glyph-name="car" unicode="CAR" 
d="M483 800q75 0 148 -60t73 -132q0 -22 -6.5 -41t-24 -40.5t-56 -34t-93.5 -12.5h-41q-78 0 -128.5 45t-50.5 115t50.5 115t128.5 45zM524 576q84 0 84 32q0 29 -44 62.5t-81 33.5t-60 -17.5t-23 -46.5t23 -46.5t60 -17.5h41zM1565 800q78 0 128.5 -45t50.5 -115
t-50.5 -115t-128.5 -45h-41q-55 0 -93.5 12.5t-56 34t-24 40.5t-6.5 41q0 72 73 132t148 60zM1565 576q37 0 60 17.5t23 46.5t-23 46.5t-60 17.5t-81 -33.5t-44 -62.5q0 -32 84 -32h41zM2024 1140q47 -76 7 -156l-23 -46q-22 -45 -68 -74q44 -74 44 -160v-512
q0 -80 -56 -136t-136 -56h-64q-80 0 -136 56t-56 136v64h-1024v-64q0 -80 -56 -136t-136 -56h-64q-80 0 -136 56t-56 136v512q0 86 44 160q-46 29 -68 74l-23 47q-39 78 7 155q22 36 58 56t78 20h199l32 99q32 99 116 160t188 61h658q104 0 188 -61t116 -160l32 -99h199
q42 0 78 -20t58 -56zM513 1275l-82 -251h1186l-82 251q-20 59 -70 96t-112 37h-658q-62 0 -112 -37t-70 -96zM155 995q12 -24 44 -31q40 30 92 45l26 79h-157q-20 0 -27 -15q-9 -15 -1 -31zM384 192v64h-192v-64q0 -26 19 -45t45 -19h64q26 0 45 19t19 45zM1856 192v64h-192
v-64q0 -26 19 -45t45 -19h64q26 0 45 19t19 45zM1856 512v192q0 80 -56 136t-136 56h-1280q-80 0 -136 -56t-56 -136v-320h1664v128zM1916 1042q8 16 -1 31q-7 15 -27 15h-157l26 -79q50 -15 92 -45q32 7 44 31z" />
    <glyph glyph-name="taxi" unicode="Taxi" 
d="M384 640q53 0 90.5 -37.5t37.5 -90.5t-37.5 -90.5t-90.5 -37.5t-90.5 37.5t-37.5 90.5t37.5 90.5t90.5 37.5zM1664 640q53 0 90.5 -37.5t37.5 -90.5t-37.5 -90.5t-90.5 -37.5t-90.5 37.5t-37.5 90.5t37.5 90.5t90.5 37.5zM1312 512q14 0 23 -9t9 -23v-64q0 -14 -9 -23
t-23 -9h-576q-14 0 -23 9t-9 23v64q0 14 9 23t23 9h576zM1788 874q115 -40 187.5 -139t72.5 -223v-128q0 -70 -35 -128t-93 -92v-164q0 -53 -37.5 -90.5t-90.5 -37.5h-192q-53 0 -90.5 37.5t-37.5 90.5v128h-896v-128q0 -53 -37.5 -90.5t-90.5 -37.5h-192q-53 0 -90.5 37.5
t-37.5 90.5v164q-58 34 -93 92t-35 128v128q0 124 72.5 223t187.5 139l53 275q22 113 110.5 186t203.5 73h13v128q0 53 37.5 90.5t90.5 37.5h512q53 0 90.5 -37.5t37.5 -90.5v-128h13q115 0 203.5 -73t110.5 -186zM768 1536v-128h512v128h-512zM439 1124l-45 -228h1260
l-45 228q-13 68 -66 112t-122 44h-794q-69 0 -122 -44t-66 -112zM448 0v128h-192v-128h192zM1792 0v128h-192v-128h192zM1920 384v128q0 106 -75 181t-181 75h-1280q-106 0 -181 -75t-75 -181v-128q0 -53 37.5 -90.5t90.5 -37.5h1536q53 0 90.5 37.5t37.5 90.5z" />
    <glyph glyph-name="tree" unicode="TREE" horiz-adv-x="1792" 
d="M1776 234q26 -31 10 -68q-17 -38 -58 -38h-640v-98l97 -193q16 -32 -2.5 -62.5t-54.5 -30.5h-464q-36 0 -54.5 30.5t-2.5 62.5l97 193v98h-640q-41 0 -58 38q-16 37 10 68l296 342h-120q-42 0 -58 37q-18 37 9 69l290 343h-113q-42 0 -59 38q-5 12 -5 26q0 24 16 42
l576 641q18 20 48 20t48 -20l576 -641q27 -30 10 -68t-58 -38h-113l290 -343q26 -31 9 -69q-16 -37 -58 -37h-120zM768 -128h256l-64 128v128h-128v-128zM203 256h1386l-384 448h257l-379 448h245l-432 480l-432 -480h245l-379 -448h257z" />
    <glyph glyph-name="database" unicode="Database" horiz-adv-x="1792" 
d="M896 1664q-208 0 -385 -34.5t-280 -93.5t-103 -128v-128q0 -69 103 -128t280 -93.5t385 -34.5t385 34.5t280 93.5t103 128v128q0 69 -103 128t-280 93.5t-385 34.5zM1664 1066q-119 -84 -325 -127t-443 -43t-443 43t-325 127v-170q0 -69 103 -128t280 -93.5t385 -34.5
t385 34.5t280 93.5t103 128v170zM1664 682q-119 -84 -325 -127t-443 -43t-443 43t-325 127v-170q0 -69 103 -128t280 -93.5t385 -34.5t385 34.5t280 93.5t103 128v170zM1664 298q-119 -84 -325 -127t-443 -43t-443 43t-325 127v-170q0 -69 103 -128t280 -93.5t385 -34.5
t385 34.5t280 93.5t103 128v170zM896 1792q104 0 214 -10t235.5 -37t222 -68t160.5 -111t64 -158v-1280q0 -64 -33.5 -118.5t-89 -93t-132 -69t-157.5 -49.5t-170 -31.5t-165.5 -17.5t-148.5 -5q-104 0 -214 10t-235.5 37t-222 68t-160.5 111t-64 158v1280q0 64 33.5 118.5
t89 93t132 69t157.5 49.5t170 31.5t165.5 17.5t148.5 5z" />
    </font>
</defs>
</svg>
