<?xml version="1.0" standalone="no"?>
<!DOCTYPE svg PUBLIC "-//W3C//DTD SVG 1.1//EN" "http://www.w3.org/Graphics/SVG/1.1/DTD/svg11.dtd" >
<svg xmlns="http://www.w3.org/2000/svg" xmlns:xlink="http://www.w3.org/1999/xlink" version="1.1">
<metadata>
Created by FontForge 20170731 at Mon Nov 30 21:48:11 2020
 By Aleksey,,,
Copyright (c) Font Awesome
</metadata>
<defs>
<font id="FontAwesome5Pro-Solid" horiz-adv-x="2048" >
  <font-face 
    font-family="Font Awesome 5 Pro Solid"
    font-weight="900"
    font-stretch="normal"
    units-per-em="2048"
    panose-1="2 0 5 3 0 0 0 0 0 0"
    ascent="1792"
    descent="-256"
    x-height="1252"
    cap-height="1684"
    bbox="-112 -260 15968 1800"
    underline-thickness="100"
    underline-position="-304"
    unicode-range="U+0020-F976"
  />
<missing-glyph horiz-adv-x="1024" 
d="M100 0v1192h824v-1192h-824zM200 100h624v992h-624v-992z" />
    <glyph glyph-name="glass-martini" unicode="GLASS&#x2d;MARTINI" 
d="M2008 1562l-856 -857v-769h224q66 0 113 -47t47 -113q0 -14 -9 -23t-23 -9h-960q-14 0 -23 9t-9 23q0 66 47 113t113 47h224v769l-856 857q-31 31 -37.5 71.5t7.5 75.5t48 59t77 24h1778q43 0 77 -24t48 -59t7.5 -75.5t-37.5 -71.5z" />
    <glyph glyph-name="music" unicode="Music" 
d="M1882 1786q20 6 38 6q53 0 90.5 -37.5t37.5 -90.5v-1408q0 -106 -112.5 -181t-271.5 -75t-271.5 75t-112.5 181t112.5 181t271.5 75q58 0 128 -16v739l-1024 -300v-935q0 -106 -112.5 -181t-271.5 -75t-271.5 75t-112.5 181t112.5 181t271.5 75q58 0 128 -16v1046
q0 39 26.5 74.5t63.5 47.5z" />
    <glyph glyph-name="search" unicode="SEARCH" 
d="M2020 21q28 -29 28 -68t-28 -68l-114 -113q-28 -28 -67 -28t-68 28l-399 399q-28 28 -28 68v65q-226 -176 -512 -176q-169 0 -323.5 66t-265.5 177t-177 265.5t-66 323.5t66 323.5t177 265.5t265.5 177t323.5 66t323.5 -66t265.5 -177t177 -265.5t66 -323.5
q0 -286 -176 -512h65q40 0 68 -28zM832 448q212 0 362 150t150 362t-150 362t-362 150t-362 -150t-150 -362t150 -362t362 -150z" />
    <glyph glyph-name="heart" unicode="HEART" 
d="M1849 1542q123 -105 171.5 -257t13.5 -306.5t-146 -268.5l-774 -799q-38 -39 -91 -39t-90 39l-774 799q-83 85 -123.5 197.5t-35.5 225t56 221.5t143 188q166 138 379.5 120.5t366.5 -175.5l79 -81l79 81q153 158 366.5 175.5t379.5 -120.5z" />
    <glyph glyph-name="star" unicode="STAR" horiz-adv-x="2304" 
d="M1037 1721q23 46 69 63.5t92 0t69 -63.5l261 -530l584 -85q51 -7 81.5 -45.5t28.5 -87.5t-39 -85l-423 -412l100 -582q9 -51 -19 -92.5t-72.5 -52.5t-93.5 10l-523 275l-523 -275q-49 -21 -93.5 -10t-72.5 52.5t-19 92.5l100 582l-423 412q-37 36 -39 85t28.5 87.5
t81.5 45.5l584 85z" />
    <glyph glyph-name="user" unicode="USER" horiz-adv-x="1792" 
d="M896 768q-212 0 -362 150t-150 362t150 362t362 150t362 -150t150 -362t-150 -362t-362 -150zM1254 640q146 0 270 -72t196 -196t72 -270v-166q0 -80 -56 -136t-136 -56h-1408q-80 0 -136 56t-56 136v166q0 146 72 270t196 196t270 72h66q139 -64 292 -64t292 64h66z" />
    <glyph glyph-name="film" unicode="FILM" 
d="M1952 1536q40 0 68 -28t28 -68v-1344q0 -40 -28 -68t-68 -28h-32v80q0 20 -14 34t-34 14h-160q-20 0 -34 -14t-14 -34v-80h-1280v80q0 20 -14 34t-34 14h-160q-20 0 -34 -14t-14 -34v-80h-32q-40 0 -68 28t-28 68v1344q0 40 28 68t68 28h32v-80q0 -20 14 -34t34 -14h160
q20 0 34 14t14 34v80h1280v-80q0 -20 14 -34t34 -14h160q20 0 34 14t14 34v80h32zM384 304v160q0 20 -14 34t-34 14h-160q-20 0 -34 -14t-14 -34v-160q0 -20 14 -34t34 -14h160q20 0 34 14t14 34zM384 688v160q0 20 -14 34t-34 14h-160q-20 0 -34 -14t-14 -34v-160
q0 -20 14 -34t34 -14h160q20 0 34 14t14 34zM384 1072v160q0 20 -14 34t-34 14h-160q-20 0 -34 -14t-14 -34v-160q0 -20 14 -34t34 -14h160q20 0 34 14t14 34zM1472 240v384q0 20 -14 34t-34 14h-800q-20 0 -34 -14t-14 -34v-384q0 -20 14 -34t34 -14h800q20 0 34 14t14 34z
M1472 912v384q0 20 -14 34t-34 14h-800q-20 0 -34 -14t-14 -34v-384q0 -20 14 -34t34 -14h800q20 0 34 14t14 34zM1920 304v160q0 20 -14 34t-34 14h-160q-20 0 -34 -14t-14 -34v-160q0 -20 14 -34t34 -14h160q20 0 34 14t14 34zM1920 688v160q0 20 -14 34t-34 14h-160
q-20 0 -34 -14t-14 -34v-160q0 -20 14 -34t34 -14h160q20 0 34 14t14 34zM1920 1072v160q0 20 -14 34t-34 14h-160q-20 0 -34 -14t-14 -34v-160q0 -20 14 -34t34 -14h160q20 0 34 14t14 34z" />
    <glyph glyph-name="th-large" unicode="TH&#x2d;LARGE" 
d="M1184 1664h768q40 0 68 -28t28 -68v-640q0 -40 -28 -68t-68 -28h-768q-40 0 -68 28t-28 68v640q0 40 28 68t68 28zM864 1664q40 0 68 -28t28 -68v-640q0 -40 -28 -68t-68 -28h-768q-40 0 -68 28t-28 68v640q0 40 28 68t68 28h768zM0 608q0 40 28 68t68 28h768
q40 0 68 -28t28 -68v-640q0 -40 -28 -68t-68 -28h-768q-40 0 -68 28t-28 68v640zM1184 -128q-40 0 -68 28t-28 68v640q0 40 28 68t68 28h768q40 0 68 -28t28 -68v-640q0 -40 -28 -68t-68 -28h-768z" />
    <glyph glyph-name="th" unicode="TH" 
d="M597 1568v-320q0 -40 -28 -68t-68 -28h-405q-40 0 -68 28t-28 68v320q0 40 28 68t68 28h405q40 0 68 -28t28 -68zM1323 608q0 -40 -28 -68t-68 -28h-406q-40 0 -68 28t-28 68v320q0 40 28 68t68 28h406q40 0 68 -28t28 -68v-320zM1451 1568q0 40 28 68t68 28h405
q40 0 68 -28t28 -68v-320q0 -40 -28 -68t-68 -28h-405q-40 0 -68 28t-28 68v320zM1323 1248q0 -40 -28 -68t-68 -28h-406q-40 0 -68 28t-28 68v320q0 40 28 68t68 28h406q40 0 68 -28t28 -68v-320zM501 1024q40 0 68 -28t28 -68v-320q0 -40 -28 -68t-68 -28h-405
q-40 0 -68 28t-28 68v320q0 40 28 68t68 28h405zM0 288q0 40 28 68t68 28h405q40 0 68 -28t28 -68v-320q0 -40 -28 -68t-68 -28h-405q-40 0 -68 28t-28 68v320zM1547 512q-40 0 -68 28t-28 68v320q0 40 28 68t68 28h405q40 0 68 -28t28 -68v-320q0 -40 -28 -68t-68 -28h-405
zM1547 -128q-40 0 -68 28t-28 68v320q0 40 28 68t68 28h405q40 0 68 -28t28 -68v-320q0 -40 -28 -68t-68 -28h-405zM725 288q0 40 28 68t68 28h406q40 0 68 -28t28 -68v-320q0 -40 -28 -68t-68 -28h-406q-40 0 -68 28t-28 68v320z" />
    <glyph glyph-name="th-list" unicode="Th&#x2d;list" 
d="M597 928v-320q0 -40 -28 -68t-68 -28h-405q-40 0 -68 28t-28 68v320q0 40 28 68t68 28h405q40 0 68 -28t28 -68zM0 288q0 40 28 68t68 28h405q40 0 68 -28t28 -68v-320q0 -40 -28 -68t-68 -28h-405q-40 0 -68 28t-28 68v320zM501 1664q40 0 68 -28t28 -68v-320
q0 -40 -28 -68t-68 -28h-405q-40 0 -68 28t-28 68v320q0 40 28 68t68 28h405zM821 -128q-40 0 -68 28t-28 68v320q0 40 28 68t68 28h1131q40 0 68 -28t28 -68v-320q0 -40 -28 -68t-68 -28h-1131zM725 1568q0 40 28 68t68 28h1131q40 0 68 -28t28 -68v-320q0 -40 -28 -68
t-68 -28h-1131q-40 0 -68 28t-28 68v320zM821 512q-40 0 -68 28t-28 68v320q0 40 28 68t68 28h1131q40 0 68 -28t28 -68v-320q0 -40 -28 -68t-68 -28h-1131z" />
    <glyph glyph-name="check" unicode="CHECK" 
d="M696 34l-666 666q-30 30 -30 72.5t30 72.5l145 145q30 30 72.5 30t72.5 -30l448 -449l960 961q30 30 72.5 30t72.5 -30l145 -145q30 -30 30 -72.5t-30 -72.5l-1178 -1178q-30 -30 -72 -30t-72 30z" />
    <glyph glyph-name="times" unicode="Times" horiz-adv-x="1408" 
d="M971 768l400 -400q37 -37 37 -89t-37 -89l-89 -89q-37 -37 -89 -37t-89 37l-400 400l-400 -400q-37 -37 -89 -37t-89 37l-89 89q-37 37 -37 89t37 89l400 400l-400 400q-37 37 -37 89t37 89l89 89q37 37 89 37t89 -37l400 -400l400 400q37 37 89 37t89 -37l89 -89
q37 -37 37 -89t-37 -89z" />
    <glyph glyph-name="search-plus" unicode="Search&#x2d;plus" 
d="M1216 1024v-128q0 -20 -14 -34t-34 -14h-224v-224q0 -20 -14 -34t-34 -14h-128q-20 0 -34 14t-14 34v224h-224q-20 0 -34 14t-14 34v128q0 20 14 34t34 14h224v224q0 20 14 34t34 14h128q20 0 34 -14t14 -34v-224h224q20 0 34 -14t14 -34zM2020 -115l-113 -113
q-29 -28 -68.5 -28t-67.5 28l-399 399q-28 28 -28 68v65q-226 -176 -512 -176q-169 0 -323.5 66t-265.5 177t-177 265.5t-66 323.5t66 323.5t177 265.5t265.5 177t323.5 66t323.5 -66t265.5 -177t177 -265.5t66 -323.5q0 -286 -176 -512h65q40 0 68 -28l399 -399
q28 -28 28 -67.5t-28 -68.5zM1376 960q0 111 -43 211.5t-116 173.5t-173.5 116t-211.5 43t-211.5 -43t-173.5 -116t-116 -173.5t-43 -211.5t43 -211.5t116 -173.5t173.5 -116t211.5 -43t211.5 43t173.5 116t116 173.5t43 211.5z" />
    <glyph glyph-name="search-minus" unicode="SEARCH&#x2d;MINUS" 
d="M1216 1024v-128q0 -20 -14 -34t-34 -14h-672q-20 0 -34 14t-14 34v128q0 20 14 34t34 14h672q20 0 34 -14t14 -34zM2020 -115l-113 -113q-29 -28 -68.5 -28t-67.5 28l-399 399q-28 28 -28 68v65q-226 -176 -512 -176q-169 0 -323.5 66t-265.5 177t-177 265.5t-66 323.5
t66 323.5t177 265.5t265.5 177t323.5 66t323.5 -66t265.5 -177t177 -265.5t66 -323.5q0 -286 -176 -512h65q40 0 68 -28l399 -399q28 -28 28 -67.5t-28 -68.5zM1376 960q0 111 -43 211.5t-116 173.5t-173.5 116t-211.5 43t-211.5 -43t-173.5 -116t-116 -173.5t-43 -211.5
t43 -211.5t116 -173.5t173.5 -116t211.5 -43t211.5 43t173.5 116t116 173.5t43 211.5z" />
    <glyph glyph-name="power-off" unicode="POWER&#x2d;OFF" 
d="M1600 1576q193 -138 304.5 -350t111.5 -458q0 -202 -78.5 -385.5t-211 -316t-315.5 -211.5t-385 -79q-201 0 -385 78.5t-317 211t-212.5 316t-79.5 384.5q0 246 111.5 459t303.5 350q35 25 77 15.5t63 -46.5l63 -112q18 -31 10.5 -66.5t-36.5 -57.5
q-127 -94 -199.5 -235.5t-72.5 -304.5q0 -136 53 -260t142.5 -214.5t214 -144t262.5 -53.5q181 0 335.5 89t246 245t90.5 342q-1 157 -72 298.5t-200 237.5q-29 22 -36.5 57.5t10.5 66.5l63 112q21 38 62.5 47.5t76.5 -15.5zM1184 736q0 -40 -28 -68t-68 -28h-128
q-40 0 -68 28t-28 68v960q0 40 28 68t68 28h128q40 0 68 -28t28 -68v-960z" />
    <glyph glyph-name="signal" unicode="SIGNAL" horiz-adv-x="2560" 
d="M864 640q26 0 45 -19t19 -45v-768q0 -26 -19 -45t-45 -19h-192q-26 0 -45 19t-19 45v768q0 26 19 45t45 19h192zM352 256q26 0 45 -19t19 -45v-384q0 -26 -19 -45t-45 -19h-192q-26 0 -45 19t-19 45v384q0 26 19 45t45 19h192zM1376 1024q26 0 45 -19t19 -45v-1152
q0 -26 -19 -45t-45 -19h-192q-26 0 -45 19t-19 45v1152q0 26 19 45t45 19h192zM1888 1408q26 0 45 -19t19 -45v-1536q0 -26 -19 -45t-45 -19h-192q-26 0 -45 19t-19 45v1536q0 26 19 45t45 19h192zM2400 1792q26 0 45 -19t19 -45v-1920q0 -26 -19 -45t-45 -19h-192
q-26 0 -45 19t-19 45v1920q0 26 19 45t45 19h192z" />
    <glyph glyph-name="cog" unicode="COG" 
d="M1950 529q32 -18 22 -56q-66 -213 -219 -379q-25 -28 -59 -9l-170 99q-109 -93 -244 -141v-197q0 -17 -10.5 -29.5t-26.5 -16.5q-220 -49 -437 0q-17 4 -27.5 17t-10.5 29v197q-133 46 -243 141l-170 -99q-14 -8 -31 -5.5t-28 14.5q-153 165 -219 379q-10 38 22 56
l170 98q-26 141 0 281l-170 98q-15 8 -21 23.5t-1 32.5q66 213 219 379q25 28 59 9l170 -98q108 91 243 140v197q0 17 11 30t27 17q219 49 436 0q16 -4 27 -17t11 -30v-197q135 -47 243 -140l171 98q14 8 31 5.5t28 -14.5q153 -166 219 -378q10 -38 -22 -56l-171 -99
q26 -140 0 -280zM1024 448q132 0 226 94t94 226t-94 226t-226 94t-226 -94t-94 -226t94 -226t226 -94z" />
    <glyph glyph-name="home" unicode="HOME" horiz-adv-x="2304" 
d="M1121 1199q13 11 31 11t31 -11l737 -607v-656q0 -26 -19 -45t-45 -19l-448 1q-26 0 -45 19t-19 45v383q0 26 -19 45t-45 19h-256q-26 0 -45 -19t-19 -45v-383q0 -26 -19 -45t-45 -19l-448 -1q-26 0 -45 19t-19 45v656zM2286 786q18 -14 18 -37q0 -18 -11 -31l-102 -124
q-14 -17 -37 -17q-17 0 -30 11l-941 775q-13 11 -31 11t-31 -11l-940 -775q-13 -11 -31 -11q-23 0 -37 18l-102 124q-11 13 -11 30q0 23 17 37l1013 834q22 18 58 31t64 13t64 -13t58 -31l358 -295v291q0 20 14 34t34 14h224q20 0 34 -14t14 -34v-554z" />
    <glyph glyph-name="clock" unicode="CLOCK" 
d="M1024 1760q202 0 385.5 -78.5t316.5 -211.5t211.5 -316.5t78.5 -385.5t-78.5 -385.5t-211.5 -316.5t-316.5 -211.5t-385.5 -78.5t-385.5 78.5t-316.5 211.5t-211.5 316.5t-78.5 385.5t78.5 385.5t211.5 316.5t316.5 211.5t385.5 78.5zM1394 508q14 18 14 40q0 30 -24 50
l-232 170v576q0 26 -19 45t-45 19h-128q-26 0 -45 -19t-19 -45v-622q0 -31 17.5 -68t42.5 -57l268 -199q18 -14 40 -14q30 0 50 24z" />
    <glyph glyph-name="road" unicode="ROAD" horiz-adv-x="2304" 
d="M2293 181q28 -64 -8 -122.5t-103 -58.5h-788l-41 391q-2 25 -20 41t-43 16h-276q-25 0 -43 -16t-20 -41l-41 -391h-788q-67 0 -103 58.5t-8 122.5l559 1280q15 34 45 54.5t66 20.5h391l-10 -93q-1 -14 8.5 -24.5t23.5 -10.5h116q14 0 23.5 10.5t8.5 24.5l-10 93h391
q36 0 66 -20.5t45 -54.5zM1042 1251l-19 -174q-2 -21 12 -37t36 -16h162q21 0 35.5 16t12.5 37l-19 174q-2 12 -10.5 20.5t-20.5 8.5h-158q-12 0 -20.5 -8.5t-10.5 -20.5zM1263 576q28 0 47 21t16 50l-20 192q-2 25 -20.5 41t-43.5 16h-180q-25 0 -43.5 -16t-20.5 -41
l-20 -192q-3 -29 16 -50t47 -21h222z" />
    <glyph glyph-name="download" unicode="DOWNLOAD" 
d="M864 1792h320q40 0 68 -28t28 -68v-672h351q53 0 73.5 -49t-17.5 -87l-608 -609q-23 -23 -55 -23t-54 23l-610 609q-38 38 -17 87t74 49h351v672q0 40 28 68t68 28zM2048 288v-448q0 -40 -28 -68t-68 -28h-1856q-40 0 -68 28t-28 68v448q0 40 28 68t68 28h587l196 -196
q60 -60 145 -60t145 60l196 196h587q40 0 68 -28t28 -68zM1552 -64q0 33 -23.5 56.5t-56.5 23.5t-56.5 -23.5t-23.5 -56.5t23.5 -56.5t56.5 -23.5t56.5 23.5t23.5 56.5zM1808 -64q0 33 -23.5 56.5t-56.5 23.5t-56.5 -23.5t-23.5 -56.5t23.5 -56.5t56.5 -23.5t56.5 23.5
t23.5 56.5z" />
    <glyph glyph-name="inbox" unicode="INBOX" horiz-adv-x="2304" 
d="M2272 816q32 -48 32 -106v-518q0 -80 -56 -136t-136 -56h-1920q-80 0 -136 56t-56 136v518q0 58 32 106l423 635q23 35 70 60t90 25h1074q43 0 90 -25t70 -60zM649 1280l-341 -512h492l128 -256h448l128 256h492l-341 512h-1006z" />
    <glyph glyph-name="redo" unicode="Redo" 
d="M2001 1792q19 0 33.5 -14t14.5 -34v-801q0 -19 -14.5 -33.5t-33.5 -14.5h-801q-20 0 -34 14.5t-14 33.5v189q0 20 14 34t34 14h2l406 -19q-86 129 -257.5 220t-326.5 91q-143 0 -273.5 -55.5t-225 -150t-150 -225t-55.5 -273.5t55.5 -273.5t150 -225t225 -150
t273.5 -55.5q110 0 246 51.5t219 124.5q11 11 32 11q20 0 34 -14l136 -136q14 -14 14 -34q0 -21 -16 -35q-117 -106 -312 -181t-352 -75h-1q-202 0 -385.5 78.5t-316.5 211t-211.5 316t-78.5 385.5q0 201 78.5 385t211.5 317t317 212t385 79h1q190 0 411 -102t344 -247
l-16 331v2q0 20 14 34t34 14h189z" />
    <glyph glyph-name="sync" unicode="SYNC" 
d="M1763 1742v2q0 20 14.5 34t33.5 14h189q20 0 34 -14t14 -34v-801q0 -19 -14 -33.5t-34 -14.5h-801q-19 0 -33.5 14.5t-14.5 33.5v189q0 20 14.5 34t33.5 14h2l406 -19q-86 129 -257.5 220t-326.5 91q-150 0 -295 -72.5t-249.5 -196.5t-139.5 -270q-4 -15 -17 -26t-29 -11
h-197q-20 0 -34 14t-14 34q0 1 0.5 4.5t0.5 4.5q43 228 181 412t346.5 289.5t446.5 105.5h1q190 0 411.5 -102t343.5 -247zM1023 64q151 0 295.5 72t249 196t139.5 271q4 15 17.5 26t29.5 11h196q20 0 34 -14t14 -34v-9q-43 -228 -181.5 -412t-347 -289.5t-446.5 -105.5h-1
q-189 0 -410 102.5t-343 246.5l16 -331v-2q0 -20 -14.5 -34t-33.5 -14h-189q-20 0 -34 14t-14 34v801q0 19 14 33.5t34 14.5h801q19 0 33.5 -14.5t14.5 -33.5v-189q0 -20 -14.5 -34t-33.5 -14h-2l-408 19q86 -129 257.5 -220t326.5 -91z" />
    <glyph glyph-name="list-alt" unicode="LIST&#x2d;ALT" 
d="M1856 -128h-1664q-80 0 -136 56t-56 136v1408q0 80 56 136t136 56h1664q80 0 136 -56t56 -136v-1408q0 -80 -56 -136t-136 -56zM512 1312q-66 0 -113 -47t-47 -113t47 -113t113 -47t113 47t47 113t-47 113t-113 47zM512 928q-66 0 -113 -47t-47 -113t47 -113t113 -47
t113 47t47 113t-47 113t-113 47zM512 544q-66 0 -113 -47t-47 -113t47 -113t113 -47t113 47t47 113t-47 113t-113 47zM1664 1088v128q0 20 -14 34t-34 14h-800q-20 0 -34 -14t-14 -34v-128q0 -20 14 -34t34 -14h800q20 0 34 14t14 34zM1664 704v128q0 20 -14 34t-34 14h-800
q-20 0 -34 -14t-14 -34v-128q0 -20 14 -34t34 -14h800q20 0 34 14t14 34zM1664 320v128q0 20 -14 34t-34 14h-800q-20 0 -34 -14t-14 -34v-128q0 -20 14 -34t34 -14h800q20 0 34 14t14 34z" />
    <glyph glyph-name="lock" unicode="LOCK" horiz-adv-x="1792" 
d="M1600 896q80 0 136 -56t56 -136v-768q0 -80 -56 -136t-136 -56h-1408q-80 0 -136 56t-56 136v768q0 80 56 136t136 56h96v288q0 123 48.5 236t129.5 194t194 129.5t236 48.5t236 -48.5t194 -129.5t129.5 -194t48.5 -236v-288h96zM1184 896v288q0 119 -84.5 203.5
t-203.5 84.5t-203.5 -84.5t-84.5 -203.5v-288h576z" />
    <glyph glyph-name="flag" unicode="FLAG" 
d="M1398 1397q196 0 468 127q64 29 123 -8.5t59 -107.5v-972q0 -68 -55 -106q-238 -163 -490 -163q-90 0 -186.5 21.5t-165 48t-153.5 48t-156 21.5q-251 0 -458 -88v-378q0 -40 -28 -68t-68 -28h-64q-40 0 -68 28t-28 68v1544q-44 31 -70 79.5t-26 104.5q0 95 68.5 161.5
t164.5 62.5q86 -4 148 -64.5t67 -145.5v-14q0 -41 -15 -80q129 48 272 48q90 0 186.5 -21.5t165 -48t153.5 -48t156 -21.5z" />
    <glyph glyph-name="headphones" unicode="HEADPHONES" 
d="M1024 1664q209 0 398.5 -81t326.5 -218t218 -326.5t81 -398.5v-192q0 -33 -21 -66t-50 -48l-57 -29q-6 -180 -136.5 -306.5t-311.5 -126.5h-96q-40 0 -68 28t-28 68v704q0 40 28 68t68 28h96q92 0 175 -36t145 -99v7q0 156 -61 298t-164 245t-245 164t-298 61t-298 -61
t-245 -164t-164 -245t-61 -298v-7q62 63 145 99t175 36h96q40 0 68 -28t28 -68v-704q0 -40 -28 -68t-68 -28h-96q-181 0 -311.5 126.5t-136.5 306.5l-57 29q-29 15 -50 48t-21 66v192q0 209 81 398.5t218 326.5t326.5 218t398.5 81z" />
    <glyph glyph-name="volume-off" unicode="VOLUME&#x2d;OFF" horiz-adv-x="1024" 
d="M860 1508q45 45 104.5 20.5t59.5 -88.5v-1344q0 -64 -59.5 -88.5t-104.5 20.5l-356 356h-408q-40 0 -68 28t-28 68v576q0 40 28 68t68 28h408z" />
    <glyph glyph-name="volume-down" unicode="VOLUME&#x2d;DOWN" horiz-adv-x="1536" 
d="M860 1504q45 45 104.5 20.5t59.5 -88.5v-1344q0 -64 -59.5 -88.5t-104.5 20.5l-356 356h-408q-40 0 -68 28t-28 68v576q0 40 28 68t68 28h408zM1353 1072q85 -46 134 -129t49 -179t-49 -178t-134 -129q-34 -19 -72.5 -8.5t-57.5 45.5t-8.5 73t45.5 58q39 21 61.5 58
t22.5 81t-22.5 81t-61.5 58q-35 20 -46 58t8 73q19 34 58 45.5t73 -7.5z" />
    <glyph glyph-name="volume-up" unicode="Volume&#x2d;up" horiz-adv-x="2304" 
d="M860 1508q45 45 104.5 20.5t59.5 -88.5v-1344q0 -64 -59.5 -88.5t-104.5 20.5l-356 356h-408q-40 0 -68 28t-28 68v576q0 40 28 68t68 28h408zM1793 1712q240 -157 375.5 -407.5t135.5 -536.5t-135.5 -536.5t-375.5 -407.5q-35 -22 -74 -13.5t-60 41.5q-22 34 -14 73
t42 61q199 131 311 338t112 444t-112 444t-311 338q-34 22 -42 61t14 73t61 42t73 -14zM1920 768q0 -191 -91 -356.5t-252 -268.5q-37 -22 -75 -12t-58 42q-21 34 -12.5 72.5t42.5 60.5q119 77 186.5 199t67.5 263t-67.5 263t-186.5 199q-34 22 -42.5 60.5t12.5 72.5t60 43
t73 -13q161 -103 252 -268.5t91 -356.5zM1353 1075q85 -47 134 -129t49 -178t-49 -178t-134 -129q-34 -19 -72.5 -8.5t-57.5 45.5t-8.5 73t45.5 58q39 21 61.5 58t22.5 81q0 43 -22.5 80.5t-61.5 58.5q-35 20 -46 58t8 73q19 34 58 45t73 -8z" />
    <glyph glyph-name="qrcode" unicode="QRCODE" horiz-adv-x="1792" 
d="M0 896v768h768v-768h-768zM256 1408v-256h256v256h-256zM1024 1664h768v-768h-768v768zM1536 1152v256h-256v-256h256zM0 -128v768h768v-768h-768zM256 384v-256h256v256h-256zM1664 640h128v-512h-384v128h-128v-384h-256v768h384v-128h256v128zM1664 0h128v-128h-128
v128zM1408 0h128v-128h-128v128z" />
    <glyph glyph-name="barcode" unicode="Barcode" 
d="M0 0v1536h72v-1536h-72zM107 1v1535h37v-1535h-37zM216 1v1535h35v-1535h-35zM395 1v1535h36v-1535h-36zM539 1v1535h71v-1535h-71zM719 1v1535h35v-1535h-35zM791 1v1535h35v-1535h-35zM863 1v1535h35v-1535h-35zM1006 1v1535h72v-1535h-72zM1185 1v1535h72v-1535h-72z
M1329 1v1535h72v-1535h-72zM1473 1v1535h72v-1535h-72zM1581 1v1535h72v-1535h-72zM1761 1v1535h108v-1535h-108zM1904 1v1535h37v-1535h-37zM1976 0v1536h72v-1536h-72z" />
    <glyph glyph-name="tag" unicode="TAG" 
d="M0 784v816q0 80 56 136t136 56h816q33 0 73 -16.5t63 -39.5l848 -848q56 -56 56 -135.5t-56 -135.5l-817 -817q-56 -56 -135.5 -56t-135.5 56l-848 848q-23 23 -39.5 63t-16.5 73zM448 1536q-80 0 -136 -56t-56 -136t56 -136t136 -56t136 56t56 136t-56 136t-136 56z" />
    <glyph glyph-name="tags" unicode="TAGS" horiz-adv-x="2560" 
d="M1992 888q56 -56 56 -135.5t-56 -135.5l-817 -817q-56 -56 -135.5 -56t-135.5 56l-848 848q-23 23 -39.5 63t-16.5 73v816q0 80 56 136t136 56h816q33 0 73 -16.5t63 -39.5zM448 1152q80 0 136 56t56 136t-56 136t-136 56t-136 -56t-56 -136t56 -136t136 -56zM2504 617
l-817 -817q-56 -56 -135.5 -56t-135.5 56l-2 2l697 696q105 105 105 254q0 150 -105 255l-785 785h194q33 0 73 -16.5t63 -39.5l848 -848q56 -56 56 -135.5t-56 -135.5z" />
    <glyph glyph-name="book" unicode="BOOK" horiz-adv-x="1792" 
d="M1792 352q0 -46 -36 -74q-13 -46 -13 -149t13 -150q36 -29 36 -75v-64q0 -40 -28 -68t-68 -28h-1312q-159 0 -271.5 112.5t-112.5 271.5v1280q0 159 112.5 271.5t271.5 112.5h1312q40 0 68 -28t28 -68v-1344zM512 1256v-80q0 -10 7 -17t17 -7h848q10 0 17 7t7 17v80
q0 10 -7 17t-17 7h-848q-10 0 -17 -7t-7 -17zM512 1000v-80q0 -10 7 -17t17 -7h848q10 0 17 7t7 17v80q0 10 -7 17t-17 7h-848q-10 0 -17 -7t-7 -17zM1526 0q-6 51 -6 128t6 128h-1142q-52 0 -90 -38t-38 -90q0 -53 37.5 -90.5t90.5 -37.5h1142z" />
    <glyph glyph-name="bookmark" unicode="BOOKMARK" horiz-adv-x="1536" 
d="M0 -256v1856q0 80 56 136t136 56h1152q80 0 136 -56t56 -136v-1856l-768 448z" />
    <glyph glyph-name="print" unicode="PRINT" 
d="M1792 1024q106 0 181 -75t75 -181v-448q0 -26 -19 -45t-45 -19h-192v-384q0 -53 -37.5 -90.5t-90.5 -37.5h-1280q-53 0 -90.5 37.5t-37.5 90.5v384h-192q-26 0 -45 19t-19 45v448q0 106 75 181t181 75v640q0 53 37.5 90.5t90.5 37.5h1099q53 0 90 -37l182 -181
q37 -37 37 -91v-459zM1536 0v384h-1024v-384h1024zM1536 896v384h-192q-26 0 -45 19t-19 45v192h-768v-640h1024zM1728 608q40 0 68 28t28 68t-28 68t-68 28t-68 -28t-28 -68t28 -68t68 -28z" />
    <glyph glyph-name="camera" unicode="CAMERA" 
d="M2048 1216v-1152q0 -80 -56 -136t-136 -56h-1664q-80 0 -136 56t-56 136v1152q0 80 56 136t136 56h352l49 132q21 56 70.5 90t109.5 34h502q60 0 109 -34t70 -90l50 -132h352q80 0 136 -56t56 -136zM1504 640q0 130 -64.5 240.5t-175 175t-240.5 64.5t-240.5 -64.5
t-175 -175t-64.5 -240.5t64.5 -240.5t175 -175t240.5 -64.5t240.5 64.5t175 175t64.5 240.5zM1376 640q0 -146 -103 -249t-249 -103t-249 103t-103 249t103 249t249 103t249 -103t103 -249z" />
    <glyph glyph-name="font" unicode="FONT" horiz-adv-x="1792" 
d="M1728 128q26 0 45 -19t19 -45v-128q0 -26 -19 -45t-45 -19h-512q-26 0 -45 19t-19 45v128q0 26 19 45t45 19h78l-93 256h-610l-93 -256h78q26 0 45 -19t19 -45v-128q0 -26 -19 -45t-45 -19h-512q-26 0 -45 19t-19 45v128q0 26 19 45t45 19h94l522 1449q12 36 48 61.5
t74 25.5h188q38 0 74 -25.5t48 -61.5l522 -1449h94zM707 704h378l-189 518z" />
    <glyph glyph-name="bold" unicode="BOLD" horiz-adv-x="1536" 
d="M1334 840q106 -85 161.5 -210.5t41.5 -267.5q-13 -138 -94 -251t-205.5 -176t-264.5 -63h-837q-26 0 -45 19t-19 45v192q0 26 19 45t45 19h127v1152h-127q-26 0 -45 19t-19 45v192q0 26 19 45t45 19h798q147 0 269.5 -76.5t188 -207t50.5 -279.5q-6 -61 -37.5 -137.5
t-70.5 -123.5zM583 1344v-384h351q80 0 136 56t56 136t-56 136t-136 56h-351zM934 192q93 0 158.5 65.5t65.5 158.5t-65.5 158.5t-158.5 65.5h-351v-448h351z" />
    <glyph glyph-name="italic" unicode="ITALIC" horiz-adv-x="1280" 
d="M1280 1600v-128q0 -26 -19 -45t-45 -19h-251l-320 -1280h187q26 0 45 -19t19 -45v-128q0 -26 -19 -45t-45 -19h-768q-26 0 -45 19t-19 45v128q0 26 19 45t45 19h251l320 1280h-187q-26 0 -45 19t-19 45v128q0 26 19 45t45 19h768q26 0 45 -19t19 -45z" />
    <glyph glyph-name="text-height" unicode="TEXT&#x2d;HEIGHT" horiz-adv-x="2304" 
d="M1216 1664q26 0 45 -19t19 -45v-384q0 -26 -19 -45t-45 -19h-128q-26 0 -45 19t-19 45v128h-224v-1216h160q26 0 45 -19t19 -45v-128q0 -26 -19 -45t-45 -19h-640q-26 0 -45 19t-19 45v128q0 26 19 45t45 19h160v1216h-224v-128q0 -26 -19 -45t-45 -19h-128q-26 0 -45 19
t-19 45v384q0 26 19 45t45 19h1152zM2240 320q46 0 60 -40.5t-15 -68.5l-320 -320q-19 -19 -45 -19t-45 19l-320 320q-30 30 -14 69.5t59 39.5h192v896h-192q-46 0 -60 40.5t15 68.5l320 320q19 19 45 19t45 -19l320 -320q30 -30 14 -69.5t-59 -39.5h-192v-896h192z" />
    <glyph glyph-name="text-width" unicode="Text&#x2d;width" horiz-adv-x="1792" 
d="M1728 1664q26 0 45 -19t19 -45v-320q0 -26 -19 -45t-45 -19h-128q-26 0 -45 19t-19 45v64h-480v-448h96q26 0 45 -19t19 -45v-128q0 -26 -19 -45t-45 -19h-512q-26 0 -45 19t-19 45v128q0 26 19 45t45 19h96v448h-480v-64q0 -26 -19 -45t-45 -19h-128q-26 0 -45 19
t-19 45v320q0 26 19 45t45 19h1664zM1453 621l320 -320q19 -19 19 -45t-19 -45l-320 -320q-30 -30 -69.5 -14t-39.5 59v192h-896v-192q0 -46 -40.5 -60t-68.5 15l-320 320q-19 19 -19 45t19 45l320 320q30 30 69.5 14t39.5 -59v-192h896v192q0 46 40.5 60t68.5 -15z" />
    <glyph glyph-name="align-left" unicode="ALIGN&#x2d;LEFT" horiz-adv-x="1792" 
d="M51 384q-21 0 -36 15t-15 36v154q0 21 15 36t36 15h1050q21 0 36 -15t15 -36v-154q0 -21 -15 -36t-36 -15h-1050zM51 1408q-21 0 -36 15t-15 36v154q0 21 15 36t36 15h1050q21 0 36 -15t15 -36v-154q0 -21 -15 -36t-36 -15h-1050zM1728 1152q26 0 45 -19t19 -45v-128
q0 -26 -19 -45t-45 -19h-1664q-26 0 -45 19t-19 45v128q0 26 19 45t45 19h1664zM1728 128q26 0 45 -19t19 -45v-128q0 -26 -19 -45t-45 -19h-1664q-26 0 -45 19t-19 45v128q0 26 19 45t45 19h1664z" />
    <glyph glyph-name="align-center" unicode="ALIGN&#x2d;CENTER" horiz-adv-x="1792" 
d="M1728 1152q26 0 45 -19t19 -45v-128q0 -26 -19 -45t-45 -19h-1664q-26 0 -45 19t-19 45v128q0 26 19 45t45 19h1664zM1728 128q26 0 45 -19t19 -45v-128q0 -26 -19 -45t-45 -19h-1664q-26 0 -45 19t-19 45v128q0 26 19 45t45 19h1664zM432 1408q-20 0 -34 14t-14 34v160
q0 20 14 34t34 14h928q20 0 34 -14t14 -34v-160q0 -20 -14 -34t-34 -14h-928zM1360 384h-928q-20 0 -34 14t-14 34v160q0 20 14 34t34 14h928q20 0 34 -14t14 -34v-160q0 -20 -14 -34t-34 -14z" />
    <glyph glyph-name="align-right" unicode="ALIGN&#x2d;RIGHT" horiz-adv-x="1792" 
d="M64 896q-26 0 -45 19t-19 45v128q0 26 19 45t45 19h1664q26 0 45 -19t19 -45v-128q0 -26 -19 -45t-45 -19h-1664zM1728 128q26 0 45 -19t19 -45v-128q0 -26 -19 -45t-45 -19h-1664q-26 0 -45 19t-19 45v128q0 26 19 45t45 19h1664zM1741 1664q21 0 36 -15t15 -36v-154
q0 -21 -15 -36t-36 -15h-1050q-21 0 -36 15t-15 36v154q0 21 15 36t36 15h1050zM1741 640q21 0 36 -15t15 -36v-154q0 -21 -15 -36t-36 -15h-1050q-21 0 -36 15t-15 36v154q0 21 15 36t36 15h1050z" />
    <glyph glyph-name="align-justify" unicode="ALIGN&#x2d;JUSTIFY" horiz-adv-x="1792" 
d="M1728 128q26 0 45 -19t19 -45v-128q0 -26 -19 -45t-45 -19h-1664q-26 0 -45 19t-19 45v128q0 26 19 45t45 19h1664zM1728 640q26 0 45 -19t19 -45v-128q0 -26 -19 -45t-45 -19h-1664q-26 0 -45 19t-19 45v128q0 26 19 45t45 19h1664zM1728 1152q26 0 45 -19t19 -45v-128
q0 -26 -19 -45t-45 -19h-1664q-26 0 -45 19t-19 45v128q0 26 19 45t45 19h1664zM1728 1664q26 0 45 -19t19 -45v-128q0 -26 -19 -45t-45 -19h-1664q-26 0 -45 19t-19 45v128q0 26 19 45t45 19h1664z" />
    <glyph glyph-name="list" unicode="LIST" 
d="M320 320q26 0 45 -19t19 -45v-256q0 -26 -19 -45t-45 -19h-256q-26 0 -45 19t-19 45v256q0 26 19 45t45 19h256zM320 1600q26 0 45 -19t19 -45v-256q0 -26 -19 -45t-45 -19h-256q-26 0 -45 19t-19 45v256q0 26 19 45t45 19h256zM320 960q26 0 45 -19t19 -45v-256
q0 -26 -19 -45t-45 -19h-256q-26 0 -45 19t-19 45v256q0 26 19 45t45 19h256zM1984 256q26 0 45 -19t19 -45v-128q0 -26 -19 -45t-45 -19h-1280q-26 0 -45 19t-19 45v128q0 26 19 45t45 19h1280zM1984 1536q26 0 45 -19t19 -45v-128q0 -26 -19 -45t-45 -19h-1280
q-26 0 -45 19t-19 45v128q0 26 19 45t45 19h1280zM1984 896q26 0 45 -19t19 -45v-128q0 -26 -19 -45t-45 -19h-1280q-26 0 -45 19t-19 45v128q0 26 19 45t45 19h1280z" />
    <glyph glyph-name="outdent" unicode="OUTDENT" horiz-adv-x="1792" 
d="M403 339l-384 384q-19 19 -19 45t19 45l384 384q30 30 69.5 14t39.5 -59v-768q0 -43 -39.5 -59t-69.5 14zM1728 128q26 0 45 -19t19 -45v-128q0 -26 -19 -45t-45 -19h-1664q-26 0 -45 19t-19 45v128q0 26 19 45t45 19h1664zM1741 640q21 0 36 -15t15 -36v-154
q0 -21 -15 -36t-36 -15h-922q-21 0 -36 15t-15 36v154q0 21 15 36t36 15h922zM1741 1152q21 0 36 -15t15 -36v-154q0 -21 -15 -36t-36 -15h-922q-21 0 -36 15t-15 36v154q0 21 15 36t36 15h922zM1728 1664q26 0 45 -19t19 -45v-128q0 -26 -19 -45t-45 -19h-1664
q-26 0 -45 19t-19 45v128q0 26 19 45t45 19h1664z" />
    <glyph glyph-name="indent" unicode="INDENT" horiz-adv-x="1792" 
d="M109 339q-30 -30 -69.5 -14t-39.5 59v768q0 43 39.5 59t69.5 -14l384 -384q19 -19 19 -45t-19 -45zM1728 128q26 0 45 -19t19 -45v-128q0 -26 -19 -45t-45 -19h-1664q-26 0 -45 19t-19 45v128q0 26 19 45t45 19h1664zM1741 640q21 0 36 -15t15 -36v-154q0 -21 -15 -36
t-36 -15h-922q-21 0 -36 15t-15 36v154q0 21 15 36t36 15h922zM1741 1152q21 0 36 -15t15 -36v-154q0 -21 -15 -36t-36 -15h-922q-21 0 -36 15t-15 36v154q0 21 15 36t36 15h922zM1728 1664q26 0 45 -19t19 -45v-128q0 -26 -19 -45t-45 -19h-1664q-26 0 -45 19t-19 45v128
q0 26 19 45t45 19h1664z" />
    <glyph glyph-name="video" unicode="VIDEO" horiz-adv-x="2304" 
d="M1345 1536q79 0 135 -56t56 -135v-1154q0 -79 -56 -135t-135 -56h-1154q-79 0 -135 56t-56 135v1154q0 79 56 135t135 56h1154zM2102 1385q45 26 90 21.5t78.5 -40t33.5 -84.5v-1028q0 -49 -33.5 -84.5t-78.5 -40t-90 21.5l-438 302v630z" />
    <glyph glyph-name="image" unicode="IMAGE" 
d="M1856 0h-1664q-80 0 -136 56t-56 136v1152q0 80 56 136t136 56h1664q80 0 136 -56t56 -136v-1152q0 -80 -56 -136t-136 -56zM448 1312q-93 0 -158.5 -65.5t-65.5 -158.5t65.5 -158.5t158.5 -65.5t158.5 65.5t65.5 158.5t-65.5 158.5t-158.5 65.5zM256 256h1536v448
l-350 350q-14 14 -34 14t-34 -14l-542 -542l-222 222q-14 14 -34 14t-34 -14l-286 -286v-192z" />
    <glyph glyph-name="pencil" unicode="PENCIL" 
d="M1992 1224l-185 -185q-14 -14 -34 -14t-34 14l-444 444q-14 14 -14 34t14 34l185 185q56 56 135.5 56t135.5 -56l241 -241q56 -56 56 -135.5t-56 -135.5zM1137 1393q14 14 34 14t34 -14l444 -444q14 -14 14 -34t-14 -34l-1050 -1051l-486 -85q-50 -8 -85 27t-26 84
l84 486zM352 96v192h-145l-45 -258l124 -124l258 45v145h-192z" />
    <glyph glyph-name="map-marker" unicode="MAP&#x2d;MARKER" horiz-adv-x="1536" 
d="M689 -215q-82 119 -176 253t-146.5 208.5t-113.5 164t-91.5 137t-64.5 108.5t-48 97.5t-28 85t-17.5 90.5t-3.5 95q0 209 103 385.5t279.5 279.5t385.5 103t385.5 -103t279.5 -279.5t103 -385.5q0 -53 -3.5 -95t-17.5 -90.5t-28 -85t-48 -97.5t-64.5 -108.5t-91.5 -137
t-113.5 -164t-146.5 -208.5t-176 -253q-29 -41 -79 -41t-79 41z" />
    <glyph glyph-name="adjust" unicode="ADJUST" 
d="M32 768q0 202 78.5 385.5t211.5 316.5t316.5 211.5t385.5 78.5t385.5 -78.5t316.5 -211.5t211.5 -316.5t78.5 -385.5t-78.5 -385.5t-211.5 -316.5t-316.5 -211.5t-385.5 -78.5t-385.5 78.5t-316.5 211.5t-211.5 316.5t-78.5 385.5zM1024 32q200 0 369.5 98.5t268 268
t98.5 369.5t-98.5 369.5t-268 268t-369.5 98.5v-1472z" />
    <glyph glyph-name="tint" unicode="TINT" horiz-adv-x="1408" 
d="M821 1704q38 -127 91.5 -244t107.5 -203.5t111 -168.5t105.5 -154t87.5 -145t61.5 -157.5t22.5 -175.5q0 -145 -55.5 -277t-150 -227t-225 -151.5t-273.5 -56.5t-273.5 56.5t-225 151.5t-150 227t-55.5 277q0 91 22.5 175t61.5 157.5t88 146t106 154.5t110.5 168.5
t107 203t91.5 243.5q17 57 68 78.5t101 -1t65 -77.5zM704 0q26 0 45 19t19 45t-19 45t-45 19q-132 0 -226 94t-94 226q0 26 -19 45t-45 19t-45 -19t-19 -45q0 -185 131.5 -316.5t316.5 -131.5z" />
    <glyph glyph-name="edit" unicode="Edit" horiz-adv-x="2304" 
d="M1610 1459l361 -361q11 -11 11 -27.5t-11 -27.5l-873 -873l-372 -42q-38 -4 -64 22t-22 64l42 372l873 873q11 11 27.5 11t27.5 -11zM2258 1551q46 -46 46 -110.5t-46 -110.5l-141 -142q-11 -11 -27.5 -11t-27.5 11l-361 361q-11 11 -11 27.5t11 27.5l141 142
q46 46 110.5 46t110.5 -46zM1536 407q0 20 14 34l160 160q22 23 52 10.5t30 -44.5v-631q0 -80 -56 -136t-136 -56h-1408q-80 0 -136 56t-56 136v1408q0 80 56 136t136 56h1143q32 0 44.5 -30t-10.5 -52l-160 -160q-14 -14 -34 -14h-919v-1280h1280v407z" />
    <glyph glyph-name="arrows" unicode="ARROWS" 
d="M1411 78l-296 -297q-37 -37 -91 -37t-91 37l-296 297q-28 28 -28 67.5t28 67.5l44 44q29 28 69 27.5t68 -29.5l94 -104v505h-505l104 -94q29 -28 29.5 -68t-27.5 -69l-44 -44q-28 -28 -67.5 -28t-67.5 28l-297 296q-37 37 -37 91t37 91l297 296q28 28 67.5 28t67.5 -28
l44 -44q28 -29 27.5 -69t-29.5 -68l-104 -94h505v505l-94 -104q-28 -29 -68 -29.5t-69 27.5l-44 44q-28 28 -28 67.5t28 67.5l296 297q37 37 91 37t91 -37l296 -297q28 -28 28 -67.5t-28 -67.5l-44 -44q-29 -28 -69 -27.5t-68 29.5l-94 104v-505h505l-104 94
q-29 28 -29.5 68t27.5 69l44 44q28 28 67.5 28t67.5 -28l297 -296q37 -37 37 -91t-37 -91l-297 -296q-28 -28 -67.5 -28t-67.5 28l-44 44q-28 29 -27.5 69t29.5 68l104 94h-505v-505l94 104q28 29 68 29.5t69 -27.5l44 -44q28 -28 28 -67.5t-28 -67.5z" />
    <glyph glyph-name="step-backward" unicode="STEP&#x2d;BACKWARD" horiz-adv-x="1792" 
d="M256 -80v1696q0 20 14 34t34 14h192q20 0 34 -14t14 -34v-706l782 724q30 25 67.5 28.5t68.5 -10.5t52.5 -45t21.5 -71v-1536q0 -40 -21.5 -71t-52.5 -45t-68.5 -10.5t-67.5 28.5l-782 719v-701q0 -20 -14 -34t-34 -14h-192q-20 0 -34 14t-14 34z" />
    <glyph glyph-name="fast-backward" unicode="FAST&#x2d;BACKWARD" 
d="M0 48v1440q0 20 14 34t34 14h160q20 0 34 -14t14 -34v-608l686 626q30 25 67.5 28.5t68.5 -10.5t52.5 -45t21.5 -71v-528l686 626q30 25 67.5 28.5t68.5 -10.5t52.5 -45t21.5 -71v-1280q0 -40 -21.5 -71t-52.5 -45t-68.5 -10.5t-67.5 28.5l-686 621v-523q0 -40 -21.5 -71
t-52.5 -45t-68.5 -10.5t-67.5 28.5l-686 621v-603q0 -20 -14 -34t-34 -14h-160q-20 0 -34 14t-14 34z" />
    <glyph glyph-name="backward" unicode="BACKWARD" 
d="M46 670q-46 38 -46 98t46 98l768 640q30 25 67.5 29t68.5 -10.5t52.5 -45.5t21.5 -71v-1280q0 -40 -21.5 -71t-52.5 -45.5t-68.5 -10.5t-67.5 29zM1070 670q-46 38 -46 98t46 98l768 640q30 25 67.5 29t68.5 -10.5t52.5 -45.5t21.5 -71v-1280q0 -40 -21.5 -71
t-52.5 -45.5t-68.5 -10.5t-67.5 29z" />
    <glyph glyph-name="play" unicode="Play" horiz-adv-x="1792" 
d="M1698 933q61 -36 84 -100.5t0 -129t-84 -100.5l-1408 -832q-48 -30 -99 -27t-93.5 25t-70 67t-27.5 100v1664q0 60 29.5 105.5t73 66t94.5 20t93 -25.5z" />
    <glyph glyph-name="pause" unicode="PAUSE" horiz-adv-x="1792" 
d="M576 -124h-384q-80 0 -136 56t-56 136v1408q0 80 56 136t136 56h384q80 0 136 -56t56 -136v-1408q0 -80 -56 -136t-136 -56zM1792 68q0 -80 -56 -136t-136 -56h-384q-80 0 -136 56t-56 136v1408q0 80 56 136t136 56h384q80 0 136 -56t56 -136v-1408z" />
    <glyph glyph-name="stop" unicode="STOP" horiz-adv-x="1792" 
d="M1600 1664q80 0 136 -56t56 -136v-1408q0 -80 -56 -136t-136 -56h-1408q-80 0 -136 56t-56 136v1408q0 80 56 136t136 56h1408z" />
    <glyph glyph-name="forward" unicode="FORWARD" 
d="M2002 866q46 -38 46 -98t-46 -98l-768 -640q-30 -25 -67.5 -29t-68.5 10.5t-52.5 45.5t-21.5 71v1280q0 40 21.5 71t52.5 45t68.5 10.5t67.5 -28.5zM978 866q46 -38 46 -98t-46 -98l-768 -640q-30 -25 -67.5 -29t-68.5 10.5t-52.5 45.5t-21.5 71v1280q0 40 21.5 71
t52.5 45t68.5 10.5t67.5 -28.5z" />
    <glyph glyph-name="fast-forward" unicode="FAST&#x2d;FORWARD" 
d="M2048 1488v-1440q0 -20 -14 -34t-34 -14h-160q-20 0 -34 14t-14 34v608l-686 -626q-30 -25 -67.5 -29t-68.5 10.5t-52.5 45.5t-21.5 71v528l-686 -626q-30 -25 -67.5 -29t-68.5 10.5t-52.5 45.5t-21.5 71v1280q0 40 21.5 71t52.5 45t68.5 10.5t67.5 -28.5l686 -621v523
q0 40 21.5 71t52.5 45t68.5 10.5t67.5 -28.5l686 -621v603q0 20 14 34t34 14h160q20 0 34 -14t14 -34z" />
    <glyph glyph-name="step-forward" unicode="STEP&#x2d;FORWARD" horiz-adv-x="1792" 
d="M1536 1616v-1696q0 -20 -14 -34t-34 -14h-192q-20 0 -34 14t-14 34v706l-782 -724q-30 -25 -67.5 -28.5t-68.5 10.5t-52.5 45t-21.5 71v1536q0 40 21.5 71t52.5 45t68.5 10.5t67.5 -28.5l782 -719v701q0 20 14 34t34 14h192q20 0 34 -14t14 -34z" />
    <glyph glyph-name="eject" unicode="EJECT" horiz-adv-x="1792" 
d="M1792 256v-256q0 -53 -37.5 -90.5t-90.5 -37.5h-1536q-53 0 -90.5 37.5t-37.5 90.5v256q0 53 37.5 90.5t90.5 37.5h1536q53 0 90.5 -37.5t37.5 -90.5zM192 512q-48 0 -89.5 21.5t-65 57t-33.5 77t2 86t45 80.5l703 768q57 62 142 62t142 -62l703 -768q33 -36 45 -80.5
t2 -86t-33.5 -77t-65 -57t-89.5 -21.5h-1408z" />
    <glyph glyph-name="chevron-left" unicode="CHEVRON&#x2d;LEFT" horiz-adv-x="1280" 
d="M138 836l777 777q28 28 68 28t68 -28l91 -90q28 -28 28 -67.5t-28 -68.5l-616 -619l616 -619q28 -29 28 -68.5t-28 -67.5l-91 -90q-28 -28 -68 -28t-68 28l-777 777q-28 28 -28 68t28 68z" />
    <glyph glyph-name="chevron-right" unicode="CHEVRON&#x2d;RIGHT" horiz-adv-x="1280" 
d="M1142 700l-777 -777q-28 -28 -68 -28t-68 28l-91 90q-28 28 -28 68t28 68l616 619l-616 619q-28 29 -28 68.5t28 67.5l91 90q28 28 68 28t68 -28l777 -777q28 -28 28 -68t-28 -68z" />
    <glyph glyph-name="plus-circle" unicode="PLUS&#x2d;CIRCLE" 
d="M1024 1760q202 0 385.5 -78.5t316.5 -211.5t211.5 -316.5t78.5 -385.5t-78.5 -385.5t-211.5 -316.5t-316.5 -211.5t-385.5 -78.5t-385.5 78.5t-316.5 211.5t-211.5 316.5t-78.5 385.5t78.5 385.5t211.5 316.5t316.5 211.5t385.5 78.5zM1600 656v224q0 20 -14 34t-34 14
h-368v368q0 20 -14 34t-34 14h-224q-20 0 -34 -14t-14 -34v-368h-368q-20 0 -34 -14t-14 -34v-224q0 -20 14 -34t34 -14h368v-368q0 -20 14 -34t34 -14h224q20 0 34 14t14 34v368h368q20 0 34 14t14 34z" />
    <glyph glyph-name="minus-circle" unicode="MINUS&#x2d;CIRCLE" 
d="M1024 1760q202 0 385.5 -78.5t316.5 -211.5t211.5 -316.5t78.5 -385.5t-78.5 -385.5t-211.5 -316.5t-316.5 -211.5t-385.5 -78.5t-385.5 78.5t-316.5 211.5t-211.5 316.5t-78.5 385.5t78.5 385.5t211.5 316.5t316.5 211.5t385.5 78.5zM496 608h1056q20 0 34 14t14 34v224
q0 20 -14 34t-34 14h-1056q-20 0 -34 -14t-14 -34v-224q0 -20 14 -34t34 -14z" />
    <glyph glyph-name="times-circle" unicode="TIMES&#x2d;CIRCLE" 
d="M1024 1760q202 0 385.5 -78.5t316.5 -211.5t211.5 -316.5t78.5 -385.5t-78.5 -385.5t-211.5 -316.5t-316.5 -211.5t-385.5 -78.5t-385.5 78.5t-316.5 211.5t-211.5 316.5t-78.5 385.5t78.5 385.5t211.5 316.5t316.5 211.5t385.5 78.5zM1510 508l-262 260l263 260
q14 14 14 34t-14 34l-159 158q-14 14 -34 14t-34 -14l-260 -262l-260 263q-14 14 -34 14t-34 -14l-158 -159q-14 -14 -14 -34t14 -34l262 -260l-262 -260q-14 -14 -14 -34t14 -34l158 -158q14 -14 34 -14t34 14l260 262l260 -262q14 -14 34 -14t34 14l158 158q14 14 14 34
t-14 34z" />
    <glyph glyph-name="check-circle" unicode="CHECK&#x2d;CIRCLE" 
d="M2016 768q0 -202 -78.5 -385.5t-211.5 -316.5t-316.5 -211.5t-385.5 -78.5t-385.5 78.5t-316.5 211.5t-211.5 316.5t-78.5 385.5t78.5 385.5t211.5 316.5t316.5 211.5t385.5 78.5t385.5 -78.5t316.5 -211.5t211.5 -316.5t78.5 -385.5zM909 243l736 736q19 19 19 45
t-19 45l-90 91q-19 19 -45.5 19t-45.5 -19l-600 -600l-280 280q-19 19 -45.5 19t-45.5 -19l-90 -91q-19 -19 -19 -45t19 -45l416 -416q19 -19 45 -19t45 19z" />
    <glyph glyph-name="question-circle" unicode="QUESTION&#x2d;CIRCLE" 
d="M2016 768q0 -202 -78.5 -385.5t-211.5 -316.5t-316.5 -211.5t-385.5 -78.5t-385.5 78.5t-316.5 211.5t-211.5 316.5t-78.5 385.5t78.5 385.5t211.5 316.5t316.5 211.5t385.5 78.5t385.5 -78.5t316.5 -211.5t211.5 -316.5t78.5 -385.5zM1051 1432q-158 0 -270 -64
t-197 -191q-10 -16 -7 -35t18 -30l139 -105q16 -12 35.5 -10t31.5 18q41 53 68 79.5t68 45t93 18.5q67 0 125 -37.5t58 -93.5q0 -41 -30 -69t-100 -67q-32 -18 -43 -24.5t-40.5 -26t-43 -32t-35 -36.5t-31.5 -46t-18 -53t-8 -65v-16q0 -20 14 -34t34 -14h224q20 0 34 14
t14 34v5q0 23 18.5 43t47.5 38t64.5 37.5t71.5 47t65 61.5t47.5 85.5t18.5 114.5q0 84 -41.5 161t-107.5 130.5t-149.5 85t-167.5 31.5zM1024 440q-76 0 -130 -54t-54 -130t54 -130t130 -54t130 54t54 130t-54 130t-130 54z" />
    <glyph glyph-name="info-circle" unicode="Info&#x2d;Circle" 
d="M1024 1760q202 0 385.5 -78.5t316.5 -211.5t211.5 -316.5t78.5 -385.5t-78.5 -385.5t-211.5 -316.5t-316.5 -211.5t-385.5 -78.5t-385.5 78.5t-316.5 211.5t-211.5 316.5t-78.5 385.5t78.5 385.5t211.5 316.5t316.5 211.5t385.5 78.5zM1024 1320q-70 0 -119 -49t-49 -119
t49 -119t119 -49t119 49t49 119t-49 119t-119 49zM1248 304v96q0 20 -14 34t-34 14h-48v400q0 20 -14 34t-34 14h-256q-20 0 -34 -14t-14 -34v-96q0 -20 14 -34t34 -14h48v-256h-48q-20 0 -34 -14t-14 -34v-96q0 -20 14 -34t34 -14h352q20 0 34 14t14 34z" />
    <glyph glyph-name="crosshairs" unicode="CROSSHAIRS" 
d="M2000 896q20 0 34 -14t14 -34v-160q0 -20 -14 -34t-34 -14h-121q-42 -281 -244 -483t-483 -244v-121q0 -20 -14 -34t-34 -14h-160q-20 0 -34 14t-14 34v121q-281 42 -483 244t-244 483h-121q-20 0 -34 14t-14 34v160q0 20 14 34t34 14h121q42 281 244 483t483 244v121
q0 20 14 34t34 14h160q20 0 34 -14t14 -34v-121q281 -42 483 -244t244 -483h121zM1152 173q175 37 302.5 164.5t164.5 302.5h-163q-20 0 -34 14t-14 34v160q0 20 14 34t34 14h163q-37 175 -164.5 302.5t-302.5 164.5v-163q0 -20 -14 -34t-34 -14h-160q-20 0 -34 14t-14 34
v163q-175 -37 -302 -164.5t-165 -302.5h163q20 0 34 -14t14 -34v-160q0 -20 -14 -34t-34 -14h-163q38 -175 165 -302.5t302 -164.5v163q0 20 14 34t34 14h160q20 0 34 -14t14 -34v-163zM1152 768q0 -53 -37.5 -90.5t-90.5 -37.5t-90.5 37.5t-37.5 90.5t37.5 90.5t90.5 37.5
t90.5 -37.5t37.5 -90.5z" />
    <glyph glyph-name="ban" unicode="Ban" 
d="M1024 1760q202 0 385.5 -78.5t316.5 -211.5t211.5 -316.5t78.5 -385.5t-78.5 -385.5t-211.5 -316.5t-316.5 -211.5t-385.5 -78.5t-385.5 78.5t-316.5 211.5t-211.5 316.5t-78.5 385.5t78.5 385.5t211.5 316.5t316.5 211.5t385.5 78.5zM1544 1288q-128 128 -296 181
t-337 26.5t-309 -124.5l1025 -1025q98 140 124.5 309t-26.5 337t-181 296zM504 248q128 -128 296 -181t337 -26.5t309 124.5l-1025 1025q-98 -140 -124.5 -309t26.5 -337t181 -296z" />
    <glyph glyph-name="arrow-left" unicode="ARROW&#x2d;LEFT" horiz-adv-x="1792" 
d="M1030 12l-89 -89q-29 -29 -68 -29t-67 29l-778 777q-28 28 -28 68t28 68l778 777q28 29 67.5 29t67.5 -29l89 -89q28 -29 27.5 -69t-29.5 -68l-482 -459h1150q40 0 68 -28t28 -68v-128q0 -40 -28 -68t-68 -28h-1150l482 -459q29 -28 29.5 -68t-27.5 -69z" />
    <glyph glyph-name="arrow-right" unicode="ARROW&#x2d;RIGHT" horiz-adv-x="1792" 
d="M762 1524l89 89q29 29 68 29t67 -29l778 -777q28 -28 28 -68t-28 -68l-778 -777q-28 -29 -67.5 -29t-67.5 29l-89 89q-28 29 -27.5 69t29.5 68l482 459h-1150q-40 0 -68 28t-28 68v128q0 40 28 68t68 28h1150l-482 459q-29 28 -29.5 68t27.5 69z" />
    <glyph glyph-name="arrow-up" unicode="ARROW&#x2d;UP" horiz-adv-x="1792" 
d="M140 634l-89 89q-29 29 -29 68t29 67l777 778q28 28 68 28t68 -28l777 -777q29 -29 29 -68.5t-29 -67.5l-89 -89q-29 -28 -69 -27.5t-68 29.5l-459 482v-1150q0 -40 -28 -68t-68 -28h-128q-40 0 -68 28t-28 68v1150l-459 -482q-28 -29 -68 -29.5t-69 27.5z" />
    <glyph glyph-name="arrow-down" unicode="ARROW&#x2d;DOWN" horiz-adv-x="1792" 
d="M1652 902l89 -89q29 -29 29 -68t-29 -67l-777 -778q-28 -28 -68 -28t-68 28l-777 778q-29 28 -29 67.5t29 67.5l89 89q29 28 69 27.5t68 -29.5l459 -482v1150q0 40 28 68t68 28h128q40 0 68 -28t28 -68v-1150l459 482q28 29 68 29.5t69 -27.5z" />
    <glyph glyph-name="share" unicode="SHARE" 
d="M2015 1033q33 -28 33 -72.5t-33 -73.5l-704 -608q-33 -24 -68.5 -23t-63 28.5t-27.5 67.5v352q-161 -2 -281 -18t-217.5 -50t-155.5 -89.5t-86.5 -137t-19.5 -193t54 -255.5q15 -48 -28.5 -76.5t-84.5 1.5q-139 101 -236 271t-97 346q0 128 30.5 232.5t84.5 180.5
t136.5 133.5t176.5 94t215 60t242 33t267 11.5v320q0 40 27.5 67.5t63 28.5t68.5 -23z" />
    <glyph glyph-name="expand" unicode="EXPAND" horiz-adv-x="1792" 
d="M0 1072v496q0 40 28 68t68 28h496q20 0 34 -14t14 -34v-160q0 -20 -14 -34t-34 -14h-336v-336q0 -20 -14 -34t-34 -14h-160q-20 0 -34 14t-14 34zM1152 1616q0 20 14 34t34 14h496q40 0 68 -28t28 -68v-496q0 -20 -14 -34t-34 -14h-160q-20 0 -34 14t-14 34v336h-336
q-20 0 -34 14t-14 34v160zM1744 512q20 0 34 -14t14 -34v-496q0 -40 -28 -68t-68 -28h-496q-20 0 -34 14t-14 34v160q0 20 14 34t34 14h336v336q0 20 14 34t34 14h160zM640 -80q0 -20 -14 -34t-34 -14h-496q-40 0 -68 28t-28 68v496q0 20 14 34t34 14h160q20 0 34 -14
t14 -34v-336h336q20 0 34 -14t14 -34v-160z" />
    <glyph glyph-name="compress" unicode="COMPRESS" horiz-adv-x="1792" 
d="M1744 1024h-496q-40 0 -68 28t-28 68v496q0 20 14 34t34 14h160q20 0 34 -14t14 -34v-336h336q20 0 34 -14t14 -34v-160q0 -20 -14 -34t-34 -14zM640 1120q0 -40 -28 -68t-68 -28h-496q-20 0 -34 14t-14 34v160q0 20 14 34t34 14h336v336q0 20 14 34t34 14h160
q20 0 34 -14t14 -34v-496zM640 -80q0 -20 -14 -34t-34 -14h-160q-20 0 -34 14t-14 34v336h-336q-20 0 -34 14t-14 34v160q0 20 14 34t34 14h496q40 0 68 -28t28 -68v-496zM1408 -80q0 -20 -14 -34t-34 -14h-160q-20 0 -34 14t-14 34v496q0 40 28 68t68 28h496q20 0 34 -14
t14 -34v-160q0 -20 -14 -34t-34 -14h-336v-336z" />
    <glyph glyph-name="plus" unicode="Plus" horiz-adv-x="1792" 
d="M1664 960q53 0 90.5 -37.5t37.5 -90.5v-128q0 -53 -37.5 -90.5t-90.5 -37.5h-576v-576q0 -53 -37.5 -90.5t-90.5 -37.5h-128q-53 0 -90.5 37.5t-37.5 90.5v576h-576q-53 0 -90.5 37.5t-37.5 90.5v128q0 53 37.5 90.5t90.5 37.5h576v576q0 53 37.5 90.5t90.5 37.5h128
q53 0 90.5 -37.5t37.5 -90.5v-576h576z" />
    <glyph glyph-name="minus" unicode="Minus" horiz-adv-x="1792" 
d="M1664 960q53 0 90.5 -37.5t37.5 -90.5v-128q0 -53 -37.5 -90.5t-90.5 -37.5h-1536q-53 0 -90.5 37.5t-37.5 90.5v128q0 53 37.5 90.5t90.5 37.5h1536z" />
    <glyph glyph-name="asterisk" unicode="ASTERISK" 
d="M1913 456q35 -20 46 -59t-9 -74l-78 -134q-20 -35 -59 -45.5t-74 10.5l-555 337l14 -649q1 -41 -27.5 -69.5t-68.5 -28.5h-156q-40 0 -68.5 28.5t-27.5 69.5l14 649l-555 -337q-35 -21 -74 -10.5t-59 45.5l-78 134q-20 35 -9 74t46 59l569 312l-569 312q-35 20 -46 59
t9 74l78 134q20 35 59 45.5t74 -10.5l555 -337l-14 649q-1 41 27.5 69.5t68.5 28.5h156q40 0 68.5 -28.5t27.5 -69.5l-14 -649l555 337q35 21 74 10.5t59 -45.5l78 -134q20 -35 9 -74t-46 -59l-569 -312z" />
    <glyph glyph-name="exclamation-circle" unicode="EXCLAMATION&#x2d;CIRCLE" 
d="M2016 768q0 -202 -78.5 -385.5t-211.5 -316.5t-316.5 -211.5t-385.5 -78.5t-385.5 78.5t-316.5 211.5t-211.5 316.5t-78.5 385.5t78.5 385.5t211.5 316.5t316.5 211.5t385.5 78.5t385.5 -78.5t316.5 -211.5t211.5 -316.5t78.5 -385.5zM1024 568q-76 0 -130 -54t-54 -130
t54 -130t130 -54t130 54t54 130t-54 130t-130 54zM849 1229l30 -544q1 -19 15 -32t33 -13h194q19 0 33 13t15 32l30 544q2 20 -12.5 35.5t-35.5 15.5h-254q-21 0 -35.5 -15.5t-12.5 -35.5z" />
    <glyph glyph-name="gift" unicode="GIFT" 
d="M128 0v512h768v-640h-640q-53 0 -90.5 37.5t-37.5 90.5zM1152 -128v640h768v-512q0 -53 -37.5 -90.5t-90.5 -37.5h-640zM1920 1152q53 0 90.5 -37.5t37.5 -90.5v-320q0 -26 -19 -45t-45 -19h-1920q-26 0 -45 19t-19 45v320q0 53 37.5 90.5t90.5 37.5h176q-40 77 -40 160
q0 146 103 249t249 103q121 0 213 -63.5t199 -209.5q107 146 199 209.5t213 63.5q146 0 249 -103t103 -249q0 -83 -40 -160h168zM616 1152h344q-75 112 -128 179t-92.5 96.5t-63.5 37t-60 7.5q-66 0 -113 -47t-47 -113t47 -113t113 -47zM1440 1152q66 0 113 47t47 113
t-47 113t-113 47q-37 0 -61 -7.5t-63.5 -37.5t-92 -96.5t-127.5 -178.5h344z" />
    <glyph glyph-name="leaf" unicode="Leaf" horiz-adv-x="2304" 
d="M2185 1753q119 -266 119 -578q0 -256 -79.5 -487t-219 -404t-340 -282t-431.5 -126q-117 -12 -226.5 9t-197.5 67.5t-156.5 105t-119.5 127.5q-57 -48 -107.5 -102.5t-80 -94.5t-54.5 -81t-32.5 -56.5t-12.5 -27.5q-20 -49 -69 -69t-98 0t-69.5 68.5t-0.5 97.5
q23 56 61 120.5t107 148.5t155 162.5t210.5 155.5t266 134t330.5 92t396 35q26 0 45 19t19 45t-19 45t-45 19q-675 0 -1146 -338q-6 54 -6 82q0 209 103 385.5t279.5 279.5t385.5 103h320q189 0 347.5 93.5t252.5 256.5q20 35 58.5 33.5t54.5 -38.5z" />
    <glyph glyph-name="fire" unicode="FIRE" horiz-adv-x="1536" 
d="M864 1697q0 -66 23 -126.5t62 -111.5t89.5 -101t106 -101t111 -106t106 -121.5t89.5 -140.5t62 -171t23 -206q0 -156 -61 -298t-164 -245t-245 -164t-298 -61t-298 61t-245 164t-164 245t-61 298q0 163 63 303.5t155 236.5q33 29 70 30.5t66.5 -26.5t29.5 -70v-342
q0 -106 74 -182.5t179 -77.5q107 -1 183 74t76 182q0 55 -23.5 106.5t-60 92.5t-81 83.5t-85.5 86.5t-75.5 95t-49 114.5t-7.5 138.5t50 175t123 217q26 38 69 43t75.5 -22t32.5 -73z" />
    <glyph glyph-name="eye" unicode="EYE" horiz-adv-x="2304" 
d="M2290 826q14 -26 14 -58t-14 -58q-165 -322 -470 -516t-668 -194t-668 194t-470 516q-14 26 -14 58t14 58q165 322 470 516t668 194t668 -194t470 -516zM1152 192q117 0 223.5 45.5t184 123t123 184t45.5 223.5t-45.5 223.5t-123 184t-184 123t-223.5 45.5t-223.5 -45.5
t-184 -123t-123 -184t-45.5 -223.5t45.5 -223.5t123 -184t184 -123t223.5 -45.5zM1152 1152h1q158 0 270.5 -112.5t112.5 -270.5t-112.5 -270.5t-270.5 -112.5t-270.5 112.5t-112.5 270.5q0 50 13 100q21 -16 54 -26.5t60 -10.5q79 0 135 56t56 135q0 27 -10.5 60t-26.5 54
q51 15 101 15z" />
    <glyph glyph-name="eye-slash" unicode="EYE&#x2d;SLASH" horiz-adv-x="2560" 
d="M1280 192q48 0 104 10l208 -160q-162 -42 -312 -42q-363 0 -668 194t-470 516q-14 26 -14 58t14 58q55 108 147 223l419 -325q17 -224 181.5 -378t390.5 -154zM2535 -40q25 -20 25 -51q0 -20 -13 -39l-79 -101q-20 -25 -51 -25q-20 0 -39 13l-2353 1819q-25 20 -25 51
q0 20 13 39l79 101q20 25 51 25q20 0 39 -13l509 -394q114 62 286.5 106.5t302.5 44.5q363 0 668 -194t470 -516q14 -26 14 -58t-14 -58q-50 -98 -145.5 -217.5t-179.5 -191.5zM1800 528q56 120 56 240q0 117 -45.5 223.5t-123 184t-184 123t-223.5 45.5q-86 0 -193 -38.5
t-172 -93.5l295 -228q6 22 6 40q0 26 -11 59t-26 54q54 15 106 15q157 0 268 -111t111 -268v-5q0 -58 -21 -119z" />
    <glyph glyph-name="exclamation-triangle" unicode="EXCLAMATION&#x2d;TRIANGLE" horiz-adv-x="2304" 
d="M2278 32q29 -48 26 -99t-26 -93t-67.5 -69t-98.5 -27h-1920q-54 0 -99 27t-67.5 69t-25.5 93t26 99l960 1664q36 62 101 85t130 0t101 -85zM1152 376q-76 0 -130 -54t-54 -130t54 -130t130 -54t130 54t54 130t-54 130t-130 54zM977 1037l30 -544q1 -19 15 -32t33 -13h194
q19 0 33 13t15 32l30 544q2 20 -12.5 35.5t-35.5 15.5h-254q-21 0 -35.5 -15.5t-12.5 -35.5z" />
    <glyph glyph-name="plane" unicode="PLANE" horiz-adv-x="2304" 
d="M1920 1024q73 0 161.5 -33.5t155.5 -95t67 -127.5t-67 -127.5t-155.5 -95t-161.5 -33.5h-457l-421 -736q-18 -32 -55 -32h-262q-32 0 -51.5 25.5t-10.5 56.5l196 686h-411l-173 -230q-20 -26 -51 -26h-160q-31 0 -50.5 25t-11.5 55l126 432l-126 432q-8 30 11.5 55
t50.5 25h160q31 0 51 -26l173 -230h411l-196 686q-9 31 10.5 56.5t51.5 25.5h262q16 0 31.5 -9t23.5 -23l421 -736h457z" />
    <glyph glyph-name="calendar-alt" unicode="CALENDAR&#x2d;ALT" horiz-adv-x="1792" 
d="M0 -64v1088h1792v-1088q0 -80 -56 -136t-136 -56h-1408q-80 0 -136 56t-56 136zM1280 720v-160q0 -20 14 -34t34 -14h160q20 0 34 14t14 34v160q0 20 -14 34t-34 14h-160q-20 0 -34 -14t-14 -34zM1280 208v-160q0 -20 14 -34t34 -14h160q20 0 34 14t14 34v160
q0 20 -14 34t-34 14h-160q-20 0 -34 -14t-14 -34zM768 720v-160q0 -20 14 -34t34 -14h160q20 0 34 14t14 34v160q0 20 -14 34t-34 14h-160q-20 0 -34 -14t-14 -34zM768 208v-160q0 -20 14 -34t34 -14h160q20 0 34 14t14 34v160q0 20 -14 34t-34 14h-160q-20 0 -34 -14
t-14 -34zM256 720v-160q0 -20 14 -34t34 -14h160q20 0 34 14t14 34v160q0 20 -14 34t-34 14h-160q-20 0 -34 -14t-14 -34zM256 208v-160q0 -20 14 -34t34 -14h160q20 0 34 14t14 34v160q0 20 -14 34t-34 14h-160q-20 0 -34 -14t-14 -34zM1600 1536q80 0 136 -56t56 -136
v-192h-1792v192q0 80 56 136t136 56h192v192q0 26 19 45t45 19h128q26 0 45 -19t19 -45v-192h512v192q0 26 19 45t45 19h128q26 0 45 -19t19 -45v-192h192z" />
    <glyph glyph-name="random" unicode="RANDOM" 
d="M2020 356q28 -28 28 -68t-28 -68l-320 -320q-45 -45 -104.5 -20.5t-59.5 88.5v160h-235q-20 0 -35 15l-282 303l213 228l211 -226h128v160q0 64 59.5 88.5t104.5 -20.5zM48 1088q-20 0 -34 14t-14 34v224q0 20 14 34t34 14h443q20 0 35 -15l282 -303l-213 -228l-211 226
h-336zM1536 1088h-128l-882 -945q-14 -15 -35 -15h-443q-20 0 -34 14t-14 34v224q0 20 14 34t34 14h336l882 945q15 15 35 15h235v160q0 64 59.5 88.5t104.5 -20.5l320 -320q28 -28 28 -68t-28 -68l-320 -320q-45 -45 -104.5 -20.5t-59.5 88.5v160z" />
    <glyph glyph-name="comment" unicode="COMMENT" 
d="M1024 1664q209 0 398.5 -66t326.5 -177t218 -265.5t81 -323.5t-81 -323.5t-218 -265.5t-326.5 -177t-398.5 -66q-221 0 -430 78q-259 -206 -562 -206q-21 0 -29 19q-9 20 6 35q5 5 19 21.5t44 56.5t58 83.5t56 104t42 117.5q-109 110 -168.5 243.5t-59.5 279.5
q0 169 81 323.5t218 265.5t326.5 177t398.5 66z" />
    <glyph glyph-name="magnet" unicode="MAGNET" 
d="M656 1200h-608q-20 0 -34 14t-14 34v320q0 59 42.5 101.5t101.5 42.5h416q59 0 101.5 -42.5t42.5 -101.5v-320v-1q0 -19 -14 -33t-34 -14zM2048 1248q0 -20 -14 -34t-34 -14h-608q-20 0 -34 14t-14 34v320q0 59 42.5 101.5t101.5 42.5h416q59 0 101.5 -42.5t42.5 -101.5
v-320zM1392 1072h607q19 0 33.5 -14t14.5 -34v-1q-2 -162 0 -213q0 -147 -42 -282t-115 -242t-172 -195t-212.5 -146t-236 -89.5t-242.5 -31.5q-145 0 -291.5 44t-278.5 130.5t-234 203.5t-162.5 275t-60.5 333v213v1q0 20 14 34t34 14h608q20 0 34 -14t14 -34v-208
q0 -93 27.5 -167.5t72.5 -121t102.5 -71t117.5 -24.5t117.5 24.5t102.5 71t72.5 121t27.5 167.5v208q0 20 14 34t34 14z" />
    <glyph glyph-name="chevron-up" unicode="CHEVRON&#x2d;UP" horiz-adv-x="1792" 
d="M964 1270l777 -777q28 -28 28 -68t-28 -68l-90 -91q-28 -28 -67.5 -28t-68.5 28l-619 616l-619 -616q-29 -28 -68.5 -28t-67.5 28l-90 91q-28 28 -28 68t28 68l777 777q28 28 68 28t68 -28z" />
    <glyph glyph-name="chevron-down" unicode="CHEVRON&#x2d;DOWN" horiz-adv-x="1792" 
d="M828 266l-777 777q-28 28 -28 68t28 68l90 91q28 28 68 28t68 -28l619 -616l619 616q29 28 68.5 28t67.5 -28l90 -91q28 -28 28 -68t-28 -68l-777 -777q-28 -28 -68 -28t-68 28z" />
    <glyph glyph-name="retweet" unicode="RETWEET" horiz-adv-x="2560" 
d="M2519 418l-403 -403q-28 -28 -68 -28t-68 28l-403 403q-28 28 -28 67.5t28 67.5l44 44q29 28 69 27.5t68 -29.5l162 -171v728h-750q-40 0 -68 28l-64 64q-45 45 -20.5 104.5t88.5 59.5h974q40 0 68 -28t28 -68v-888l162 171q28 29 68 29.5t69 -27.5l44 -44
q28 -28 28 -67.5t-28 -67.5zM1458 356l64 -64q45 -45 20.5 -104.5t-88.5 -59.5h-974q-40 0 -68 28t-28 68v888l-162 -171q-28 -29 -68 -29.5t-69 27.5l-44 44q-28 28 -28 67.5t28 67.5l403 403q28 28 68 28t68 -28l403 -403q28 -28 28 -67.5t-28 -67.5l-44 -44
q-29 -28 -69 -27.5t-68 29.5l-162 171v-728h750q40 0 68 -28z" />
    <glyph glyph-name="shopping-cart" unicode="SHOPPING&#x2d;CART" horiz-adv-x="2304" 
d="M2112 587q-8 -33 -33.5 -54t-59.5 -21h-1173l26 -128h1074q47 0 75.5 -36t18.5 -81l-22 -97q57 -27 91.5 -81.5t34.5 -120.5q0 -93 -65.5 -158.5t-158.5 -65.5t-158.5 65.5t-65.5 158.5q0 95 67 160h-838q67 -65 67 -160q0 -93 -65.5 -158.5t-158.5 -65.5t-158.5 65.5
t-65.5 158.5q0 61 31 112.5t82 81.5l-281 1374h-280q-40 0 -68 28t-28 68v64q0 40 28 68t68 28h410q34 0 60.5 -21.5t33.5 -55.5l37 -179h1571q47 0 75.5 -36t18.5 -81z" />
    <glyph glyph-name="folder" unicode="FOLDER" 
d="M1856 1280q80 0 136 -56t56 -136v-896q0 -80 -56 -136t-136 -56h-1664q-80 0 -136 56t-56 136v1152q0 80 56 136t136 56h640l256 -256h768z" />
    <glyph glyph-name="folder-open" unicode="FOLDER&#x2d;OPEN" horiz-adv-x="2304" 
d="M2291 624l-290 -497q-31 -53 -95.5 -90t-125.5 -37h-1600q-55 0 -83 48t0 96l290 497q31 53 95.5 90t125.5 37h1600q55 0 83 -48t0 -96zM608 896q-102 0 -191 -51.5t-141 -139.5l-276 -473v1112q0 80 56 136t136 56h640l256 -256h640q80 0 136 -56t56 -136v-192h-1312z
" />
    <glyph glyph-name="arrows-v" unicode="ARROWS&#x2d;V" horiz-adv-x="1024" 
d="M640 167l175 185q28 29 68.5 29.5t69.5 -27.5l43 -43q28 -28 28 -68t-28 -68l-393 -394q-37 -37 -91 -37t-91 37l-393 394q-28 28 -28 68t28 68l43 43q29 28 69.5 27.5t68.5 -29.5l175 -185v1202l-175 -185q-28 -29 -68.5 -29.5t-69.5 27.5l-43 43q-28 28 -28 68t28 68
l393 394q37 37 91 37t91 -37l393 -394q28 -28 28 -68t-28 -68l-43 -43q-29 -28 -69.5 -27.5t-68.5 29.5l-175 185v-1202z" />
    <glyph glyph-name="arrows-h" unicode="ARROWS&#x2d;H" 
d="M423 640l185 -175q29 -28 29.5 -68.5t-27.5 -69.5l-43 -43q-28 -28 -68 -28t-68 28l-394 393q-37 37 -37 91t37 91l394 393q28 28 68 28t68 -28l43 -43q28 -29 27.5 -69.5t-29.5 -68.5l-185 -175h1202l-185 175q-29 28 -29.5 68.5t27.5 69.5l43 43q28 28 68 28t68 -28
l394 -393q37 -37 37 -91t-37 -91l-394 -393q-28 -28 -68 -28t-68 28l-43 43q-28 29 -27.5 69.5t29.5 68.5l185 175h-1202z" />
    <glyph glyph-name="chart-bar" unicode="CHART&#x2d;BAR" 
d="M1331 512q-19 0 -35 16t-16 35v538q0 19 16 35t35 16h154q19 0 35 -16t16 -35v-538q0 -19 -16 -35t-35 -16h-154zM1715 512q-19 0 -35 16t-16 35v922q0 19 16 35t35 16h154q19 0 35 -16t16 -35v-922q0 -19 -16 -35t-35 -16h-154zM563 512q-19 0 -35 16t-16 35v282
q0 19 16 35t35 16h154q19 0 35 -16t16 -35v-282q0 -19 -16 -35t-35 -16h-154zM947 512q-19 0 -35 16t-16 35v794q0 19 16 35t35 16h154q19 0 35 -16t16 -35v-794q0 -19 -16 -35t-35 -16h-154zM1984 256q26 0 45 -19t19 -45v-128q0 -26 -19 -45t-45 -19h-1856
q-53 0 -90.5 37.5t-37.5 90.5v1344q0 26 19 45t45 19h128q26 0 45 -19t19 -45v-1216h1728z" />
    <glyph glyph-name="camera-retro" unicode="CAMERA&#x2d;RETRO" 
d="M192 1664h1664q80 0 136 -56t56 -136v-1408q0 -80 -56 -136t-136 -56h-1664q-80 0 -136 56t-56 136v1408q0 80 56 136t136 56zM192 1536q-26 0 -45 -19t-19 -45v-40q0 -10 7 -17t17 -7h464q10 0 17 7t7 17v80q0 10 -7 17t-17 7h-424zM1896 1152q10 0 17 7t7 17v296
q0 26 -19 45t-45 19h-1011q-14 0 -20 -11l-121 -181h-552q-10 0 -17 -7t-7 -17v-144q0 -10 7 -17t17 -7h1744zM1024 96q130 0 240.5 64.5t175 175t64.5 240.5t-64.5 240.5t-175 175t-240.5 64.5t-240.5 -64.5t-175 -175t-64.5 -240.5t64.5 -240.5t175 -175t240.5 -64.5z
M1024 928q146 0 249 -103t103 -249t-103 -249t-249 -103t-249 103t-103 249t103 249t249 103zM832 512q26 0 45 19t19 45q0 52 38 90t90 38q26 0 45 19t19 45t-19 45t-45 19q-106 0 -181 -75t-75 -181q0 -26 19 -45t45 -19z" />
    <glyph glyph-name="key" unicode="Key" 
d="M2048 1088q0 -143 -55.5 -273.5t-150 -225t-225 -150t-273.5 -55.5q-66 0 -131 12l-96 -108q-12 -13 -33 -22.5t-39 -9.5h-149v-160q0 -40 -28 -68t-68 -28h-160v-160q0 -40 -28 -68t-68 -28h-448q-40 0 -68 28t-28 68v312q0 40 28 68l647 647q-35 105 -35 221
q0 143 55.5 273.5t150 225t225 150t273.5 55.5q144 0 274.5 -55.5t224.5 -149.5t149.5 -224.5t55.5 -274.5zM1344 1280q0 -80 56 -136t136 -56t136 56t56 136t-56 136t-136 56t-136 -56t-56 -136z" />
    <glyph glyph-name="cogs" unicode="COGS" horiz-adv-x="2560" 
d="M2048 1028l-32 -57q-9 -16 -26.5 -22t-34.5 0q-71 27 -128 75q-14 11 -17 28.5t6 33.5l32 58q-41 47 -63 109h-66q-18 0 -32 11.5t-17 29.5q-12 73 0 149q3 18 17 29.5t32 11.5h66q22 63 63 110l-32 57q-9 16 -6 34t17 29q54 46 128 74q17 6 34.5 0.5t26.5 -21.5l32 -57
q64 12 127 0l33 57q9 16 26 21.5t34 -0.5q75 -29 129 -74q14 -11 17 -29t-6 -34l-33 -57q43 -49 64 -110h66q18 0 32 -11.5t17 -29.5q12 -72 0 -148q-3 -18 -17 -30t-32 -12h-66q-21 -60 -64 -109l33 -58q9 -16 6 -33.5t-17 -28.5q-56 -47 -129 -75q-17 -6 -34 0t-26 22
l-33 57q-63 -12 -127 0zM2006 1263q37 -28 77 -35.5t73 3.5t58 36t36 57.5t3.5 72.5t-35.5 77q-37 29 -77 36.5t-73 -3.5t-58 -36t-36 -58t-3.5 -73t35.5 -77zM1545 648l135 -68q30 -17 42 -50t0 -66q-39 -106 -170 -263q-22 -27 -57 -32.5t-65 11.5l-116 67
q-99 -85 -220 -127v-134q0 -35 -22 -62t-56 -33q-153 -27 -304 0q-35 6 -57.5 33t-22.5 62v134q-124 44 -220 127l-116 -67q-30 -17 -64.5 -11.5t-56.5 32.5q-128 154 -169 263q-12 33 0 65.5t42 50.5l133 68q-24 126 0 253l-133 68q-30 17 -42 50t0 66q40 109 169 263
q22 27 56.5 32.5t64.5 -11.5l116 -67q99 85 220 127v135q0 35 22 61.5t56 32.5q149 26 304 0q35 -6 57.5 -32.5t22.5 -61.5v-135q124 -44 220 -127l116 68q30 17 65 11t57 -33q127 -152 168 -263q12 -33 1 -65.5t-41 -50.5l-135 -67q24 -127 0 -254zM1075 563q57 74 72 154
t-7 145.5t-72.5 116t-116 72.5t-145.5 7t-154 -72q-57 -74 -72 -154t7 -145.5t72.5 -116t116 -72.5t145.5 -7t154 72zM2048 -168l-32 -57q-9 -16 -26.5 -21.5t-34.5 0.5q-74 28 -128 74q-14 11 -17 29t6 34l32 57q-41 47 -63 110h-66q-18 0 -32 11.5t-17 29.5q-12 72 0 148
q3 18 17 30t32 12h66q22 62 63 109l-32 58q-9 16 -6 33.5t17 28.5q57 48 128 75q17 6 34.5 0t26.5 -22l32 -57q64 12 127 0l33 57q9 16 26 22t34 0q73 -28 129 -75q14 -11 17 -28.5t-6 -33.5l-33 -58q43 -49 64 -109h66q18 0 32 -11.5t17 -29.5q12 -73 0 -149
q-3 -18 -17 -29.5t-32 -11.5h-66q-22 -61 -64 -110l33 -57q9 -16 6 -34t-17 -29q-54 -45 -129 -74q-17 -6 -34 -0.5t-26 21.5l-33 57q-63 -12 -127 0zM2006 68q37 -28 77 -35.5t73 3.5t58 36t36 57.5t3.5 72.5t-35.5 77q-37 28 -77 35.5t-73 -3.5t-58 -36t-36 -57.5
t-3.5 -72.5t35.5 -77z" />
    <glyph glyph-name="comments" unicode="COMMENTS" horiz-adv-x="2304" 
d="M1664 1024q0 -130 -66 -248.5t-177 -204.5t-265.5 -136.5t-323.5 -50.5q-240 0 -445 100q-171 -100 -355 -100q-21 0 -29 19q-9 20 6 35q7 7 26 30t56 78.5t61 109.5q-152 165 -152 368q0 130 66 248.5t177 204.5t265.5 136.5t323.5 50.5t323.5 -50.5t265.5 -136.5
t177 -204.5t66 -248.5zM2152 144q24 -54 61 -109.5t56 -78.5t26 -30q14 -16 6 -35t-29 -19q-184 0 -355 100q-205 -100 -445 -100q-255 0 -463 108.5t-304 283.5q84 -8 127 -8q195 0 372.5 61t306.5 163.5t205 245t76 298.5q0 48 -5 80q231 -73 374 -233.5t143 -358.5
q0 -203 -152 -368z" />
    <glyph glyph-name="star-half" unicode="STAR&#x2d;HALF" horiz-adv-x="2304" 
d="M1152 1792v-1758l-523 -275q-49 -21 -93.5 -10t-72.5 53t-19 92l100 582l-423 412q-37 36 -39 85t28.5 87.5t81.5 45.5l584 85l261 530q17 35 48 53t67 18z" />
    <glyph glyph-name="sign-out" unicode="SIGN&#x2d;OUT" 
d="M720 0h-336q-159 0 -271.5 112.5t-112.5 271.5v768q0 159 112.5 271.5t271.5 112.5h336q20 0 34 -14t14 -34v-160q0 -20 -14 -34t-34 -14h-336q-53 0 -90.5 -37.5t-37.5 -90.5v-768q0 -53 37.5 -90.5t90.5 -37.5h336q20 0 34 -14t14 -34v-160q0 -20 -14 -34t-34 -14z
M1192 1212q-30 28 -31 69t28 70l87 87q28 28 68 28.5t68 -27.5l608 -603q28 -28 28 -68t-28 -68l-608 -603q-28 -28 -68 -28t-68 28l-88 88q-28 29 -27 70t31 69l310 284h-766q-40 0 -68 28t-28 68v128q0 40 28 68t68 28h766z" />
    <glyph glyph-name="thumbtack" unicode="THUMBTACK" horiz-adv-x="1536" 
d="M1192 935q153 -71 248.5 -189.5t95.5 -265.5q0 -40 -28 -68t-68 -28h-544v-416q0 -8 -3 -14l-96 -192q-9 -18 -29 -18t-29 18l-96 192q-3 6 -3 14v416h-544q-40 0 -68 28t-28 68q0 146 95 265t249 190l49 473h-169q-40 0 -68 28t-28 68v192q0 40 28 68t68 28h1088
q40 0 68 -28t28 -68v-192q0 -40 -28 -68t-68 -28h-169z" />
    <glyph glyph-name="external-link" unicode="EXTERNAL&#x2d;LINK" 
d="M1728 512q26 0 45 -19t19 -45v-512q0 -80 -56 -136t-136 -56h-1408q-80 0 -136 56t-56 136v1408q0 80 56 136t136 56h640q26 0 45 -19t19 -45v-128q0 -26 -19 -45t-45 -19h-576v-1280h1280v448q0 26 19 45t45 19h128zM1899 1792q61 0 105 -44t44 -105v-635q0 -46 -33 -79
t-79 -33h-72q-46 0 -79 33t-33 79v3l8 269l-988 -996q-28 -28 -68 -28q-16 0 -36.5 8.5t-31.5 19.5l-96 96q-28 28 -28 68q0 39 28 67v1l996 988l-269 -8h-3q-45 0 -77.5 32t-34.5 77v75q0 46 33 79t79 33h635z" />
    <glyph glyph-name="sign-in" unicode="SIGN&#x2d;IN" 
d="M549 1351l87 87q28 28 67.5 28.5t68.5 -27.5l608 -603q28 -28 28 -68t-28 -68l-608 -603q-28 -28 -68 -27.5t-68 28.5l-87 87q-29 29 -28 70t31 69l310 284h-766q-40 0 -68 28t-28 68v128q0 40 28 68t68 28h766l-310 285q-30 27 -31 68t28 70zM2048 384
q0 -159 -112.5 -271.5t-271.5 -112.5h-336q-20 0 -34 14t-14 34v160q0 20 14 34t34 14h336q53 0 90.5 37.5t37.5 90.5v768q0 53 -37.5 90.5t-90.5 37.5h-336q-20 0 -34 14t-14 34v160q0 20 14 34t34 14h336q159 0 271.5 -112.5t112.5 -271.5v-768z" />
    <glyph glyph-name="trophy" unicode="Trophy" horiz-adv-x="2304" 
d="M2208 1536q40 0 68 -28t28 -68v-224q0 -107 -65 -212.5t-183 -190.5q-193 -139 -440 -167q-56 -92 -124 -165.5t-108 -100.5l-40 -28v-288h192q109 0 182.5 -60.5t73.5 -163.5v-48q0 -20 -14 -34t-34 -14h-1184q-20 0 -34 14t-14 34v48q0 103 73.5 163.5t182.5 60.5h192
v288l-16.5 11t-42.5 33t-63 56.5t-73 83t-77 110.5q-247 28 -440 167q-118 85 -183 190.5t-65 212.5v224q0 40 28 68t68 28h416v160q0 40 28 68t68 28h1088q40 0 68 -28t28 -68v-160h416zM397 1021q74 -54 167 -86q-45 162 -51 345h-257v-64q0 -38 36 -92t105 -103z
M2048 1216v64h-257q-6 -183 -51 -345q93 32 167 86q58 42 99.5 96t41.5 99z" />
    <glyph glyph-name="upload" unicode="UPLOAD" 
d="M1184 256h-320q-40 0 -68 28t-28 68v672h-351q-53 0 -73.5 49t17.5 87l608 609q23 23 55 23t54 -23l609 -609q38 -38 17.5 -87t-73.5 -49h-351v-672q0 -40 -28 -68t-68 -28zM2048 288v-448q0 -40 -28 -68t-68 -28h-1856q-40 0 -68 28t-28 68v448q0 40 28 68t68 28h544
v-32q0 -93 65.5 -158.5t158.5 -65.5h320q93 0 158.5 65.5t65.5 158.5v32h544q40 0 68 -28t28 -68zM1552 -64q0 33 -23.5 56.5t-56.5 23.5t-56.5 -23.5t-23.5 -56.5t23.5 -56.5t56.5 -23.5t56.5 23.5t23.5 56.5zM1808 -64q0 33 -23.5 56.5t-56.5 23.5t-56.5 -23.5
t-23.5 -56.5t23.5 -56.5t56.5 -23.5t56.5 23.5t23.5 56.5z" />
    <glyph glyph-name="lemon" unicode="LEMON" 
d="M1956 1700q68 -68 86 -153.5t-19 -146.5q-27 -46 -32.5 -115t1 -146t14 -167t-1.5 -191.5t-38 -206.5t-102.5 -225t-187.5 -234t-234 -187.5t-224.5 -102t-206 -37.5t-191.5 -2t-167 14t-146 1.5t-115 -32.5q-61 -37 -146.5 -19t-153.5 86t-86 153.5t19 146.5
q27 46 32.5 115t-1.5 146t-14 167t2 191.5t37.5 206t102 224.5t187.5 234t234 187.5t225 102.5t206.5 38t191.5 1.5t167 -14t146 -1t115 32.5q61 37 146.5 19t153.5 -86zM976 1410q26 7 39.5 30t6.5 48q-7 26 -30 39.5t-48 6.5q-137 -34 -284 -144.5t-257.5 -257.5
t-144.5 -284q-7 -25 6.5 -48t39.5 -30q10 -2 16 -2q22 0 39.5 13t22.5 35q28 114 125.5 242.5t226 226t242.5 125.5z" />
    <glyph glyph-name="phone" unicode="Phone" 
d="M1974 1694q33 -7 53.5 -33.5t20.5 -60.5q0 -253 -67 -493.5t-186.5 -444t-291 -375t-375 -291t-444 -186t-492.5 -66.5q-34 0 -60 21t-34 53l-96 416q-8 34 8 65.5t48 45.5l448 192q29 13 60.5 5t51.5 -33l199 -242q234 110 417.5 294t291.5 415l-243 198
q-25 20 -32.5 51.5t5.5 60.5l192 448q14 32 45 47.5t65 8.5z" />
    <glyph glyph-name="phone-square" unicode="PHONE&#x2d;SQUARE" horiz-adv-x="1792" 
d="M1600 1664q80 0 136 -56t56 -136v-1408q0 -80 -56 -136t-136 -56h-1408q-80 0 -136 56t-56 136v1408q0 80 56 136t136 56h1408zM376 128q236 0 450.5 92t370 247t247.5 370t92 451q0 20 -14 37t-33 21l-260 60q-8 2 -13 2q-16 0 -32 -10.5t-23 -25.5l-120 -280
q-5 -10 -5 -24q0 -28 22 -46l152 -124q-68 -145 -183 -260t-261 -184l-124 152q-18 22 -46 22q-14 0 -24 -5l-280 -120q-15 -7 -25.5 -23t-10.5 -32q0 -5 2 -13l60 -260q5 -20 21 -33.5t37 -13.5z" />
    <glyph glyph-name="unlock" unicode="UNLOCK" horiz-adv-x="1792" 
d="M1600 768q80 0 136 -56t56 -136v-640q0 -80 -56 -136t-136 -56h-1408q-80 0 -136 56t-56 136v640q0 80 56 136t136 56h96v410q0 165 81 306.5t220.5 224.5t304.5 83t305.5 -81t222.5 -221.5t82 -305.5v-64q0 -40 -28 -68t-68 -28h-128q-40 0 -68 28t-28 68v64
q0 120 -85.5 204.5t-205.5 83.5q-118 -1 -201.5 -87t-83.5 -205v-412h992z" />
    <glyph glyph-name="credit-card" unicode="CREDIT&#x2d;CARD" horiz-adv-x="2304" 
d="M0 64v704h2304v-704q0 -80 -56 -136t-136 -56h-1920q-80 0 -136 56t-56 136zM768 336v-160q0 -20 14 -34t34 -14h544q20 0 34 14t14 34v160q0 20 -14 34t-34 14h-544q-20 0 -34 -14t-14 -34zM256 336v-160q0 -20 14 -34t34 -14h288q20 0 34 14t14 34v160q0 20 -14 34
t-34 14h-288q-20 0 -34 -14t-14 -34zM2304 1472v-192h-2304v192q0 80 56 136t136 56h1920q80 0 136 -56t56 -136z" />
    <glyph glyph-name="rss" unicode="RSS" horiz-adv-x="1792" 
d="M512 128q0 -106 -75 -181t-181 -75t-181 75t-75 181t75 181t181 75t181 -75t75 -181zM1215 -61q1 -28 -17.5 -47.5t-46.5 -19.5h-192q-26 0 -44.5 17.5t-19.5 42.5q-11 165 -80.5 315t-180 260t-260 179.5t-314.5 80.5q-25 1 -42.5 19.5t-17.5 44.5v192q0 28 19.5 46.5
t47.5 17.5q228 -12 435 -107t359.5 -247t247 -359t106.5 -435zM1792 -62q1 -27 -18 -46.5t-46 -19.5h-192q-26 0 -44.5 18t-19.5 44q-11 282 -126.5 538t-302.5 443t-443 302.5t-538 126.5q-25 1 -43.5 19.5t-18.5 44.5v192q0 27 19.5 46t46.5 18q232 -8 451.5 -75
t406.5 -179.5t344.5 -271t270 -345t179 -405.5t74.5 -450z" />
    <glyph glyph-name="hdd" unicode="HDD" horiz-adv-x="2304" 
d="M2304 576v-384q0 -80 -56 -136t-136 -56h-1920q-80 0 -136 56t-56 136v384q0 80 56 136t136 56h1920q80 0 136 -56t56 -136zM2112 896h-1920q-64 0 -123 -25l386 580q23 35 70 60t90 25h1074q43 0 90 -25t70 -60l386 -580q-59 25 -123 25zM1920 512q-53 0 -90.5 -37.5
t-37.5 -90.5t37.5 -90.5t90.5 -37.5t90.5 37.5t37.5 90.5t-37.5 90.5t-90.5 37.5zM1536 512q-53 0 -90.5 -37.5t-37.5 -90.5t37.5 -90.5t90.5 -37.5t90.5 37.5t37.5 90.5t-37.5 90.5t-90.5 37.5z" />
    <glyph glyph-name="bullhorn" unicode="BULLHORN" horiz-adv-x="2304" 
d="M2304 832q0 -70 -35 -128.5t-93 -92.5v-611q0 -23 -10 -50t-41 -52.5t-77 -25.5q-45 0 -80 28l-340 272q-128 103 -284 157.5t-320 54.5h-112q-18 -67 -18 -128q0 -173 105 -310q23 -30 24.5 -66.5t-13.5 -66t-46 -49.5t-69 -20h-297q-37 0 -67.5 18t-46.5 50
q-102 210 -102 444q0 65 9 128h-135q-106 0 -181 75t-75 181v384q0 106 75 181t181 75h768q164 0 320 54.5t284 157.5l340 272q34 28 80 28t77 -26t41 -53t10 -49v-612q58 -34 93 -92t35 -128zM1920 266v1132l-132 -106q-162 -130 -359.5 -199t-404.5 -69v-384
q207 0 404.5 -69t359.5 -199z" />
    <glyph glyph-name="certificate" unicode="Certificate" 
d="M1834 768l184 -180q41 -39 26.5 -93.5t-68.5 -67.5l-251 -64l71 -248q15 -53 -25.5 -93.5t-93.5 -25.5l-248 71l-64 -251q-13 -54 -68.5 -68.5t-92.5 26.5l-180 184l-180 -184q-25 -26 -59.5 -29.5t-63.5 16t-38 55.5l-64 251l-248 -71q-53 -15 -93.5 25.5t-25.5 93.5
l71 248l-251 64q-54 13 -68.5 67.5t26.5 93.5l184 180l-184 180q-41 39 -26.5 94t68.5 68l251 64l-71 248q-15 53 25.5 93t93.5 25l248 -70l64 250q13 54 68 68.5t93 -25.5l180 -185l180 185q25 26 60 29t64 -17.5t37 -54.5l64 -250l248 70q53 15 93.5 -25t25.5 -93
l-71 -248l251 -64q54 -13 68.5 -68t-26.5 -94z" />
    <glyph glyph-name="hand-point-right" unicode="HAND&#x2d;POINT&#x2d;RIGHT" 
d="M2048 993q0 -71 -53 -123t-126 -52h-400q33 -35 45 -84.5t-5.5 -104t-64.5 -95.5q39 -70 16 -145t-82 -104q26 -143 -52.5 -214t-237.5 -71q-6 0 -32 0.5t-32 0.5q-84 0 -155.5 20t-114.5 45t-104 52t-121 36q-35 5 -58 32.5t-23 62.5v686q0 55 30.5 103t83.5 72
q71 32 153.5 78t168.5 113t108 119q49 116 160 116q67 0 119 -41.5t66.5 -101t-9.5 -125.5q-20 -48 -56 -99h597q71 0 125 -53t54 -123zM384 992v-768q0 -40 -28 -68t-68 -28h-192q-40 0 -68 28t-28 68v768q0 40 28 68t68 28h192q40 0 68 -28t28 -68zM272 320
q0 33 -23.5 56.5t-56.5 23.5t-56.5 -23.5t-23.5 -56.5t23.5 -56.5t56.5 -23.5t56.5 23.5t23.5 56.5z" />
    <glyph glyph-name="hand-point-left" unicode="HAND&#x2d;POINT&#x2d;LEFT" 
d="M179 1169h597q-36 51 -56 99q-24 66 -9.5 125.5t66.5 101t119 41.5q111 0 160 -116q22 -52 108 -119t168.5 -113t153.5 -78q53 -24 83.5 -72t30.5 -103v-686q0 -35 -23 -62.5t-58 -32.5q-60 -9 -121 -36t-104 -52t-114.5 -45t-155.5 -20q-6 0 -32 -0.5t-32 -0.5
q-159 0 -237.5 71t-52.5 214q-59 29 -82 104t16 145q-47 41 -64.5 95.5t-5.5 104t45 84.5h-400q-73 0 -126 52t-53 123q0 70 54 123t125 53zM1760 1088h192q40 0 68 -28t28 -68v-768q0 -40 -28 -68t-68 -28h-192q-40 0 -68 28t-28 68v768q0 40 28 68t68 28zM1856 240
q33 0 56.5 23.5t23.5 56.5t-23.5 56.5t-56.5 23.5t-56.5 -23.5t-23.5 -56.5t23.5 -56.5t56.5 -23.5z" />
    <glyph glyph-name="hand-point-up" unicode="HAND&#x2d;POINT&#x2d;UP" horiz-adv-x="1536" 
d="M543 1792q71 0 123 -53t52 -126v-400q35 33 84.5 45t104 -5.5t95.5 -64.5q70 39 145 16t104 -82q143 26 214 -52.5t71 -237.5q0 -6 -0.5 -32t-0.5 -32q0 -84 -20 -155.5t-45 -114.5t-52 -104t-36 -121q-5 -35 -32.5 -58t-62.5 -23h-686q-55 0 -103 30.5t-72 83.5
q-32 71 -78 153.5t-113 168.5t-119 108q-116 49 -116 160q0 67 41.5 119t101 66.5t125.5 -9.5q48 -20 99 -56v597q0 71 53 125t123 54zM544 128h768q40 0 68 -28t28 -68v-192q0 -40 -28 -68t-68 -28h-768q-40 0 -68 28t-28 68v192q0 40 28 68t68 28zM1216 16
q-33 0 -56.5 -23.5t-23.5 -56.5t23.5 -56.5t56.5 -23.5t56.5 23.5t23.5 56.5t-23.5 56.5t-56.5 23.5z" />
    <glyph glyph-name="hand-point-down" unicode="HAND&#x2d;POINT&#x2d;DOWN" horiz-adv-x="1536" 
d="M367 -77v597q-51 -36 -99 -56q-66 -24 -125.5 -9.5t-101 66.5t-41.5 119q0 111 116 160q52 22 119 108t113 168.5t78 153.5q24 53 72 83.5t103 30.5h686q35 0 62.5 -23t32.5 -58q9 -60 36 -121t52 -104t45 -114.5t20 -155.5q0 -6 0.5 -32t0.5 -32q0 -159 -71 -237.5
t-214 -52.5q-29 -59 -104 -82t-145 16q-41 -47 -95.5 -64.5t-104 -5.5t-84.5 45v-400q0 -73 -52 -126t-123 -53q-70 0 -123 54t-53 125zM448 1504v192q0 40 28 68t68 28h768q40 0 68 -28t28 -68v-192q0 -40 -28 -68t-68 -28h-768q-40 0 -68 28t-28 68zM1296 1600
q0 33 -23.5 56.5t-56.5 23.5t-56.5 -23.5t-23.5 -56.5t23.5 -56.5t56.5 -23.5t56.5 23.5t23.5 56.5z" />
    <glyph glyph-name="arrow-circle-left" unicode="ARROW&#x2d;CIRCLE&#x2d;LEFT" 
d="M1024 -224q-202 0 -385.5 78.5t-316.5 211.5t-211.5 316.5t-78.5 385.5t78.5 385.5t211.5 316.5t316.5 211.5t385.5 78.5t385.5 -78.5t316.5 -211.5t211.5 -316.5t78.5 -385.5t-78.5 -385.5t-211.5 -316.5t-316.5 -211.5t-385.5 -78.5zM1140 350l-302 290h730q40 0 68 28
t28 68v64q0 40 -28 68t-68 28h-730l302 290q29 28 29.5 68.5t-28.5 68.5l-44 43q-29 28 -68 28t-67 -28l-531 -530q-29 -28 -29 -68t29 -68l531 -530q28 -28 67.5 -28t67.5 28l44 43q29 28 28.5 68.5t-29.5 68.5z" />
    <glyph glyph-name="arrow-circle-right" unicode="ARROW&#x2d;CIRCLE&#x2d;RIGHT" 
d="M1024 1760q202 0 385.5 -78.5t316.5 -211.5t211.5 -316.5t78.5 -385.5t-78.5 -385.5t-211.5 -316.5t-316.5 -211.5t-385.5 -78.5t-385.5 78.5t-316.5 211.5t-211.5 316.5t-78.5 385.5t78.5 385.5t211.5 316.5t316.5 211.5t385.5 78.5zM908 1186l302 -290h-730
q-40 0 -68 -28t-28 -68v-64q0 -40 28 -68t68 -28h730l-302 -290q-29 -28 -29.5 -68.5t28.5 -68.5l44 -43q29 -28 68 -28t67 28l531 530q29 28 29 68t-29 68l-531 531q-28 29 -67.5 29t-67.5 -29l-44 -44q-29 -28 -28.5 -68.5t29.5 -68.5z" />
    <glyph glyph-name="arrow-circle-up" unicode="ARROW&#x2d;CIRCLE&#x2d;UP" 
d="M32 768q0 202 78.5 385.5t211.5 316.5t316.5 211.5t385.5 78.5t385.5 -78.5t316.5 -211.5t211.5 -316.5t78.5 -385.5t-78.5 -385.5t-211.5 -316.5t-316.5 -211.5t-385.5 -78.5t-385.5 78.5t-316.5 211.5t-211.5 316.5t-78.5 385.5zM606 652l290 302v-730q0 -40 28 -68
t68 -28h64q40 0 68 28t28 68v730l290 -302q28 -29 68.5 -29.5t68.5 28.5l43 44q28 29 28 68t-28 67l-530 531q-28 29 -68 29t-68 -29l-531 -531q-29 -28 -29 -67.5t29 -67.5l44 -44q28 -29 68.5 -28.5t68.5 29.5z" />
    <glyph glyph-name="arrow-circle-down" unicode="ARROW&#x2d;CIRCLE&#x2d;DOWN" 
d="M2016 768q0 -202 -78.5 -385.5t-211.5 -316.5t-316.5 -211.5t-385.5 -78.5t-385.5 78.5t-316.5 211.5t-211.5 316.5t-78.5 385.5t78.5 385.5t211.5 316.5t316.5 211.5t385.5 78.5t385.5 -78.5t316.5 -211.5t211.5 -316.5t78.5 -385.5zM1442 884l-290 -302v730
q0 40 -28 68t-68 28h-64q-40 0 -68 -28t-28 -68v-730l-290 302q-28 29 -68.5 29.5t-68.5 -28.5l-43 -44q-28 -29 -28 -68t28 -67l530 -531q28 -29 68 -29t68 29l530 531q28 28 28 67.5t-28 67.5l-43 44q-28 29 -68.5 28.5t-68.5 -29.5z" />
    <glyph glyph-name="globe" unicode="GLOBE" horiz-adv-x="1984" 
d="M1346 1152h-708q44 272 140 440t214 168t214 -168t140 -440zM608 768q0 123 13 256h741q14 -143 14 -256q0 -112 -14 -256h-741q-13 133 -13 256zM1907 1152h-432q-57 368 -200 566q214 -64 380 -213t252 -353zM709 1718q-143 -198 -200 -566h-432q86 204 252 353
t380 213zM1950 1024q34 -127 34 -256q0 -126 -35 -256h-458q13 137 13 256q0 120 -13 256h459zM480 768q0 -120 13 -256h-459q-34 127 -34 256t34 256h459q-13 -136 -13 -256zM638 384h708q-44 -272 -140 -440t-214 -168t-214 168t-140 440zM1275 -182q143 198 200 566h432
q-86 -204 -252 -353t-380 -213zM77 384h432q57 -368 200 -566q-214 64 -380 213t-252 353z" />
    <glyph glyph-name="wrench" unicode="WRENCH" 
d="M2031 1356q36 -145 -3.5 -291.5t-148.5 -255.5q-118 -118 -279.5 -153.5t-309.5 16.5l-853 -853q-75 -75 -181 -75t-181 75t-75 181t75 181l854 854q-52 148 -16.5 309.5t152.5 278.5q109 109 255 148.5t291 3.5q27 -7 35 -34.5t-12 -46.5l-298 -297l45 -272l272 -45
l297 298q19 20 46.5 12.5t34.5 -34.5zM256 -96q40 0 68 28t28 68t-28 68t-68 28t-68 -28t-28 -68t28 -68t68 -28z" />
    <glyph glyph-name="tasks" unicode="TASKS" 
d="M558 1650l68 -66q14 -14 14 -34t-14 -34l-289 -289l-62 -62q-14 -14 -35 -14q-22 0 -36 14l-190 189q-14 14 -14 34t14 34l63 63q14 14 34 14t34 -14l91 -88l254 253q14 14 34 14t34 -14zM558 1013l68 -68q14 -14 14 -33q0 -20 -14 -34l-289 -289l-63 -63
q-14 -14 -35 -14t-35 14l-190 190q-14 14 -14 34t14 34l63 63q14 14 34 14t34 -14l91 -89l254 255q14 14 34 14t34 -14zM256 320q80 0 136 -56t56 -136t-56 -136t-136 -56t-137 56.5t-57 135.5t57 135.5t137 56.5zM1984 256q26 0 45 -19t19 -45v-128q0 -26 -19 -45t-45 -19
h-1152q-26 0 -45 19t-19 45v128q0 26 19 45t45 19h1152zM1984 1536q26 0 45 -19t19 -45v-128q0 -26 -19 -45t-45 -19h-1152q-26 0 -45 19t-19 45v128q0 26 19 45t45 19h1152zM1984 896q26 0 45 -19t19 -45v-128q0 -26 -19 -45t-45 -19h-1152q-26 0 -45 19t-19 45v128
q0 26 19 45t45 19h1152z" />
    <glyph glyph-name="filter" unicode="FILTER" 
d="M1952 1792q31 0 54.5 -17.5t34 -42t6 -53.5t-26.5 -51l-740 -740v-1048q0 -58 -52 -85t-99 6l-320 224q-41 28 -41 79v824l-740 740q-22 22 -26.5 51t6 53.5t34 42t54.5 17.5h1856z" />
    <glyph glyph-name="briefcase" unicode="BRIEFCASE" 
d="M1280 448v192h768v-576q0 -76 -58 -134t-134 -58h-1664q-76 0 -134 58t-58 134v576h768v-192q0 -26 19 -45t45 -19h384q26 0 45 19t19 45zM1856 1280q76 0 134 -58t58 -134v-320h-2048v320q0 76 58 134t134 58h320v192q0 76 58 134t134 58h640q76 0 134 -58t58 -134v-192
h320zM1280 1280v128h-512v-128h512z" />
    <glyph glyph-name="arrows-alt" unicode="ARROWS&#x2d;ALT" 
d="M1409 89l-317 -317q-28 -28 -68 -28t-68 28l-317 317q-45 45 -20.5 104.5t88.5 59.5h205v403h-403v-205q0 -64 -59.5 -88.5t-104.5 20.5l-317 317q-28 28 -28 68t28 68l317 317q45 45 104.5 20.5t59.5 -88.5v-205h403v403h-205q-64 0 -88.5 59.5t20.5 104.5l317 317
q28 28 68 28t68 -28l317 -317q45 -45 20.5 -104.5t-88.5 -59.5h-205v-403h403v205q0 64 59.5 88.5t104.5 -20.5l317 -317q28 -28 28 -68t-28 -68l-317 -317q-45 -45 -104.5 -20.5t-59.5 88.5v205h-403v-403h205q64 0 88.5 -59.5t-20.5 -104.5z" />
    <glyph glyph-name="users" unicode="USERS" horiz-adv-x="2560" 
d="M384 896q-106 0 -181 75t-75 181t75 181t181 75t181 -75t75 -181t-75 -181t-181 -75zM2176 896q-106 0 -181 75t-75 181t75 181t181 75t181 -75t75 -181t-75 -181t-181 -75zM2304 768q106 0 181 -75t75 -181v-128q0 -53 -37.5 -90.5t-90.5 -37.5h-264q-19 141 -98.5 256
t-201.5 182q74 74 180 74h256zM1280 768q-186 0 -317 131t-131 317t131 317t317 131t317 -131t131 -317t-131 -317t-317 -131zM1587 640q125 0 231 -62t168 -168t62 -231v-115q0 -80 -56 -136t-136 -56h-1152q-80 0 -136 56t-56 136v115q0 125 62 231t168 168t231 62h33
q134 -64 274 -64q141 0 274 64h33zM692 694q-122 -67 -201.5 -182t-98.5 -256h-264q-53 0 -90.5 37.5t-37.5 90.5v128q0 106 75 181t181 75h256q106 0 180 -74z" />
    <glyph glyph-name="link" unicode="Link" 
d="M1306 1050q117 -117 158.5 -274t0 -312.5t-156.5 -271.5l-2 -1l-268 -269q-117 -117 -273.5 -158t-313 0t-273.5 158t-158 273.5t0 313t158 273.5l148 148q29 29 68.5 14.5t40.5 -56.5q5 -108 39 -211q13 -39 -15 -67l-52 -52q-84 -84 -86 -203.5t81 -204.5
q84 -86 204 -86.5t205 84.5l269 269q85 85 84.5 204t-84.5 203q-20 20 -41 34q-26 17 -28 51q-3 69 47 119l84 84q17 17 39.5 18.5t42.5 -11.5q45 -32 82 -69zM1870 1614q117 -117 158 -273.5t0 -313t-158 -273.5l-148 -148q-29 -29 -68.5 -14.5t-40.5 56.5q-5 108 -39 211
q-13 39 15 67l52 52q84 84 86 203.5t-81 204.5q-84 86 -204 86.5t-205 -84.5l-269 -269q-85 -85 -84.5 -204t84.5 -203q20 -20 41 -34q26 -17 28 -51q3 -69 -47 -119l-84 -84q-17 -17 -39.5 -18.5t-42.5 11.5q-45 32 -82 69q-117 117 -158.5 274t0 312.5t156.5 271.5l2 1
l268 269q117 117 273.5 158t313 0t273.5 -158z" />
    <glyph glyph-name="cloud" unicode="CLOUD" horiz-adv-x="2560" 
d="M2150 886q177 -36 293.5 -176.5t116.5 -325.5q0 -212 -150 -362t-362 -150h-1472q-117 0 -223.5 45.5t-184 123t-123 184t-45.5 223.5q0 186 107.5 335t277.5 209q0 6 -0.5 16t-0.5 16q0 130 50.5 248.5t136.5 204.5t204.5 136.5t248.5 50.5q175 0 322.5 -87t232.5 -234
q97 65 213 65q159 0 271.5 -112.5t112.5 -271.5q0 -68 -26 -138z" />
    <glyph glyph-name="flask" unicode="FLASK" horiz-adv-x="1792" 
d="M1749 178q43 -68 42.5 -146.5t-35 -141.5t-101 -104.5t-147.5 -41.5h-1224q-81 0 -147.5 41.5t-101 104.5t-35 141.5t42.5 146.5l469 754v604h-32q-40 0 -68 28t-28 68v64q0 40 28 68t68 28h832q40 0 68 -28t28 -68v-64q0 -40 -28 -68t-68 -28h-32v-604zM552 512h688
l-193 310q-23 34 -23 74v640h-256v-640q0 -40 -24 -74z" />
    <glyph glyph-name="cut" unicode="Cut" horiz-adv-x="1792" 
d="M1112 768l666 -666q14 -14 14 -34t-14 -34q-98 -98 -237.5 -98t-237.5 98l-462 462l-100 -99q27 -70 27 -141q0 -159 -112.5 -271.5t-271.5 -112.5t-271.5 112.5t-112.5 271.5t112.5 271.5t271.5 112.5q19 0 53 -4l132 132l-132 132q-34 -4 -53 -4q-159 0 -271.5 112.5
t-112.5 271.5t112.5 271.5t271.5 112.5t271.5 -112.5t112.5 -271.5q0 -71 -27 -141l100 -99l462 462q98 98 237.5 98t237.5 -98q14 -14 14 -34t-14 -34zM384 1152q53 0 90.5 37.5t37.5 90.5t-37.5 90.5t-90.5 37.5t-90.5 -37.5t-37.5 -90.5t37.5 -90.5t90.5 -37.5zM384 128
q53 0 90.5 37.5t37.5 90.5t-37.5 90.5t-90.5 37.5t-90.5 -37.5t-37.5 -90.5t37.5 -90.5t90.5 -37.5z" />
    <glyph glyph-name="copy" unicode="Copy" horiz-adv-x="1792" 
d="M1280 0v-160q0 -40 -28 -68t-68 -28h-1088q-40 0 -68 28t-28 68v1472q0 40 28 68t68 28h288v-1184q0 -93 65.5 -158.5t158.5 -65.5h672zM1280 1376q0 -40 28 -68t68 -28h416v-1056q0 -40 -28 -68t-68 -28h-1088q-40 0 -68 28t-28 68v1472q0 40 28 68t68 28h672v-416z
M1764 1500q28 -28 28 -68v-24h-384v384h24q40 0 68 -28z" />
    <glyph glyph-name="paperclip" unicode="PAPERCLIP" horiz-adv-x="1792" 
d="M173 -73q-115 118 -154.5 277t2.5 317.5t158 276.5l839 858q87 89 204 120.5t234 0t204 -120.5q132 -135 132 -324.5t-132 -324.5l-731 -748q-89 -91 -216.5 -90t-215.5 94q-85 90 -82.5 214.5t88.5 213.5l575 588q19 19 45 19.5t45 -18.5l92 -90q19 -19 19.5 -45
t-18.5 -45l-575 -588q-15 -15 -16 -37t13 -36q13 -14 31.5 -14.5t31.5 13.5l731 748q59 60 59 145.5t-59 145.5q-58 59 -138 59t-138 -59l-839 -858q-104 -106 -105.5 -256.5t100.5 -256.5q102 -105 246 -105.5t246 103.5l688 704q19 19 45.5 19.5t45.5 -18.5l91 -89
q19 -19 19.5 -45.5t-18.5 -45.5l-688 -704q-117 -120 -274 -162t-313 1t-272 163z" />
    <glyph glyph-name="save" unicode="SAVE" horiz-adv-x="1792" 
d="M1736 1272q23 -23 39.5 -63t16.5 -73v-1072q0 -80 -56 -136t-136 -56h-1408q-80 0 -136 56t-56 136v1408q0 80 56 136t136 56h1072q33 0 73 -16.5t63 -39.5zM896 128q106 0 181 75t75 181t-75 181t-181 75t-181 -75t-75 -181t75 -181t181 -75zM1280 1346q0 20 -14 34
l-14 14q-14 14 -34 14h-914q-20 0 -34 -14t-14 -34v-416q0 -20 14 -34t34 -14h928q20 0 34 14t14 34v402z" />
    <glyph glyph-name="square" unicode="SQUARE" horiz-adv-x="1792" 
d="M1600 1664q80 0 136 -56t56 -136v-1408q0 -80 -56 -136t-136 -56h-1408q-80 0 -136 56t-56 136v1408q0 80 56 136t136 56h1408z" />
    <glyph glyph-name="bars" unicode="BARS" horiz-adv-x="1792" 
d="M64 1264q-26 0 -45 19t-19 45v160q0 26 19 45t45 19h1664q26 0 45 -19t19 -45v-160q0 -26 -19 -45t-45 -19h-1664zM64 624q-26 0 -45 19t-19 45v160q0 26 19 45t45 19h1664q26 0 45 -19t19 -45v-160q0 -26 -19 -45t-45 -19h-1664zM64 -16q-26 0 -45 19t-19 45v160
q0 26 19 45t45 19h1664q26 0 45 -19t19 -45v-160q0 -26 -19 -45t-45 -19h-1664z" />
    <glyph glyph-name="list-ul" unicode="LIST&#x2d;UL" 
d="M192 1600q80 0 136 -56t56 -136t-56 -136t-136 -56t-136 56t-56 136t56 136t136 56zM192 960q80 0 136 -56t56 -136t-56 -136t-136 -56t-136 56t-56 136t56 136t136 56zM192 320q80 0 136 -56t56 -136t-56 -136t-136 -56t-136 56t-56 136t56 136t136 56zM1984 256
q26 0 45 -19t19 -45v-128q0 -26 -19 -45t-45 -19h-1280q-26 0 -45 19t-19 45v128q0 26 19 45t45 19h1280zM1984 1536q26 0 45 -19t19 -45v-128q0 -26 -19 -45t-45 -19h-1280q-26 0 -45 19t-19 45v128q0 26 19 45t45 19h1280zM1984 896q26 0 45 -19t19 -45v-128
q0 -26 -19 -45t-45 -19h-1280q-26 0 -45 19t-19 45v128q0 26 19 45t45 19h1280z" />
    <glyph glyph-name="list-ol" unicode="LIST&#x2d;OL" 
d="M247 188q56 -14 85.5 -53.5t29.5 -86.5q0 -71 -49 -123.5t-145 -52.5q-86 0 -148 38q-34 25 -11 64l23 37q21 37 62 12q27 -12 62 -12q58 0 58 33q0 36 -64 36h-19q-32 0 -49 32l-4 7q-15 28 11 60l22 28q18 23 44 49h-91q-14 0 -23 9t-9 23v64q0 14 9 23t23 9h228
q45 0 45 -45v-14v-3q0 -29 -20 -53zM1984 896q26 0 45 -19t19 -45v-128q0 -26 -19 -45t-45 -19h-1280q-26 0 -45 19t-19 45v128q0 26 19 45t45 19h1280zM1984 1536q26 0 45 -19t19 -45v-128q0 -26 -19 -45t-45 -19h-1280q-26 0 -45 19t-19 45v128q0 26 19 45t45 19h1280z
M1984 256q26 0 45 -19t19 -45v-128q0 -26 -19 -45t-45 -19h-1280q-26 0 -45 19t-19 45v128q0 26 19 45t45 19h1280zM64 1152q-14 0 -23 9t-9 23v64q0 14 9 23t23 9h64v256h-32q-14 0 -23 9t-9 23q0 8 3 14l32 64q9 18 29 18h96q14 0 23 -9t9 -23v-352h64q14 0 23 -9t9 -23
v-64q0 -14 -9 -23t-23 -9h-256zM48 512q-22 0 -35 12t-13 34v16q0 53 21 96t51 69t60 45.5t51 36t21 29.5q0 35 -37 35q-21 0 -38 -15q-35 -35 -65 -10l-34 28q-36 28 -11 61q58 75 162 75q43 0 81.5 -14.5t67.5 -52t29 -91.5q0 -52 -28.5 -93t-63.5 -61.5t-66.5 -40
t-35.5 -31.5h155q14 0 23 -9t9 -23v-64q0 -14 -9 -23t-23 -9h-272z" />
    <glyph glyph-name="strikethrough" unicode="STRIKETHROUGH" 
d="M1984 896q26 0 45 -19t19 -45v-128q0 -26 -19 -45t-45 -19h-1920q-26 0 -45 19t-19 45v128q0 26 19 45t45 19h409q-76 106 -87 225q-2 26 -2 48q0 134 66 248t180 180.5t248 66.5h272q131 0 265 -83t193 -200l2 -4q7 -12 7 -29t-10 -33.5t-25 -23.5l-172 -86
q-12 -7 -29 -7q-16 0 -32.5 10.5t-24.5 25.5q-22 46 -74.5 78t-103.5 32h-1h-267q-72 0 -123 -51t-51 -123q0 -53 36 -102t87 -65l349 -107h808zM1263 512h378q15 -44 21 -97q2 -26 2 -48q0 -134 -66 -248t-180 -180.5t-248 -66.5h-272q-131 0 -265 83t-193 200l-2 4
q-7 12 -7 29t10 33.5t25 23.5l172 86q12 7 29 7q16 0 32.5 -10.5t24.5 -25.5q22 -46 74.5 -78t103.5 -32h1h267q72 0 123 51t51 123q0 40 -23.5 82.5t-57.5 63.5z" />
    <glyph glyph-name="underline" unicode="Underline" horiz-adv-x="1792" 
d="M128 1536q-26 0 -45 19t-19 45v128q0 26 19 45t45 19h576q26 0 45 -19t19 -45v-128q0 -26 -19 -45t-45 -19h-128v-640q0 -133 93.5 -226.5t226.5 -93.5t226.5 93.5t93.5 226.5v640h-128q-26 0 -45 19t-19 45v128q0 26 19 45t45 19h576q26 0 45 -19t19 -45v-128
q0 -26 -19 -45t-45 -19h-128v-640q0 -130 -51 -248.5t-136.5 -204t-204 -136.5t-248.5 -51t-248.5 51t-204 136.5t-136.5 204t-51 248.5v640h-128zM1728 0q26 0 45 -19t19 -45v-128q0 -26 -19 -45t-45 -19h-1664q-26 0 -45 19t-19 45v128q0 26 19 45t45 19h1664z" />
    <glyph glyph-name="table" unicode="Table" 
d="M1856 1664q80 0 136 -56t56 -136v-1408q0 -80 -56 -136t-136 -56h-1664q-80 0 -136 56t-56 136v1408q0 80 56 136t136 56h1664zM896 128v384h-640v-384h640zM896 768v384h-640v-384h640zM1792 128v384h-640v-384h640zM1792 768v384h-640v-384h640z" />
    <glyph glyph-name="magic" unicode="MAGIC" 
d="M896 1408l-64 128l-128 64l128 64l64 128l64 -128l128 -64l-128 -64zM320 1152l-107 213l-213 107l213 107l107 213l107 -213l213 -107l-213 -107zM1728 640l107 -213l213 -107l-213 -107l-107 -213l-107 213l-213 107l213 107zM2010 1415q38 -37 38 -90t-38 -91
l-1452 -1452q-38 -38 -91 -38q-52 0 -90 38l-339 339q-38 37 -38 90t38 91l1452 1452q38 38 91 38q52 0 90 -38zM1438 978l346 347l-203 203l-347 -346z" />
    <glyph glyph-name="truck" unicode="TRUCK" horiz-adv-x="2560" 
d="M2496 384q26 0 45 -19t19 -45v-128q0 -26 -19 -45t-45 -19h-192q0 -159 -112.5 -271.5t-271.5 -112.5t-271.5 112.5t-112.5 271.5h-512q0 -159 -112.5 -271.5t-271.5 -112.5t-271.5 112.5t-112.5 271.5h-64q-80 0 -136 56t-56 136v1280q0 80 56 136t136 56h1280
q80 0 136 -56t56 -136v-192h176q80 0 136 -56l400 -400q56 -56 56 -136v-432h64zM640 -64q80 0 136 56t56 136t-56 136t-136 56t-136 -56t-56 -136t56 -136t136 -56zM1920 -64q80 0 136 56t56 136t-56 136t-136 56t-136 -56t-56 -136t56 -136t136 -56zM2240 768v48l-400 400
h-176v-448h576z" />
    <glyph glyph-name="money-bill" unicode="MONEY&#x2d;BILL" horiz-adv-x="2560" 
d="M2432 1536q53 0 90.5 -37.5t37.5 -90.5v-1280q0 -53 -37.5 -90.5t-90.5 -37.5h-2304q-53 0 -90.5 37.5t-37.5 90.5v1280q0 53 37.5 90.5t90.5 37.5h2304zM192 192h256q0 106 -75 181t-181 75v-256zM192 1088q106 0 181 75t75 181h-256v-256zM1280 384q133 0 226.5 112.5
t93.5 271.5t-93.5 271.5t-226.5 112.5t-226.5 -112.5t-93.5 -271.5t93.5 -271.5t226.5 -112.5zM2368 192v256q-106 0 -181 -75t-75 -181h256zM2368 1088v256h-256q0 -106 75 -181t181 -75z" />
    <glyph glyph-name="caret-down" unicode="CARET&#x2d;DOWN" horiz-adv-x="1280" 
d="M125 1024h1029q53 0 74 -49t-17 -87l-515 -515q-23 -23 -56.5 -23t-56.5 23l-514 515q-38 38 -17.5 87t73.5 49z" />
    <glyph glyph-name="caret-up" unicode="CARET&#x2d;UP" horiz-adv-x="1280" 
d="M1155 384h-1030q-53 0 -73.5 50t17.5 87l514 514q23 23 57 23t57 -23l514 -514q38 -37 17.5 -87t-73.5 -50z" />
    <glyph glyph-name="caret-left" unicode="Caret&#x2d;Left" horiz-adv-x="768" 
d="M768 1283v-1030q0 -53 -50 -73.5t-87 17.5l-514 514q-23 23 -23 57t23 57l514 514q37 38 87 17.5t50 -73.5z" />
    <glyph glyph-name="caret-right" unicode="CARET&#x2d;RIGHT" horiz-adv-x="768" 
d="M0 253v1030q0 53 50 73.5t87 -17.5l514 -514q23 -23 23 -57t-23 -57l-514 -514q-37 -38 -87 -17.5t-50 73.5z" />
    <glyph glyph-name="columns" unicode="COLUMNS" 
d="M1856 1664q80 0 136 -56t56 -136v-1408q0 -80 -56 -136t-136 -56h-1664q-80 0 -136 56t-56 136v1408q0 80 56 136t136 56h1664zM896 128v1024h-640v-1024h640zM1792 128v1024h-640v-1024h640z" />
    <glyph glyph-name="sort" unicode="SORT" horiz-adv-x="1280" 
d="M164 640h952q64 0 88.5 -59.5t-20.5 -104.5l-476 -476q-28 -28 -68 -28t-68 28l-476 476q-45 45 -20.5 104.5t88.5 59.5zM1184 1060q45 -45 20.5 -104.5t-88.5 -59.5h-952q-64 0 -88.5 59.5t20.5 104.5l476 476q28 28 68 28t68 -28z" />
    <glyph glyph-name="sort-down" unicode="SORT&#x2d;DOWN" horiz-adv-x="1280" 
d="M164 640h952q64 0 88.5 -59.5t-20.5 -104.5l-476 -476q-28 -28 -68 -28t-68 28l-476 476q-45 45 -20.5 104.5t88.5 59.5z" />
    <glyph glyph-name="sort-up" unicode="SORT&#x2d;UP" horiz-adv-x="1280" 
d="M1116 896h-952q-64 0 -88.5 59.5t20.5 104.5l476 476q28 28 68 28t68 -28l476 -476q46 -45 21 -104.5t-89 -59.5z" />
    <glyph glyph-name="envelope" unicode="ENVELOPE" 
d="M2009 1029q12 9 25.5 2.5t13.5 -21.5v-818q0 -80 -56 -136t-136 -56h-1664q-80 0 -136 56t-56 136v818q0 15 13.5 21t25.5 -3q136 -106 616 -454q6 -4 54.5 -41.5t73.5 -54t71 -44t88 -39t82 -11.5q41 0 83.5 12.5t87 38.5t72.5 45t72.5 53t53.5 41q461 335 616 455z
M1024 512q-32 -1 -79 21t-74.5 40.5t-82.5 60.5t-58 44q-506 367 -693 514q-37 29 -37 76v76q0 80 56 136t136 56h1664q80 0 136 -56t56 -136v-76q0 -47 -37 -76q-187 -147 -693 -514q-3 -2 -58 -44t-82.5 -60.5t-74.5 -40.5t-79 -21z" />
    <glyph glyph-name="undo" unicode="Undo" 
d="M849 895h-801q-20 0 -34 14t-14 34v801q0 20 14 34t34 14h192q20 0 34 -14t14 -34v-312q140 155 333.5 242t411.5 86q202 -1 384.5 -80.5t314 -212t208.5 -316t77 -385.5t-79 -385t-211.5 -315.5t-316 -211t-385.5 -78.5q-189 0 -360.5 67.5t-305.5 189.5
q-15 14 -15.5 35t13.5 35l136 135q14 14 33 15t33 -12q200 -177 466 -177q143 0 273.5 55.5t225 150t150 225t55.5 273.5t-55.5 273.5t-150 225t-225 150t-273.5 55.5q-172 0 -321.5 -77.5t-247.5 -211.5h393q20 0 34 -14t14 -34v-192q0 -20 -14 -34t-34 -14z" />
    <glyph glyph-name="gavel" unicode="GAVEL" 
d="M2020 995q28 -28 28 -68t-28 -68l-498 -498q-28 -28 -68 -28t-68 28l-90 90q-28 28 -28 68t28 68l22 23l-158 158l-324 -324l23 -23q37 -37 37 -90t-37 -91l-459 -459q-38 -37 -91 -37t-90 37l-182 182q-37 37 -37 90t37 91l459 459q38 37 91 37t90 -37l23 -23l324 324
l-158 158l-23 -22q-28 -28 -68 -28t-68 28l-90 90q-28 28 -28 68t28 68l498 498q28 28 68 28t68 -28l90 -91q28 -28 28 -67.5t-28 -67.5l-23 -23l453 -453l23 23q28 28 67.5 28t67.5 -28z" />
    <glyph glyph-name="tachometer" unicode="TACHOMETER" horiz-adv-x="2304" 
d="M1152 1664q234 0 447.5 -91.5t367.5 -245.5t245.5 -367.5t91.5 -447.5q0 -311 -156 -579q-16 -28 -46 -44.5t-64 -16.5h-1772q-34 0 -64 16.5t-46 44.5q-156 268 -156 579q0 234 91.5 447.5t245.5 367.5t367.5 245.5t447.5 91.5zM1563 1186q13 37 -5 72.5t-56 48.5
t-73 -5t-48 -56l-245 -736q-101 -7 -170.5 -80t-69.5 -174q0 -66 36 -128h440q36 62 36 128q0 117 -90 194z" />
    <glyph glyph-name="bolt" unicode="BOLT" horiz-adv-x="1280" 
d="M1184 1152q55 0 83 -48t0 -96l-704 -1216q-29 -48 -83 -48q-46 0 -75 36.5t-19 81.5l185 778h-475q-44 0 -72.5 33t-22.5 76l128 960q4 36 31.5 59.5t63.5 23.5h576q47 0 76 -37.5t17 -83.5l-171 -519h462z" />
    <glyph glyph-name="sitemap" unicode="SITEMAP" horiz-adv-x="2560" 
d="M512 384q53 0 90.5 -37.5t37.5 -90.5v-384q0 -53 -37.5 -90.5t-90.5 -37.5h-384q-53 0 -90.5 37.5t-37.5 90.5v384q0 53 37.5 90.5t90.5 37.5h384zM416 704v-192h-192v230q0 64 45 109t109 45h806v256h-160q-53 0 -90.5 37.5t-37.5 90.5v384q0 53 37.5 90.5t90.5 37.5
h512q53 0 90.5 -37.5t37.5 -90.5v-384q0 -53 -37.5 -90.5t-90.5 -37.5h-160v-256h806q64 0 109 -45t45 -109v-230h-192v192h-768v-192h-192v192h-768zM1472 384q53 0 90.5 -37.5t37.5 -90.5v-384q0 -53 -37.5 -90.5t-90.5 -37.5h-384q-53 0 -90.5 37.5t-37.5 90.5v384
q0 53 37.5 90.5t90.5 37.5h384zM2432 384q53 0 90.5 -37.5t37.5 -90.5v-384q0 -53 -37.5 -90.5t-90.5 -37.5h-384q-53 0 -90.5 37.5t-37.5 90.5v384q0 53 37.5 90.5t90.5 37.5h384z" />
    <glyph glyph-name="umbrella" unicode="Umbrella" horiz-adv-x="2304" 
d="M2303 669q7 -33 -19 -53t-56 7q-79 83 -158 119t-159.5 23.5t-161 -85.5t-155.5 -205q-16 -28 -40 -27t-39 27l-6 13q-6 12 -13 25t-19.5 33.5t-26 39.5t-33 42t-39.5 42.5t-46 37.5t-53 31t-60 21t-67 8q-53 0 -100.5 -18t-82.5 -43.5t-70.5 -68t-58 -77.5t-51.5 -86
q-15 -26 -39 -27t-40 27q-75 132 -155.5 205t-160.5 86t-159.5 -23t-158.5 -120q-30 -27 -56 -7t-19 53q43 199 142.5 366t236.5 281.5t301.5 185.5t342.5 90v72q0 53 37.5 90.5t90.5 37.5t90.5 -37.5t37.5 -90.5v-72q141 -15 275 -62.5t255 -128t218.5 -186.5t169.5 -246
t105 -300zM1024 585q58 55 128 55q67 0 128 -54v-522q0 -132 -94 -226t-226 -94q-101 0 -184.5 59t-117.5 155q-18 49 5 97t73 66t98 -5t66 -73q16 -43 60 -43q26 0 45 19t19 45v521z" />
    <glyph glyph-name="paste" unicode="Paste" horiz-adv-x="1792" 
d="M512 1056v-928h-416q-40 0 -68 28t-28 68v1344q0 40 28 68t68 28h322q34 58 93 93t129 35t129 -35t93 -93h322q40 0 68 -28t28 -68v-288h-544q-93 0 -158.5 -65.5t-65.5 -158.5zM640 1632q-40 0 -68 -28t-28 -68t28 -68t68 -28t68 28t28 68t-28 68t-68 28zM1376 640h416
v-800q0 -40 -28 -68t-68 -28h-960q-40 0 -68 28t-28 68v1216q0 40 28 68t68 28h544v-416q0 -40 28 -68t68 -28zM1792 792v-24h-384v384h24q40 0 68 -28l264 -264q28 -28 28 -68z" />
    <glyph glyph-name="lightbulb" unicode="Lightbulb" horiz-adv-x="1408" 
d="M384 -25v153h640v-153q0 -38 -22 -71l-68 -103q-16 -24 -47 -40.5t-60 -16.5h-246q-29 0 -60 16.5t-47 40.5l-68 103q-22 33 -22 71zM0 1088q0 138 53 266.5t144.5 225t223.5 154.5t281 58q144 0 274.5 -55.5t225 -149.5t150.5 -224.5t56 -274.5q0 -263 -174 -463
q-57 -65 -119.5 -169.5t-89.5 -196.5q0 -1 -1 -3h-640v1q-1 1 -1 2q-27 92 -89.5 196.5t-119.5 169.5q-174 200 -174 463zM704 1408q26 0 45 19t19 45t-19 45t-45 19q-185 0 -316.5 -131.5t-131.5 -316.5q0 -26 19 -45t45 -19t45 19t19 45q0 132 94 226t226 94z" />
    <glyph glyph-name="exchange" unicode="EXCHANGE" 
d="M0 1120v64q0 40 28 68t68 28h1528l-122 111q-29 28 -29.5 68.5t27.5 69.5l43 43q28 28 68 28t68 -28l332 -329q37 -37 37 -91t-37 -91l-332 -329q-28 -28 -68 -28t-68 28l-43 43q-28 29 -27.5 69.5t29.5 68.5l122 111h-1528q-40 0 -68 28t-28 68zM1952 512q40 0 68 -28
t28 -68v-64q0 -40 -28 -68t-68 -28h-1528l122 -111q29 -28 29.5 -68.5t-27.5 -69.5l-43 -43q-28 -28 -68 -28t-68 28l-332 329q-37 37 -37 91t37 91l332 329q28 28 68 28t68 -28l43 -43q28 -29 27.5 -69.5t-29.5 -68.5l-122 -111h1528z" />
    <glyph glyph-name="cloud-download" unicode="CLOUD&#x2d;DOWNLOAD" horiz-adv-x="2560" 
d="M2150 886q177 -36 293.5 -176.5t116.5 -325.5q0 -212 -150 -362t-362 -150h-1472q-117 0 -223.5 45.5t-184 123t-123 184t-45.5 223.5q0 186 107.5 335t277.5 209q0 6 -0.5 16t-0.5 16q0 130 50.5 248.5t136.5 204.5t204.5 136.5t248.5 50.5q175 0 322.5 -87t232.5 -234
q97 65 213 65q159 0 271.5 -112.5t112.5 -271.5q0 -68 -26 -138zM1591 514q28 28 28 67.5t-28 67.5l-43 43q-28 29 -69 28.5t-69 -30.5l-130 -138v504q0 40 -28 68t-68 28h-64q-40 0 -68 -28t-28 -68v-504l-129 138q-28 29 -68.5 29.5t-69.5 -27.5l-43 -43
q-28 -28 -28 -67.5t28 -67.5l370 -371q28 -29 68 -29t68 29z" />
    <glyph glyph-name="cloud-upload" unicode="CLOUD&#x2d;UPLOAD" horiz-adv-x="2560" 
d="M2150 886q177 -36 293.5 -176.5t116.5 -325.5q0 -212 -150 -362t-362 -150h-1472q-117 0 -223.5 45.5t-184 123t-123 184t-45.5 223.5q0 186 107.5 335t277.5 209q0 6 -0.5 16t-0.5 16q0 130 50.5 248.5t136.5 204.5t204.5 136.5t248.5 50.5q175 0 322.5 -87t232.5 -234
q97 65 213 65q159 0 271.5 -112.5t112.5 -271.5q0 -68 -26 -138zM1591 631q28 28 27.5 67.5t-28.5 67.5l-370 371q-28 29 -68 29t-68 -29l-371 -371q-29 -28 -29 -67t29 -68l43 -43q28 -29 69 -28.5t69 30.5l130 138v-504q0 -40 28 -68t68 -28h64q40 0 68 28t28 68v504
l130 -138q28 -29 68.5 -29.5t69.5 27.5z" />
    <glyph glyph-name="user-md" unicode="User&#x2d;md" horiz-adv-x="1792" 
d="M896 768q-212 0 -362 150t-150 362t150 362t362 150t362 -150t150 -362t-150 -362t-362 -150zM416 96q0 40 28 68t68 28t68 -28t28 -68t-28 -68t-68 -28t-68 28t-28 68zM1280 638q214 -11 363 -166t149 -370v-179q0 -74 -52.5 -126.5t-126.5 -52.5h-1434
q-74 0 -126.5 52.5t-52.5 126.5v179q0 198 128 347t320 182v-322q-70 -21 -115 -79.5t-45 -133.5q0 -93 65.5 -158.5t158.5 -65.5t158.5 65.5t65.5 158.5q0 75 -45 133.5t-115 79.5v327q46 -6 91 -21q112 -39 229 -39q118 0 230 39q4 1 13 3t13 4v-180q-110 -23 -183 -111
t-73 -203v-175q0 -24 16 -42.5t40 -21.5l124 -17q13 -2 24 5.5t14 20.5l12 62q2 13 -5 24t-20 14l-77 16v106q0 55 21 98t55 65t75 32t82 -0.5t75 -31.5t55 -62t21 -93v-114l-77 -16q-13 -2 -20.5 -13t-4.5 -24l12 -63q3 -13 14 -20.5t24 -4.5l128 25q22 4 37 22t15 41v167
q0 115 -73 203t-183 111v196z" />
    <glyph glyph-name="stethoscope" unicode="STETHOSCOPE" 
d="M1788 1344q107 2 183.5 -73.5t76.5 -182.5q0 -70 -35 -129t-93 -93v-450q0 -136 -56 -260.5t-150 -214.5t-224.5 -143.5t-273.5 -53.5q-141 0 -269.5 51.5t-222.5 139t-151 208.5t-61 254q-221 45 -366.5 221t-145.5 406v622q0 34 21.5 60.5t55.5 33.5l251 50
q39 8 72.5 -14.5t40.5 -61.5l13 -62q8 -39 -14.5 -72.5t-61.5 -40.5l-122 -25v-490q0 -160 113.5 -272.5t273.5 -111.5q104 1 192 53.5t138.5 142t50.5 193.5v486l-123 24q-39 7 -61 40.5t-14 72.5l12 63q7 39 40.5 61t72.5 14l252 -50q34 -7 55.5 -33.5t21.5 -60.5v-622
q0 -230 -145.5 -406t-365.5 -221q5 -108 66 -199.5t162 -144.5t219 -53q185 0 316.5 122t131.5 294v450q-60 34 -94.5 95t-33.5 133q2 103 75.5 175.5t176.5 74.5zM1792 1024q26 0 45 19t19 45t-19 45t-45 19t-45 -19t-19 -45t19 -45t45 -19z" />
    <glyph glyph-name="suitcase" unicode="SUITCASE" 
d="M512 -128v1600q0 80 56 136t136 56h640q80 0 136 -56t56 -136v-1600h-1024zM768 1408v-128h512v128h-512zM2048 1088v-1024q0 -80 -56 -136t-136 -56h-192v1408h192q80 0 136 -56t56 -136zM384 -128h-192q-80 0 -136 56t-56 136v1024q0 80 56 136t136 56h192v-1408z" />
    <glyph glyph-name="bell" unicode="BELL" horiz-adv-x="1792" 
d="M896 -256q-106 0 -181 75t-75 181h512q0 -106 -75 -181t-181 -75zM1758 343q34 -37 34 -87q0 -51 -36.5 -89.5t-91.5 -38.5h-1536q-55 0 -91.5 38.5t-36.5 89.5q0 50 34 87q5 5 15 16q34 36 53.5 59t53 78t52 112t33.5 150t15 202q0 231 144.5 403t367.5 218v83
q0 53 37.5 90.5t90.5 37.5t90.5 -37.5t37.5 -90.5v-83q223 -46 367.5 -218t144.5 -403q0 -109 15 -202t33.5 -150t52 -112t52.5 -78t54 -59q10 -11 15 -16z" />
    <glyph glyph-name="coffee" unicode="COFFEE" horiz-adv-x="2560" 
d="M768 256q-159 0 -271.5 112.5t-112.5 271.5v928q0 40 28 68t68 28h1568q104 0 198.5 -40.5t163.5 -109.5t109.5 -163.5t40.5 -198.5t-40.5 -198.5t-109.5 -163.5t-163.5 -109.5t-198.5 -40.5h-128q0 -159 -112.5 -271.5t-271.5 -112.5h-768zM2048 1408h-128v-512h128
q106 0 181 75t75 181t-75 181t-181 75zM2239 -128h-2046q-101 0 -158 85q-43 63 -34 122q9 48 48 49h2333q41 0 48 -48q10 -59 -32 -122q-58 -85 -159 -86z" />
    <glyph glyph-name="hospital" unicode="HOSPITAL" horiz-adv-x="1792" 
d="M1792 -176v-80h-1792v80q0 20 14 34t34 14h80v1440q0 40 28 68t68 28h352v288q0 40 28 68t68 28h448q40 0 68 -28t28 -68v-288h352q40 0 68 -28t28 -68v-1440h80q20 0 34 -14t14 -34zM1232 1024h-160q-20 0 -34 -14t-14 -34v-160q0 -20 14 -34t34 -14h160q20 0 34 14
t14 34v160q0 20 -14 34t-34 14zM560 768h160q20 0 34 14t14 34v160q0 20 -14 34t-34 14h-160q-20 0 -34 -14t-14 -34v-160q0 -20 14 -34t34 -14zM976 256h-160q-20 0 -34 -14t-14 -34v-336h256v336q0 20 -14 34t-34 14zM1232 640h-160q-20 0 -34 -14t-14 -34v-160
q0 -20 14 -34t34 -14h160q20 0 34 14t14 34v160q0 20 -14 34t-34 14zM768 592q0 20 -14 34t-34 14h-160q-20 0 -34 -14t-14 -34v-160q0 -20 14 -34t34 -14h160q20 0 34 14t14 34v160zM728 1408h104v-104q0 -10 7 -17t17 -7h80q10 0 17 7t7 17v104h104q10 0 17 7t7 17v80
q0 10 -7 17t-17 7h-104v104q0 10 -7 17t-17 7h-80q-10 0 -17 -7t-7 -17v-104h-104q-10 0 -17 -7t-7 -17v-80q0 -10 7 -17t17 -7z" />
    <glyph glyph-name="ambulance" unicode="AMBULANCE" horiz-adv-x="2560" 
d="M2496 384q26 0 45 -19t19 -45v-128q0 -26 -19 -45t-45 -19h-192q0 -159 -112.5 -271.5t-271.5 -112.5t-271.5 112.5t-112.5 271.5h-512q0 -159 -112.5 -271.5t-271.5 -112.5t-271.5 112.5t-112.5 271.5h-64q-80 0 -136 56t-56 136v1280q0 80 56 136t136 56h1280
q80 0 136 -56t56 -136v-192h176q80 0 136 -56l400 -400q56 -56 56 -136v-432h64zM640 -64q80 0 136 56t56 136t-56 136t-136 56t-136 -56t-56 -136t56 -136t136 -56zM1216 928v192q0 14 -9 23t-23 9h-224v224q0 14 -9 23t-23 9h-192q-14 0 -23 -9t-9 -23v-224h-224
q-14 0 -23 -9t-9 -23v-192q0 -14 9 -23t23 -9h224v-224q0 -14 9 -23t23 -9h192q14 0 23 9t9 23v224h224q14 0 23 9t9 23zM1920 -64q80 0 136 56t56 136t-56 136t-136 56t-136 -56t-56 -136t56 -136t136 -56zM2240 768v48l-400 400h-176v-448h576z" />
    <glyph glyph-name="medkit" unicode="MEDKIT" 
d="M384 -128v1408h128v192q0 80 56 136t136 56h640q80 0 136 -56t56 -136v-192h128v-1408h-1280zM768 1408v-128h512v128h-512zM2048 1088v-1024q0 -80 -56 -136t-136 -56h-64v1408h64q80 0 136 -56t56 -136zM256 -128h-64q-80 0 -136 56t-56 136v1024q0 80 56 136t136 56
h64v-1408zM1408 704q0 26 -19 45t-45 19h-192v192q0 26 -19 45t-45 19h-128q-26 0 -45 -19t-19 -45v-192h-192q-26 0 -45 -19t-19 -45v-128q0 -26 19 -45t45 -19h192v-192q0 -26 19 -45t45 -19h128q26 0 45 19t19 45v192h192q26 0 45 19t19 45v128z" />
    <glyph glyph-name="fighter-jet" unicode="FIGHTER&#x2d;JET" horiz-adv-x="2560" 
d="M2176 896q111 -25 187 -44t114.5 -31t58 -23t22 -16t2.5 -14t-2.5 -14t-22 -16t-58 -23t-114.5 -31t-187 -44l-512 -64l-192 -64h-96l-467 -592h158q36 0 60.5 -7t24.5 -17t-24.5 -17t-60.5 -7h-459v48h64v656h-192l-267 -320h-138l-43 43v277h32v64h192v11l-256 32v170
l256 32v11h-192v64h-32v277l43 43h138l267 -320h192v656h-64v48h459q36 0 60.5 -7t24.5 -17t-24.5 -17t-60.5 -7h-158l467 -592h96l192 -64z" />
    <glyph glyph-name="beer" unicode="BEER" horiz-adv-x="1792" 
d="M1472 1408q132 0 226 -94t94 -226v-515q0 -95 -52 -175t-138 -118l-322 -144v-168q0 -40 -28 -68t-68 -28h-1088q-40 0 -68 28t-28 68v1600q0 40 28 68t68 28h1088q40 0 68 -28t28 -68v-160h192zM1536 573v515q0 26 -19 45t-45 19h-192v-735l218 97q16 7 27 24.5t11 34.5
zM832 256q26 0 45 19t19 45v896q0 26 -19 45t-45 19t-45 -19t-19 -45v-896q0 -26 19 -45t45 -19zM448 256q26 0 45 19t19 45v896q0 26 -19 45t-45 19t-45 -19t-19 -45v-896q0 -26 19 -45t45 -19z" />
    <glyph glyph-name="h-square" unicode="H&#x2d;Square" horiz-adv-x="1792" 
d="M1792 1472v-1408q0 -80 -56 -136t-136 -56h-1408q-80 0 -136 56t-56 136v1408q0 80 56 136t136 56h1408q80 0 136 -56t56 -136zM1344 1280h-128q-26 0 -45 -19t-19 -45v-320h-512v320q0 26 -19 45t-45 19h-128q-26 0 -45 -19t-19 -45v-896q0 -26 19 -45t45 -19h128
q26 0 45 19t19 45v320h512v-320q0 -26 19 -45t45 -19h128q26 0 45 19t19 45v896q0 26 -19 45t-45 19z" />
    <glyph glyph-name="plus-square" unicode="PLUS&#x2d;SQUARE" horiz-adv-x="1792" 
d="M1600 1664q80 0 136 -56t56 -136v-1408q0 -80 -56 -136t-136 -56h-1408q-80 0 -136 56t-56 136v1408q0 80 56 136t136 56h1408zM1472 656v224q0 20 -14 34t-34 14h-368v368q0 20 -14 34t-34 14h-224q-20 0 -34 -14t-14 -34v-368h-368q-20 0 -34 -14t-14 -34v-224
q0 -20 14 -34t34 -14h368v-368q0 -20 14 -34t34 -14h224q20 0 34 14t14 34v368h368q20 0 34 14t14 34z" />
    <glyph glyph-name="angle-double-left" unicode="ANGLE&#x2d;DOUBLE&#x2d;LEFT" horiz-adv-x="1792" 
d="M895 836l544 544q29 28 68 28t67 -28l91 -90q29 -28 29 -68t-29 -68l-385 -386l385 -386q29 -28 29 -67.5t-29 -67.5l-90 -91q-29 -28 -68.5 -28t-67.5 28l-544 544q-29 28 -29 68t29 68zM127 700q-29 28 -29 68t29 68l544 544q28 28 67.5 28t68.5 -28l90 -91
q29 -28 29 -67.5t-29 -67.5l-385 -386l385 -386q29 -28 29 -68t-29 -68l-91 -90q-28 -28 -67 -28t-68 28z" />
    <glyph glyph-name="angle-double-right" unicode="ANGLE&#x2d;DOUBLE&#x2d;RIGHT" horiz-adv-x="1792" 
d="M897 700l-544 -544q-29 -28 -68 -28t-67 28l-91 90q-29 28 -29 68t29 68l386 386l-386 385q-29 29 -29 68.5t29 67.5l90 91q29 28 68.5 28t67.5 -28l544 -544q29 -28 29 -68t-29 -68zM1665 836q29 -28 29 -67.5t-29 -67.5l-544 -544q-28 -29 -67.5 -29t-67.5 29l-91 90
q-29 28 -29 67.5t29 68.5l386 385l-386 386q-29 28 -29 68t29 68l91 90q28 28 67 28t68 -28z" />
    <glyph glyph-name="angle-double-up" unicode="ANGLE&#x2d;DOUBLE&#x2d;UP" horiz-adv-x="1280" 
d="M708 769l544 -544q28 -29 28 -68t-28 -67l-90 -91q-28 -29 -68 -29t-68 29l-386 385l-386 -385q-28 -29 -67.5 -29t-67.5 29l-91 90q-28 29 -28 68.5t28 67.5l544 544q28 29 68 29t68 -29zM572 1537q28 29 67.5 29t67.5 -29l544 -544q29 -28 29 -67.5t-29 -67.5l-90 -91
q-28 -29 -67.5 -29t-68.5 29l-385 386l-386 -386q-28 -29 -68 -29t-68 29l-90 91q-28 28 -28 67t28 68z" />
    <glyph glyph-name="angle-double-down" unicode="ANGLE&#x2d;DOUBLE&#x2d;DOWN" horiz-adv-x="1280" 
d="M572 767l-544 544q-28 29 -28 68t28 67l90 91q28 29 68 29t68 -29l386 -386l385 386q29 29 68.5 29t67.5 -29l91 -90q28 -29 28 -68.5t-28 -67.5l-544 -544q-28 -29 -68 -29t-68 29zM708 -1q-28 -29 -68 -29t-68 29l-544 544q-28 28 -28 67.5t28 68.5l91 90
q28 29 67.5 29t67.5 -29l386 -385l386 385q28 29 68 29t68 -29l90 -91q28 -28 28 -67t-28 -68z" />
    <glyph glyph-name="angle-left" unicode="ANGLE&#x2d;LEFT" horiz-adv-x="1024" 
d="M127 836l544 544q29 28 68 28t67 -28l91 -90q29 -28 29 -68t-29 -68l-385 -386l385 -386q29 -28 29 -67.5t-29 -67.5l-90 -91q-29 -28 -68.5 -28t-67.5 28l-544 544q-29 28 -29 68t29 68z" />
    <glyph glyph-name="angle-right" unicode="ANGLE&#x2d;RIGHT" horiz-adv-x="1024" 
d="M897 700l-544 -544q-29 -28 -68 -28t-67 28l-91 90q-29 28 -29 68t29 68l386 386l-386 385q-29 29 -29 68.5t29 67.5l90 91q29 28 68.5 28t67.5 -28l544 -544q29 -28 29 -68t-29 -68z" />
    <glyph glyph-name="angle-up" unicode="ANGLE&#x2d;UP" horiz-adv-x="1280" 
d="M708 1153l544 -544q28 -29 28 -68t-28 -67l-90 -91q-28 -29 -68 -29t-68 29l-386 385l-386 -385q-28 -29 -67.5 -29t-67.5 29l-91 90q-28 29 -28 68.5t28 67.5l544 544q28 29 68 29t68 -29z" />
    <glyph glyph-name="angle-down" unicode="ANGLE&#x2d;DOWN" horiz-adv-x="1280" 
d="M572 383l-544 544q-28 29 -28 68t28 67l90 91q28 29 68 29t68 -29l386 -386l385 386q29 29 68.5 29t67.5 -29l90 -91q29 -28 29 -67.5t-29 -67.5l-544 -544q-28 -29 -67.5 -29t-67.5 29z" />
    <glyph glyph-name="desktop" unicode="DESKTOP" horiz-adv-x="2304" 
d="M2112 1792q80 0 136 -56t56 -136v-1280q0 -80 -56 -136t-136 -56h-768l64 -192h288q40 0 68 -28t28 -68t-28 -68t-68 -28h-1088q-40 0 -68 28t-28 68t28 68t68 28h288l64 192h-768q-80 0 -136 56t-56 136v1280q0 80 56 136t136 56h1920zM2048 384v1152h-1792v-1152h1792z
" />
    <glyph glyph-name="laptop" unicode="Laptop" horiz-adv-x="2560" 
d="M2496 128q26 0 45 -19t19 -45v-64q0 -106 -75 -181t-181 -75h-2048q-106 0 -181 75t-75 181v64q0 26 19 45t45 19h957q-1 -46 38 -87t93 -41h243q55 0 92 35t39 93h970zM2304 1600v-1344h-2048v1344q0 80 56 136t136 56h1664q80 0 136 -56t56 -136zM2048 512v1024h-1536
v-1024h1536z" />
    <glyph glyph-name="tablet" unicode="Tablet" horiz-adv-x="1792" 
d="M1600 1792q80 0 136 -56t56 -136v-1664q0 -80 -56 -136t-136 -56h-1408q-80 0 -136 56t-56 136v1664q0 80 56 136t136 56h1408zM896 -128q53 0 90.5 37.5t37.5 90.5t-37.5 90.5t-90.5 37.5t-90.5 -37.5t-37.5 -90.5t37.5 -90.5t90.5 -37.5z" />
    <glyph glyph-name="mobile" unicode="MOBILE" horiz-adv-x="1280" 
d="M1088 1792q80 0 136 -56t56 -136v-1664q0 -80 -56 -136t-136 -56h-896q-80 0 -136 56t-56 136v1664q0 80 56 136t136 56h896zM640 -128q53 0 90.5 37.5t37.5 90.5t-37.5 90.5t-90.5 37.5t-90.5 -37.5t-37.5 -90.5t37.5 -90.5t90.5 -37.5z" />
    <glyph glyph-name="quote-left" unicode="QUOTE&#x2d;LEFT" 
d="M1856 768q80 0 136 -56t56 -136v-512q0 -80 -56 -136t-136 -56h-512q-80 0 -136 56t-56 136v960q0 130 50.5 248.5t136.5 204.5t204.5 136.5t248.5 50.5h32q40 0 68 -28t28 -68v-192q0 -40 -28 -68t-68 -28h-32q-106 0 -181 -75t-75 -181v-256h320zM704 768q80 0 136 -56
t56 -136v-512q0 -80 -56 -136t-136 -56h-512q-80 0 -136 56t-56 136v960q0 130 50.5 248.5t136.5 204.5t204.5 136.5t248.5 50.5h32q40 0 68 -28t28 -68v-192q0 -40 -28 -68t-68 -28h-32q-106 0 -181 -75t-75 -181v-256h320z" />
    <glyph glyph-name="quote-right" unicode="QUOTE&#x2d;RIGHT" 
d="M1856 1664q80 0 136 -56t56 -136v-960q0 -130 -50.5 -248.5t-136.5 -204.5t-204.5 -136.5t-248.5 -50.5h-32q-40 0 -68 28t-28 68v192q0 40 28 68t68 28h32q106 0 181 75t75 181v256h-320q-80 0 -136 56t-56 136v512q0 80 56 136t136 56h512zM704 1664q80 0 136 -56
t56 -136v-960q0 -130 -50.5 -248.5t-136.5 -204.5t-204.5 -136.5t-248.5 -50.5h-32q-40 0 -68 28t-28 68v192q0 40 28 68t68 28h32q106 0 181 75t75 181v256h-320q-80 0 -136 56t-56 136v512q0 80 56 136t136 56h512z" />
    <glyph glyph-name="spinner" unicode="SPINNER" 
d="M1216 1600q0 -80 -56 -136t-136 -56t-136 56t-56 136t56 136t136 56t136 -56t56 -136zM1024 128q80 0 136 -56t56 -136t-56 -136t-136 -56t-136 56t-56 136t56 136t136 56zM1856 960q80 0 136 -56t56 -136t-56 -136t-136 -56t-136 56t-56 136t56 136t136 56zM384 768
q0 -80 -56 -136t-136 -56t-136 56t-56 136t56 136t136 56t136 -56t56 -136zM436 372q80 0 136 -56t56 -136t-56 -136t-136 -56t-136 56t-56 136t56 136t136 56zM1612 372q80 0 136 -56t56 -136t-56 -136t-136 -56t-136 56t-56 136t56 136t136 56zM436 1548q80 0 136 -56
t56 -136t-56 -136t-136 -56t-136 56t-56 136t56 136t136 56z" />
    <glyph glyph-name="circle" unicode="Circle" 
d="M1024 1760q202 0 385.5 -78.5t316.5 -211.5t211.5 -316.5t78.5 -385.5t-78.5 -385.5t-211.5 -316.5t-316.5 -211.5t-385.5 -78.5t-385.5 78.5t-316.5 211.5t-211.5 316.5t-78.5 385.5t78.5 385.5t211.5 316.5t316.5 211.5t385.5 78.5z" />
    <glyph glyph-name="smile" unicode="SMILE" horiz-adv-x="1984" 
d="M992 1760q202 0 385.5 -78.5t316.5 -211.5t211.5 -316.5t78.5 -385.5t-78.5 -385.5t-211.5 -316.5t-316.5 -211.5t-385.5 -78.5t-385.5 78.5t-316.5 211.5t-211.5 316.5t-78.5 385.5t78.5 385.5t211.5 316.5t316.5 211.5t385.5 78.5zM1312 1088q-53 0 -90.5 -37.5
t-37.5 -90.5t37.5 -90.5t90.5 -37.5t90.5 37.5t37.5 90.5t-37.5 90.5t-90.5 37.5zM672 1088q-53 0 -90.5 -37.5t-37.5 -90.5t37.5 -90.5t90.5 -37.5t90.5 37.5t37.5 90.5t-37.5 90.5t-90.5 37.5zM1451 407q15 19 15.5 40t-11.5 36t-28.5 24t-37.5 5t-36 -23
q-68 -80 -162 -124.5t-199 -44.5t-199.5 44t-161.5 125q-15 19 -36 23t-37.5 -5t-28.5 -24t-11.5 -36t15.5 -40q85 -103 205 -159t254 -56t254 56t205 159z" />
    <glyph glyph-name="frown" unicode="FROWN" horiz-adv-x="1984" 
d="M992 1760q202 0 385.5 -78.5t316.5 -211.5t211.5 -316.5t78.5 -385.5t-78.5 -385.5t-211.5 -316.5t-316.5 -211.5t-385.5 -78.5t-385.5 78.5t-316.5 211.5t-211.5 316.5t-78.5 385.5t78.5 385.5t211.5 316.5t316.5 211.5t385.5 78.5zM1312 1088q-53 0 -90.5 -37.5
t-37.5 -90.5t37.5 -90.5t90.5 -37.5t90.5 37.5t37.5 90.5t-37.5 90.5t-90.5 37.5zM672 1088q-53 0 -90.5 -37.5t-37.5 -90.5t37.5 -90.5t90.5 -37.5t90.5 37.5t37.5 90.5t-37.5 90.5t-90.5 37.5zM1353 215q15 -19 36 -23t37.5 5t28.5 24t11.5 36t-15.5 40q-85 103 -205 159
t-254 56q-133 0 -253 -56.5t-206 -158.5q-15 -19 -15.5 -40t11.5 -36t28.5 -24t37.5 -5t36 23q68 80 162 124.5t199 44.5t199 -44.5t162 -124.5z" />
    <glyph glyph-name="meh" unicode="MEH" horiz-adv-x="1984" 
d="M992 1760q202 0 385.5 -78.5t316.5 -211.5t211.5 -316.5t78.5 -385.5t-78.5 -385.5t-211.5 -316.5t-316.5 -211.5t-385.5 -78.5t-385.5 78.5t-316.5 211.5t-211.5 316.5t-78.5 385.5t78.5 385.5t211.5 316.5t316.5 211.5t385.5 78.5zM672 1088q-53 0 -90.5 -37.5
t-37.5 -90.5t37.5 -90.5t90.5 -37.5t90.5 37.5t37.5 90.5t-37.5 90.5t-90.5 37.5zM1376 320q40 0 56.5 32t0 64t-56.5 32h-768q-40 0 -56.5 -32t0 -64t56.5 -32h768zM1312 832q53 0 90.5 37.5t37.5 90.5t-37.5 90.5t-90.5 37.5t-90.5 -37.5t-37.5 -90.5t37.5 -90.5
t90.5 -37.5z" />
    <glyph glyph-name="gamepad" unicode="Gamepad" horiz-adv-x="2560" 
d="M1920 1408q130 0 248.5 -51t204 -136.5t136.5 -204t51 -248.5t-51 -248.5t-136.5 -204t-204 -136.5t-248.5 -51q-111 0 -245 56.5t-212 135.5h-366q-78 -79 -212 -135.5t-245 -56.5q-130 0 -248.5 51t-204 136.5t-136.5 204t-51 248.5t51 248.5t136.5 204t204 136.5
t248.5 51h1280zM992 720v96q0 20 -14 34t-34 14h-208v208q0 20 -14 34t-34 14h-96q-20 0 -34 -14t-14 -34v-208h-208q-20 0 -34 -14t-14 -34v-96q0 -20 14 -34t34 -14h208v-208q0 -20 14 -34t34 -14h96q20 0 34 14t14 34v208h208q20 0 34 14t14 34zM1856 416q66 0 113 47
t47 113t-47 113t-113 47t-113 -47t-47 -113t47 -113t113 -47zM2112 800q66 0 113 47t47 113t-47 113t-113 47t-113 -47t-47 -113t47 -113t113 -47z" />
    <glyph glyph-name="keyboard" unicode="KEYBOARD" horiz-adv-x="2304" 
d="M2112 0h-1920q-80 0 -136 56t-56 136v1152q0 80 56 136t136 56h1920q80 0 136 -56t56 -136v-1152q0 -80 -56 -136t-136 -56zM512 1072v160q0 20 -14 34t-34 14h-160q-20 0 -34 -14t-14 -34v-160q0 -20 14 -34t34 -14h160q20 0 34 14t14 34zM896 1072v160q0 20 -14 34
t-34 14h-160q-20 0 -34 -14t-14 -34v-160q0 -20 14 -34t34 -14h160q20 0 34 14t14 34zM1280 1072v160q0 20 -14 34t-34 14h-160q-20 0 -34 -14t-14 -34v-160q0 -20 14 -34t34 -14h160q20 0 34 14t14 34zM1664 1072v160q0 20 -14 34t-34 14h-160q-20 0 -34 -14t-14 -34v-160
q0 -20 14 -34t34 -14h160q20 0 34 14t14 34zM2048 1072v160q0 20 -14 34t-34 14h-160q-20 0 -34 -14t-14 -34v-160q0 -20 14 -34t34 -14h160q20 0 34 14t14 34zM704 688v160q0 20 -14 34t-34 14h-160q-20 0 -34 -14t-14 -34v-160q0 -20 14 -34t34 -14h160q20 0 34 14t14 34z
M1088 688v160q0 20 -14 34t-34 14h-160q-20 0 -34 -14t-14 -34v-160q0 -20 14 -34t34 -14h160q20 0 34 14t14 34zM1472 688v160q0 20 -14 34t-34 14h-160q-20 0 -34 -14t-14 -34v-160q0 -20 14 -34t34 -14h160q20 0 34 14t14 34zM1856 688v160q0 20 -14 34t-34 14h-160
q-20 0 -34 -14t-14 -34v-160q0 -20 14 -34t34 -14h160q20 0 34 14t14 34zM512 304v160q0 20 -14 34t-34 14h-160q-20 0 -34 -14t-14 -34v-160q0 -20 14 -34t34 -14h160q20 0 34 14t14 34zM1664 304v160q0 20 -14 34t-34 14h-928q-20 0 -34 -14t-14 -34v-160q0 -20 14 -34
t34 -14h928q20 0 34 14t14 34zM2048 304v160q0 20 -14 34t-34 14h-160q-20 0 -34 -14t-14 -34v-160q0 -20 14 -34t34 -14h160q20 0 34 14t14 34z" />
    <glyph glyph-name="flag-checkered" unicode="FLAG&#x2d;CHECKERED" 
d="M973 1032q32 -9 133 -42t161 -46v-273q-35 10 -135 42.5t-159 46.5v272zM1866 1524q64 29 123 -8.5t59 -107.5v-972q0 -68 -56 -106q-238 -163 -490 -163q-91 0 -187 21.5t-164 48t-153 48t-156 21.5q-251 0 -458 -88v-378q0 -40 -28 -68t-68 -28h-64q-40 0 -68 28
t-28 68v1544q-44 31 -70 79.5t-26 104.5q0 95 68.5 161.5t164.5 62.5q86 -4 148 -64.5t67 -145.5q3 -47 -15 -94q133 48 272 48q91 0 187 -21.5t164.5 -48t153.5 -48t156 -21.5q196 0 468 127zM678 490v285q-135 -13 -294 -69v-282q136 49 294 66zM1856 1028v282
q-155 -65 -294 -90v-288q-141 -23 -295 11v274q-37 6 -79 17t-70.5 20.5l-75 25t-69.5 22.5v-270q-154 43 -295 23v287q-23 -2 -46.5 -6.5t-41 -9t-46.5 -14t-44.5 -15.5t-55 -20.5t-60.5 -22.5v-282q185 68 294 83v-280q163 15 295 -15v-274q47 -8 93 -20.5t114 -35.5
t87 -29v269q153 -42 295 -22v-286q148 15 294 108v282q-125 -80 -294 -104v284q51 8 108 26t87.5 30t98.5 40z" />
    <glyph glyph-name="terminal" unicode="Terminal" horiz-adv-x="2560" 
d="M1032 700l-777 -777q-28 -28 -68 -28t-68 28l-91 90q-28 28 -28 68t28 68l616 619l-616 619q-28 29 -28 68.5t28 67.5l91 90q28 28 68 28t68 -28l777 -777q28 -28 28 -68t-28 -68zM2560 -32q0 -40 -28 -68t-68 -28h-1216q-40 0 -68 28t-28 68v128q0 40 28 68t68 28h1216
q40 0 68 -28t28 -68v-128z" />
    <glyph glyph-name="code" unicode="Code" horiz-adv-x="2560" 
d="M1116 -254l-244 71q-19 5 -28.5 22t-4.5 37l546 1881q5 19 22 28.5t37 4.5l244 -71q19 -5 28.5 -22t4.5 -37l-546 -1881q-6 -20 -23 -29.5t-36 -3.5zM660 195q-13 -15 -33 -15.5t-35 13.5l-577 540q-15 14 -15 35t15 35l577 540q15 13 34.5 12.5t33.5 -14.5l174 -185
q14 -15 12.5 -35t-16.5 -34l-362 -319l362 -319q15 -14 16 -34t-12 -35zM1968 192q-15 -14 -35 -13t-33 16l-174 185q-14 15 -12.5 35t16.5 34l362 319l-362 319q-15 14 -16 34t12 35l174 186q14 14 34 14.5t34 -12.5l577 -541q15 -14 15 -35t-15 -35z" />
    <glyph glyph-name="reply-all" unicode="Reply&#x2d;all" horiz-adv-x="2304" 
d="M545 1033l704 608q33 24 68.5 23t63 -28.5t27.5 -67.5v-331q115 -9 212.5 -26t190.5 -46t167 -69t136 -97t103 -128t64 -164t23 -204q0 -176 -97 -346t-236 -271q-41 -30 -84.5 -1.5t-28.5 76.5q46 147 53.5 260t-20 194.5t-93.5 137.5t-161 88.5t-229 47.5v-337
q0 -40 -27.5 -67.5t-63 -28.5t-68.5 23l-704 608q-33 29 -33 73t33 73zM33 887q-33 29 -33 73t33 73l704 608q33 24 68.5 23t63 -28.5t27.5 -67.5v-63l-434 -375q-32 -28 -55 -77.5t-23 -92.5v0q0 -43 23 -92.5t55 -77.5l434 -375v-63q0 -40 -27.5 -67.5t-63 -28.5t-68.5 23
z" />
    <glyph glyph-name="location-arrow" unicode="LOCATION&#x2d;ARROW" 
d="M1778 1778q45 19 92 13t83 -31t63 -63t31 -83t-13 -92l-768 -1663q-32 -69 -95.5 -97t-124 -14.5t-106 64t-45.5 124.5v703h-703q-74 0 -124.5 45.5t-64 106t14.5 124t97 95.5z" />
    <glyph glyph-name="crop" unicode="CROP" 
d="M1952 384q40 0 68 -28t28 -68v-192q0 -40 -28 -68t-68 -28h-160v-160q0 -40 -28 -68t-68 -28h-192q-40 0 -68 28t-28 68v1131l-587 -587h459v-384h-928q-40 0 -68 28t-28 68v1056h-160q-40 0 -68 28t-28 68v192q0 40 28 68t68 28h160v160q0 40 28 68t68 28h192
q40 0 68 -28t28 -68v-1131l587 587h-459v384h843l237 237q19 19 45.5 19t45.5 -19l90 -90q19 -19 19 -45.5t-19 -45.5l-237 -237v-971h160z" />
    <glyph glyph-name="code-branch" unicode="CODE&#x2d;BRANCH" horiz-adv-x="1536" 
d="M1536 1216q0 -104 -61 -187.5t-157 -116.5q-3 -167 -86 -271q-27 -34 -61 -60t-76 -44t-77 -29.5t-88 -19.5t-83.5 -12t-87.5 -9q-74 -7 -105 -10.5t-80 -14.5t-79 -26q-41 -20 -60 -54q91 -35 148 -116t57 -182q0 -133 -93.5 -226.5t-226.5 -93.5t-226.5 93.5
t-93.5 226.5q0 106 62.5 190.5t161.5 115.5v797q-99 31 -161.5 115t-62.5 190q0 133 93.5 226.5t226.5 93.5t226.5 -93.5t93.5 -226.5q0 -106 -62.5 -190t-161.5 -115v-576q45 21 105.5 35.5t103 19.5t116.5 12q70 6 108 11t90.5 16t86.5 29.5t56 46.5q41 52 44 148
q-101 30 -165.5 114.5t-64.5 192.5q0 133 93.5 226.5t226.5 93.5t226.5 -93.5t93.5 -226.5zM320 1536q-26 0 -45 -19t-19 -45t19 -45t45 -19t45 19t19 45t-19 45t-45 19zM320 0q26 0 45 19t19 45t-19 45t-45 19t-45 -19t-19 -45t19 -45t45 -19zM1216 1280q-26 0 -45 -19
t-19 -45t19 -45t45 -19t45 19t19 45t-19 45t-45 19z" />
    <glyph glyph-name="unlink" unicode="UNLINK" 
d="M1216 168q14 -14 14 -34t-14 -34l-178 -178q-117 -117 -273.5 -158t-313 0t-273.5 158t-158 273.5t0 313t158 273.5l178 178q14 14 34 14t34 -14l159 -158q14 -14 14 -34t-14 -34l-179 -179q-84 -84 -84 -203.5t84 -203.5t203.5 -84t203.5 84l179 179q14 14 34 14t34 -14
zM990 1209l-158 159q-14 14 -14 34t14 34l178 178q117 117 273.5 158t313 0t273.5 -158t158 -273.5t0 -313t-158 -273.5l-178 -178q-14 -14 -34 -14t-34 14l-159 158q-14 14 -14 34t14 34l179 179q84 84 84 203.5t-84 203.5t-203.5 84t-203.5 -84l-179 -179q-14 -14 -34 -14
t-34 14zM1929 -228q-28 -28 -67.5 -28t-67.5 28l-1766 1766q-28 28 -28 67.5t28 67.5l91 91q28 28 67.5 28t67.5 -28l1766 -1766q28 -28 28 -67.5t-28 -67.5z" />
    <glyph glyph-name="question" unicode="Question" horiz-adv-x="1536" 
d="M808 1792q127 0 253 -47.5t225.5 -128t161.5 -196t62 -242.5q0 -94 -27.5 -172t-72 -129t-97.5 -92.5t-106.5 -71.5t-98 -56.5t-72 -57t-27.5 -64.5v-23q0 -40 -28 -68t-68 -28h-290q-40 0 -68 28t-28 68v39q0 51 12 97.5t27.5 80.5t46.5 69t52.5 55.5t64 48.5t62 39
t64.5 36q107 60 151.5 101t44.5 103q0 84 -87.5 141.5t-187.5 57.5q-58 0 -103 -12t-85 -40.5t-70.5 -60.5t-72.5 -85q-24 -31 -63 -35t-70 19l-173 130q-31 23 -36.5 62t16.5 70q126 181 291 272.5t397 91.5zM768 298q115 0 196 -81t81 -196t-81 -196t-196 -81t-196 81
t-81 196t81 196t196 81z" />
    <glyph glyph-name="info" unicode="INFO" horiz-adv-x="768" 
d="M80 95h80v578h-80q-33 0 -56.5 23.5t-23.5 56.5v191q0 33 23.5 56.5t56.5 23.5h448q33 0 56.5 -23.5t23.5 -56.5v-849h80q33 0 56.5 -23.5t23.5 -56.5v-191q0 -33 -23.5 -56.5t-56.5 -23.5h-608q-33 0 -56.5 23.5t-23.5 56.5v191q0 33 23.5 56.5t56.5 23.5zM384 1792
q119 0 203.5 -84.5t84.5 -203.5t-84.5 -203.5t-203.5 -84.5t-203.5 84.5t-84.5 203.5t84.5 203.5t203.5 84.5z" />
    <glyph glyph-name="exclamation" unicode="Exclamation" horiz-adv-x="768" 
d="M704 64q0 -132 -94 -226t-226 -94t-226 94t-94 226t94 226t226 94t226 -94t94 -226zM101 1691q-2 41 26.5 71t69.5 30h374q41 0 69.5 -30t26.5 -71l-54 -1088q-2 -38 -30 -64.5t-66 -26.5h-266q-38 0 -66 26.5t-30 64.5z" />
    <glyph glyph-name="superscript" unicode="SUPERSCRIPT" 
d="M1984 1152q26 0 45 -19t19 -45v-128q0 -26 -19 -45t-45 -19h-384q-26 0 -45 19t-19 45v128q0 26 19 45t45 19h64v384h-64q-26 0 -45 19t-19 45q0 17 7 29l64 128q8 14 24.5 24.5t32.5 10.5h192q26 0 45 -19t19 -45v-576h64zM1344 1536q26 0 45 -19t19 -45v-192
q0 -26 -19 -45t-45 -19h-134l-311 -448l311 -448h134q26 0 45 -19t19 -45v-192q0 -26 -19 -45t-45 -19h-268q-14 0 -29.5 8t-22.5 19l-320 460l-319 -460q-20 -27 -53 -27h-268q-26 0 -45 19t-19 45v192q0 26 19 45t45 19h134l311 448l-311 448h-134q-26 0 -45 19t-19 45
v192q0 26 19 45t45 19h268q14 0 29.5 -8t22.5 -19l320 -460l319 460q20 27 53 27h268z" />
    <glyph glyph-name="subscript" unicode="SUBSCRIPT" 
d="M1984 0q26 0 45 -19t19 -45v-128q0 -26 -19 -45t-45 -19h-384q-26 0 -45 19t-19 45v128q0 26 19 45t45 19h64v384h-64q-26 0 -45 19t-19 45q0 17 7 29l64 128q8 14 24.5 24.5t32.5 10.5h192q26 0 45 -19t19 -45v-576h64zM1344 1536q26 0 45 -19t19 -45v-192
q0 -26 -19 -45t-45 -19h-134l-311 -448l311 -448h134q26 0 45 -19t19 -45v-192q0 -26 -19 -45t-45 -19h-268q-14 0 -29.5 8t-22.5 19l-320 460l-319 -460q-20 -27 -53 -27h-268q-26 0 -45 19t-19 45v192q0 26 19 45t45 19h134l311 448l-311 448h-134q-26 0 -45 19t-19 45
v192q0 26 19 45t45 19h268q14 0 29.5 -8t22.5 -19l320 -460l319 460q20 27 53 27h268z" />
    <glyph glyph-name="eraser" unicode="ERASER" 
d="M1992 696l-568 -568h576q20 0 34 -14t14 -34v-160q0 -20 -14 -34t-34 -14h-1424q-33 0 -73 16.5t-63 39.5l-384 384q-56 56 -56 136t56 136l1024 1024q56 56 136 56t136 -56l640 -640q56 -56 56 -136t-56 -136zM781 947l-498 -499l320 -320h458l270 269z" />
    <glyph glyph-name="puzzle-piece" unicode="PUZZLE&#x2d;PIECE" horiz-adv-x="2304" 
d="M2078 637q107 0 166.5 -76.5t59.5 -186.5q0 -105 -58.5 -175.5t-161.5 -70.5q-44 0 -82.5 15t-67.5 36t-57 42.5t-63 36.5t-75 15q-49 0 -81.5 -26.5t-45 -69t-15.5 -93.5t3.5 -102.5t14 -94t14.5 -69.5l7 -26q-38 0 -104.5 -7t-130 -15t-136.5 -14.5t-134 -3t-112 16
t-79.5 44.5t-28.5 82q0 39 15 74.5t36 63.5t42.5 56.5t36.5 67t15 82.5q0 103 -70.5 161t-176.5 58q-109 0 -181.5 -58.5t-72.5 -166.5q0 -46 16.5 -88t40 -73t47 -58.5t40 -55t16.5 -51.5q0 -57 -39.5 -94t-102.5 -51t-139.5 -17.5t-152.5 4.5t-139 17t-102 18l-40 8v1333
l126 -24q366 -58 505 20q72 42 73 119q0 29 -20 66t-43.5 69t-43.5 84t-20 108q0 107 77 166t188 59q105 0 175.5 -58.5t70.5 -160.5q0 -44 -15 -82.5t-36 -67t-42.5 -56.5t-36.5 -63.5t-15 -74.5q0 -68 43.5 -105.5t112.5 -43t152.5 3.5t167.5 32t153 44.5t112 38.5l44 17
l-37 -137q-94 -387 -27 -514q30 -53 86 -54q29 0 66 19.5t69 43.5t84.5 43.5t108.5 19.5z" />
    <glyph glyph-name="microphone" unicode="MICROPHONE" horiz-adv-x="1408" 
d="M704 384q-159 0 -271.5 112.5t-112.5 271.5v640q0 159 112.5 271.5t271.5 112.5t271.5 -112.5t112.5 -271.5v-640q0 -159 -112.5 -271.5t-271.5 -112.5zM1344 1024q26 0 45 -19t19 -45v-192q0 -131 -47 -252t-128 -212.5t-193.5 -153.5t-239.5 -79v-135h224q26 0 45 -19
t19 -45v-64q0 -26 -19 -45t-45 -19h-640q-26 0 -45 19t-19 45v64q0 26 19 45t45 19h224v137q-173 24 -312.5 128.5t-217.5 262t-78 335.5v161q0 26 19 45t45 19h64q26 0 45 -19t19 -45v-169q0 -132 59 -249.5t165.5 -194t236.5 -89.5q149 -15 279.5 51t207 189t76.5 270v192
q0 26 19 45t45 19h64z" />
    <glyph glyph-name="microphone-slash" unicode="MICROPHONE&#x2d;SLASH" horiz-adv-x="2560" 
d="M2535 -40q21 -17 24.5 -43t-12.5 -47l-79 -101q-17 -21 -43 -24.5t-47 12.5l-2353 1819q-21 17 -24.5 43t12.5 47l79 101q17 21 43 24.5t47 -12.5l714 -552v181q0 159 112.5 271.5t271.5 112.5t271.5 -112.5t112.5 -271.5v-640q0 -52 -21 -119l106 -82q43 99 43 201v192
q0 26 19 45t45 19h64q26 0 45 -19t19 -45v-192q0 -167 -80 -321zM1600 -64q26 0 45 -19t19 -45v-64q0 -26 -19 -45t-45 -19h-640q-26 0 -45 19t-19 45v64q0 26 19 45t45 19h224v137q-173 24 -312.5 128.5t-217.5 262t-78 335.5v28l208 -161q38 -163 159.5 -277.5
t285.5 -130.5q28 -3 81 1l201 -155q-71 -25 -135 -33v-135h224z" />
    <glyph glyph-name="shield" unicode="SHIELD" 
d="M1866 1457q54 -23 86 -71t32 -106q0 -184 -31.5 -355t-84 -308.5t-125 -261t-152.5 -217t-167.5 -170t-168 -127t-157.5 -82.5q-74 -31 -148 0q-131 55 -256.5 149.5t-240 235t-201 308.5t-137.5 383t-51 445q0 58 32 106t86 71l768 320q38 15 74 15t74 -15z" />
    <glyph glyph-name="calendar" unicode="CALENDAR" horiz-adv-x="1792" 
d="M48 1024h1696q20 0 34 -14t14 -34v-1040q0 -80 -56 -136t-136 -56h-1408q-80 0 -136 56t-56 136v1040q0 20 14 34t34 14zM1792 1200q0 -20 -14 -34t-34 -14h-1696q-20 0 -34 14t-14 34v144q0 80 56 136t136 56h192v208q0 20 14 34t34 14h160q20 0 34 -14t14 -34v-208h512
v208q0 20 14 34t34 14h160q20 0 34 -14t14 -34v-208h192q80 0 136 -56t56 -136v-144z" />
    <glyph glyph-name="fire-extinguisher" unicode="FIRE&#x2d;EXTINGUISHER" horiz-adv-x="1792" 
d="M1736 1687q22 4 39 -11t17 -37v-462q0 -22 -17 -37t-39 -11l-672 112q-10 2 -17 6t-11.5 10t-7 11.5t-3.5 13.5l-1.5 12t0.5 11v7h-160v-108q126 -33 207 -136t81 -236v-992q0 -40 -28 -68t-68 -28h-576q-40 0 -68 28t-28 68v987q0 134 81.5 239t206.5 138v108h-59
q-45 1 -83.5 0.5t-73.5 -5t-65.5 -14t-58 -28t-52.5 -46.5t-49 -69.5t-46 -97.5q-15 -37 -51.5 -52.5t-73.5 -0.5t-52.5 51.5t-0.5 73.5q20 49 40 89.5t52 86.5t68.5 80t88 63t111.5 44q-23 55 -13.5 109.5t37.5 98t77.5 70.5t107.5 27q73 0 131 -41.5t81.5 -109t2.5 -137.5
h233v8v9.5t1 10t2.5 11.5t4.5 10.5t7 10t10.5 7t14.5 4.5zM576 1504q26 0 45 19t19 45t-19 45t-45 19t-45 -19t-19 -45t19 -45t45 -19z" />
    <glyph glyph-name="rocket" unicode="ROCKET" 
d="M2020 1716q28 -129 28 -331q0 -149 -38 -277.5t-110.5 -231t-160 -182t-203.5 -153.5v-418q0 -49 -31 -99t-75 -72l-395 -198q-22 -10 -43 -10q-40 0 -68 28t-28 68v415l-90 -89q-40 -38 -93 -36.5t-88 36.5l-204 203q-38 40 -36.5 93t36.5 88l90 90h-415q-40 0 -68 28
t-28 68q0 21 10 43l198 395q22 44 72 75t99 31h417q74 116 154 204t182 160t231 110t279 38q201 0 330 -28q17 -4 30.5 -18t17.5 -30zM1536 1120q66 0 113 47t47 113t-47 113t-113 47t-113 -47t-47 -113t47 -113t113 -47z" />
    <glyph glyph-name="chevron-circle-left" unicode="CHEVRON&#x2d;CIRCLE&#x2d;LEFT" 
d="M1024 -224q-202 0 -385.5 78.5t-316.5 211.5t-211.5 316.5t-78.5 385.5t78.5 385.5t211.5 316.5t316.5 211.5t385.5 78.5t385.5 -78.5t316.5 -211.5t211.5 -316.5t78.5 -385.5t-78.5 -385.5t-211.5 -316.5t-316.5 -211.5t-385.5 -78.5zM568 700l542 -542q28 -28 68 -28
t68 28l68 68q28 28 28 68t-28 68l-406 406l406 406q28 28 28 68t-28 68l-68 68q-28 28 -68 28t-68 -28l-542 -542q-28 -28 -28 -68t28 -68z" />
    <glyph glyph-name="chevron-circle-right" unicode="CHEVRON&#x2d;CIRCLE&#x2d;RIGHT" 
d="M1024 1760q202 0 385.5 -78.5t316.5 -211.5t211.5 -316.5t78.5 -385.5t-78.5 -385.5t-211.5 -316.5t-316.5 -211.5t-385.5 -78.5t-385.5 78.5t-316.5 211.5t-211.5 316.5t-78.5 385.5t78.5 385.5t211.5 316.5t316.5 211.5t385.5 78.5zM1480 836l-542 542q-28 28 -68 28
t-68 -28l-68 -68q-28 -28 -28 -68t28 -68l406 -406l-406 -406q-28 -28 -28 -68t28 -68l68 -68q28 -28 68 -28t68 28l542 542q28 28 28 68t-28 68z" />
    <glyph glyph-name="chevron-circle-up" unicode="CHEVRON&#x2d;CIRCLE&#x2d;UP" 
d="M32 768q0 202 78.5 385.5t211.5 316.5t316.5 211.5t385.5 78.5t385.5 -78.5t316.5 -211.5t211.5 -316.5t78.5 -385.5t-78.5 -385.5t-211.5 -316.5t-316.5 -211.5t-385.5 -78.5t-385.5 78.5t-316.5 211.5t-211.5 316.5t-78.5 385.5zM956 1224l-542 -542q-28 -28 -28 -68
t28 -68l68 -68q28 -28 68 -28t68 28l406 406l406 -406q28 -28 68 -28t68 28l68 68q28 28 28 68t-28 68l-542 542q-28 28 -68 28t-68 -28z" />
    <glyph glyph-name="chevron-circle-down" unicode="CHEVRON&#x2d;CIRCLE&#x2d;DOWN" 
d="M2016 768q0 -202 -78.5 -385.5t-211.5 -316.5t-316.5 -211.5t-385.5 -78.5t-385.5 78.5t-316.5 211.5t-211.5 316.5t-78.5 385.5t78.5 385.5t211.5 316.5t316.5 211.5t385.5 78.5t385.5 -78.5t316.5 -211.5t211.5 -316.5t78.5 -385.5zM1092 312l542 542q28 28 28 68
t-28 68l-68 68q-28 28 -68 28t-68 -28l-406 -406l-406 406q-28 28 -68 28t-68 -28l-68 -68q-28 -28 -28 -68t28 -68l542 -542q28 -28 68 -28t68 28z" />
    <glyph glyph-name="anchor" unicode="ANCHOR" horiz-adv-x="2304" 
d="M52 384q-32 0 -44.5 30t10.5 52l268 268q14 14 34 14t34 -14l268 -268q23 -22 10.5 -52t-44.5 -30h-140q39 -104 133 -186.5t207 -128t236 -61.5v760h-208q-20 0 -34 14t-14 34v160q0 20 14 34t34 14h208v22q-113 40 -184.5 139t-71.5 223q0 161 114 273.5t275 110.5
q157 -2 268 -114.5t111 -269.5q0 -124 -71.5 -223t-184.5 -139v-22h208q20 0 34 -14t14 -34v-160q0 -20 -14 -34t-34 -14h-208v-760q123 16 236.5 62t207 128t132.5 186h-140q-32 0 -44.5 30t10.5 52l268 268q14 14 34 14t34 -14l268 -268q23 -22 10.5 -52t-44.5 -30h-129
q-25 -120 -93 -223.5t-164 -179t-213.5 -129.5t-245 -81t-255.5 -27q-161 0 -319 43t-292.5 122t-231 202.5t-128.5 272.5h-129zM1152 1536q-53 0 -90.5 -37.5t-37.5 -90.5t37.5 -90.5t90.5 -37.5t90.5 37.5t37.5 90.5t-37.5 90.5t-90.5 37.5z" />
    <glyph glyph-name="unlock-alt" unicode="UNLOCK&#x2d;ALT" horiz-adv-x="1792" 
d="M1600 768q80 0 136 -56t56 -136v-640q0 -80 -56 -136t-136 -56h-1408q-80 0 -136 56t-56 136v640q0 80 56 136t136 56h96v410q0 165 81 306.5t220.5 224.5t304.5 83t305.5 -81t222.5 -221.5t82 -305.5v-64q0 -40 -28 -68t-68 -28h-128q-40 0 -68 28t-28 68v64
q0 120 -85.5 204.5t-205.5 83.5q-118 -1 -201.5 -87t-83.5 -205v-412h992zM1056 160v192q0 66 -47 113t-113 47t-113 -47t-47 -113v-192q0 -66 47 -113t113 -47t113 47t47 113z" />
    <glyph glyph-name="bullseye" unicode="BULLSEYE" horiz-adv-x="1984" 
d="M992 1760q202 0 385.5 -78.5t316.5 -211.5t211.5 -316.5t78.5 -385.5t-78.5 -385.5t-211.5 -316.5t-316.5 -211.5t-385.5 -78.5t-385.5 78.5t-316.5 211.5t-211.5 316.5t-78.5 385.5t78.5 385.5t211.5 316.5t316.5 211.5t385.5 78.5zM992 32q200 0 369.5 98.5t268 268
t98.5 369.5t-98.5 369.5t-268 268t-369.5 98.5t-369.5 -98.5t-268 -268t-98.5 -369.5t98.5 -369.5t268 -268t369.5 -98.5zM992 1280q212 0 362 -150t150 -362t-150 -362t-362 -150t-362 150t-150 362t150 362t362 150zM992 512q106 0 181 75t75 181t-75 181t-181 75
t-181 -75t-75 -181t75 -181t181 -75z" />
    <glyph glyph-name="ellipsis-h" unicode="Ellipsis&#x2d;H" 
d="M1312 768q0 -119 -84.5 -203.5t-203.5 -84.5t-203.5 84.5t-84.5 203.5t84.5 203.5t203.5 84.5t203.5 -84.5t84.5 -203.5zM1728 1056q119 0 203.5 -84.5t84.5 -203.5t-84.5 -203.5t-203.5 -84.5t-203.5 84.5t-84.5 203.5t84.5 203.5t203.5 84.5zM320 1056
q119 0 203.5 -84.5t84.5 -203.5t-84.5 -203.5t-203.5 -84.5t-203.5 84.5t-84.5 203.5t84.5 203.5t203.5 84.5z" />
    <glyph glyph-name="ellipsis-v" unicode="ELLIPSIS&#x2d;V" horiz-adv-x="768" 
d="M384 1056q119 0 203.5 -84.5t84.5 -203.5t-84.5 -203.5t-203.5 -84.5t-203.5 84.5t-84.5 203.5t84.5 203.5t203.5 84.5zM96 1472q0 119 84.5 203.5t203.5 84.5t203.5 -84.5t84.5 -203.5t-84.5 -203.5t-203.5 -84.5t-203.5 84.5t-84.5 203.5zM96 64q0 119 84.5 203.5
t203.5 84.5t203.5 -84.5t84.5 -203.5t-84.5 -203.5t-203.5 -84.5t-203.5 84.5t-84.5 203.5z" />
    <glyph glyph-name="rss-square" unicode="RSS&#x2d;SQUARE" horiz-adv-x="1792" 
d="M1600 1664q80 0 136 -56t56 -136v-1408q0 -80 -56 -136t-136 -56h-1408q-80 0 -136 56t-56 136v1408q0 80 56 136t136 56h1408zM448 128q80 0 136 56t56 136t-56 136t-136 56t-136 -56t-56 -136t56 -136t136 -56zM1078 128q19 0 33 14t13 34q-9 163 -76.5 310.5
t-176.5 256.5t-256.5 176.5t-310.5 76.5q-20 1 -34 -13t-14 -33v-137q0 -18 12.5 -31t30.5 -15q240 -16 410 -186t186 -410q2 -18 15 -30.5t31 -12.5h137zM1490 128q20 0 33.5 14t12.5 33q-9 247 -109 470.5t-264 388t-388.5 265t-471.5 109.5q-19 1 -33 -12.5t-14 -33.5
v-137q0 -19 12.5 -32t31.5 -14q201 -8 384 -90.5t316.5 -216t216 -316.5t90.5 -384q1 -19 14 -31.5t32 -12.5h137z" />
    <glyph glyph-name="play-circle" unicode="PLAY&#x2d;CIRCLE" 
d="M1024 1760q202 0 385.5 -78.5t316.5 -211.5t211.5 -316.5t78.5 -385.5t-78.5 -385.5t-211.5 -316.5t-316.5 -211.5t-385.5 -78.5t-385.5 78.5t-316.5 211.5t-211.5 316.5t-78.5 385.5t78.5 385.5t211.5 316.5t316.5 211.5t385.5 78.5zM1487 672q49 27 49 83.5t-49 84.5
l-704 428q-48 26 -95.5 -1.5t-47.5 -82.5v-832q0 -55 47.5 -82.5t95.5 -1.5z" />
    <glyph glyph-name="ticket" unicode="TICKET" horiz-adv-x="2304" 
d="M2304 960q-80 0 -136 -56t-56 -136t56 -136t136 -56v-384q0 -80 -56 -136t-136 -56h-1920q-80 0 -136 56t-56 136v384q80 0 136 56t56 136t-56 136t-136 56v384q0 80 56 136t136 56h1920q80 0 136 -56t56 -136v-384z" />
    <glyph glyph-name="minus-square" unicode="MINUS&#x2d;SQUARE" horiz-adv-x="1792" 
d="M1600 1664q80 0 136 -56t56 -136v-1408q0 -80 -56 -136t-136 -56h-1408q-80 0 -136 56t-56 136v1408q0 80 56 136t136 56h1408zM368 608h1056q20 0 34 14t14 34v224q0 20 -14 34t-34 14h-1056q-20 0 -34 -14t-14 -34v-224q0 -20 14 -34t34 -14z" />
    <glyph glyph-name="level-up" unicode="LEVEL&#x2d;UP" horiz-adv-x="1408" 
d="M1380 1216q28 -28 28 -67.5t-28 -67.5l-88 -89q-28 -29 -69.5 -28t-69.5 31l-225 242v-1397q0 -40 -28 -68t-68 -28h-784q-32 0 -44.5 30t10.5 52l224 224q14 14 34 14h336v1173l-225 -242q-28 -30 -69.5 -31t-69.5 28l-88 89q-28 28 -28 67.5t28 67.5l544 548
q28 28 68 28t68 -28z" />
    <glyph glyph-name="level-down" unicode="LEVEL&#x2d;DOWN" horiz-adv-x="1408" 
d="M1380 320l-544 -548q-28 -28 -68 -28t-68 28l-544 548q-28 28 -28 67.5t28 67.5l88 89q28 29 69.5 28t69.5 -31l225 -242v1173h-336q-20 0 -34 14l-224 224q-23 22 -10.5 52t44.5 30h784q40 0 68 -28t28 -68v-1397l225 242q28 30 69.5 31t69.5 -28l88 -89
q28 -28 28 -67.5t-28 -67.5z" />
    <glyph glyph-name="check-square" unicode="CHECK&#x2d;SQUARE" horiz-adv-x="1792" 
d="M1600 -128h-1408q-80 0 -136 56t-56 136v1408q0 80 56 136t136 56h1408q80 0 136 -56t56 -136v-1408q0 -80 -56 -136t-136 -56zM781 264l736 736q19 19 19 45.5t-19 45.5l-90 90q-19 19 -45.5 19t-45.5 -19l-600 -600l-280 280q-19 19 -45.5 19t-45.5 -19l-90 -90
q-19 -19 -19 -45.5t19 -45.5l416 -416q19 -19 45 -19t45 19z" />
    <glyph glyph-name="pen-square" unicode="Pen&#x2d;square" horiz-adv-x="1792" 
d="M1600 -128h-1408q-80 0 -136 56t-56 136v1408q0 80 56 136t136 56h1408q80 0 136 -56t56 -136v-1408q0 -80 -56 -136t-136 -56zM952 1080l-542 -542l-26 -229q-2 -23 14.5 -39t39.5 -14l228 25l543 543q16 16 0 34l-222 222q-8 7 -18 7t-17 -7zM1380 1132l-120 120
q-28 28 -68 28t-68 -28l-92 -92q-16 -16 0 -34l222 -222q16 -16 34 0l92 92q28 28 28 68t-28 68z" />
    <glyph glyph-name="external-link-square" unicode="EXTERNAL&#x2d;LINK&#x2d;SQUARE" horiz-adv-x="1792" 
d="M1792 1472v-1408q0 -80 -56 -136t-136 -56h-1408q-80 0 -136 56t-56 136v1408q0 80 56 136t136 56h1408q80 0 136 -56t56 -136zM1536 1284q0 52 -36 88t-88 36h-529q-39 0 -66.5 -27t-27.5 -66v-60q0 -40 28 -67t68 -26l224 6l-829 -824q-23 -23 -23.5 -56.5t22.5 -56.5
l80 -80q23 -23 56.5 -22.5t56.5 23.5l824 829l-6 -224q-1 -40 26 -68t67 -28h60q39 0 66 27.5t27 66.5v529z" />
    <glyph glyph-name="share-square" unicode="SHARE&#x2d;SQUARE" horiz-adv-x="2304" 
d="M2274 1082l-576 -544q-46 -43 -104 -18t-58 88v288q-150 -1 -261 -14.5t-202 -44t-145 -81.5t-80.5 -126.5t-19 -179.5t48.5 -240q13 -45 -25 -71t-75 2q-124 94 -210.5 252t-86.5 322q0 121 28.5 219.5t78 169.5t125.5 124.5t162 87t197 54.5t221.5 29t243.5 9v288
q0 63 58 88t104 -18l576 -544q30 -28 30 -70t-30 -70zM1536 275q0 22 16.5 36.5t38.5 11.5q16 -3 41 -3q50 0 96 16q23 8 43.5 -6t20.5 -39v-355q0 -80 -56 -136t-136 -56h-1408q-80 0 -136 56t-56 136v1408q0 80 56 136t136 56h484q24 0 38 -18t10 -40t-26 -33
q-118 -62 -204 -150q-15 -15 -34 -15h-204v-1280h1280v275z" />
    <glyph glyph-name="compass" unicode="COMPASS" horiz-adv-x="1984" 
d="M902 859q38 37 91 37t90 -37t37 -90t-37 -91t-90 -38t-91 38t-38 91t38 90zM992 1760q202 0 385.5 -78.5t316.5 -211.5t211.5 -316.5t78.5 -385.5t-78.5 -385.5t-211.5 -316.5t-316.5 -211.5t-385.5 -78.5t-385.5 78.5t-316.5 211.5t-211.5 316.5t-78.5 385.5t78.5 385.5
t211.5 316.5t316.5 211.5t385.5 78.5zM1497 1168q23 50 -16 88.5t-89 16.5l-578 -264q-18 -8 -36.5 -26.5t-26.5 -36.5l-264 -578q-14 -32 -1 -63.5t42 -42.5t64 1l578 264q18 8 36.5 26.5t26.5 36.5z" />
    <glyph glyph-name="caret-square-down" unicode="CARET&#x2d;SQUARE&#x2d;DOWN" horiz-adv-x="1792" 
d="M1792 1472v-1408q0 -80 -56 -136t-136 -56h-1408q-80 0 -136 56t-56 136v1408q0 80 56 136t136 56h1408q80 0 136 -56t56 -136zM370 910l492 -492q14 -14 34 -14t34 14l492 492q23 22 10.5 52t-44.5 30h-984q-32 0 -44.5 -30t10.5 -52z" />
    <glyph glyph-name="caret-square-up" unicode="CARET&#x2d;SQUARE&#x2d;UP" horiz-adv-x="1792" 
d="M0 64v1408q0 80 56 136t136 56h1408q80 0 136 -56t56 -136v-1408q0 -80 -56 -136t-136 -56h-1408q-80 0 -136 56t-56 136zM1422 626l-492 492q-14 14 -34 14t-34 -14l-492 -492q-23 -22 -10.5 -52t44.5 -30h984q32 0 44.5 30t-10.5 52z" />
    <glyph glyph-name="caret-square-right" unicode="CARET&#x2d;SQUARE&#x2d;RIGHT" horiz-adv-x="1792" 
d="M192 1664h1408q80 0 136 -56t56 -136v-1408q0 -80 -56 -136t-136 -56h-1408q-80 0 -136 56t-56 136v1408q0 80 56 136t136 56zM754 242l492 492q14 14 14 34t-14 34l-492 492q-22 23 -52 10.5t-30 -44.5v-984q0 -32 30 -44.5t52 10.5z" />
    <glyph glyph-name="euro-sign" unicode="EURO&#x2d;SIGN" horiz-adv-x="1280" 
d="M1243 137l35 -178q4 -19 -6 -35.5t-29 -20.5q-119 -31 -244 -31q-153 0 -291 46.5t-244 129.5t-182.5 197.5t-113.5 249.5h-120q-20 0 -34 14t-14 34v113q0 20 14 34t34 14h86q-6 83 0 169h-86q-20 0 -34 14t-14 34v119q0 20 14 34t34 14h132q89 256 310.5 416t508.5 160
q98 0 210 -21q20 -4 31.5 -21.5t6.5 -37.5l-48 -178q-5 -18 -21 -28t-35 -6q-74 16 -152 16q-161 0 -283.5 -80.5t-186.5 -219.5h553q23 0 37.5 -18t9.5 -40l-26 -119q-4 -16 -17.5 -27t-29.5 -11h-587q-8 -76 0 -169h537q23 0 37.5 -18t9.5 -41l-26 -113
q-4 -16 -17.5 -26.5t-29.5 -10.5h-454q60 -155 189 -248.5t296 -93.5q92 0 182 21q20 5 37 -6t21 -31z" />
    <glyph glyph-name="pound-sign" unicode="Pound&#x2d;Sign" horiz-adv-x="1280" 
d="M1232 384q20 0 34 -14t14 -34v-416q0 -20 -14 -34t-34 -14h-1184q-20 0 -34 14t-14 34v160q0 20 14 34t34 14h144v512h-112q-20 0 -34 14t-14 34v160q0 20 14 34t34 14h112v264q0 220 157 362t403 142q217 0 406 -140q16 -12 18.5 -32t-10.5 -36l-113 -142
q-11 -14 -29 -17.5t-34 6.5q-123 76 -231 76q-110 0 -178.5 -65.5t-68.5 -163.5v-254h336q20 0 34 -14t14 -34v-160q0 -20 -14 -34t-34 -14h-336v-507h490v203q0 20 14 34t34 14h182z" />
    <glyph glyph-name="dollar-sign" unicode="DOLLAR&#x2d;SIGN" horiz-adv-x="1152" 
d="M837 858q86 -25 155.5 -82.5t109 -134t49 -167t-23.5 -182.5q-46 -130 -163.5 -209t-259.5 -82v-193q0 -26 -19 -45t-45 -19h-128q-26 0 -45 19t-19 45v192q-193 0 -346 120q-24 18 -26 47.5t19 50.5l139 136q16 15 38 17.5t40 -9.5q62 -42 137 -42h265q49 0 83.5 34.5
t34.5 83.5q0 39 -23.5 70.5t-61.5 42.5l-410 120q-136 40 -229 145.5t-106 241.5q-12 127 44.5 238t161 175.5t230.5 64.5h10v192q0 26 19 45t45 19h128q26 0 45 -19t19 -45v-192q193 0 346 -120q24 -18 26 -47.5t-19 -50.5l-139 -136q-16 -15 -38 -17.5t-40 9.5
q-62 42 -137 42h-265q-49 0 -83.5 -34.5t-34.5 -83.5q0 -39 24 -71t61 -42z" />
    <glyph glyph-name="rupee-sign" unicode="RUPEE&#x2d;SIGN" horiz-adv-x="1280" 
d="M1232 1408h-292q36 -58 57 -128h235q20 0 34 -14t14 -34v-160q0 -20 -14 -34t-34 -14h-211q-22 -224 -173.5 -364.5t-380.5 -147.5l604 -557q24 -23 12 -53t-45 -30h-330q-17 0 -32 13l-661 609q-15 14 -15 35v212q0 20 14 34t34 14h336q124 0 202 63t97 172h-635
q-20 0 -34 14t-14 34v160q0 20 14 34t34 14h585q-81 109 -244 109h-341q-20 0 -34 14t-14 34v179q0 20 14 34t34 14h1184q20 0 34 -14t14 -34v-160q0 -20 -14 -34t-34 -14z" />
    <glyph glyph-name="yen-sign" unicode="YEN&#x2d;SIGN" horiz-adv-x="1536" 
d="M1405 1664q27 0 41 -23t1 -47l-320 -602h233q20 0 34 -14t14 -34v-128q0 -20 -14 -34t-34 -14h-353l-79 -149v-107h432q20 0 34 -14t14 -34v-128q0 -20 -14 -34t-34 -14h-432v-368q0 -20 -14 -34t-34 -14h-224q-20 0 -34 14t-14 34v368h-432q-20 0 -34 14t-14 34v128
q0 20 14 34t34 14h432v107l-79 149h-353q-20 0 -34 14t-14 34v128q0 20 14 34t34 14h233l-320 602q-13 24 1 47t41 23h261q30 0 43 -27l222 -453q26 -62 53 -133.5t41 -112.5l14 -41h5q51 148 109 287l221 453q14 27 44 27h261z" />
    <glyph glyph-name="ruble-sign" unicode="Ruble&#x2d;Sign" horiz-adv-x="1536" 
d="M957 512h-371v-128h646q20 0 34 -14t14 -34v-160q0 -20 -14 -34t-34 -14h-646v-208q0 -20 -14 -34t-34 -14h-234q-20 0 -34 14t-14 34v208h-208q-20 0 -34 14t-14 34v160q0 20 14 34t34 14h208v128h-208q-20 0 -34 14t-14 34v181q0 20 14 34t34 14h208v827q0 20 14 34
t34 14h653q256 0 417.5 -158.5t161.5 -413.5q0 -256 -162 -418t-417 -162zM586 1389v-600h310q143 0 224 82t81 221q0 136 -80.5 216.5t-219.5 80.5h-315z" />
    <glyph glyph-name="won-sign" unicode="WON&#x2d;SIGN" horiz-adv-x="2304" 
d="M2256 1024h-251l-29 -128h280q20 0 34 -14t14 -34v-160q0 -20 -14 -34t-34 -14h-340l-168 -731q-4 -16 -17 -26.5t-30 -10.5h-227q-17 0 -30 10.5t-17 26.5l-169 731h-221l-169 -731q-4 -16 -17 -26.5t-30 -10.5h-227q-17 0 -30 11t-17 27l-163 730h-336q-20 0 -34 14
t-14 34v160q0 20 14 34t34 14h278l-29 128h-249q-20 0 -34 14t-14 34v160q0 20 14 34t34 14h192l-72 323q-5 23 9 40.5t37 17.5h169q17 0 30.5 -11t16.5 -27l70 -343h435l80 344q4 16 17 26.5t30 10.5h176q17 0 29.5 -10.5t16.5 -26.5l79 -344h440l57 343q3 16 16.5 27
t30.5 11h185q23 0 37 -18t9 -41l-74 -322h192q20 0 34 -14t14 -34v-160q0 -20 -14 -34t-34 -14zM735 424l51 216h-156l44 -216q9 -45 16 -92t10 -72l2 -25h4l2 24q2 24 9 72t18 93zM845 896l30 128h-323l26 -128h267zM1097 896h101l-8 34q-10 40 -19 94h-47q-9 -54 -19 -94z
M1620 424l46 216h-156l50 -216q11 -45 18 -93t9 -72l2 -24h4q7 88 27 189zM1721 896l28 128h-327l30 -128h269z" />
    <glyph glyph-name="file" unicode="FILE" horiz-adv-x="1536" 
d="M896 1248q0 -40 28 -68t68 -28h544v-1312q0 -40 -28 -68t-68 -28h-1344q-40 0 -68 28t-28 68v1856q0 40 28 68t68 28h800v-544zM1536 1304v-24h-512v512h24q40 0 68 -28l392 -392q28 -28 28 -68z" />
    <glyph glyph-name="file-alt" unicode="FILE&#x2d;ALT" horiz-adv-x="1536" 
d="M896 1248q0 -40 28 -68t68 -28h544v-1312q0 -40 -28 -68t-68 -28h-1344q-40 0 -68 28t-28 68v1856q0 40 28 68t68 28h800v-544zM1152 304v32q0 20 -14 34t-34 14h-672q-20 0 -34 -14t-14 -34v-32q0 -20 14 -34t34 -14h672q20 0 34 14t14 34zM1152 560v32q0 20 -14 34
t-34 14h-672q-20 0 -34 -14t-14 -34v-32q0 -20 14 -34t34 -14h672q20 0 34 14t14 34zM1152 848q0 20 -14 34t-34 14h-672q-20 0 -34 -14t-14 -34v-32q0 -20 14 -34t34 -14h672q20 0 34 14t14 34v32zM1536 1304v-24h-512v512h24q40 0 68 -28l392 -392q28 -28 28 -68z" />
    <glyph glyph-name="sort-alpha-down" unicode="SORT&#x2d;ALPHA&#x2d;DOWN" horiz-adv-x="1792" 
d="M704 384q43 0 59 -39.5t-14 -69.5l-320 -384q-19 -19 -45 -19t-45 19l-320 384q-30 30 -14 69.5t59 39.5h192v1216q0 26 19 45t45 19h128q26 0 45 -19t19 -45v-1216h192zM1664 640q26 0 45 -19t19 -45v-71q0 -24 -12.5 -51.5t-30.5 -43.5l-245 -282h224q26 0 45 -19
t19 -45v-128q0 -26 -19 -45t-45 -19h-512q-26 0 -45 19t-19 45v71q0 24 12.5 51.5t30.5 43.5l245 282h-224q-26 0 -45 19t-19 45v128q0 26 19 45t45 19h512zM1788 982q4 -12 4 -22q0 -26 -19 -45t-45 -19h-99h-1q-19 0 -36.5 13t-23.5 31l-18 52h-284l-18 -52
q-6 -18 -24 -31t-37 -13h-99q-26 0 -45 19t-19 45q0 10 4 22l237 640q6 17 23.5 29.5t36.5 12.5h166q19 0 36.5 -12.5t23.5 -29.5zM1342 1216h132l-66 192z" />
    <glyph glyph-name="sort-alpha-up" unicode="SORT&#x2d;ALPHA&#x2d;UP" horiz-adv-x="1792" 
d="M64 1152q-43 0 -59 39.5t14 69.5l320 384q19 19 45 19t45 -19l320 -384q30 -30 14 -69.5t-59 -39.5h-192v-1216q0 -26 -19 -45t-45 -19h-128q-26 0 -45 19t-19 45v1216h-192zM1664 640q26 0 45 -19t19 -45v-71q0 -24 -12.5 -51.5t-30.5 -43.5l-245 -282h224q26 0 45 -19
t19 -45v-128q0 -26 -19 -45t-45 -19h-512q-26 0 -45 19t-19 45v71q0 24 12.5 51.5t30.5 43.5l245 282h-224q-26 0 -45 19t-19 45v128q0 26 19 45t45 19h512zM1788 982q4 -12 4 -22q0 -26 -19 -45t-45 -19h-99h-1q-19 0 -36.5 13t-23.5 31l-18 52h-284l-18 -52
q-6 -18 -24 -31t-37 -13h-99q-26 0 -45 19t-19 45q0 10 4 22l237 640q6 17 23.5 29.5t36.5 12.5h166q19 0 36.5 -12.5t23.5 -29.5zM1342 1216h132l-66 192z" />
    <glyph glyph-name="sort-amount-down" unicode="SORT&#x2d;AMOUNT&#x2d;DOWN" 
d="M1216 128q26 0 45 -19t19 -45v-128q0 -26 -19 -45t-45 -19h-256q-26 0 -45 19t-19 45v128q0 26 19 45t45 19h256zM704 384q43 0 59 -39.5t-14 -69.5l-320 -384q-19 -19 -45 -19t-45 19l-320 384q-30 30 -14 69.5t59 39.5h192v1216q0 26 19 45t45 19h128q26 0 45 -19
t19 -45v-1216h192zM1728 1152q26 0 45 -19t19 -45v-128q0 -26 -19 -45t-45 -19h-768q-26 0 -45 19t-19 45v128q0 26 19 45t45 19h768zM1472 640q26 0 45 -19t19 -45v-128q0 -26 -19 -45t-45 -19h-512q-26 0 -45 19t-19 45v128q0 26 19 45t45 19h512zM1984 1664q26 0 45 -19
t19 -45v-128q0 -26 -19 -45t-45 -19h-1024q-26 0 -45 19t-19 45v128q0 26 19 45t45 19h1024z" />
    <glyph glyph-name="sort-amount-up" unicode="SORT&#x2d;AMOUNT&#x2d;UP" 
d="M1216 128q26 0 45 -19t19 -45v-128q0 -26 -19 -45t-45 -19h-256q-26 0 -45 19t-19 45v128q0 26 19 45t45 19h256zM64 1152q-43 0 -59 39.5t14 69.5l320 384q19 19 45 19t45 -19l320 -384q30 -30 14 -69.5t-59 -39.5h-192v-1216q0 -26 -19 -45t-45 -19h-128q-26 0 -45 19
t-19 45v1216h-192zM1728 1152q26 0 45 -19t19 -45v-128q0 -26 -19 -45t-45 -19h-768q-26 0 -45 19t-19 45v128q0 26 19 45t45 19h768zM1472 640q26 0 45 -19t19 -45v-128q0 -26 -19 -45t-45 -19h-512q-26 0 -45 19t-19 45v128q0 26 19 45t45 19h512zM1984 1664q26 0 45 -19
t19 -45v-128q0 -26 -19 -45t-45 -19h-1024q-26 0 -45 19t-19 45v128q0 26 19 45t45 19h1024z" />
    <glyph glyph-name="sort-numeric-down" unicode="SORT&#x2d;NUMERIC&#x2d;DOWN" horiz-adv-x="1792" 
d="M1216 1408q-26 0 -45 19t-19 45q0 17 7 29l64 128q8 14 24.5 24.5t32.5 10.5h192q26 0 45 -19t19 -45v-448h64q26 0 45 -19t19 -45v-128q0 -26 -19 -45t-45 -19h-384q-26 0 -45 19t-19 45v128q0 26 19 45t45 19h64v256h-64zM1321 756q104 28 199 -8t151.5 -117.5
t56.5 -182.5v-43q0 -207 -83 -329.5t-262 -198.5q-25 -11 -50.5 1.5t-33.5 38.5l-39 80q-8 24 1.5 47.5t31.5 33.5q46 20 83 52q-146 15 -231.5 137.5t-43.5 272.5q20 70 84.5 133t135.5 83zM1408 368q33 0 56.5 23.5t23.5 56.5t-23.5 56.5t-56.5 23.5t-56.5 -23.5
t-23.5 -56.5t23.5 -56.5t56.5 -23.5zM704 384q43 0 59 -39.5t-14 -69.5l-320 -384q-19 -19 -45 -19t-45 19l-320 384q-30 30 -14 69.5t59 39.5h192v1216q0 26 19 45t45 19h128q26 0 45 -19t19 -45v-1216h192z" />
    <glyph glyph-name="sort-numeric-up" unicode="SORT&#x2d;NUMERIC&#x2d;UP" horiz-adv-x="1792" 
d="M1321 756q104 28 199 -8t151.5 -117.5t56.5 -182.5v-43q0 -207 -83 -329.5t-262 -198.5q-25 -11 -50.5 1.5t-33.5 38.5l-39 80q-8 24 1.5 47.5t31.5 33.5q46 20 83 52q-146 15 -231.5 137.5t-43.5 272.5q20 70 84.5 133t135.5 83zM1408 368q33 0 56.5 23.5t23.5 56.5
t-23.5 56.5t-56.5 23.5t-56.5 -23.5t-23.5 -56.5t23.5 -56.5t56.5 -23.5zM1216 1408q-26 0 -45 19t-19 45q0 17 7 29l64 128q8 14 24.5 24.5t32.5 10.5h192q26 0 45 -19t19 -45v-448h64q26 0 45 -19t19 -45v-128q0 -26 -19 -45t-45 -19h-384q-26 0 -45 19t-19 45v128
q0 26 19 45t45 19h64v256h-64zM429 1645l320 -384q30 -30 14 -69.5t-59 -39.5h-192v-1216q0 -26 -19 -45t-45 -19h-128q-26 0 -45 19t-19 45v1216h-192q-43 0 -59 39.5t14 69.5l320 384q19 19 45 19t45 -19z" />
    <glyph glyph-name="thumbs-up" unicode="THUMBS&#x2d;UP" 
d="M416 896q40 0 68 -28t28 -68v-960q0 -40 -28 -68t-68 -28h-320q-40 0 -68 28t-28 68v960q0 40 28 68t68 28h320zM256 -96q40 0 68 28t28 68t-28 68t-68 28t-68 -28t-28 -68t28 -68t68 -28zM1536 1466q0 -58 -17 -115t-38.5 -95t-45 -85.5t-32.5 -82.5h407q99 0 168 -69.5
t70 -162.5q0 -54 -21 -107.5t-57 -89.5v-1q31 -67 22.5 -158t-59.5 -159q24 -80 4.5 -163.5t-70.5 -136.5q26 -106 -25 -178q-24 -34 -64.5 -57.5t-80 -35t-101.5 -18t-102 -7.5t-107 -1h-11q-89 0 -185.5 22.5t-151 44t-141.5 60.5q-146 64 -211 65q-19 0 -33 14t-14 34
v855q0 20 14 34q83 82 189.5 236.5t167.5 215.5q27 27 48 71.5t30 74.5t23 90q11 44 18.5 70t25 70.5t41 67.5t51.5 23q35 0 67.5 -5t75 -25.5t72.5 -53.5t51.5 -95.5t21.5 -146.5z" />
    <glyph glyph-name="thumbs-down" unicode="THUMBS&#x2d;DOWN" 
d="M0 1568q0 40 28 68t68 28h320q40 0 68 -28t28 -68v-960q0 -40 -28 -68t-68 -28h-320q-40 0 -68 28t-28 68v960zM160 768q0 -40 28 -68t68 -28t68 28t28 68t-28 68t-68 28t-68 -28t-28 -68zM1248 -256q-28 0 -51.5 23t-41 67.5t-25 70.5t-18.5 70q-14 60 -23 90t-30 74.5
t-48 71.5q-61 61 -167.5 215.5t-189.5 236.5q-14 14 -14 34v855q0 20 14 34t33 14q65 1 211 65q87 39 141.5 60.5t151 44t185.5 22.5h11q67 0 107 -1t102 -7.5t101.5 -18t80 -35t64.5 -57.5q51 -72 25 -178q51 -53 70.5 -136.5t-4.5 -163.5q51 -68 59.5 -159t-22.5 -158v-1
q36 -36 57 -89.5t21 -107.5q-1 -93 -70 -162.5t-168 -69.5h-407q9 -35 32.5 -82.5t45 -85.5t38.5 -95t17 -115q0 -84 -21.5 -146.5t-51.5 -95.5t-72.5 -53.5t-75 -25.5t-67.5 -5z" />
    <glyph glyph-name="long-arrow-down" unicode="LONG&#x2d;ARROW&#x2d;DOWN" horiz-adv-x="1280" 
d="M1046 646q28 28 68 28t68 -28l68 -68q28 -28 28 -68t-28 -68l-542 -542q-28 -28 -68 -28t-68 28l-542 542q-28 28 -28 68t28 68l68 68q28 28 68 28t68 -28l262 -262v1184q0 40 28 68t68 28h96q40 0 68 -28t28 -68v-1184z" />
    <glyph glyph-name="long-arrow-up" unicode="LONG&#x2d;ARROW&#x2d;UP" horiz-adv-x="1280" 
d="M234 890q-28 -28 -68 -28t-68 28l-68 68q-28 28 -28 68t28 68l542 542q28 28 68 28t68 -28l542 -542q28 -28 28 -68t-28 -68l-68 -68q-28 -28 -68 -28t-68 28l-262 262v-1184q0 -40 -28 -68t-68 -28h-96q-40 0 -68 28t-28 68v1184z" />
    <glyph glyph-name="long-arrow-left" unicode="LONG&#x2d;ARROW&#x2d;LEFT" horiz-adv-x="1792" 
d="M774 362q28 -28 28 -68t-28 -68l-68 -68q-28 -28 -68 -28t-68 28l-542 542q-28 28 -28 68t28 68l542 542q28 28 68 28t68 -28l68 -68q28 -28 28 -68t-28 -68l-262 -262h1184q40 0 68 -28t28 -68v-96q0 -40 -28 -68t-68 -28h-1184z" />
    <glyph glyph-name="long-arrow-right" unicode="LONG&#x2d;ARROW&#x2d;RIGHT" horiz-adv-x="1792" 
d="M1018 1174q-28 28 -28 68t28 68l68 68q28 28 68 28t68 -28l542 -542q28 -28 28 -68t-28 -68l-542 -542q-28 -28 -68 -28t-68 28l-68 68q-28 28 -28 68t28 68l262 262h-1184q-40 0 -68 28t-28 68v96q0 40 28 68t68 28h1184z" />
    <glyph glyph-name="female" unicode="Female" horiz-adv-x="1024" 
d="M512 1792q106 0 181 -75t75 -181t-75 -181t-181 -75t-181 75t-75 181t75 181t181 75zM989 375q11 -46 -17.5 -82.5t-75.5 -36.5h-224v-416q0 -40 -28 -68t-68 -28h-128q-40 0 -68 28t-28 68v416h-224q-47 0 -75.5 36.5t-17.5 82.5l192 768q8 30 35 51.5t58 21.5h45
q72 -33 148.5 -32.5t145.5 32.5h45q31 0 58 -21.5t35 -51.5z" />
    <glyph glyph-name="male" unicode="Male" horiz-adv-x="768" 
d="M384 1792q106 0 181 -75t75 -181t-75 -181t-181 -75t-181 75t-75 181t75 181t181 75zM576 1216q80 0 136 -56t56 -136v-544q0 -40 -28 -68t-68 -28h-64v-544q0 -40 -28 -68t-68 -28h-256q-40 0 -68 28t-28 68v544h-64q-40 0 -68 28t-28 68v544q0 80 56 136t136 56h45
q72 -33 148.5 -32.5t145.5 32.5h45z" />
    <glyph glyph-name="sun" unicode="SUN" 
d="M1024 1152q159 0 271.5 -112.5t112.5 -271.5t-112.5 -271.5t-271.5 -112.5t-271.5 112.5t-112.5 271.5t112.5 271.5t271.5 112.5zM2010 830q38 -19 38 -62t-39 -62l-379 -190l134 -401q14 -41 -17 -71t-71 -17l-401 134l-189 -379q-20 -38 -62 -38t-62 38l-190 379
l-401 -134q-41 -13 -71 17t-17 71l134 402l-379 189q-38 20 -38 62t38 62l379 190l-134 401q-13 41 17.5 71t70.5 17l402 -134l189 379q20 38 62 38t62 -38l190 -380l401 134q41 14 71 -16.5t17 -70.5l-134 -402zM1386 406q98 98 133 230t0 264t-133 230t-230 133t-264 0
t-230 -133t-133 -230t0 -264t133 -230t230 -133t264 0t230 133z" />
    <glyph glyph-name="moon" unicode="MOON" 
d="M1133 -256q-208 0 -398 81t-327 218.5t-218 327t-81 397.5t81 398t218.5 327t327 218t397.5 81q91 0 187 -17q33 -6 38.5 -39t-23.5 -50q-188 -107 -297 -294t-109 -404q0 -123 36 -239t100.5 -209t153.5 -169t195 -119.5t225 -60t243 9.5q33 6 50 -23t-4 -55
q-145 -178 -353 -278.5t-442 -100.5z" />
    <glyph glyph-name="archive" unicode="ARCHIVE" 
d="M128 0v1152h1792v-1152q0 -53 -37.5 -90.5t-90.5 -37.5h-1536q-53 0 -90.5 37.5t-37.5 90.5zM768 848v-32q0 -20 14 -34t34 -14h416q20 0 34 14t14 34v32q0 20 -14 34t-34 14h-416q-20 0 -34 -14t-14 -34zM1920 1664q53 0 90.5 -37.5t37.5 -90.5v-192q0 -26 -19 -45
t-45 -19h-1920q-26 0 -45 19t-19 45v192q0 53 37.5 90.5t90.5 37.5h1792z" />
    <glyph glyph-name="bug" unicode="BUG" 
d="M2048 636q-1 -52 -39.5 -88t-91.5 -36h-221v-64q0 -131 -54 -245l241 -240q37 -37 37 -91t-37 -91t-91 -37t-91 37l-218 219q-158 -128 -363 -128v976q0 20 -14 34t-34 14h-96q-20 0 -34 -14t-14 -34v-976q-205 0 -363 128l-218 -219q-37 -37 -91 -37t-91 37t-37 91
t37 91l241 240q-54 114 -54 245v64h-221q-53 0 -91.5 36t-39.5 88q-2 54 36 93t92 39h224v235l-187 186q-37 37 -37 91t37 91t91 37t91 -37l218 -219h918l218 219q37 37 91 37t91 -37t37 -91t-37 -91l-187 -186v-235h224q54 0 92 -39t36 -93zM1028 1792q185 0 316.5 -131.5
t131.5 -316.5h-896q0 185 131.5 316.5t316.5 131.5z" />
    <glyph glyph-name="caret-square-left" unicode="CARET&#x2d;SQUARE&#x2d;LEFT" horiz-adv-x="1792" 
d="M1600 -128h-1408q-80 0 -136 56t-56 136v1408q0 80 56 136t136 56h1408q80 0 136 -56t56 -136v-1408q0 -80 -56 -136t-136 -56zM1038 1294l-492 -492q-14 -14 -14 -34t14 -34l492 -492q22 -23 52 -10.5t30 44.5v984q0 32 -30 44.5t-52 -10.5z" />
    <glyph glyph-name="dot-circle" unicode="Dot&#x2d;Circle" 
d="M1024 1760q202 0 385.5 -78.5t316.5 -211.5t211.5 -316.5t78.5 -385.5t-78.5 -385.5t-211.5 -316.5t-316.5 -211.5t-385.5 -78.5t-385.5 78.5t-316.5 211.5t-211.5 316.5t-78.5 385.5t78.5 385.5t211.5 316.5t316.5 211.5t385.5 78.5zM1344 768q0 132 -94 226t-226 94
t-226 -94t-94 -226t94 -226t226 -94t226 94t94 226z" />
    <glyph glyph-name="wheelchair" unicode="WHEELCHAIR" 
d="M1984 249l57 -114q12 -24 3.5 -49t-32.5 -37l-261 -132q-48 -24 -99 -6t-74 67l-251 534h-559q-48 0 -84 31.5t-43 78.5q-126 881 -129 914q0 109 79 185t189 71q100 -4 170.5 -76.5t73.5 -172.5q2 -98 -61 -172t-158 -88l19 -131h520q26 0 45 -19t19 -45v-128
q0 -26 -19 -45t-45 -19h-483l18 -128h529q34 0 68 -21.5t48 -52.5l230 -489l145 73q24 12 48.5 3.5t36.5 -32.5zM1245 384l103 -219q-83 -189 -257.5 -305t-386.5 -116q-191 0 -353 94.5t-256.5 256.5t-94.5 353q0 219 122.5 397t320.5 257q6 -42 19.5 -135t18.5 -130
q-103 -59 -164 -162.5t-61 -226.5q0 -185 131.5 -316.5t316.5 -131.5q168 0 294 110t149 274h98z" />
    <glyph glyph-name="lira-sign" unicode="LIRA&#x2d;SIGN" horiz-adv-x="1536" 
d="M1488 768q20 0 34.5 -15t13.5 -35q-16 -398 -262 -622t-652 -224h-318q-20 0 -34 14t-14 34v774l-198 -44q-22 -5 -40 9.5t-18 37.5v164q0 16 11 29t27 17l218 49v122l-198 -44q-22 -5 -40 9.5t-18 37.5v164q0 16 11 29t27 17l218 49v276q0 20 14 34t34 14h224
q20 0 34 -14t14 -34v-205l518 115q22 5 40 -9.5t18 -37.5v-164q0 -16 -11 -29t-27 -17l-538 -120v-122l518 115q22 5 40 -9.5t18 -37.5v-164q0 -16 -11 -29t-27 -17l-538 -120v-637q105 0 202.5 23t183 71t149 117t100.5 168t37 216q0 18 14.5 31.5t33.5 13.5h192z" />
    <glyph glyph-name="space-shuttle" unicode="SPACE&#x2d;SHUTTLE" horiz-adv-x="2560" 
d="M2370 959q89 -42 139.5 -92.5t50.5 -98.5t-50.5 -98.5t-139.5 -92.5q-205 -97 -482 -97h-1143q-32 -42 -67 -64h826q-118 -24 -220 -68t-173.5 -93t-137.5 -103.5t-126.5 -103.5t-126 -89t-150.5 -63.5t-186 -23.5v512h-64v-512q-79 0 -135.5 75t-56.5 181v256
q-128 0 -128 96v160q0 96 128 96v64q-128 0 -128 96v160q0 96 128 96v256q0 106 56.5 181t135.5 75v-512h64v512q101 0 186 -23.5t150.5 -63.5t126 -89t126.5 -103.5t137.5 -103.5t173.5 -93t220 -68h-826q35 -22 67 -64h1143q277 0 482 -97zM1952 608q36 0 61 33t31 80
t0 94t-31 80t-61 33q-14 0 -23 -9t-9 -23v-256q0 -14 9 -23t23 -9z" />
    <glyph glyph-name="envelope-square" unicode="ENVELOPE&#x2d;SQUARE" horiz-adv-x="1792" 
d="M1600 1664q80 0 136 -56t56 -136v-1408q0 -80 -56 -136t-136 -56h-1408q-80 0 -136 56t-56 136v1408q0 80 56 136t136 56h1408zM712 744q6 -4 29 -22t38.5 -29t38 -25t42.5 -21t36 -7t36 7t42.5 21t38 25t38.5 29t29 22q77 56 133.5 97t99.5 72.5t67.5 49.5t50.5 38
t35 27t34 27t36 28v101q0 40 -28 68t-68 28h-1088q-40 0 -68 -28t-28 -68v-101q11 -8 36 -28t34 -27t35 -27t50.5 -38t67.5 -49.5t99.5 -72.5t133.5 -97zM1536 921q-106 -82 -381 -281q-5 -4 -36 -27.5t-49.5 -36t-50 -30.5t-62 -26t-61.5 -8q-30 0 -61 8t-61.5 25.5
t-50 30.5t-49.5 36t-37 28q-275 199 -381 281v-569q0 -40 28 -68t68 -28h1088q40 0 68 28t28 68v569z" />
    <glyph glyph-name="university" unicode="UNIVERSITY" 
d="M1984 1280v-64q0 -14 -9 -23t-23 -9h-96v-48q0 -20 -14 -34t-34 -14h-1568q-20 0 -34 14t-14 34v48h-96q-14 0 -23 9t-9 23v64q0 21 20 30l928 352q6 2 12 2t12 -2l928 -352q20 -9 20 -30zM1888 64q40 0 68 -28t28 -68v-64q0 -14 -9 -23t-23 -9h-1856q-14 0 -23 9t-9 23
v64q0 40 28 68t68 28h1728zM384 1024h256v-768h256v768h256v-768h256v768h256v-768h144q20 0 34 -14t14 -34v-80h-1664v80q0 20 14 34t34 14h144v768z" />
    <glyph glyph-name="graduation-cap" unicode="GRADUATION&#x2d;CAP" horiz-adv-x="2560" 
d="M2489 1179q45 -14 62.5 -52.5t0 -77t-62.5 -52.5l-1115 -343q-94 -29 -188 0l-782 240q-78 -54 -83 -147q63 -37 63 -107q0 -65 -55 -103l102 -459q7 -30 -12.5 -54t-50.5 -24h-224q-31 0 -50.5 24t-12.5 54l102 459q-55 38 -55 103q0 72 66 109q5 106 71 188l-194 60
q-45 14 -62.5 52.5t0 77t62.5 52.5l1115 343q94 29 188 0zM1411 532l580 178l57 -454q0 -69 -103 -128t-280 -93.5t-385 -34.5t-385 34.5t-280 93.5t-103 128l57 454l580 -178q130 -41 262 0z" />
    <glyph glyph-name="language" unicode="LANGUAGE" horiz-adv-x="2560" 
d="M608 847l44 -150h-152l44 150l31 133h2q17 -85 31 -133zM2464 1408q40 0 68 -28t28 -68v-1088q0 -40 -28 -68t-68 -28h-1120v1280h1120zM2368 928v64q0 20 -14 34t-34 14h-256v64q0 20 -14 34t-34 14h-64q-20 0 -34 -14t-14 -34v-64h-256q-20 0 -34 -14t-14 -34v-64
q0 -20 14 -34t34 -14h457q-38 -86 -120 -173q-39 42 -69 84q-11 15 -29 19t-35 -6l-30 -17l-26 -15q-18 -10 -22 -31t8 -38q35 -51 84 -103q-42 -33 -105 -72q-17 -11 -22 -29t5 -35l32 -56q10 -18 30 -23t37 6q70 43 141 99q62 -50 142 -99q17 -11 37 -6t30 23l31 56
q10 17 5.5 35t-21.5 29q-49 30 -104 72q127 136 170 280h46q20 0 34 14t14 34zM0 1312q0 40 28 68t68 28h1120v-1280h-1120q-40 0 -68 28t-28 68v1088zM236 448q-8 -23 6 -43.5t39 -20.5h92q16 0 28.5 10t17.5 25l36 127h241l38 -128q5 -14 18 -24t28 -10h91q25 0 39.5 20.5
t6.5 43.5l-230 676q-12 32 -46 32h-130q-34 0 -45 -32z" />
    <glyph glyph-name="fax" unicode="FAX" 
d="M1920 1152q53 0 90.5 -37.5t37.5 -90.5v-1152q0 -53 -37.5 -90.5t-90.5 -37.5h-1280q-53 0 -90.5 37.5t-37.5 90.5v1792q0 53 37.5 90.5t90.5 37.5h971q22 0 48 -10.5t42 -26.5l181 -181q16 -16 27 -42.5t11 -48.5v-331zM1152 64v128q0 26 -19 45t-45 19h-128
q-26 0 -45 -19t-19 -45v-128q0 -26 19 -45t45 -19h128q26 0 45 19t19 45zM1152 576v128q0 26 -19 45t-45 19h-128q-26 0 -45 -19t-19 -45v-128q0 -26 19 -45t45 -19h128q26 0 45 19t19 45zM1664 64v128q0 26 -19 45t-45 19h-128q-26 0 -45 -19t-19 -45v-128q0 -26 19 -45
t45 -19h128q26 0 45 19t19 45zM1664 576v128q0 26 -19 45t-45 19h-128q-26 0 -45 -19t-19 -45v-128q0 -26 19 -45t45 -19h128q26 0 45 19t19 45zM1664 1024v256h-192q-26 0 -45 19t-19 45v192h-640v-512h896zM256 1280q53 0 90.5 -37.5t37.5 -90.5v-1280q0 -53 -37.5 -90.5
t-90.5 -37.5h-128q-53 0 -90.5 37.5t-37.5 90.5v1280q0 53 37.5 90.5t90.5 37.5h128z" />
    <glyph glyph-name="building" unicode="BUILDING" horiz-adv-x="1792" 
d="M1744 -128q20 0 34 -14t14 -34v-80h-1792v80q0 20 14 34t34 14h80v1824q0 40 28 68t68 28h1344q40 0 68 -28t28 -68v-1824h80zM512 1488v-160q0 -20 14 -34t34 -14h160q20 0 34 14t14 34v160q0 20 -14 34t-34 14h-160q-20 0 -34 -14t-14 -34zM512 1104v-160q0 -20 14 -34
t34 -14h160q20 0 34 14t14 34v160q0 20 -14 34t-34 14h-160q-20 0 -34 -14t-14 -34zM720 512q20 0 34 14t14 34v160q0 20 -14 34t-34 14h-160q-20 0 -34 -14t-14 -34v-160q0 -20 14 -34t34 -14h160zM1024 -128v336q0 20 -14 34t-34 14h-160q-20 0 -34 -14t-14 -34v-336h256z
M1280 560v160q0 20 -14 34t-34 14h-160q-20 0 -34 -14t-14 -34v-160q0 -20 14 -34t34 -14h160q20 0 34 14t14 34zM1280 944v160q0 20 -14 34t-34 14h-160q-20 0 -34 -14t-14 -34v-160q0 -20 14 -34t34 -14h160q20 0 34 14t14 34zM1280 1328v160q0 20 -14 34t-34 14h-160
q-20 0 -34 -14t-14 -34v-160q0 -20 14 -34t34 -14h160q20 0 34 14t14 34z" />
    <glyph glyph-name="child" unicode="CHILD" horiz-adv-x="1536" 
d="M480 1504q0 119 84.5 203.5t203.5 84.5t203.5 -84.5t84.5 -203.5t-84.5 -203.5t-203.5 -84.5t-203.5 84.5t-84.5 203.5zM1499 1499q37 -37 37 -91t-37 -91l-379 -378v-1067q0 -53 -37.5 -90.5t-90.5 -37.5h-64q-53 0 -90.5 37.5t-37.5 90.5v448h-64v-448
q0 -53 -37.5 -90.5t-90.5 -37.5h-64q-53 0 -90.5 37.5t-37.5 90.5v1067l-379 378q-37 37 -37 91t37 91t91 37t91 -37l346 -347h406l346 347q37 37 91 37t91 -37z" />
    <glyph glyph-name="paw" unicode="PAW" 
d="M1024 896q77 0 167 -38t173.5 -100.5t162.5 -146t137 -171t93 -178.5t35 -167q0 -105 -76 -164t-211 -59q-82 0 -169 25t-167 50t-145 25q-64 0 -144 -25t-167.5 -50t-169.5 -25q-135 0 -211 59t-76 164q0 76 35 167t93 178.5t137 171t162.5 146t173.5 100.5t167 38z
M435 946q31 -104 -9 -192t-127 -109t-170.5 38t-115.5 163q-31 104 9 192t127 109t170.5 -38t115.5 -163zM774 1030q-93 -25 -184 50t-126 205q-35 131 5 239.5t133 133.5t184 -50t126 -205q35 -131 -5 -239.5t-133 -133.5zM1899 1147q87 -21 127 -109t9 -192
q-32 -104 -115.5 -163t-170.5 -38t-127 109t-9 192q32 104 115.5 163t170.5 38zM1274 1030q-93 25 -133 133.5t-5 239.5q35 130 126 205t184 50t133 -133.5t5 -239.5q-35 -130 -126 -205t-184 -50z" />
    <glyph glyph-name="cube" unicode="CUBE" 
d="M956 1767q69 25 135 -1l832 -312q56 -21 90.5 -70t34.5 -109v-901q0 -54 -28.5 -100.5t-77.5 -70.5l-832 -416q-86 -43 -172 0l-832 416q-49 24 -77.5 70t-28.5 101v901q0 60 34 109.5t90 70.5zM1024 1518l-768 -288v-4l768 -312l768 312v4zM1152 94l640 320v536
l-640 -260v-596z" />
    <glyph glyph-name="cubes" unicode="CUBES" 
d="M1954 791q42 -16 68 -53t26 -82v-440q0 -41 -21.5 -76t-58.5 -53l-400 -200q-64 -32 -128 0l-416 208l-416 -208q-64 -32 -128 0l-400 200q-37 18 -58.5 53t-21.5 76v440q0 45 25.5 82t67.5 53l387 145v434q0 45 25.5 82t67.5 53l400 150q51 19 101 0l400 -150
q42 -16 68 -53t26 -82v-434zM1432 933v293l-340 -148v-273zM616 1376v-3l408 -165l408 165v3l-408 152zM952 211v302l-340 -155v-317zM952 659v3l-408 152l-408 -152v-3l408 -165zM1912 211v302l-340 -155v-317zM1912 659v3l-408 152l-408 -152v-3l408 -165z" />
    <glyph glyph-name="recycle" unicode="RECYCLE" 
d="M738 744q10 -42 -25 -66.5t-71 -1.5l-163 102l-203 -326q-24 -45 -18 -88.5t41.5 -75.5t84.5 -32h208q20 0 34 -14t14 -34v-160q0 -20 -14 -34t-34 -14h-208q-73 0 -139 26t-114.5 69.5t-81.5 103t-44 123.5t2 134t52 132l203 325l-163 102q-36 23 -28.5 64.5t48.5 51.5
l441 102q25 6 47.5 -8t28.5 -40zM1132 1476q-37 60 -108 60t-109 -60l-71 -115q-11 -17 -30.5 -21t-36.5 6l-135 84q-17 11 -21 30.5t6 36.5l71 115q55 88 144 134.5t182 46.5t182 -46.5t144 -134.5l165 -265l162 102q36 23 71.5 -2.5t25.5 -66.5l-102 -441
q-6 -26 -28.5 -40t-48.5 -8l-441 102q-42 10 -48.5 52.5t29.5 64.5l163 102zM1989 588q47 -75 57 -159t-16 -159t-75.5 -136.5t-126 -97.5t-164.5 -36h-384v-192q0 -43 -39.5 -59t-69.5 14l-320 320q-19 19 -19 45t19 45l320 320q30 30 69.5 14t39.5 -59v-192h384
q49 0 84.5 32t41.5 75.5t-18 88.5l-110 176q-10 17 -6 36t21 30l136 85q17 10 36 6t30 -21z" />
    <glyph glyph-name="car" unicode="CAR" 
d="M2000 1088q23 0 38 -19t9 -41l-24 -96q-4 -16 -17 -26t-30 -10h-80q88 -77 88 -192v-192q0 -94 -64 -168v-216q0 -53 -37.5 -90.5t-90.5 -37.5h-128q-53 0 -90.5 37.5t-37.5 90.5v128h-1024v-128q0 -53 -37.5 -90.5t-90.5 -37.5h-128q-53 0 -90.5 37.5t-37.5 90.5v216
q-64 74 -64 168v192q0 115 88 192h-80q-17 0 -30 10t-17 26l-24 96q-6 22 9 41t38 19h239l67 166q51 128 164.5 205t251.5 77h508q138 0 251.5 -77t164.5 -205l66 -166h240zM592 1159l-80 -199h1024l-80 199q-22 55 -70.5 88t-107.5 33h-508q-59 0 -107.5 -33t-70.5 -88z
M384 513q9 0 34.5 -0.5t38 0t34.5 1.5t34 5.5t25.5 11t19.5 18.5t6 28q0 58 -67 124.5t-125 66.5t-93 -35t-35 -93t35 -92.5t93 -34.5zM1664 513q58 0 93 34.5t35 92.5t-35 93t-93 35t-125 -66.5t-67 -124.5q0 -16 6 -28t19.5 -18.5t25.5 -11t34 -5.5t34.5 -1.5t38 0
t34.5 0.5z" />
    <glyph glyph-name="taxi" unicode="Taxi" 
d="M1848 825q87 -20 143.5 -89.5t56.5 -159.5v-192q0 -69 -35 -127.5t-93 -92.5v-164q0 -53 -37.5 -90.5t-90.5 -37.5h-128q-53 0 -90.5 37.5t-37.5 90.5v128h-1024v-128q0 -53 -37.5 -90.5t-90.5 -37.5h-128q-53 0 -90.5 37.5t-37.5 90.5v164q-58 34 -93 92t-35 128v192
q0 90 56.5 159.5t143.5 89.5l88 340q29 106 115 174.5t192 68.5h45v128q0 53 37.5 90.5t90.5 37.5h512q53 0 90.5 -37.5t37.5 -90.5v-128h45q106 0 192 -68.5t115 -174.5zM384 384q53 0 90.5 37.5t37.5 90.5t-37.5 90.5t-90.5 37.5t-90.5 -37.5t-37.5 -90.5t37.5 -90.5
t90.5 -37.5zM466 832h1116l-70 269q-6 22 -24 36.5t-35 14.5h-858q-17 0 -35.5 -15.5t-24.5 -39.5zM1664 384q53 0 90.5 37.5t37.5 90.5t-37.5 90.5t-90.5 37.5t-90.5 -37.5t-37.5 -90.5t37.5 -90.5t90.5 -37.5z" />
    <glyph glyph-name="tree" unicode="TREE" horiz-adv-x="1536" 
d="M1513 278q38 -43 14 -97q-11 -24 -34 -38.5t-50 -14.5h-547v-98l121 -193q16 -32 -2.5 -62.5t-54.5 -30.5h-384q-36 0 -54.5 30.5t-2.5 62.5l121 193v98h-547q-27 0 -50 14.5t-34 38.5q-24 54 14 97l319 362h-122q-27 0 -49.5 14t-33.5 38q-24 52 13 96l312 364h-115
q-27 0 -50.5 14.5t-33.5 39.5t-5.5 51t22.5 46l441 470q18 19 47 19t47 -19l441 -470q18 -20 22.5 -46t-5.5 -51t-33.5 -39.5t-50.5 -14.5h-115l312 -364q37 -44 13 -96q-11 -24 -33.5 -38t-49.5 -14h-122z" />
    <glyph glyph-name="database" unicode="Database" horiz-adv-x="1792" 
d="M1792 1499v-182q0 -79 -120 -146.5t-326.5 -107t-449.5 -39.5t-449.5 39.5t-326.5 107t-120 146.5v182q0 79 120 146.5t326.5 107t449.5 39.5t449.5 -39.5t326.5 -107t120 -146.5zM1792 1088v-411q0 -79 -120 -146.5t-326.5 -107t-449.5 -39.5t-449.5 39.5t-326.5 107
t-120 146.5v411q138 -96 378.5 -145t517.5 -49t517 49t379 145zM1792 448v-411q0 -79 -120 -146.5t-326.5 -107t-449.5 -39.5t-449.5 39.5t-326.5 107t-120 146.5v411q138 -96 378.5 -145t517.5 -49t517 49t379 145z" />
    <glyph glyph-name="file-pdf" unicode="FILE&#x2d;PDF" horiz-adv-x="1536" 
d="M728 768q-9 30 -13.5 75.5t-2.5 78.5t8 33q24 0 25 -78.5t-17 -108.5zM721 579q55 -101 138 -163q-43 -9 -84 -22.5t-99 -37.5t-69 -28q56 99 114 251zM344 80q6 18 19.5 37.5t32.5 39.5t33 33.5t33.5 30.5t21.5 19q-39 -62 -74 -102t-50.5 -50.5t-15.5 -7.5zM992 1152
h544v-1312q0 -40 -28 -68t-68 -28h-1344q-40 0 -68 28t-28 68v1856q0 40 28 68t68 28h800v-544q0 -40 28 -68t68 -28zM960 465q-116 71 -171 215q11 44 15.5 64.5t11.5 62.5t6.5 73.5t-8.5 56.5q-9 55 -51.5 76.5t-85.5 5.5t-54 -55q-24 -89 32 -308q-88 -209 -163 -343
l-1 -1q-25 -13 -50 -27.5t-53.5 -34t-52 -39.5t-42.5 -42.5t-29 -43.5t-8.5 -43.5t17.5 -41.5q15 -19 40.5 -29.5t45.5 -10.5q54 0 111 58t134 190q17 6 60.5 20.5t68 22.5t61 19t67 18t59.5 12q65 -35 135 -56.5t121 -21.5q41 0 67.5 20.5t33 49t0.5 58t-23 46.5
q-61 59 -294 29zM1508 1372q28 -28 28 -68v-24h-512v512h24q40 0 68 -28zM1212 351q-3 -3 -11 -5.5t-51.5 5.5t-109.5 36q142 11 172 -21q9 -9 0 -15z" />
    <glyph glyph-name="file-word" unicode="FILE&#x2d;WORD" horiz-adv-x="1536" 
d="M896 1248q0 -40 28 -68t68 -28h544v-1312q0 -40 -28 -68t-68 -28h-1344q-40 0 -68 28t-28 68v1856q0 40 28 68t68 28h800v-544zM1124 768q-17 0 -30 -11t-16 -27q-45 -205 -65.5 -324t-21 -136.5t0.5 -56.5q-8 56 -118 518q-4 16 -17 26.5t-30 10.5h-117
q-17 0 -29.5 -10.5t-16.5 -26.5q-115 -470 -118 -491q-9 110 -84 489q-3 17 -16.5 28t-30.5 11h-98q-23 0 -37.5 -18t-9.5 -40l151 -672q4 -16 17 -27t30 -11h148q17 0 30 10t17 26q13 54 35 140q46 182 55 224t12 78h2q2 -14 5.5 -36t4 -24t4.5 -22t6 -27.5t10 -41.5
t16 -63.5t24 -94.5t33 -133q4 -16 17 -26t29 -10h152q17 0 30 10.5t17 26.5l152 672q5 23 -9.5 41t-37.5 18h-96zM1536 1304v-24h-512v512h24q40 0 68 -28l392 -392q28 -28 28 -68z" />
    <glyph glyph-name="file-excel" unicode="FILE&#x2d;EXCEL" horiz-adv-x="1536" 
d="M896 1248q0 -40 28 -68t68 -28h544v-1312q0 -40 -28 -68t-68 -28h-1344q-40 0 -68 28t-28 68v1856q0 40 28 68t68 28h800v-544zM1136 822q15 24 1.5 49t-41.5 25h-139q-30 0 -43 -26l-146 -274q-23 49 -36.5 75.5t-21.5 39.5t-31.5 55t-56.5 104q-13 26 -43 26h-139
q-29 0 -42.5 -25t2.5 -49l241 -374l-241 -374q-15 -24 -1.5 -49t41.5 -25h140q30 0 42 25q29 53 62 113.5t42.5 78.5t20.5 39.5t21 43.5q68 -130 146 -275q12 -25 42 -25h140q28 0 41.5 25t-1.5 49l-240 374zM1536 1304v-24h-512v512h24q40 0 68 -28l392 -392q28 -28 28 -68
z" />
    <glyph glyph-name="file-powerpoint" unicode="FILE&#x2d;POWERPOINT" horiz-adv-x="1536" 
d="M775 707q53 0 81 -32q29 -33 29 -88t-30 -89q-31 -34 -84 -34h-108v243h112zM1508 1372q28 -28 28 -68v-24h-512v512h24q40 0 68 -28zM896 1248q0 -40 28 -68t68 -28h544v-1312q0 -40 -28 -68t-68 -28h-1344q-40 0 -68 28t-28 68v1856q0 40 28 68t68 28h800v-544z
M1108 587q0 135 -80 221.5t-212 86.5h-324q-20 0 -34 -14.5t-14 -33.5v-799q0 -20 14 -34t34 -14h124q20 0 34 14t14 34v229q5 0 43.5 -1.5t64 -1t71 6t77.5 16t70 34t62 56t40 84t16 116.5z" />
    <glyph glyph-name="file-image" unicode="FILE&#x2d;IMAGE" horiz-adv-x="1536" 
d="M1536 1304v-24h-512v512h24q40 0 68 -28l392 -392q28 -28 28 -68zM992 1152h544v-1312q0 -40 -28 -68t-68 -28h-1344q-40 0 -68 28t-28 68v1856q0 40 28 68t68 28h800v-544q0 -40 28 -68t68 -28zM450 1088q-80 0 -136 -56t-56 -136t56 -136t136 -56t136 56t56 136
t-56 136t-136 56zM1282 128v448l-158 158q-14 14 -34 14t-34 -14l-414 -414l-158 158q-14 14 -33 15t-33 -13l-158 -158l-2 -194h1024z" />
    <glyph glyph-name="file-archive" unicode="FILE&#x2d;ARCHIVE" horiz-adv-x="1536" 
d="M1508 1372q28 -28 28 -68v-24h-512v512h24q40 0 68 -28zM514 448q54 0 92 -31.5t38 -76.5t-38 -76.5t-92 -31.5t-92 31.5t-38 76.5t38 76.5t92 31.5zM896 1248q0 -40 28 -68t68 -28h544v-1312q0 -40 -28 -68t-68 -28h-1344q-40 0 -68 28t-28 68v1856q0 40 28 68t68 28
h418v-128h128v128h254v-544zM384 1664v-128h128v128h-128zM513 128q99 0 161.5 76.5t43.5 173.5l-69 351q-3 17 -16.5 28t-30.5 11h-88v128h128v128h-128v128h128v128h-128v128h128v128h-128v-128h-128v-128h128v-128h-128v-128h128v-128h-128v-128l-79 -388
q-20 -98 43 -175t163 -77z" />
    <glyph glyph-name="file-audio" unicode="File&#x2d;audio" horiz-adv-x="1536" 
d="M896 1248q0 -40 28 -68t68 -28h544v-1312q0 -40 -28 -68t-68 -28h-1344q-40 0 -68 28t-28 68v1856q0 40 28 68t68 28h800v-544zM640 176v544q0 32 -30 44.5t-52 -10.5l-142 -146h-112q-20 0 -34 -14t-14 -34v-224q0 -20 14 -34t34 -14h112l142 -146q22 -23 52 -10.5
t30 44.5zM773 366q-19 -19 -25.5 -41t-2 -41.5t16 -37t29.5 -28t38 -15t41.5 3t39.5 25.5q82 84 82 201t-82 201q-25 26 -56.5 30t-55.5 -11.5t-40 -39.5t-13 -55.5t28 -57.5q27 -28 27 -67t-27 -67zM1117 835q-25 26 -56.5 30t-55.5 -11.5t-40.5 -39.5t-13.5 -55.5
t28 -57.5q109 -112 109 -267.5t-109 -267.5q-26 -26 -29 -58t13.5 -55.5t41 -39t56 -11.5t56.5 30q163 168 163 401.5t-163 401.5zM1536 1304v-24h-512v512h24q40 0 68 -28l392 -392q28 -28 28 -68z" />
    <glyph glyph-name="file-video" unicode="FILE&#x2d;VIDEO" horiz-adv-x="1536" 
d="M1536 1304v-24h-512v512h24q40 0 68 -28l392 -392q28 -28 28 -68zM896 1248q0 -40 28 -68t68 -28h544v-1312q0 -40 -28 -68t-68 -28h-1344q-40 0 -68 28t-28 68v1856q0 40 28 68t68 28h800v-544zM1280 672q0 64 -59.5 88.5t-104.5 -20.5l-220 -220v152q0 40 -28 68
t-68 28h-448q-40 0 -68 -28t-28 -68v-448q0 -40 28 -68t68 -28h448q40 0 68 28t28 68v152l220 -220q45 -45 104.5 -20.5t59.5 88.5v448z" />
    <glyph glyph-name="file-code" unicode="FILE&#x2d;CODE" horiz-adv-x="1536" 
d="M1536 1304v-24h-512v512h24q40 0 68 -28l392 -392q28 -28 28 -68zM992 1152h544v-1312q0 -40 -28 -68t-68 -28h-1344q-40 0 -68 28t-28 68v1856q0 40 28 68t68 28h800v-544q0 -40 28 -68t68 -28zM493 190l78 84q6 6 6 14q0 10 -7 17l-163 143l163 143q7 7 7 17q0 8 -6 14
l-78 84q-7 7 -16 7t-15 -6l-259 -243q-7 -7 -7 -16t7 -16l259 -243q6 -6 15 -6t16 7zM698 -12q1 0 3 -0.5t3 -0.5q17 0 21 16l246 846v6q0 18 -15 21l-110 32q-1 0 -3 0.5t-3 0.5q-17 0 -21 -16l-246 -846v-6q0 -18 15 -21zM1341 432q7 7 7 16t-7 16l-259 243q-6 6 -15 6
t-16 -7l-78 -84q-6 -6 -6 -14q0 -10 7 -17l163 -143l-163 -143q-7 -7 -7 -17q0 -8 6 -14l78 -84q7 -7 16 -7t15 6z" />
    <glyph glyph-name="life-ring" unicode="LIFE&#x2d;RING" 
d="M1024 1760q202 0 385.5 -78.5t316.5 -211.5t211.5 -316.5t78.5 -385.5t-78.5 -385.5t-211.5 -316.5t-316.5 -211.5t-385.5 -78.5t-385.5 78.5t-316.5 211.5t-211.5 316.5t-78.5 385.5t78.5 385.5t211.5 316.5t316.5 211.5t385.5 78.5zM1719 1282q-32 43 -85 96t-96 85
l-254 -254q114 -67 181 -181zM1024 384q159 0 271.5 112.5t112.5 271.5t-112.5 271.5t-271.5 112.5t-271.5 -112.5t-112.5 -271.5t112.5 -271.5t271.5 -112.5zM510 1463q-43 -32 -96 -85t-85 -96l254 -254q67 114 181 181zM329 254q32 -43 85 -96t96 -85l254 254
q-114 67 -181 181zM1538 73q43 32 96 85t85 96l-254 254q-67 -114 -181 -181z" />
    <glyph glyph-name="circle-notch" unicode="CIRCLE&#x2d;NOTCH" 
d="M1152 1636q0 47 37 76t82 17q213 -55 382 -193t266 -339.5t97 -428.5q0 -202 -78.5 -385.5t-211 -316t-315.5 -211.5t-385 -79t-385.5 77.5t-316.5 209.5t-212 315t-80 385q-1 345 209 613.5t535 352.5q46 12 83 -17t37 -76v-67q0 -32 -19.5 -57.5t-51.5 -34.5
q-235 -66 -386 -262t-151 -447q0 -200 98.5 -369.5t268 -268t369.5 -98.5t369.5 98.5t268 268t98.5 369.5q0 251 -151 447t-386 262q-32 9 -51.5 34.5t-19.5 57.5v67z" />
    <glyph glyph-name="paper-plane" unicode="PAPER&#x2d;PLANE" 
d="M1904 1779q52 30 102 -4.5t40 -94.5l-288 -1728q-8 -46 -48.5 -68.5t-83.5 -4.5l-498 209l-254 -309q-27 -33 -68 -35.5t-71.5 25.5t-30.5 73v322l964 1174q14 17 -2 32.5t-33 0.5l-1149 -1013l-425 179q-55 23 -58.5 82t49.5 91z" />
    <glyph glyph-name="history" unicode="HISTORY" 
d="M2016 770q0 -161 -50 -312.5t-141.5 -274t-213.5 -214.5t-273.5 -142.5t-312.5 -50.5q-174 0 -334 57.5t-290 162.5q-33 27 -35 69.5t28 72.5l45 45q26 26 62.5 28t65.5 -20q200 -159 457 -159q200 0 369.5 98.5t268 268t98.5 369.5t-98.5 369.5t-268 268t-369.5 98.5
q-144 0 -273.5 -52.5t-230.5 -147.5l203 -203q30 -30 13.5 -69.5t-59.5 -39.5h-581q-26 0 -45 19t-19 45v581q0 43 39.5 59.5t69.5 -13.5l198 -198q136 130 312.5 202.5t372.5 72.5q202 0 385.5 -78.5t316 -211t211.5 -315.5t79 -385zM1292 455q-25 -32 -63.5 -37t-70.5 20
l-262 203v543q0 40 28 68t68 28h64q40 0 68 -28t28 -68v-417l163 -127q32 -25 37 -64t-20 -71z" />
    <glyph glyph-name="heading" unicode="HEADING" 
d="M1792 1408v-1280h128q26 0 45 -19t19 -45v-128q0 -26 -19 -45t-45 -19h-640q-26 0 -45 19t-19 45v128q0 26 19 45t45 19h128v512h-768v-512h128q26 0 45 -19t19 -45v-128q0 -26 -19 -45t-45 -19h-640q-26 0 -45 19t-19 45v128q0 26 19 45t45 19h128v1280h-128
q-26 0 -45 19t-19 45v128q0 26 19 45t45 19h640q26 0 45 -19t19 -45v-128q0 -26 -19 -45t-45 -19h-128v-512h768v512h-128q-26 0 -45 19t-19 45v128q0 26 19 45t45 19h640q26 0 45 -19t19 -45v-128q0 -26 -19 -45t-45 -19h-128z" />
    <glyph glyph-name="paragraph" unicode="PARAGRAPH" horiz-adv-x="1792" 
d="M1792 1600v-128q0 -26 -19 -45t-45 -19h-192v-1472q0 -26 -19 -45t-45 -19h-128q-26 0 -45 19t-19 45v1472h-128v-1472q0 -26 -19 -45t-45 -19h-128q-26 0 -45 19t-19 45v448h-128q-130 0 -248.5 51t-204 136.5t-136.5 204t-51 248.5t51 248.5t136.5 204t204 136.5
t248.5 51h960q26 0 45 -19t19 -45z" />
    <glyph glyph-name="sliders-h" unicode="SLIDERS&#x2d;H" 
d="M1984 256q26 0 45 -19t19 -45v-128q0 -26 -19 -45t-45 -19h-1344v-64q0 -26 -19 -45t-45 -19h-128q-26 0 -45 19t-19 45v64h-320q-26 0 -45 19t-19 45v128q0 26 19 45t45 19h320v64q0 26 19 45t45 19h128q26 0 45 -19t19 -45v-64h1344zM1984 896q26 0 45 -19t19 -45v-128
q0 -26 -19 -45t-45 -19h-320v-64q0 -26 -19 -45t-45 -19h-128q-26 0 -45 19t-19 45v64h-1344q-26 0 -45 19t-19 45v128q0 26 19 45t45 19h1344v64q0 26 19 45t45 19h128q26 0 45 -19t19 -45v-64h320zM1984 1536q26 0 45 -19t19 -45v-128q0 -26 -19 -45t-45 -19h-832v-64
q0 -26 -19 -45t-45 -19h-128q-26 0 -45 19t-19 45v64h-832q-26 0 -45 19t-19 45v128q0 26 19 45t45 19h832v64q0 26 19 45t45 19h128q26 0 45 -19t19 -45v-64h832z" />
    <glyph glyph-name="share-alt" unicode="SHARE&#x2d;ALT" horiz-adv-x="1792" 
d="M1408 512q159 0 271.5 -112.5t112.5 -271.5t-112.5 -271.5t-271.5 -112.5t-271.5 112.5t-112.5 271.5q0 42 9 83l-410 257q-107 -84 -239 -84q-159 0 -271.5 112.5t-112.5 271.5t112.5 271.5t271.5 112.5q132 0 239 -84l410 257q-9 40 -9 83q0 159 112.5 271.5
t271.5 112.5t271.5 -112.5t112.5 -271.5t-112.5 -271.5t-271.5 -112.5q-132 0 -239 84l-410 -257q9 -41 9 -83t-9 -83l410 -257q107 84 239 84z" />
    <glyph glyph-name="share-alt-square" unicode="SHARE&#x2d;ALT&#x2d;SQUARE" horiz-adv-x="1792" 
d="M1792 1472v-1408q0 -80 -56 -136t-136 -56h-1408q-80 0 -136 56t-56 136v1408q0 80 56 136t136 56h1408q80 0 136 -56t56 -136zM1216 608q-85 0 -151 -59l-272 163q7 26 7 56t-7 56l272 163q66 -59 151 -59q93 0 158.5 65.5t65.5 158.5t-65.5 158.5t-158.5 65.5
t-158.5 -65.5t-65.5 -158.5q0 -31 7 -56l-272 -163q-66 59 -151 59q-93 0 -158.5 -65.5t-65.5 -158.5t65.5 -158.5t158.5 -65.5q85 0 151 59l272 -163q-7 -26 -7 -56q0 -93 65.5 -158.5t158.5 -65.5t158.5 65.5t65.5 158.5t-65.5 158.5t-158.5 65.5z" />
    <glyph glyph-name="bomb" unicode="BOMB" 
d="M1762 1438l-208 -208l106 -106q28 -28 28 -68t-28 -68l-70 -69q74 -164 74 -343q0 -169 -66 -323.5t-177 -265.5t-265.5 -177t-323.5 -66t-323.5 66t-265.5 177t-177 265.5t-66 323.5t66 323.5t177 265.5t265.5 177t323.5 66q178 0 342 -74l70 70q28 28 68 28t68 -28
l106 -106l208 208zM2000 1552q20 0 34 -14t14 -34t-14 -34t-34 -14h-96q-20 0 -34 14t-14 34t14 34t34 14h96zM1760 1792q20 0 34 -14t14 -34v-96q0 -20 -14 -34t-34 -14t-34 14t-14 34v96q0 20 14 34t34 14zM1896 1572q-14 -14 -34 -14t-34 14t-14 34t14 34l68 68
q14 14 34 14t34 -14t14 -34t-14 -34zM1624 1572l-68 68q-14 14 -14 34t14 34t34 14t34 -14l68 -68q14 -14 14 -34t-14 -34t-34 -14t-34 14zM1896 1436l68 -68q14 -14 14 -34t-14 -34t-34 -14t-34 14l-68 68q-14 14 -14 34t14 34t34 14t34 -14zM448 704q0 106 75 181t181 75
q26 0 45 19t19 45t-19 45t-45 19q-159 0 -271.5 -112.5t-112.5 -271.5q0 -26 19 -45t45 -19t45 19t19 45z" />
    <glyph glyph-name="futbol" unicode="FUTBOL" 
d="M2016 768q0 -202 -78.5 -385.5t-211.5 -316.5t-316.5 -211.5t-385.5 -78.5t-385.5 78.5t-316.5 211.5t-211.5 316.5t-78.5 385.5t78.5 385.5t211.5 316.5t316.5 211.5t385.5 78.5t385.5 -78.5t316.5 -211.5t211.5 -316.5t78.5 -385.5zM1824 768v1l-104 -91l-251 234
l66 338l137 -13q-156 214 -403 293l55 -128l-300 -166l-300 166l55 128q-247 -79 -403 -293l138 13l65 -338l-251 -234l-104 91v-1q0 -263 154 -472l31 136l340 -42l145 -311l-119 -72q251 -81 498 0l-119 72l145 311l340 42l31 -136q154 209 154 472zM832 490l-120 365
l312 226l312 -226l-119 -365h-385z" />
    <glyph glyph-name="tty" unicode="Tty" 
d="M21 1377q163 163 367 265.5t420 133t432.5 0t420 -133t366.5 -265.5q18 -18 21 -43.5t-11 -47.5l-173 -277q-9 -14 -27 -24t-35 -10q-15 0 -27 5l-346 138q-19 7 -32.5 28t-13.5 41v7l24 238q-188 67 -385.5 66.5t-380.5 -66.5l24 -238v-7q0 -20 -13.5 -41t-32.5 -28
l-346 -138q-12 -5 -27 -5q-17 0 -35 10t-27 24l-173 277q-11 18 -11 39q0 31 21 52zM384 560q0 -20 -14 -34t-34 -14h-160q-20 0 -34 14t-14 34v160q0 20 14 34t34 14h160q20 0 34 -14t14 -34v-160zM768 560q0 -20 -14 -34t-34 -14h-160q-20 0 -34 14t-14 34v160q0 20 14 34
t34 14h160q20 0 34 -14t14 -34v-160zM1152 560q0 -20 -14 -34t-34 -14h-160q-20 0 -34 14t-14 34v160q0 20 14 34t34 14h160q20 0 34 -14t14 -34v-160zM1536 560q0 -20 -14 -34t-34 -14h-160q-20 0 -34 14t-14 34v160q0 20 14 34t34 14h160q20 0 34 -14t14 -34v-160z
M1920 560q0 -20 -14 -34t-34 -14h-160q-20 0 -34 14t-14 34v160q0 20 14 34t34 14h160q20 0 34 -14t14 -34v-160zM576 176q0 -20 -14 -34t-34 -14h-160q-20 0 -34 14t-14 34v160q0 20 14 34t34 14h160q20 0 34 -14t14 -34v-160zM960 176q0 -20 -14 -34t-34 -14h-160
q-20 0 -34 14t-14 34v160q0 20 14 34t34 14h160q20 0 34 -14t14 -34v-160zM1344 176q0 -20 -14 -34t-34 -14h-160q-20 0 -34 14t-14 34v160q0 20 14 34t34 14h160q20 0 34 -14t14 -34v-160zM1728 176q0 -20 -14 -34t-34 -14h-160q-20 0 -34 14t-14 34v160q0 20 14 34t34 14
h160q20 0 34 -14t14 -34v-160zM384 -208q0 -20 -14 -34t-34 -14h-160q-20 0 -34 14t-14 34v160q0 20 14 34t34 14h160q20 0 34 -14t14 -34v-160zM1536 -208q0 -20 -14 -34t-34 -14h-928q-20 0 -34 14t-14 34v160q0 20 14 34t34 14h928q20 0 34 -14t14 -34v-160zM1920 -208
q0 -20 -14 -34t-34 -14h-160q-20 0 -34 14t-14 34v160q0 20 14 34t34 14h160q20 0 34 -14t14 -34v-160z" />
    <glyph glyph-name="binoculars" unicode="BINOCULARS" 
d="M1664 1600v-192h-384v192q0 26 19 45t45 19h256q26 0 45 -19t19 -45zM256 1152q2 53 38 90.5t89 37.5h385v-640h-128v-640q0 -53 -37.5 -90.5t-90.5 -37.5h-384q-53 0 -90.5 37.5t-37.5 90.5v176q4 143 31 262t63 200t71.5 155.5t61.5 165.5t29 193zM1792 1152
q3 -102 29 -193t61.5 -165.5t71.5 -155.5t63 -200t31 -262v-176q0 -53 -37.5 -90.5t-90.5 -37.5h-384q-53 0 -90.5 37.5t-37.5 90.5v640h-128v640h385q53 0 89 -37.5t38 -90.5zM704 1664q26 0 45 -19t19 -45v-192h-384v192q0 26 19 45t45 19h256zM896 640v640h256v-640h-256
z" />
    <glyph glyph-name="plug" unicode="PLUG" horiz-adv-x="1536" 
d="M1280 1664v-384h-256v384q0 53 37.5 90.5t90.5 37.5t90.5 -37.5t37.5 -90.5zM1472 1152q26 0 45 -19t19 -45v-128q0 -26 -19 -45t-45 -19h-64v-128q0 -142 -68.5 -276t-186.5 -228t-257 -123v-397h-256v397q-139 29 -257 123t-186.5 228t-68.5 276v128h-64q-26 0 -45 19
t-19 45v128q0 26 19 45t45 19h1408zM512 1664v-384h-256v384q0 53 37.5 90.5t90.5 37.5t90.5 -37.5t37.5 -90.5z" />
    <glyph glyph-name="newspaper" unicode="NEWSPAPER" horiz-adv-x="2304" 
d="M2208 1536q40 0 68 -28t28 -68v-1248q0 -80 -56 -136t-136 -56h-1888q-93 0 -158.5 65.5t-65.5 158.5v1088q0 40 28 68t68 28h160v32q0 40 28 68t68 28h1856zM224 192q14 0 23 9t9 23v992h-64v-992q0 -14 9 -23t23 -9zM1168 256q20 0 34 14t14 34v32q0 20 -14 34t-34 14
h-608q-20 0 -34 -14t-14 -34v-32q0 -20 14 -34t34 -14h608zM2000 256q20 0 34 14t14 34v32q0 20 -14 34t-34 14h-608q-20 0 -34 -14t-14 -34v-32q0 -20 14 -34t34 -14h608zM1168 640q20 0 34 14t14 34v32q0 20 -14 34t-34 14h-608q-20 0 -34 -14t-14 -34v-32q0 -20 14 -34
t34 -14h608zM2000 640q20 0 34 14t14 34v32q0 20 -14 34t-34 14h-608q-20 0 -34 -14t-14 -34v-32q0 -20 14 -34t34 -14h608zM2000 1024q20 0 34 14t14 34v160q0 20 -14 34t-34 14h-1440q-20 0 -34 -14t-14 -34v-160q0 -20 14 -34t34 -14h1440z" />
    <glyph glyph-name="wifi" unicode="WIFI" horiz-adv-x="2560" 
d="M2540 1172q20 -19 20.5 -45.5t-19.5 -45.5l-137 -136q-19 -18 -44 -18.5t-45 16.5q-173 158 -382.5 257t-430.5 128.5t-442.5 0t-431 -128.5t-382.5 -257q-20 -17 -45.5 -16.5t-44.5 18.5l-137 136q-20 19 -19.5 45.5t20.5 45.5q175 161 383.5 272t427 165t449 54
t449 -54t427.5 -165t384 -272zM1280 384q106 0 181 -75t75 -181t-75 -181t-181 -75t-181 75t-75 181t75 181t181 75zM2091 718q21 -18 21.5 -45.5t-19.5 -46.5l-138 -136q-18 -18 -43.5 -19t-44.5 16q-165 143 -376 193.5t-421.5 0t-376.5 -193.5q-19 -17 -44.5 -16
t-43.5 19l-138 136q-20 19 -19.5 46.5t21.5 45.5q227 201 519 271.5t584 0t519 -271.5z" />
    <glyph glyph-name="calculator" unicode="Calculator" horiz-adv-x="1792" 
d="M1600 1792q76 0 134 -58t58 -134v-1664q0 -76 -58 -134t-134 -58h-1408q-76 0 -134 58t-58 134v1664q0 76 58 134t134 58h1408zM512 51v154q0 19 -16 35t-35 16h-154q-19 0 -35 -16t-16 -35v-154q0 -19 16 -35t35 -16h154q19 0 35 16t16 35zM512 563v154q0 19 -16 35
t-35 16h-154q-19 0 -35 -16t-16 -35v-154q0 -19 16 -35t35 -16h154q19 0 35 16t16 35zM1024 51v154q0 19 -16 35t-35 16h-154q-19 0 -35 -16t-16 -35v-154q0 -19 16 -35t35 -16h154q19 0 35 16t16 35zM1024 563v154q0 19 -16 35t-35 16h-154q-19 0 -35 -16t-16 -35v-154
q0 -19 16 -35t35 -16h154q19 0 35 16t16 35zM1536 51v666q0 19 -16 35t-35 16h-154q-19 0 -35 -16t-16 -35v-666q0 -19 16 -35t35 -16h154q19 0 35 16t16 35zM1536 1075v410q0 19 -16 35t-35 16h-1178q-19 0 -35 -16t-16 -35v-410q0 -19 16 -35t35 -16h1178q19 0 35 16
t16 35z" />
    <glyph glyph-name="bell-slash" unicode="Bell&#x2d;Slash" horiz-adv-x="2560" 
d="M2535 -40q21 -17 24.5 -43t-12.5 -47l-79 -101q-17 -21 -43 -24.5t-47 12.5l-2353 1819q-21 17 -24.5 43t12.5 47l79 101q17 21 43 24.5t47 -12.5l580 -449q146 199 390 251v83q0 53 37.5 90.5t90.5 37.5t90.5 -37.5t37.5 -90.5v-83q223 -46 367.5 -218t144.5 -403
q0 -109 15 -202t33.5 -150t52 -112t52.5 -78t54 -59q10 -11 15 -16q34 -37 34 -87q0 -3 -0.5 -5.5t-1.5 -5.5t-1 -5zM629 786l851 -658h-968q-55 0 -91.5 38.5t-36.5 89.5q0 50 34 87q1 1 20 21.5t24 26t23.5 27.5t25.5 33.5t23.5 37t24.5 45t21 50t20.5 59.5t15.5 66t13 77
zM1280 -256q-106 0 -181 75t-75 181h512q0 -106 -75 -181t-181 -75z" />
    <glyph glyph-name="trash" unicode="TRASH" horiz-adv-x="1792" 
d="M1728 1664q26 0 45 -19t19 -45v-128q0 -26 -19 -45t-45 -19h-1664q-26 0 -45 19t-19 45v128q0 26 19 45t45 19h480l38 75q11 22 35.5 37.5t49.5 15.5h457q25 0 50 -15.5t36 -37.5l38 -75h480zM213 -76l-85 1356h1536l-85 -1356q-5 -74 -60.5 -127t-130.5 -53h-984
q-75 0 -130.5 53t-60.5 127z" />
    <glyph glyph-name="copyright" unicode="COPYRIGHT" 
d="M1024 1760q202 0 385.5 -78.5t316.5 -211.5t211.5 -316.5t78.5 -385.5t-78.5 -385.5t-211.5 -316.5t-316.5 -211.5t-385.5 -78.5t-385.5 78.5t-316.5 211.5t-211.5 316.5t-78.5 385.5t78.5 385.5t211.5 316.5t316.5 211.5t385.5 78.5zM1493 373q11 13 11 31q0 15 -9 28
l-98 135q-14 18 -36 19t-38 -15l-13.5 -13.5t-34.5 -27t-56.5 -35.5t-71.5 -26.5t-87 -12.5q-138 0 -217.5 95.5t-79.5 223.5q0 131 80.5 218t215.5 87q63 0 126.5 -26t87.5 -43.5t33 -26.5q16 -15 38.5 -12.5t34.5 21.5l90 139q8 14 8 26q0 17 -13 32q-11 11 -20 19.5
t-50.5 37t-84 47.5t-113.5 35.5t-146 16.5q-121 0 -227.5 -44.5t-183 -120.5t-120.5 -182.5t-44 -226.5q0 -163 73 -296t206 -209.5t299 -76.5q79 0 153 19t121 42.5t89 54.5t55.5 44.5t21.5 22.5z" />
    <glyph glyph-name="at" unicode="AT" 
d="M1024 1760q206 0 387.5 -64t315.5 -179t211.5 -284t77.5 -369q0 -118 -33.5 -220.5t-102.5 -187t-188 -133.5t-277 -49q-39 0 -61 1t-56.5 4.5t-55.5 12t-45 23t-40 39t-25 57.5q-53 -68 -136 -111t-164 -43q-178 0 -281 114t-103 310q0 131 44.5 245t119.5 192.5
t175.5 123.5t211.5 45q169 0 240 -87q2 20 18 34t36 14h180q45 0 73.5 -35t20.5 -79l-94 -485q-6 -35 -7.5 -61.5t13.5 -42t48 -16.5q71 8 125.5 59.5t81 124t26.5 151.5q0 150 -58.5 272.5t-159.5 202t-234 122.5t-284 43q-150 0 -286 -58.5t-234.5 -157t-157 -234.5
t-58.5 -286t58.5 -286t157 -234.5t234.5 -157t286 -58.5q216 0 398 117q31 19 66.5 13t58.5 -34l41 -50q27 -33 20.5 -75.5t-42.5 -65.5q-248 -161 -542 -161q-202 0 -385.5 78.5t-316.5 211.5t-211.5 316.5t-78.5 385.5t78.5 385.5t211.5 316.5t316.5 211.5t385.5 78.5z
M937 542q81 0 157 82.5t76 208.5q0 77 -37.5 120t-104.5 43q-89 0 -162 -81.5t-73 -209.5q0 -76 38.5 -119.5t105.5 -43.5z" />
    <glyph glyph-name="eye-dropper" unicode="EYE&#x2d;DROPPER" 
d="M203 459l507 506l512 -512l-507 -506q-75 -75 -181 -75h-182l-224 -128l-128 128l128 224v182q0 106 75 181zM1936 1680q112 -113 112 -271.5t-113 -271.5l-308 -309l53 -52q28 -28 28 -68t-28 -68l-164 -164q-28 -28 -67.5 -28t-68.5 28l-648 648q-28 28 -28 68t28 68
l164 164q28 28 67.5 28t68.5 -28l52 -53l309 309q113 112 272 112t271 -112z" />
    <glyph glyph-name="paint-brush" unicode="Paint&#x2d;Brush" 
d="M668 555l352 -294q0 -4 2 -16.5t2 -19.5q0 -226 -140.5 -353.5t-371.5 -127.5q-105 0 -191 33t-145 90t-99 136t-58.5 169t-18.5 191q6 -4 43.5 -31.5t66.5 -48t62.5 -39t48.5 -18.5q44 0 58 39q58 152 156.5 217t232.5 73zM1832 1792q87 0 151.5 -56.5t64.5 -141.5
q0 -78 -56 -184q-119 -221 -203 -370t-161.5 -270t-134.5 -190.5t-116.5 -116t-112 -63t-116.5 -16.5q-40 0 -90 12l-255 213q-35 76 -35 155q0 38 3 64.5t18 60t30.5 57.5t57 68t80.5 80t117.5 106.5t151.5 133.5t199.5 174.5t245.5 217.5q73 66 161 66z" />
    <glyph glyph-name="birthday-cake" unicode="BIRTHDAY&#x2d;CAKE" horiz-adv-x="1792" 
d="M1792 256q-30 0 -56.5 13t-48 32t-45.5 38t-62 32t-86 13t-86.5 -13t-62.5 -32t-45.5 -38t-48 -32t-56.5 -13t-56 13t-48 32t-46.5 38t-62.5 32t-86 13q-47 0 -85.5 -13t-63 -32t-46 -38t-47.5 -32t-56 -13q-37 0 -70 20t-56.5 44t-68.5 44t-104 20q-48 0 -86.5 -13
t-62.5 -32t-45.5 -38t-48 -32t-56.5 -13v320q0 80 56 136t136 56h64v576h256v-576h256v576h256v-576h256v576h256v-576h64q80 0 136 -56t56 -136v-320zM1792 -256h-1792v384q48 0 86 13t62.5 32t46 38t48 32t56.5 13t56.5 -13t48 -32t45.5 -38t62.5 -32t86.5 -13
q47 0 85.5 13t63 32t46 38t47.5 32t56 13q37 0 70 -20t56.5 -44t68.5 -44t104 -20q48 0 86 13t62.5 32t46 38t48 32t56.5 13t56 -13t47.5 -32t46 -38t62.5 -32t86 -13v-384zM384 1408q-53 0 -90.5 37.5t-37.5 90.5q0 29 9.5 51t23.5 34t31 28t31 31.5t23.5 44.5t9.5 67
q38 0 83 -74t45 -150q0 -77 -36 -118.5t-92 -41.5zM896 1408q-53 0 -90.5 37.5t-37.5 90.5q0 29 9.5 51t23.5 34t31 28t31 31.5t23.5 44.5t9.5 67q38 0 83 -74t45 -150q0 -77 -36 -118.5t-92 -41.5zM1408 1408q-53 0 -90.5 37.5t-37.5 90.5q0 29 9.5 51t23.5 34t31 28
t31 31.5t23.5 44.5t9.5 67q38 0 83 -74t45 -150q0 -77 -36 -118.5t-92 -41.5z" />
    <glyph glyph-name="chart-area" unicode="CHART&#x2d;AREA" 
d="M2000 256q20 0 34 -14t14 -34v-160q0 -20 -14 -34t-34 -14h-1952q-20 0 -34 14t-14 34v1440q0 20 14 34t34 14h160q20 0 34 -14t14 -34v-1232h1744zM1491 1154q18 12 38.5 6.5t30.5 -25.5l360 -751h-1536v416l347 579q13 22 39 23t41 -19l341 -455z" />
    <glyph glyph-name="chart-pie" unicode="CHART&#x2d;PIE" horiz-adv-x="2176" 
d="M2111 640q29 0 48.5 -21.5t15.5 -49.5q-23 -164 -98.5 -308.5t-193.5 -255.5q-19 -17 -45 -16t-44 19l-632 632h949zM2048 899q2 -27 -17.5 -47t-47.5 -20h-895v895q0 28 20 47.5t47 17.5q236 -16 434.5 -138t320.5 -320.5t138 -434.5zM896 640l623 -623
q21 -20 19.5 -50.5t-25.5 -46.5q-241 -172 -541 -176q-189 -2 -365.5 71t-307 197.5t-211.5 297t-87 361.5q-6 184 55 354t171.5 299.5t265.5 216.5t332 112q28 4 49.5 -15.5t21.5 -48.5v-949z" />
    <glyph glyph-name="chart-line" unicode="CHART&#x2d;LINE" 
d="M1984 256q26 0 45 -19t19 -45v-128q0 -26 -19 -45t-45 -19h-1856q-53 0 -90.5 37.5t-37.5 90.5v1344q0 26 19 45t45 19h128q26 0 45 -19t19 -45v-1216h1728zM1856 1408q26 0 45 -19t19 -45v-472q0 -64 -59.5 -88.5t-104.5 20.5l-130 130l-384 -384q-38 -38 -91 -38
t-90 38l-293 293l-184 -184q-19 -19 -45.5 -19t-45.5 19l-90 90q-19 19 -19 45.5t19 45.5l275 274q38 38 91 38t90 -38l293 -293l293 294l-129 129q-45 45 -20.5 104.5t88.5 59.5h472z" />
    <glyph glyph-name="toggle-off" unicode="TOGGLE&#x2d;OFF" horiz-adv-x="2304" 
d="M1536 1536q209 0 385.5 -103t279.5 -279.5t103 -385.5t-103 -385.5t-279.5 -279.5t-385.5 -103h-768q-209 0 -385.5 103t-279.5 279.5t-103 385.5t103 385.5t279.5 279.5t385.5 103h768zM256 768q0 -212 150 -362t362 -150t362 150t150 362t-150 362t-362 150t-362 -150
t-150 -362zM1536 256q212 0 362 150t150 362t-150 362t-362 150h-196q129 -144 174 -328t0 -368.5t-174 -327.5h196z" />
    <glyph glyph-name="toggle-on" unicode="TOGGLE&#x2d;ON" horiz-adv-x="2304" 
d="M1536 1536q209 0 385.5 -103t279.5 -279.5t103 -385.5t-103 -385.5t-279.5 -279.5t-385.5 -103h-768q-209 0 -385.5 103t-279.5 279.5t-103 385.5t103 385.5t279.5 279.5t385.5 103h768zM1536 256q212 0 362 150t150 362t-150 362t-362 150t-362 -150t-150 -362t150 -362
t362 -150z" />
    <glyph glyph-name="bicycle" unicode="BICYCLE" horiz-adv-x="2560" 
d="M2050 1024q140 0 258 -70.5t186 -190t66 -259.5q-2 -138 -72 -254.5t-188 -183.5t-257 -66q-135 1 -252 71t-186 187.5t-69 252.5q0 110 43.5 208t121.5 170l-60 96l-343 -556q-12 -19 -36 -32t-46 -13h-208q-43 -168 -181 -276t-315 -108q-140 0 -258 69t-186.5 187.5
t-67.5 258.5q1 138 70 255.5t187 185.5t256 68q87 0 172 -30l118 190h-195q-39 0 -67 27.5t-29 66.5q-1 40 28 69t70 29h350q26 0 45 -19t19 -45v-64h454l-59 96h-203q-26 0 -45 19t-19 45v64q0 26 19 45t45 19h256q22 0 46 -13t36 -32l310 -501q90 34 186 34zM747 729
l-95 -153h174q-18 87 -79 153zM512 192q97 0 176.5 53t116.5 139h-325q-56 0 -84 49.5t2 97.5l182 294q-31 7 -68 7q-132 0 -226 -94t-94 -226t94 -226t226 -94zM1163 576l297 480h-511l-99 -160q146 -130 170 -320h143zM2031 192q138 -7 237.5 88t99.5 232q0 132 -94 226
t-226 94q-42 0 -79 -10l177 -287q14 -23 8.5 -48.5t-28.5 -39.5l-55 -33q-23 -14 -48.5 -8.5t-39.5 28.5l-177 287q-83 -95 -78 -222q4 -123 92 -211.5t211 -95.5z" />
    <glyph glyph-name="bus" unicode="BUS" 
d="M1952 1280q40 0 68 -28t28 -68v-320q0 -40 -28 -68t-68 -28h-32v-666q0 -41 -28 -71.5t-74 -30.5h-26v-128q0 -53 -37.5 -90.5t-90.5 -37.5h-128q-53 0 -90.5 37.5t-37.5 90.5v128h-768v-128q0 -53 -37.5 -90.5t-90.5 -37.5h-128q-53 0 -90.5 37.5t-37.5 90.5v128
q-53 0 -90.5 37.5t-37.5 90.5v640h-32q-40 0 -68 28t-28 68v320q0 40 28 68t68 28h32v192q0 88 119 161.5t325 116t452 42.5t452 -42.5t325 -116t119 -161.5v-192h32zM448 192q53 0 90.5 37.5t37.5 90.5t-37.5 90.5t-90.5 37.5t-90.5 -37.5t-37.5 -90.5t37.5 -90.5
t90.5 -37.5zM512 640h1024q53 0 90.5 37.5t37.5 90.5v512q0 53 -37.5 90.5t-90.5 37.5h-1024q-53 0 -90.5 -37.5t-37.5 -90.5v-512q0 -53 37.5 -90.5t90.5 -37.5zM1600 192q53 0 90.5 37.5t37.5 90.5t-37.5 90.5t-90.5 37.5t-90.5 -37.5t-37.5 -90.5t37.5 -90.5t90.5 -37.5z
" />
    <glyph glyph-name="closed-captioning" unicode="CLOSED&#x2d;CAPTIONING" 
d="M1856 1536q80 0 136 -56t56 -136v-1152q0 -80 -56 -136t-136 -56h-1664q-80 0 -136 56t-56 136v1152q0 80 56 136t136 56h1664zM872 641q-48 -44 -101.5 -63t-100 -11.5t-85 32.5t-60.5 71t-22 102q0 89 60 141.5t150 48.5t169 -66q9 -7 19.5 -4.5t16.5 11.5l70 122
q7 12 -4 23q-50 48 -121.5 74.5t-147.5 28t-152 -23t-135.5 -69.5t-96.5 -120.5t-37 -169.5q0 -96 36.5 -174t95 -125t134 -71.5t151.5 -21t149 34t125 85.5q14 14 2 31l-78 111q-6 9 -17.5 10t-19.5 -7zM1634 641q-48 -44 -101.5 -63t-100 -11.5t-85 32.5t-60.5 71t-22 102
q0 89 60 141.5t150 48.5t169 -66q9 -7 19.5 -4.5t16.5 11.5l70 122q7 12 -4 23q-50 48 -121.5 74.5t-147.5 28t-152 -23t-135.5 -69.5t-96.5 -120.5t-37 -169.5q0 -96 36.5 -174t95 -125.5t134 -71.5t151.5 -21t149 33.5t125 86.5q14 14 2 31l-78 111q-6 9 -17.5 10
t-19.5 -7z" />
    <glyph glyph-name="shekel-sign" unicode="SHEKEL&#x2d;SIGN" horiz-adv-x="1792" 
d="M992 1120q0 93 -65.5 158.5t-158.5 65.5h-448v-1408q0 -26 -19 -45t-45 -19h-192q-26 0 -45 19t-19 45v1632q0 40 28 68t68 28h672q148 0 273 -73t198 -198t73 -273v-672q0 -26 -19 -45t-45 -19h-192q-26 0 -45 19t-19 45v672zM1728 1664q26 0 45 -19t19 -45v-1184
q0 -148 -73 -273t-198 -198t-273 -73h-672q-40 0 -68 28t-28 68v1120q0 26 19 45t45 19h192q26 0 45 -19t19 -45v-896h448q93 0 158.5 65.5t65.5 158.5v1184q0 26 19 45t45 19h192z" />
    <glyph glyph-name="cart-plus" unicode="Cart&#x2d;plus" horiz-adv-x="2304" 
d="M2019 512h-1173l26 -128h1074q47 0 75.5 -36t18.5 -81l-22 -97q57 -27 91.5 -81.5t34.5 -120.5q0 -94 -66.5 -159.5t-160.5 -64.5q-89 2 -154 65.5t-67 152.5q-3 98 67 166h-838q67 -65 67 -160q0 -96 -69.5 -162t-165.5 -62q-85 4 -146.5 65t-66.5 147q-4 64 27.5 119
t85.5 87l-281 1374h-280q-40 0 -68 28t-28 68v64q0 40 28 68t68 28h410q34 0 60.5 -21.5t33.5 -55.5l37 -179h1571q47 0 75.5 -36t18.5 -81l-190 -832q-8 -33 -33.5 -54t-59.5 -21zM1632 1120h-192v160q0 26 -19 45t-45 19h-64q-26 0 -45 -19t-19 -45v-160h-192
q-26 0 -45 -19t-19 -45v-64q0 -26 19 -45t45 -19h192v-160q0 -26 19 -45t45 -19h64q26 0 45 19t19 45v160h192q26 0 45 19t19 45v64q0 26 -19 45t-45 19z" />
    <glyph glyph-name="cart-arrow-down" unicode="CART&#x2d;ARROW&#x2d;DOWN" horiz-adv-x="2304" 
d="M2019 512h-1173l26 -128h1074q47 0 75.5 -36t18.5 -81l-22 -97q57 -27 91.5 -81.5t34.5 -120.5q0 -94 -66.5 -159.5t-160.5 -64.5q-89 2 -154 65.5t-67 152.5q-3 98 67 166h-838q67 -65 67 -160q0 -96 -69.5 -162t-165.5 -62q-85 4 -146.5 65t-66.5 147q-4 64 27.5 119
t85.5 87l-281 1374h-280q-40 0 -68 28t-28 68v64q0 40 28 68t68 28h410q34 0 60.5 -21.5t33.5 -55.5l37 -179h1571q47 0 75.5 -36t18.5 -81l-190 -832q-8 -33 -33.5 -54t-59.5 -21zM1612 1024h-172v240q0 20 -14 34t-34 14h-96q-20 0 -34 -14t-14 -34v-240h-172
q-32 0 -44.5 -30t10.5 -52l268 -268q14 -14 34 -14t34 14l268 268q23 22 10.5 52t-44.5 30z" />
    <glyph glyph-name="diamond" unicode="DIAMOND" horiz-adv-x="1792" 
d="M969 1759l800 -928q23 -27 23 -62.5t-23 -62.5l-800 -928q-29 -33 -73 -33t-73 33l-800 928q-23 27 -23 62.5t23 62.5l800 928q29 33 73 33t73 -33z" />
    <glyph glyph-name="ship" unicode="SHIP" horiz-adv-x="2560" 
d="M1986 301q55 -138 178.5 -219.5t299.5 -81.5q40 0 68 -28t28 -68v-64q0 -40 -28 -68t-68 -28q-353 0 -573 238q-44 -106 -140.5 -172t-214.5 -66h-512q-118 0 -214.5 66t-140.5 172q-220 -238 -573 -238q-40 0 -68 28t-28 68v64q0 40 28 68t68 28q178 0 300.5 82
t177.5 219l-281 280q-51 51 -33.5 121t85.5 92l167 54v560q0 53 37.5 90.5t90.5 37.5h256v160q0 40 28 68t68 28h576q40 0 68 -28t28 -68v-160h256q53 0 90.5 -37.5t37.5 -90.5v-560l167 -54q68 -22 85.5 -92t-33.5 -121zM768 1280v-350l473 152q22 6 39 6t39 -6l473 -152
v350h-1024z" />
    <glyph glyph-name="user-secret" unicode="USER&#x2d;SECRET" horiz-adv-x="1792" 
d="M1536 559q117 -73 186.5 -193.5t69.5 -263.5v-179q0 -74 -52.5 -126.5t-126.5 -52.5h-1434q-74 0 -126.5 52.5t-52.5 126.5v179q0 146 73.5 269.5t196.5 194.5l-104 241q-14 32 5.5 60.5t53.5 28.5h230q-71 123 -71 256v1q-120 24 -188 57t-68 70q0 39 74.5 73t205.5 59
q26 93 72 184.5t90 146.5q28 36 73 45.5t85 -10.5l111 -55q57 -29 114 0l111 55q40 20 85 10.5t73 -45.5q44 -55 90 -146.5t72 -184.5q131 -25 205.5 -59t74.5 -73q0 -37 -68 -70t-188 -57v-1q0 -133 -71 -256h234q34 0 53 -27.5t7 -59.5zM704 -128l128 480l-96 160
l-198 128zM1088 -128l166 768l-198 -128l-96 -160zM1255 1066q1 4 7.5 10t11.5 10l6 3v43q-173 -23 -384 -23q-198 0 -384 23v-43q23 -13 26 -23q1 -2 5.5 -17.5t6 -19t6 -17t7 -18.5t7.5 -16t9.5 -17.5t11 -14.5t13.5 -14q11 -11 32 -21t52 -14t61.5 4t61 41t49.5 90
q9 26 37 26t36 -26q18 -54 47 -86.5t59 -42t61 -7t53.5 13t35.5 22.5q11 10 19.5 21t16 29t10.5 24.5t11 32t9 27.5z" />
    <glyph glyph-name="motorcycle" unicode="MOTORCYCLE" horiz-adv-x="2560" 
d="M2052 1024q137 -1 253.5 -69.5t185 -185t69.5 -253.5q1 -141 -68 -260.5t-188 -188t-260 -67.5q-208 2 -357 150.5t-151 357.5q-1 115 47.5 217.5t132.5 175.5l-50 83q-115 -92 -173 -224.5t-52 -275.5q2 -41 -26.5 -70.5t-69.5 -29.5h-337q-43 -167 -181 -275.5
t-315 -108.5q-141 0 -260 70.5t-187 191t-65 262.5q3 133 69.5 246t179 181t244.5 73q87 3 165 -21l45 82q-64 99 -191 99h-224q-39 0 -67 27.5t-29 66.5q-1 40 28 69t70 29h222q154 0 247.5 -42t152.5 -118h614l-76 128h-266q-26 0 -45 19t-19 45v64q0 26 19 45t45 19h320
q53 0 82 -46l92 -152l150 166q29 32 71 32h181q40 0 68 -28t28 -68v-128q0 -40 -28 -68t-68 -28h-330l132 -220q82 28 170 28zM512 192q97 0 176 53t117 139h-325q-55 0 -82.5 47t-1.5 95l166 302q-21 4 -50 4q-132 0 -226 -94t-94 -226t94 -226t226 -94zM2368 494
q7 138 -88 238t-232 100q-27 0 -64 -7l195 -323q13 -22 7 -48t-29 -40l-55 -33q-22 -13 -48 -7t-40 29l-198 329q-88 -91 -88 -220q0 -137 100 -232t238 -88q121 6 208 93t94 209z" />
    <glyph glyph-name="street-view" unicode="STREET&#x2d;VIEW" 
d="M1472 473q260 -47 418 -140t158 -205q0 -104 -137 -192.5t-373 -140t-514 -51.5t-514 51.5t-373 140t-137 192.5q0 112 158 205t418 140q30 -35 64 -55v-91q-202 -28 -325 -81.5t-123 -117.5q0 -61 111 -112.5t303 -81.5t418 -30t418 30t303 81.5t111 112.5
q0 64 -123 117.5t-325 81.5v91q34 20 64 55zM1024 1280q-106 0 -181 75t-75 181t75 181t181 75t181 -75t75 -181t-75 -181t-181 -75zM768 512q-53 0 -90.5 37.5t-37.5 90.5v384q0 80 56 136t136 56h47q70 -32 145 -32t145 32h47q80 0 136 -56t56 -136v-384
q0 -53 -37.5 -90.5t-90.5 -37.5v-384q0 -53 -37.5 -90.5t-90.5 -37.5h-256q-53 0 -90.5 37.5t-37.5 90.5v384z" />
    <glyph glyph-name="heartbeat" unicode="HEARTBEAT" 
d="M1281 817l88 -177h437l-731 -746q-21 -22 -51.5 -22t-51.5 22l-730 746h377l120 287l227 -505q17 -37 57.5 -38t58.5 35zM1895 1496q145 -148 152.5 -359t-123.5 -369h-476l-110 221q-18 35 -57 35t-57 -35l-196 -392l-233 517q-17 38 -59.5 38t-58.5 -39l-143 -345h-410
q-131 158 -123.5 369t152.5 359l10 10q155 158 374.5 158t374.5 -158l112 -114l112 114q101 103 237.5 140t273.5 0t238 -140z" />
    <glyph glyph-name="venus" unicode="VENUS" horiz-adv-x="1152" 
d="M1152 1088q0 -204 -127 -361t-321 -201v-206h144q20 0 34 -14t14 -34v-160q0 -20 -14 -34t-34 -14h-144v-144q0 -20 -14 -34t-34 -14h-160q-20 0 -34 14t-14 34v144h-144q-20 0 -34 14t-14 34v160q0 20 14 34t34 14h144v206q-194 44 -321 201t-127 361q0 117 45.5 223.5
t123 184t184 123t223.5 45.5t223.5 -45.5t184 -123t123 -184t45.5 -223.5zM256 1088q0 -132 94 -226t226 -94t226 94t94 226t-94 226t-226 94t-226 -94t-94 -226z" />
    <glyph glyph-name="mars" unicode="Mars" horiz-adv-x="1536" 
d="M1488 1536q20 0 34 -14t14 -34v-316q0 -32 -30 -44.5t-52 10.5l-68 68l-322 -323q88 -140 88 -307q0 -117 -45.5 -223.5t-123 -184t-184 -123t-223.5 -45.5t-223.5 45.5t-184 123t-123 184t-45.5 223.5t45.5 223.5t123 184t184 123t223.5 45.5q167 0 307 -88l323 322
l-68 68q-23 22 -10.5 52t44.5 30h316zM576 256q132 0 226 94t94 226t-94 226t-226 94t-226 -94t-94 -226t94 -226t226 -94z" />
    <glyph glyph-name="mercury" unicode="MERCURY" horiz-adv-x="1152" 
d="M1152 960q0 -204 -127 -361t-321 -201v-206h144q20 0 34 -14t14 -34v-160q0 -20 -14 -34t-34 -14h-144v-144q0 -20 -14 -34t-34 -14h-160q-20 0 -34 14t-14 34v144h-144q-20 0 -34 14t-14 34v160q0 20 14 34t34 14h144v206q-194 44 -321 201t-127 361q0 130 54.5 245
t150.5 195q-2 1 -13 9.5t-16 13.5q-151 130 -173 316q-3 21 11.5 37t36.5 16h162q17 0 30.5 -11t16.5 -28q16 -78 82 -135q96 -82 234 -82q139 0 233 82q68 58 83 135q3 17 16.5 28t30.5 11h162q22 0 36.5 -16t11.5 -37q-22 -185 -173 -315q-20 -17 -29 -24
q96 -81 150.5 -195.5t54.5 -244.5zM256 960q0 -132 94 -226t226 -94t226 94t94 226t-94 226t-226 94t-226 -94t-94 -226z" />
    <glyph glyph-name="transgender" unicode="Transgender" horiz-adv-x="1536" 
d="M1488 1792q20 0 34 -14t14 -34v-316q0 -32 -30 -44.5t-52 10.5l-68 68l-322 -323q88 -140 88 -307q0 -204 -127 -361t-321 -201v-110h144q20 0 34 -14t14 -34v-160q0 -20 -14 -34t-34 -14h-144v-112q0 -20 -14 -34t-34 -14h-160q-20 0 -34 14t-14 34v112h-144
q-20 0 -34 14t-14 34v160q0 20 14 34t34 14h144v110q-194 44 -321 201t-127 361q0 117 45.5 223.5t123 184t184 123t223.5 45.5q167 0 307 -88l323 322l-68 68q-23 22 -10.5 52t44.5 30h316zM576 512q132 0 226 94t94 226t-94 226t-226 94t-226 -94t-94 -226t94 -226
t226 -94z" />
    <glyph glyph-name="transgender-alt" unicode="TRANSGENDER&#x2d;ALT" horiz-adv-x="1920" 
d="M1872 1792q20 0 34 -14t14 -34v-316q0 -32 -30 -44.5t-52 10.5l-68 68l-322 -323q88 -140 88 -307q0 -204 -127 -361t-321 -201v-110h144q20 0 34 -14t14 -34v-160q0 -20 -14 -34t-34 -14h-144v-112q0 -20 -14 -34t-34 -14h-160q-20 0 -34 14t-14 34v112h-144
q-20 0 -34 14t-14 34v160q0 20 14 34t34 14h144v110q-194 44 -321 201t-127 361q0 166 89 306l-66 66l-79 -79q-14 -14 -34 -14t-34 14l-114 113q-14 14 -14 34t14 34l80 80l-76 76l-68 -68q-22 -23 -52 -10.5t-30 44.5v316q0 20 14 34t34 14h316q32 0 44.5 -30t-10.5 -52
l-68 -67l76 -76l79 79q14 14 34 14t34 -14l113 -113q14 -14 14 -34t-14 -34l-79 -79l66 -66q140 88 307 88t307 -88l323 322l-68 68q-23 22 -10.5 52t44.5 30h316zM960 512q132 0 226 94t94 226t-94 226t-226 94t-226 -94t-94 -226t94 -226t226 -94z" />
    <glyph glyph-name="venus-double" unicode="VENUS&#x2d;DOUBLE" 
d="M1152 1088q0 -204 -127 -361t-321 -201v-206h144q20 0 34 -14t14 -34v-160q0 -20 -14 -34t-34 -14h-144v-144q0 -20 -14 -34t-34 -14h-160q-20 0 -34 14t-14 34v144h-144q-20 0 -34 14t-14 34v160q0 20 14 34t34 14h144v206q-194 44 -321 201t-127 361q0 117 45.5 223.5
t123 184t184 123t223.5 45.5t223.5 -45.5t184 -123t123 -184t45.5 -223.5zM256 1088q0 -132 94 -226t226 -94t226 94t94 226t-94 226t-226 94t-226 -94t-94 -226zM1600 526v-206h144q20 0 34 -14t14 -34v-160q0 -20 -14 -34t-34 -14h-144v-144q0 -20 -14 -34t-34 -14h-160
q-20 0 -34 14t-14 34v144h-144q-20 0 -34 14t-14 34v160q0 20 14 34t34 14h144v206q-125 28 -229 110q88 105 129 228q94 -96 228 -96q132 0 226 94t94 226t-94 226t-226 94q-134 0 -228 -96q-41 123 -129 228q158 124 357 124q117 0 223.5 -45.5t184 -123t123 -184
t45.5 -223.5q0 -204 -127 -361t-321 -201z" />
    <glyph glyph-name="mars-double" unicode="MARS&#x2d;DOUBLE" 
d="M1360 1792q20 0 34 -14t14 -34v-316q0 -21 -14.5 -34.5t-33.5 -13.5q-20 0 -34 14l-68 68l-194 -195q88 -140 88 -307q0 -117 -45.5 -223.5t-123 -184t-184 -123t-223.5 -45.5t-223.5 45.5t-184 123t-123 184t-45.5 223.5t45.5 223.5t123 184t184 123t223.5 45.5
q167 0 307 -88l195 194l-68 68q-23 22 -10.5 52t44.5 30h316zM576 640q132 0 226 94t94 226t-94 226t-226 94t-226 -94t-94 -226t94 -226t226 -94zM2000 1152q20 0 34 -14t14 -34v-316q0 -21 -14.5 -34.5t-33.5 -13.5q-20 0 -34 14l-68 68l-194 -195q88 -140 88 -307
q0 -117 -45.5 -223.5t-123 -184t-184 -123t-223.5 -45.5q-222 0 -386 148.5t-187 367.5q135 12 253 73v-13q0 -132 94 -226t226 -94t226 94t94 226t-94 226t-226 94h-13q62 121 74 253q135 -15 246 -85l195 195l-68 67q-23 22 -10.5 52t44.5 30h316z" />
    <glyph glyph-name="venus-mars" unicode="VENUS&#x2d;MARS" horiz-adv-x="2304" 
d="M2256 1792q20 0 34 -14t14 -34v-316q0 -21 -14.5 -34.5t-33.5 -13.5q-20 0 -34 14l-68 68l-194 -195q88 -140 88 -307q0 -117 -45.5 -223.5t-123 -184t-184 -123t-223.5 -45.5q-201 0 -357 124q88 105 129 228q94 -96 228 -96q132 0 226 94t94 226t-94 226t-226 94
q-134 0 -228 -96q-41 123 -129 228q158 124 357 124q167 0 307 -88l195 194l-68 68q-23 22 -10.5 52t44.5 30h316zM576 1536q117 0 223.5 -45.5t184 -123t123 -184t45.5 -223.5q0 -204 -127 -361t-321 -201v-206h144q20 0 34 -14t14 -34v-160q0 -20 -14 -34t-34 -14h-144
v-144q0 -20 -14 -34t-34 -14h-160q-20 0 -34 14t-14 34v144h-144q-20 0 -34 14t-14 34v160q0 20 14 34t34 14h144v206q-194 44 -321 201t-127 361q0 117 45.5 223.5t123 184t184 123t223.5 45.5zM576 640q132 0 226 94t94 226t-94 226t-226 94t-226 -94t-94 -226t94 -226
t226 -94z" />
    <glyph glyph-name="mars-stroke" unicode="MARS&#x2d;STROKE" horiz-adv-x="1536" 
d="M1488 1536q20 0 34 -14t14 -34v-316q0 -32 -30 -44.5t-52 10.5l-67 68l-70 -70l56 -56q14 -14 14 -34t-14 -34l-113 -114q-14 -14 -34 -14t-34 14l-56 57l-72 -72q88 -140 88 -307q0 -117 -45.5 -223.5t-123 -184t-184 -123t-223.5 -45.5t-223.5 45.5t-184 123t-123 184
t-45.5 223.5t45.5 223.5t123 184t184 123t223.5 45.5q166 0 306 -88l72 72l-56 56q-14 14 -14 34t14 34l113 113q14 14 34 14t34 -14l57 -57l70 70l-68 68q-23 22 -10.5 52t44.5 30h316zM576 256q132 0 226 94t94 226t-94 226t-226 94t-226 -94t-94 -226t94 -226t226 -94z
" />
    <glyph glyph-name="mars-stroke-v" unicode="MARS&#x2d;STROKE&#x2d;V" horiz-adv-x="1152" 
d="M983 855q111 -111 150 -259t0 -296t-150 -259t-259 -150t-296 0t-259 150t-150 259t0 296t150 259q119 119 279 155v101h-80q-20 0 -34 14.5t-14 33.5v160q0 19 14 33.5t34 14.5h80v99h-96q-32 0 -44.5 30t10.5 52l224 224q14 14 34 14t34 -14l224 -224q23 -22 10.5 -52
t-44.5 -30h-96v-99h80q20 0 34 -14.5t14 -33.5v-160q0 -19 -14 -33.5t-34 -14.5h-80v-101q160 -36 279 -155zM802 222q94 94 94 226.5t-94 225.5q-94 94 -226 94t-226 -94t-94 -226t94 -226t226 -94t226 94z" />
    <glyph glyph-name="mars-stroke-h" unicode="MARS&#x2d;STROKE&#x2d;H" horiz-adv-x="1920" 
d="M1905 802q14 -14 14 -34t-14 -34l-223 -224q-22 -23 -52 -10.5t-30 44.5v96h-96v-80q0 -20 -14 -34t-34 -14h-160q-20 0 -34 14t-14 34v80h-110q-36 -160 -155 -279q-111 -111 -259 -150t-296 0t-259 150t-150 259t0 296t150 259t259 150t296 0t259 -150
q119 -119 155 -279h110v80q0 20 14 34t34 14h160q20 0 34 -14t14 -34v-80h95v96q0 32 29.5 44.5t52.5 -10.5zM802 542q94 94 94 226.5t-94 225.5q-94 94 -226 94t-226 -94t-94 -226t94 -226t226 -94t226 94z" />
    <glyph glyph-name="neuter" unicode="NEUTER" horiz-adv-x="1152" 
d="M1152 1088q0 -204 -127 -361t-321 -201v-606q0 -20 -14 -34t-34 -14h-160q-20 0 -34 14t-14 34v606q-194 44 -321 201t-127 361q0 117 45.5 223.5t123 184t184 123t223.5 45.5t223.5 -45.5t184 -123t123 -184t45.5 -223.5zM576 768q132 0 226 94t94 226t-94 226t-226 94
t-226 -94t-94 -226t94 -226t226 -94z" />
    <glyph glyph-name="genderless" unicode="GENDERLESS" horiz-adv-x="1152" 
d="M576 1088q-132 0 -226 -94t-94 -226t94 -226t226 -94t226 94t94 226t-94 226t-226 94zM576 1344q117 0 223.5 -45.5t184 -123t123 -184t45.5 -223.5t-45.5 -223.5t-123 -184t-184 -123t-223.5 -45.5t-223.5 45.5t-184 123t-123 184t-45.5 223.5t45.5 223.5t123 184
t184 123t223.5 45.5z" />
    <glyph glyph-name="server" unicode="SERVER" 
d="M1920 1152h-1792q-53 0 -90.5 37.5t-37.5 90.5v256q0 53 37.5 90.5t90.5 37.5h1792q53 0 90.5 -37.5t37.5 -90.5v-256q0 -53 -37.5 -90.5t-90.5 -37.5zM1728 1504q-40 0 -68 -28t-28 -68t28 -68t68 -28t68 28t28 68t-28 68t-68 28zM1472 1504q-40 0 -68 -28t-28 -68
t28 -68t68 -28t68 28t28 68t-28 68t-68 28zM1920 512h-1792q-53 0 -90.5 37.5t-37.5 90.5v256q0 53 37.5 90.5t90.5 37.5h1792q53 0 90.5 -37.5t37.5 -90.5v-256q0 -53 -37.5 -90.5t-90.5 -37.5zM1728 864q-40 0 -68 -28t-28 -68t28 -68t68 -28t68 28t28 68t-28 68t-68 28z
M1472 864q-40 0 -68 -28t-28 -68t28 -68t68 -28t68 28t28 68t-28 68t-68 28zM1920 -128h-1792q-53 0 -90.5 37.5t-37.5 90.5v256q0 53 37.5 90.5t90.5 37.5h1792q53 0 90.5 -37.5t37.5 -90.5v-256q0 -53 -37.5 -90.5t-90.5 -37.5zM1728 224q-40 0 -68 -28t-28 -68t28 -68
t68 -28t68 28t28 68t-28 68t-68 28zM1472 224q-40 0 -68 -28t-28 -68t28 -68t68 -28t68 28t28 68t-28 68t-68 28z" />
    <glyph glyph-name="user-plus" unicode="USER&#x2d;PLUS" horiz-adv-x="2560" 
d="M2496 960q26 0 45 -19t19 -45v-128q0 -26 -19 -45t-45 -19h-256v-256q0 -26 -19 -45t-45 -19h-128q-26 0 -45 19t-19 45v256h-256q-26 0 -45 19t-19 45v128q0 26 19 45t45 19h256v256q0 26 19 45t45 19h128q26 0 45 -19t19 -45v-256h256zM896 768q-212 0 -362 150
t-150 362t150 362t362 150t362 -150t150 -362t-150 -362t-362 -150zM1254 640q146 0 270 -72t196 -196t72 -270v-166q0 -80 -56 -136t-136 -56h-1408q-80 0 -136 56t-56 136v166q0 146 72 270t196 196t270 72h66q139 -64 292 -64t292 64h66z" />
    </font>
</defs>
</svg>
